# Alias OBJ Model File
# Exported from SketchUp, (c) 2000-2012 Trimble Navigation Limited
# File units = meters

mtllib naturePack_047.mtl

g Mesh1 Group1 Model

usemtl Wood
v 0.2013 0.885988 -0.10065
vt 7.9252 3.9626
vn 6.81388e-017 1 -6.81388e-017
v 2.7987 0.885988 -2.7987
vt 110.185 110.185
v 0.2013 0.885988 -0.2013
vt 7.9252 7.9252
f 1/1/1 2/2/1 3/3/1

v 2.89935 0.885988 -2.7987
vt 114.148 110.185
f 2/2/1 1/1/1 4/4/1

vt 8.40594 34.8814
vn 0.707107 -1.03571e-009 0.707107
v 2.89935 0.63 -2.7987
vt 158.627 24.8031
vt 158.627 34.8814
f 1/5/2 5/6/2 4/7/2

v 0.2013 0.63 -0.10065
vt 8.40594 24.8031
f 5/6/2 1/5/2 6/8/2

v 0.2013 0.63 -0.2013
vt 7.9252 24.8031
vn 1 -1.4647e-009 -3.72525e-009
vt 3.9626 34.8814
vt 3.9626 24.8031
f 7/9/3 1/10/3 6/11/3

vt 7.9252 34.8814
f 1/10/3 7/9/3 3/12/3

vt -155.825 34.8814
vn -0.707107 7.9145e-016 -0.707107
vt -11.2079 24.8031
vt -11.2079 34.8814
f 2/13/4 7/14/4 3/15/4

v 2.7987 0.63 -2.7987
vt -155.825 24.8031
f 7/14/4 2/13/4 8/16/4

vt 110.185 24.8031
vn -1.4345e-014 -5.6402e-015 1
vt 114.148 34.8814
vt 110.185 34.8814
f 8/17/5 4/18/5 2/19/5

vt 114.148 24.8031
f 4/18/5 8/17/5 5/20/5

vt -7.9252 3.9626
vn -6.81388e-017 -1 6.81388e-017
vt -110.185 110.185
vt -114.148 110.185
f 6/21/6 8/22/6 5/23/6

vt -7.9252 7.9252
f 8/22/6 6/21/6 7/24/6

vn 1 -4.61342e-011 -1.1222e-008
v 0.2013 0.475988 -0.2013
vt 7.9252 18.7397
f 6/11/7 9/25/7 7/9/7

v 0.2013 0.475988 -0.10065
vt 3.9626 18.7397
f 9/25/7 6/11/7 10/26/7

f 1/10/7 10/26/7 6/11/7

v 0.2013 0.22 -0.10065
vt 3.9626 8.66142
f 1/10/7 11/27/7 10/26/7

v 0.2013 1.11299 -2.99957e-009
vt 2.91573e-008 43.8186
f 1/10/7 12/28/7 11/27/7

v 0.2013 1.11299 -0.2013
vt 7.9252 43.8186
f 12/28/7 1/10/7 13/29/7

f 13/29/7 1/10/7 3/12/7

vt -7.9252 34.8814
vn -1.49011e-008 7.32527e-017 -1
v 0 1.11299 -0.2013
vt -1.18094e-007 43.8186
vt -7.9252 43.8186
f 3/30/8 14/31/8 13/32/8

vt -7.9252 24.8031
f 7/33/8 14/31/8 3/30/8

vt -7.9252 18.7397
f 9/34/8 14/31/8 7/33/8

v 0.2013 0.22 -0.2013
vt -7.9252 8.66142
f 15/35/8 14/31/8 9/34/8

v 0.2013 5.41434e-016 -0.2013
vt -7.9252 2.07357e-014
f 16/36/8 14/31/8 15/35/8

v 0 5.41434e-016 -0.2013
vt -1.18094e-007 2.07357e-014
f 14/31/8 16/36/8 17/37/8

vn 0 -1 -0
v 2.99958e-009 5.41434e-016 -0
vt -1.18094e-007 0
vt 0 7.9252
f 16/24/9 18/38/9 17/39/9

v 0.2013 5.41434e-016 -2.99957e-009
vt -7.9252 1.18093e-007
f 18/38/9 16/24/9 19/40/9

vt 2.91573e-008 3.65644e-010
vt 7.9252 3.65644e-010
f 11/27/7 19/41/7 16/42/7

f 19/41/7 11/27/7 12/28/7

vn 1.4901e-008 0 1
vt 1.18094e-007 2.13163e-014
vt 7.9252 2.13163e-014
f 12/29/10 18/43/10 19/44/10

v 2.99958e-009 1.11299 -0
vt 1.18094e-007 43.8186
f 18/43/10 12/29/10 20/45/10

vn 0 1 -0
vt 1.18094e-007 0
vt 7.9252 1.18093e-007
f 13/3/11 20/46/11 12/47/11

f 20/46/11 13/3/11 14/39/11

vn -1 0 1.4901e-008
vt 1.75971e-015 2.13163e-014
vt 1.75971e-015 43.8186
f 14/32/12 18/48/12 20/49/12

vt -7.9252 2.13163e-014
f 18/48/12 14/32/12 17/50/12

vt 7.9252 8.66142
f 11/27/7 16/42/7 15/51/7

v 2.7987 0.22 -2.7987
vn -8.51734e-017 -1 8.51734e-017
f 21/22/13 11/21/13 15/24/13

v 2.89935 0.22 -2.7987
f 11/21/13 21/22/13 22/23/13

vt 110.185 8.66142
vn -1.85664e-014 -5.96324e-016 1
v 2.7987 0 -2.7987
vt 110.185 -6.5706e-014
vt 114.148 8.66142
f 21/52/14 23/53/14 22/54/14

vt -110.185 8.66142
vn -1 -7.32527e-017 7.65057e-014
v 2.7987 0 -3
vt -118.11 -8.07135e-015
vt -110.185 -8.07135e-015
f 21/55/15 24/56/15 23/57/15

v 2.7987 1.11299 -3
vt -118.11 43.8186
f 24/56/15 21/55/15 25/58/15

v 2.7987 0.475988 -2.7987
vt -110.185 18.7397
f 26/59/15 25/58/15 21/55/15

vt -110.185 24.8031
f 8/60/15 25/58/15 26/59/15

vt -110.185 34.8814
f 2/61/15 25/58/15 8/60/15

v 2.7987 1.11299 -2.7987
vt -110.185 43.8186
f 25/58/15 2/61/15 27/62/15

v 3 1.11299 -2.7987
vt 118.11 43.8186
vt 110.185 43.8186
f 2/19/14 28/63/14 27/64/14

f 4/18/14 28/63/14 2/19/14

f 5/20/14 28/63/14 4/18/14

v 2.89935 0.475988 -2.7987
vt 114.148 18.7397
f 29/65/14 28/63/14 5/20/14

f 22/54/14 28/63/14 29/65/14

v 3 0 -2.7987
vt 118.11 -6.5706e-014
f 22/54/14 30/66/14 28/63/14

f 30/66/14 22/54/14 23/53/14

v 3 0 -3
vt -118.11 118.11
vt -118.11 110.185
f 23/22/9 31/67/9 30/68/9

vt -110.185 118.11
f 31/67/9 23/22/9 24/69/9

vn 0 0 -1
vt -118.11 0
vt -110.185 0
f 25/62/16 31/70/16 24/71/16

v 3 1.11299 -3
f 31/70/16 25/62/16 32/58/16

vt 110.185 118.11
vt 118.11 110.185
vt 118.11 118.11
f 25/72/11 28/73/11 32/74/11

f 28/73/11 25/72/11 27/2/11

vn 1 0 -0
vt 118.11 0
f 28/64/17 31/75/17 32/63/17

vt 110.185 0
f 31/75/17 28/64/17 30/76/17

vt 8.40594 18.7397
vn 0.707107 1.93009e-022 0.707107
vt 158.627 8.66142
vt 158.627 18.7397
f 10/77/18 22/78/18 29/79/18

vt 8.40594 8.66142
f 22/78/18 10/77/18 11/80/18

f 15/51/17 10/26/17 11/27/17

f 10/26/17 15/51/17 9/25/17

vt -155.825 18.7397
vn -0.707107 3.95725e-016 -0.707107
vt -11.2079 8.66142
vt -11.2079 18.7397
f 26/81/19 15/82/19 9/83/19

vt -155.825 8.66142
f 15/82/19 26/81/19 21/84/19

vn 0 0 1
vt 110.185 18.7397
f 21/52/20 29/65/20 26/85/20

f 29/65/20 21/52/20 22/54/20

vn 8.51734e-017 1 -8.51734e-017
f 9/3/21 29/4/21 26/2/21

f 29/4/21 9/3/21 10/1/21

f 29/65/14 5/20/14 26/85/14

f 8/17/14 26/85/14 5/20/14

