# Alias OBJ Model File
# Exported from SketchUp, (c) 2000-2012 Trimble Navigation Limited
# File units = meters

mtllib naturePack_096.mtl

g Mesh1 Grey_Cliff_Top Model

usemtl Stone
v -0.42 0.29 -3
vt 16.5354 11.4173
vn -5.23224e-016 1.51264e-015 -1
v 0.5 0 -3
vt -19.685 -1.78658e-013
v -0.28 0 -3
vt 11.0236 -1.78658e-013
f 1/1/1 2/2/1 3/3/1

v 0.5 0.29 -3
vt -19.685 11.4173
f 2/2/1 1/1/1 4/4/1

v -0.215291 0.29 -3
vt 8.47601 11.4173
f 4/4/1 1/1/1 5/5/1

vt -8.47601 118.11
vn 0 1 -0
vt -16.5354 118.11
v -0.273829 0.29 -2.38719
vt -10.7807 93.9839
f 5/6/2 1/7/2 6/8/2

vt -117.445 -7.09021
vn -0.880468 -0.425053 0.210014
vt -93.9206 5.52327
vt -118.724 5.52327
f 3/9/3 6/10/3 1/11/3

v -0.133829 0 -2.38719
vt -92.6417 -7.09021
f 6/10/3 3/9/3 7/12/3

vt -19.685 118.11
vn -9.9017e-019 -1 -4.23189e-017
vt 5.26887 93.9839
vt 11.0236 118.11
f 2/13/4 7/14/4 3/15/4

v 0.0826591 0 -1.27492
vt -3.25429 50.1936
f 7/14/4 2/13/4 8/16/4

v 0.5 0 -0
vt -19.685 8.24862e-034
f 9/17/4 8/16/4 2/13/4

v -0.16105 -7.21911e-016 -0.371864
vt 6.34055 14.6403
f 9/17/4 10/18/4 8/16/4

v -0.28 0 -0
vt 11.0236 -4.61922e-034
f 10/18/4 9/17/4 11/19/4

v 0.5 0.29 -0
vt 19.685 11.4173
vn 5.23224e-016 -1.51264e-015 1
vt -11.0236 -8.72462e-030
vt 19.685 1.55797e-029
f 12/20/5 11/21/5 9/22/5

v -0.42 0.29 2.88765e-015
vt -16.5354 11.4173
f 11/21/5 12/20/5 13/23/5

v -0.210938 0.29 2.88765e-015
vt -8.30463 11.4173
f 13/23/5 12/20/5 14/24/5

usemtl Leafs
vt 19.685 0
v -0.0907369 0.29 -0.375774
vt -3.57232 14.7942
vt -8.30463 -1.13687e-013
f 12/25/2 15/26/2 14/27/2

v 0.174238 0.29 -1.26863
vt 6.85978 49.9462
f 15/26/2 12/25/2 16/28/2

vt 19.685 118.11
f 4/29/2 16/28/2 12/25/2

v -0.0673529 0.29 -2.37978
vt -2.65169 93.6923
f 4/29/2 17/30/2 16/28/2

f 17/30/2 4/29/2 5/6/2

usemtl Stone
v -0.204229 0.29 -1.94634
vt -8.04053 76.6275
f 17/30/2 5/6/2 18/31/2

f 6/8/2 18/31/2 5/6/2

v -0.42 0.29 -1.92432
vt -16.5354 75.7604
f 19/32/2 18/31/2 6/8/2

v -0.0573409 0.29 -1.27492
vt -2.25752 50.1936
f 18/31/2 19/32/2 20/33/2

vt -74.2072 1.78117
vn -0.804537 -0.388397 0.449298
vt -42.2364 -10.6089
vt -44.9238 1.78117
f 19/34/6 8/35/6 20/36/6

v -0.28 0 -1.92432
vt -71.5198 -10.6089
f 8/35/6 19/34/6 21/37/6

vt -86.3751 26.5048
vn -0.866206 -0.418168 -0.273537
vt -68.9243 13.9357
vt -67.2646 26.5048
f 6/38/7 21/39/7 19/40/7

vt -88.0349 13.9357
f 21/39/7 6/38/7 7/41/7

vt 11.0236 75.7604
f 8/16/4 21/42/4 7/14/4

v -0.28 0 -0.701031
vt -17.4425 9.09208
vn -0.782685 -0.377848 -0.494606
vt -41.2254 21.4236
vt -44.1698 9.09208
f 22/43/8 20/44/8 8/45/8

v -0.42 0.29 -0.701031
vt -14.4981 21.4236
f 20/44/8 22/43/8 23/46/8

vt -15.9238 0.408251
vn -0.856347 -0.413409 0.309456
vt -31.5765 12.9472
vt -29.7033 0.408251
f 10/47/9 23/48/9 22/49/9

v -0.30105 0.29 -0.371864
vt -17.797 12.9472
f 23/48/9 10/47/9 24/50/9

vt 3.35854 4.3863
vn -0.865363 -0.417761 -0.276808
vt -10.3333 16.9527
vt -12.0125 4.3863
f 11/51/10 24/52/10 10/53/10

vt 5.03782 16.9527
f 24/52/10 11/51/10 13/54/10

vt -11.8524 14.6403
vt -16.5354 -1.13687e-013
f 14/27/2 24/55/2 13/56/2

v -0.199607 0.29 -0.677046
vt -7.85853 26.6553
f 25/57/2 24/55/2 14/27/2

f 20/33/2 24/55/2 25/57/2

vt -16.5354 27.5996
f 24/55/2 20/33/2 23/58/2

f 20/33/2 25/57/2 16/28/2

usemtl Leafs
f 16/28/2 25/57/2 15/26/2

usemtl Stone
f 15/26/2 25/57/2 14/27/2

f 18/31/2 20/33/2 16/28/2

usemtl Leafs
f 16/28/2 17/30/2 18/31/2

usemtl Stone
vt 11.0236 27.5996
f 8/16/4 10/18/4 22/59/4

vt -2.13163e-015 11.4173
vn 1 1.27155e-016 -1.08287e-016
vt 118.11 -2.50305e-015
vt 118.11 11.4173
f 12/60/11 2/61/11 4/62/11

vt -2.13163e-015 -2.50305e-015
f 2/61/11 12/60/11 9/63/11

