# Alias OBJ Model File
# Exported from SketchUp, (c) 2000-2012 Trimble Navigation Limited
# File units = meters

mtllib naturePack_076.mtl

g Mesh1 Group1 Model

usemtl Green_Roof
v 1.73225 1.82871 -3.22
vt -68.1988 71.9963
vn 0 0 -1
v 2.82742 0 -3.22
vt -111.316 0
v 2.52 0 -3.22
vt -99.2126 0
f 1/1/1 2/2/1 3/3/1

v 1.73225 1.8612 -3.22
vt -68.1988 73.2757
f 2/2/1 1/1/1 4/4/1

v 1.68 1.95 -3.22
vt -66.1417 76.7717
f 5/5/1 4/4/1 1/1/1

v 1.73225 2.74713 -3.22
vt -68.1988 108.155
f 6/6/1 4/4/1 5/5/1

v 2.52 1.95 -3.22
vt -99.2126 76.7717
f 7/7/1 4/4/1 6/6/1

v 3.36 0 -3.22
vt -132.283 0
f 8/8/1 4/4/1 7/7/1

f 4/4/1 8/8/1 2/2/1

v 2.74794 0 -3.41505
vt 83.6799 -72.2163
vn 0.813164 0.478484 -0.331387
vt 91.6596 11.2321
vt 75.3875 -72.2163
f 9/9/2 4/10/2 2/11/2

vt 92.4359 15.2134
f 4/10/2 9/9/2 5/12/2

vt -169.615 8.57998
vn -0.626084 -0.269698 -0.73163
vt -134.24 83.3467
vt -132.677 88.3059
f 9/13/3 1/14/3 5/15/3

vt -157.804 8.57998
f 1/14/3 9/13/3 3/16/3

vt -111.316 126.772
vn 0 -1 -0
vt -99.2126 126.772
vt -108.186 134.451
f 2/17/4 3/18/4 9/19/4

usemtl Wood
vn -6.72682e-029 -1.5413e-015 -1
v 1.62775 1.82871 -3.22
vt -64.0846 71.9963
f 1/1/5 10/20/5 5/5/5

v 1.73225 0 -3.22
vt -68.1988 1.95393e-013
f 11/21/5 10/20/5 1/1/5

v 1.62775 0 -3.22
vt -64.0846 1.95393e-013
f 10/20/5 11/21/5 12/22/5

vt -68.1988 126.772
v 1.62775 0 -3.1155
vt -64.0846 122.657
vt -64.0846 126.772
f 11/23/4 13/24/4 12/25/4

v 1.73225 0 -3.1155
vt -68.1988 122.657
f 13/24/4 11/23/4 14/26/4

vt 126.772 0
vn 1 0 -0
v 1.73225 2.74713 -3.1155
vt 122.657 108.155
vt 122.657 0
f 11/27/6 15/28/6 14/29/6

vt 126.772 108.155
f 15/28/6 11/27/6 6/30/6

vt 126.772 71.9963
f 6/30/6 11/27/6 1/31/6

vt 126.772 73.2757
f 6/30/6 1/31/6 4/32/6

usemtl Green_Roof
vt 122.657 28.9904
vn 0.711278 0.70291 3.91153e-015
vt 126.772 -15.1316
vt 126.772 28.9904
f 15/33/7 7/34/7 6/35/7

v 1.68 2.8 -0.1045
vt 4.11417 31.9169
f 16/36/7 7/34/7 15/33/7

v 1.73225 2.74713 -0.1045
vt 4.11417 28.9904
f 17/37/7 7/34/7 16/36/7

v 1.73225 2.74713 -0
vt 3.75046e-013 28.9904
f 18/38/7 7/34/7 17/37/7

v 2.52 1.95 -0
vt 5.456e-013 -15.1316
f 7/34/7 18/38/7 19/39/7

v 1.73225 7.21911e-016 -0
vt 68.1988 2.84217e-014
vn 0 0 1
vt 99.2126 76.7717
vt 68.1988 108.155
f 20/40/8 19/41/8 18/42/8

v 3.36 0 -0
vt 132.283 0
f 19/41/8 20/40/8 21/43/8

vt 3.40824e-013 -52.3345
vn 0.918413 0.395624 2.36626e-015
v 3.18586 0.404243 -0.494903
vt 19.4844 -35.0056
vt 2.55618e-013 31.2572
f 21/44/9 22/45/9 19/46/9

vt 126.772 -52.3345
f 22/45/9 21/44/9 8/47/9

v 3.18586 0.404243 -0.634903
vt 24.9962 -35.0056
f 22/45/9 8/47/9 23/48/9

v 3.13048 0.532821 -0.634903
vt 24.9962 -29.4938
f 23/48/9 8/47/9 24/49/9

v 3.06089 0.694356 -1.17054
vt 46.0842 -22.5692
f 24/49/9 8/47/9 25/50/9

v 3.06089 0.694356 -1.35054
vt 53.1709 -22.5692
f 25/50/9 8/47/9 26/51/9

v 2.98968 0.85967 -1.35054
vt 53.1709 -15.4826
f 26/51/9 8/47/9 27/52/9

vt 126.772 31.2572
f 7/53/9 27/52/9 8/47/9

v 2.98968 0.85967 -1.17054
vt 46.0842 -15.4826
f 7/53/9 28/54/9 27/52/9

v 2.8793 1.11591 -1.03888
vt 40.9006 -4.49838
f 7/53/9 29/55/9 28/54/9

v 2.8793 1.11591 -0.798876
vt 31.4518 -4.49838
f 7/53/9 30/56/9 29/55/9

f 19/46/9 30/56/9 7/53/9

v 3.13048 0.532821 -0.494903
vt 19.4844 -29.4938
f 30/56/9 19/46/9 31/57/9

f 31/57/9 19/46/9 22/45/9

usemtl Leafs
vn 0.918413 0.395624 -1.22892e-016
f 23/48/10 31/57/10 22/45/10

f 31/57/10 23/48/10 24/49/10

usemtl Green_Roof
f 30/56/9 31/57/9 24/49/9

v 2.97425 0.895487 -0.798876
vt 31.4518 -13.9472
f 30/56/9 24/49/9 32/58/9

f 24/49/9 25/50/9 32/58/9

v 2.97425 0.895487 -1.03888
vt 40.9006 -13.9472
f 32/58/9 25/50/9 33/59/9

f 33/59/9 25/50/9 29/55/9

f 28/54/9 29/55/9 25/50/9

usemtl Leafs
vn 0.918413 0.395624 3.95074e-016
f 26/51/11 28/54/11 25/50/11

f 28/54/11 26/51/11 27/52/11

vn 0.918413 0.395624 -4.4727e-016
f 30/56/12 33/59/12 29/55/12

f 33/59/12 30/56/12 32/58/12

usemtl Wood
v 1.73225 7.21911e-016 -0.1045
vt 4.11417 2.84217e-014
vt 0 108.155
vt 0 2.84217e-014
f 34/60/6 18/61/6 20/62/6

vt 4.11417 108.155
f 18/61/6 34/60/6 17/63/6

vt -68.1988 2.84217e-014
v 1.62775 2.74713 -0.1045
vt -64.0846 108.155
f 34/64/1 35/65/1 17/6/1

v 1.62775 7.21911e-016 -0.1045
vt -64.0846 2.84217e-014
f 35/65/1 34/64/1 36/66/1

vt -68.1988 4.11417
v 1.62775 7.21911e-016 -0
vt -64.0846 0
vt -64.0846 4.11417
f 34/67/4 37/68/4 36/69/4

vt -68.1988 0
f 37/68/4 34/67/4 20/70/4

usemtl Green_Roof
vt 64.0846 2.84217e-014
f 18/42/8 37/71/8 20/40/8

v 1.62775 2.74713 -0
vt 64.0846 108.155
f 37/71/8 18/42/8 38/72/8

v 1.68 2.8 -0
vt 66.1417 110.236
f 38/72/8 18/42/8 39/73/8

vn 0.711278 0.70291 3.05081e-014
vt 2.83695e-012 31.9169
vt 2.92518e-012 28.9904
f 17/37/13 39/74/13 18/75/13

f 39/74/13 17/37/13 16/36/13

usemtl Wood
vt -66.1417 110.236
f 17/6/1 35/65/1 16/76/1

usemtl Green_Roof
vt -3.39416e-013 121.974
vn -0.711278 0.70291 -3.76719e-015
vt -4.11417 124.9
vt -4.11417 121.974
f 38/77/14 16/78/14 35/79/14

vt -3.50311e-013 124.9
f 16/78/14 38/77/14 39/80/14

usemtl Wood
v 1.62775 2.884 -0
vt 64.0846 113.543
f 39/73/8 40/81/8 38/72/8

v 1.73225 2.884 -0
vt 68.1988 113.543
f 40/81/8 39/73/8 41/82/8

f 41/82/8 39/73/8 18/42/8

vt 0 113.543
f 17/63/6 41/83/6 18/61/6

v 1.73225 2.884 -0.1045
vt 4.11417 113.543
f 41/83/6 17/63/6 42/84/6

vt -68.1988 113.543
f 16/76/1 42/85/1 17/6/1

v 1.62775 2.884 -0.1045
vt -64.0846 113.543
f 42/85/1 16/76/1 43/86/1

f 43/86/1 16/76/1 35/65/1

usemtl Green_Roof
v 1.68 2.8 -3.1155
vt -122.657 124.9
vn -0.711278 0.70291 -5.16e-015
f 44/87/15 35/79/15 16/78/15

v 1.18903 2.30318 -1.63035
vt -64.1869 97.4011
f 35/79/15 44/87/15 45/88/15

v 1.33896 2.4549 -2.15848
vt -84.9797 105.799
f 45/88/15 44/87/15 46/89/15

v 1.33896 2.4549 -2.40848
vt -94.8222 105.799
f 46/89/15 44/87/15 47/90/15

v 1.16324 2.27708 -2.40848
vt -94.8222 95.9564
f 47/90/15 44/87/15 48/91/15

v 1.13539 2.24891 -2.64101
vt -103.977 94.3967
f 48/91/15 44/87/15 49/92/15

v 1.13539 2.24891 -2.83101
vt -111.457 94.3967
f 49/92/15 44/87/15 50/93/15

v 1.00184 2.11376 -2.83101
vt -111.457 86.9164
f 50/93/15 44/87/15 51/94/15

v 1.62775 2.74713 -3.1155
vt -122.657 121.974
f 52/95/15 51/94/15 44/87/15

v 0.84 1.95 -3.22
vt -126.772 77.8519
f 53/96/15 51/94/15 52/95/15

v 1.00184 2.11376 -2.64101
vt -103.977 86.9164
f 53/96/15 54/97/15 51/94/15

v 0.957069 2.06846 -1.96035
vt -77.179 84.4089
f 53/96/15 55/98/15 54/97/15

v 0.957069 2.06846 -1.63035
vt -64.1869 84.4089
f 53/96/15 56/99/15 55/98/15

v 0.84 1.95 -0
vt -2.39914e-013 77.8519
f 57/100/15 56/99/15 53/96/15

f 57/100/15 35/79/15 56/99/15

vt -4.64905e-013 121.974
f 35/79/15 57/100/15 38/101/15

vt 33.0709 76.7717
f 57/102/8 37/71/8 38/72/8

v 0 0 -0
vt 0 0
f 37/71/8 57/102/8 58/103/8

vt -126.772 83.5917
vn -0.918413 0.395624 -5.88296e-015
vt -2.11838e-013 83.5917
f 53/104/16 58/103/16 57/105/16

v 2.31012e-014 0 -3.22
vt -126.772 3.85534e-014
f 58/103/16 53/104/16 59/106/16

vt -33.0709 76.7717
v 0.532575 0 -3.22
vt -20.9675 0
vt -9.09495e-013 0
f 53/107/1 60/108/1 59/109/1

v 1.62775 1.8612 -3.22
vt -64.0846 73.2757
f 60/108/1 53/107/1 61/110/1

v 1.62775 2.74713 -3.22
f 61/110/1 53/107/1 62/65/1

vt -126.772 121.974
f 53/96/15 52/95/15 62/111/15

vn -0.711278 0.70291 -6.06738e-015
v 1.68 2.8 -3.22
vt -126.772 124.9
f 52/95/17 63/112/17 62/111/17

f 63/112/17 52/95/17 44/87/17

usemtl Wood
v 1.62775 2.884 -3.1155
f 44/73/8 64/81/8 52/72/8

v 1.73225 2.884 -3.1155
f 64/81/8 44/73/8 65/82/8

f 65/82/8 44/73/8 15/42/8

usemtl Green_Roof
vt 122.657 31.9169
f 44/113/7 16/36/7 15/33/7

vn 0.711278 0.70291 3.67015e-015
f 6/35/18 44/113/18 15/33/18

vt 126.772 31.9169
f 44/113/18 6/35/18 63/114/18

f 6/6/1 62/65/1 63/76/1

f 5/5/1 62/65/1 6/6/1

f 62/65/1 5/5/1 61/110/1

f 5/5/1 10/20/1 61/110/1

vt 33.7335 106.543
vn 0.626084 -0.269698 -0.73163
v 0.612065 0 -3.41505
vt 69.1082 31.776
vt 32.1705 111.502
f 10/115/19 66/116/19 5/117/19

v 0.84 0 -3.22
vt 57.2972 31.776
f 66/116/19 10/115/19 67/118/19

vt -33.0709 0
f 67/119/1 61/110/1 10/20/1

f 61/110/1 67/119/1 60/108/1

vt -33.0709 126.772
vt -20.9675 126.772
vt -24.097 134.451
f 67/120/4 60/121/4 66/122/4

vt -141.582 69.8472
vn -0.813164 0.478484 -0.331387
vt -133.603 -13.6012
vt -125.31 -13.6012
f 61/123/20 66/124/20 60/125/20

vt -142.359 73.8284
f 66/124/20 61/123/20 5/126/20

usemtl Wood
vt -126.772 71.9963
vn -1 0 -0
vt -126.772 108.155
vt -126.772 73.2757
f 10/127/21 62/128/21 61/129/21

vt -126.772 0
f 12/130/21 62/128/21 10/127/21

vt -122.657 0
f 13/131/21 62/128/21 12/130/21

vt -122.657 108.155
f 62/128/21 13/131/21 52/132/21

vt 64.0846 0
f 13/133/8 15/42/8 52/72/8

vt 68.1988 0
f 15/42/8 13/133/8 14/134/8

f 52/72/8 15/42/8 44/73/8

v 1.62775 2.884 -3.22
vt -126.772 113.543
f 52/132/21 68/135/21 62/128/21

vt -122.657 113.543
f 68/135/21 52/132/21 64/136/21

vt 68.1988 122.657
vn 0 1 -0
vt 64.0846 126.772
vt 64.0846 122.657
f 65/137/22 68/138/22 64/139/22

v 1.73225 2.884 -3.22
vt 68.1988 126.772
f 68/138/22 65/137/22 69/140/22

vt 122.657 113.543
vt 126.772 113.543
f 65/141/6 6/30/6 69/142/6

f 6/30/6 65/141/6 15/28/6

vn 4.18483e-028 2.18312e-014 -1
f 63/76/23 69/85/23 6/6/23

f 69/85/23 63/76/23 68/86/23

f 68/86/23 63/76/23 62/65/23

vt -4.11417 108.155
f 35/143/21 37/62/21 38/61/21

vt -4.11417 2.84217e-014
f 37/62/21 35/143/21 36/144/21

vt -4.11417 113.543
f 38/61/21 43/145/21 35/143/21

f 43/145/21 38/61/21 40/83/21

vt 64.0846 4.11417
f 41/134/22 43/146/22 40/133/22

vt 68.1988 4.11417
f 43/146/22 41/134/22 42/147/22

usemtl Green_Roof
f 56/99/15 35/79/15 45/88/15

usemtl Leafs
v 1.18903 2.30318 -1.96035
vt -77.179 97.4011
vn -0.711278 0.70291 -3.82191e-016
f 70/148/24 56/99/24 45/88/24

f 56/99/24 70/148/24 55/98/24

usemtl Green_Roof
f 70/148/15 46/89/15 55/98/15

f 45/88/15 46/89/15 70/148/15

v 1.16324 2.27708 -2.15848
vt -84.9797 95.9564
f 71/149/15 55/98/15 46/89/15

f 54/97/15 55/98/15 71/149/15

f 54/97/15 71/149/15 48/91/15

usemtl Leafs
vn -0.711278 0.70291 -5.11569e-016
f 71/149/25 47/90/25 48/91/25

f 47/90/25 71/149/25 46/89/25

usemtl Green_Roof
f 54/97/15 48/91/15 49/92/15

usemtl Leafs
vn -0.711278 0.70291 6.75019e-016
f 50/93/26 54/97/26 49/92/26

f 54/97/26 50/93/26 51/94/26

