# Alias OBJ Model File
# Exported from SketchUp, (c) 2000-2012 Trimble Navigation Limited
# File units = meters

mtllib naturePack_136.mtl

g Mesh1 Rock_5 Model

usemtl Stone
v 0.659335 0.49 -0.264719
vt 25.9581 10.422
vn 0 1 -0
v 0.264719 0.49 -0.438916
vt 10.422 17.2802
v 0.264719 0.49 -0.37872
vt 10.422 14.9102
f 1/1/1 2/2/1 3/3/1

v 0.409184 0.49 -0.735281
vt 16.1096 28.9481
f 2/2/1 1/1/1 4/4/1

v 0.490166 0.49 -0.735281
vt 19.2979 28.9481
f 4/4/1 1/1/1 5/5/1

v 0.735281 0.49 -0.411171
vt 28.9481 16.1878
f 5/5/1 1/1/1 6/6/1

v 0.735281 0.49 -0.264719
vt 28.9481 10.422
f 6/6/1 1/1/1 7/7/1

v 0.621864 0 -0
vt 24.4828 0
vn -0.123031 0.47897 0.869167
vt 28.9481 21.9266
vn 0 0.475315 0.879816
vt 25.9581 21.9266
f 8/8/2 7/9/3 1/10/2

v 1 0 -0
vt 39.3701 0
f 7/9/3 8/8/2 9/11/3

vt -24.4828 0
vn 0 -1 -0
v 1 0 -0.5
vt -39.3701 19.685
vt -39.3701 0
f 8/12/4 10/13/4 9/14/4

v 0.621864 0 -1
vt -24.4828 39.3701
f 8/12/4 11/15/4 10/13/4

v 0.243728 0 -1
vt -9.59557 39.3701
f 8/12/4 12/16/4 11/15/4

v 0 0 -0.17965
vt 0 7.07285
f 13/17/4 12/16/4 8/12/4

v 0 0 -0.5
vt 0 19.685
f 12/16/4 13/17/4 14/18/4

vt -14.9102 21.9266
vn -0.879816 0.475315 -5.22247e-017
vt -19.685 -5.55395e-016
vt -7.07285 -1.99554e-016
f 3/19/5 14/20/5 13/21/5

vt -17.2802 21.9266
f 14/20/5 3/19/5 2/22/5

vt -33.0799 17.8268
vn -0.79086 0.475315 -0.385509
vt -17.6947 -4.09978
vt -20.0996 17.8268
f 4/23/6 14/24/6 2/25/6

vt -39.5939 -4.09978
f 14/24/6 4/23/6 12/26/6

vt -16.1096 3.21338
vn 1.85521e-017 0.475315 -0.879816
vt -24.4828 -18.7132
vt -9.59557 -18.7132
f 4/27/7 11/28/7 12/29/7

vt -19.2979 3.21338
f 11/28/7 4/27/7 5/30/7

vt 11.4483 1.3572
vn 0.701734 0.475315 -0.530702
vt -8.04728 -20.5694
vt 16.6333 -20.5694
f 5/31/8 10/32/8 11/33/8

vt -4.55008 1.3572
f 10/32/8 5/31/8 6/34/8

vt 10.422 3.21338
vn 0.879816 0.475315 -0
vt 19.685 -18.7132
vt 16.1878 3.21338
f 7/35/9 10/36/9 6/37/9

vt 0 -18.7132
f 10/36/9 7/35/9 9/38/9

vt -1.963 3.22976
vn -0.244185 0.475315 0.845251
vt 22.0457 25.1563
vt 5.87439 25.1563
f 13/39/10 1/40/2 3/41/10

vt 23.521 3.22976
f 1/40/2 13/39/10 8/42/2

