# Alias OBJ Model File
# Exported from SketchUp, (c) 2000-2012 Trimble Navigation Limited
# File units = meters

mtllib naturePack_026.mtl

g Mesh1 Group1 Model

usemtl Stone
v 1.2644 0 -0.73
vt -4.61853e-014 -10.7897
vn 0.850631 0.187711 -0.491112
v 0.831341 1.06 -1.07492
vt 20.2851 31.6978
v 1.03048 1.06 -0.73
vt 4.6046 31.6978
f 1/1/1 2/2/1 3/3/1

v 0.948298 0 -1.2775
vt 24.8897 -10.7897
f 2/2/1 1/1/1 4/4/1

v 1.2644 0 -0.365
vt -49.7794 14.3701
vn 0 -1 -0
vt -37.3346 50.2953
vt -49.7794 28.7402
f 5/5/2 4/6/2 1/7/2

v 0.632199 0 -0
vt -24.8897 0
f 6/8/2 4/6/2 5/5/2

v 0.632199 0 -1.46
vt -24.8897 57.4803
f 6/8/2 7/9/2 4/6/2

v 1.44382e-015 0 -1.095
vt -5.68434e-014 43.1102
f 6/8/2 8/10/2 7/9/2

v 0 0 -0.365
vt 0 14.3701
f 8/10/2 6/8/2 9/11/2

v 0.632199 1.06 -0.2701
vt 16.2382 45.418
vn -0.488253 0.215489 0.845679
vt -7.18504 2.68172
vt 21.5551 2.68172
f 10/12/3 9/13/3 6/14/3

v 0.233913 1.06 -0.50005
vt -1.86811 45.418
f 9/13/3 10/12/3 11/15/3

v 0.614923 1.23 -0.367176
vt 13.7382 54.2505
vn -0.457028 0.405587 0.791596
vt -1.86811 46.9283
vt 16.2382 46.9283
f 12/16/4 11/17/4 10/18/4

v 0.308244 1.23 -0.544238
vt -0.203615 54.2505
f 11/17/4 12/16/4 13/19/4

vt 24.2096 14.4558
vn 0 1 -0
v 0.308244 1.23 -0.898361
vt 12.1356 35.3685
vt 12.1356 21.4267
f 12/20/5 14/21/5 13/22/5

v 0.514017 1.23 -1.01716
vt 20.2369 40.0458
f 14/21/5 12/20/5 15/23/5

v 0.805934 1.23 -0.477456
vt 31.7297 18.7975
f 15/23/5 12/20/5 16/24/5

vt 26.872 35.0892
vn 0.438969 0.478775 0.760316
vt 36.8775 42.7126
vt 28.194 42.7126
f 10/25/6 16/26/6 12/27/6

v 0.880264 1.06 -0.413321
vt 38.1493 35.0892
f 16/26/6 10/25/6 17/28/6

vt 26.872 40.0546
vn 0.488253 0.215489 0.845679
v 1.03048 1.06 -0.50005
vt 44.9783 40.0546
vt 38.1493 40.0546
f 10/29/7 18/30/7 17/31/7

vt 21.5551 -2.68172
f 6/32/7 18/30/7 10/29/7

vt 50.2953 -2.68172
f 18/30/7 6/32/7 5/33/7

vt 28.7402 -10.7269
vn 0.976506 0.215489 -0
vt 19.687 32.0094
vt 14.3701 -10.7269
f 1/34/8 18/35/8 5/36/8

vt 28.7402 32.0094
f 18/35/8 1/34/8 3/37/8

vt 40.5702 28.7402
vt 34.6561 16.2725
vt 40.5702 19.687
f 3/38/5 17/39/5 18/40/5

vt 32.73 42.3199
f 2/41/5 17/39/5 3/38/5

v 0.632199 1.06 -1.1899
vt 24.8897 46.8465
f 19/42/5 17/39/5 2/41/5

v 0.501152 1.06 -1.11424
vt 19.7304 43.8677
f 17/39/5 19/42/5 20/43/5

vt -44.9783 34.6911
vn -0.488253 0.215489 -0.845679
v 0.233913 1.06 -0.95995
vt -26.872 34.6911
vt -39.0209 34.6911
f 19/44/9 21/45/9 20/46/9

vt -50.2953 -8.04517
f 7/47/9 21/45/9 19/44/9

vt -21.5551 -8.04517
f 21/45/9 7/47/9 8/48/9

vt -43.1102 -7.19342e-016
vn -0.976506 0.215489 -1.3632e-015
vt -19.687 42.7363
vt -37.7933 42.7363
f 8/49/10 11/50/10 21/51/10

vt -14.3701 -4.32282e-015
f 11/50/10 8/49/10 9/52/10

vt -21.4267 49.2311
vn -0.916246 0.400617 -0
vt -37.7933 41.9264
vt -19.687 41.9264
f 13/53/11 21/54/11 11/55/11

vt -35.3685 49.2311
f 21/54/11 13/53/11 14/56/11

vt -28.194 31.2027
vn -0.441353 0.469927 -0.764445
vt -39.0209 23.6204
vt -26.872 23.6204
f 14/57/12 20/58/12 21/59/12

vt -37.5486 31.2027
f 20/58/12 14/57/12 15/60/12

vt 1.4386 40.0335
vn 0.861645 0.20092 -0.466046
vt 29.1986 33.2012
vt 25.5959 40.0335
f 16/61/13 20/62/13 15/63/13

vt -2.17458 33.2012
f 20/62/13 16/61/13 17/64/13

vt 1.86811 29.3277
vn 0.488253 0.215489 -0.845679
vt -7.18504 -13.4086
vt 7.18504 -13.4086
f 19/65/14 4/66/14 7/67/14

vt -7.18504 29.3277
f 4/66/14 19/65/14 2/68/14

