# Alias OBJ Model File
# Exported from SketchUp, (c) 2000-2012 Trimble Navigation Limited
# File units = meters

mtllib naturePack_138.mtl

g Mesh1 Fallen_Trunk Model

usemtl Wood
v 2.19 0.7952 -0
vt 80.831 31.3071
vn -0.348008 -5.73531e-018 0.937491
v 1.86 3.31356e-017 -0.1225
vt 66.9726 1.13246e-015
v 2.19 3.31356e-017 -0
vt 80.831 1.13246e-015
f 1/1/1 2/2/1 3/3/1

v 1.86 0.71 -0.1225
vt 66.9726 27.9528
f 2/2/1 1/1/1 4/4/1

vt -3.3006e-016 91.3092
vn -0.249985 0.96825 -9.56965e-019
v 1.86 0.71 -0.8225
vt -32.3819 77.8911
vt -4.82283 77.8911
f 1/5/2 5/6/2 4/7/2

v 2.19 0.7952 -0.945
vt -37.2047 91.3092
f 5/6/2 1/5/2 6/8/2

usemtl Light_Wood
vt 0 31.3071
vn 1 -7.79321e-017 -0
v 2.19 0.696053 -0.119507
vt 4.70501 27.4037
vt 37.2047 31.3071
f 1/9/3 7/10/3 6/11/3

v 2.19 0.0991468 -0.119507
vt 4.70501 3.90342
f 7/10/3 1/9/3 8/12/3

vt 0 8.02389e-015
f 3/13/3 8/12/3 1/9/3

v 2.19 3.31356e-017 -0.945
vt 37.2047 8.02389e-015
f 8/12/3 3/13/3 9/14/3

usemtl Wood
vt -73.2283 4.82283
vn -6.07184e-031 -1 2.5355e-049
vt -86.2205 37.2047
vt -86.2205 -3.30769e-064
f 2/15/4 9/16/4 3/17/4

v 1.86 3.31356e-017 -0.8225
vt -73.2283 32.3819
f 9/16/4 2/15/4 10/18/4

v 0.41 3.31356e-017 -0.154
vt -16.1417 6.06299
vn 2.74909e-031 -1 -0
f 11/19/5 10/18/5 2/15/5

v 0.41 3.31356e-017 -0.791
vt -16.1417 31.1417
f 10/18/5 11/19/5 12/20/5

v 0 0 -0.074375
vt 0 2.92815
vn 8.08185e-017 -1 2.50688e-033
f 13/21/6 12/20/6 11/19/6

v 0 0 -0.870625
vt 0 34.2766
f 12/20/6 13/21/6 14/22/6

usemtl Light_Wood
vt -2.92815 0
vn -1 -7.34713e-018 -0
v 1.01068e-014 0.0876387 -0.175071
vt -6.89256 3.45034
vt -34.2766 0
f 13/23/7 15/24/7 14/25/7

v 1.01068e-014 0.615261 -0.175071
vt -6.89256 24.2229
f 15/24/7 13/23/7 16/26/7

v 0 0.7029 -0.074375
vt -2.92815 27.6732
f 17/27/7 16/26/7 13/23/7

v 0 0.7029 -0.870625
vt -34.2766 27.6732
f 16/26/7 17/27/7 18/28/7

usemtl Wood
v 0.41 0.639 -0.154
vt 6.06299 -12.0751
vn 0.153995 0.988072 4.4369e-018
vt 34.2766 4.26153
vt 2.92815 4.26153
f 19/29/8 18/30/8 17/31/8

v 0.41 0.639 -0.791
vt 31.1417 -12.0751
f 18/30/8 19/29/8 20/32/8

vt -4.82283 74.5078
vn -0.0489069 0.998803 -0
vt -31.1417 17.3528
vt -6.06299 17.3528
f 4/33/9 20/34/9 19/35/9

vt -32.3819 74.5078
f 20/34/9 4/33/9 5/36/9

vt 4.82283 27.9528
vn 1 0 -0
v 1.86 0.621476 -0.211024
vt 8.30803 24.4676
vt 32.3819 27.9528
f 4/37/10 21/38/10 5/39/10

v 1.86 0.0885239 -0.211024
vt 8.30803 3.48519
f 21/38/10 4/37/10 22/40/10

vt 4.82283 1.30455e-015
f 2/41/10 22/40/10 4/37/10

vt 32.3819 1.30455e-015
f 22/40/10 2/41/10 10/42/10

v 1.86 0.0885239 -0.733976
vt 28.8967 3.48519
f 22/40/10 10/42/10 23/43/10

v 1.86 0.621476 -0.733976
vt 28.8967 24.4676
f 23/43/10 10/42/10 24/44/10

f 5/39/10 24/44/10 10/42/10

f 5/39/10 21/38/10 24/44/10

v 2.19 0.696053 -0.825493
vt 32.4997 90.1403
vn 0.220432 -0.975402 -4.35352e-018
vt 8.30803 76.8205
vt 28.8967 76.8205
f 25/45/11 21/46/11 24/47/11

vt 4.70501 90.1403
f 21/46/11 25/45/11 7/48/11

usemtl Light_Wood
vt 32.4997 27.4037
f 6/11/3 7/10/3 25/49/3

f 6/11/3 25/49/3 9/14/3

v 2.19 0.0991468 -0.825493
vt 32.4997 3.90342
f 26/50/3 9/14/3 25/49/3

f 8/12/3 9/14/3 26/50/3

usemtl Wood
vt -28.8967 73.3026
vn -0.0321738 0.999482 2.90295e-019
vt -4.70501 86.3014
vt -32.4997 86.3014
f 23/51/12 8/52/12 26/53/12

vt -8.30803 73.3026
f 8/52/12 23/51/12 22/54/12

v 0.41 0.0796715 -0.710443
vt -27.9702 16.1606
vn -0.00610498 0.999981 -6.75648e-019
vt -8.30803 73.2483
vt -28.8967 73.2483
f 27/55/13 22/56/13 23/57/13

v 0.41 0.0796715 -0.234557
vt -9.23452 16.1606
f 22/56/13 27/55/13 28/58/13

v 1.01068e-014 0.0876387 -0.769929
vt 30.3122 0.0670346
vn 0.0194284 0.999811 3.883e-019
vt 9.23452 -16.0777
vt 27.9702 -16.0777
f 29/59/14 28/60/14 27/61/14

vt 6.89256 0.0670346
f 28/60/14 29/59/14 15/62/14

usemtl Light_Wood
vt -30.3122 3.45034
f 14/25/7 15/24/7 29/63/7

f 14/25/7 29/63/7 18/28/7

v 1.01068e-014 0.615261 -0.769929
vt -30.3122 24.2229
f 30/64/7 18/28/7 29/63/7

f 16/26/7 18/28/7 30/64/7

usemtl Wood
v 0.41 0.559328 -0.710443
vt -27.9702 -13.017
vn -0.13517 -0.990822 -2.62277e-018
vt -6.89256 3.2742
vt -30.3122 3.2742
f 31/65/15 16/66/15 30/67/15

v 0.41 0.559328 -0.234557
vt -9.23452 -13.017
f 16/66/15 31/65/15 32/68/15

vt 28.8967 74.2089
vn 0.0428211 -0.999083 5.48641e-018
vt 9.23452 17.0699
vt 27.9702 17.0699
f 24/69/16 32/70/16 31/71/16

vt 8.30803 74.2089
f 32/70/16 24/69/16 21/72/16

vt -73.0839 3.48519
vn 0.0162274 -2.10106e-018 -0.999868
vt -15.9898 22.0208
vt -73.0839 24.4676
f 22/73/17 32/74/17 21/75/17

vt -15.9898 3.13667
f 32/74/17 22/73/17 28/76/17

vt -0.989661 3.45034
vn -0.143584 0 -0.989638
vt -17.3004 22.0208
vt -17.3004 3.13667
f 15/77/18 32/78/18 28/79/18

vt -0.989661 24.2229
f 32/78/18 15/77/18 16/80/18

vt -9.23452 3.13667
vn -1 -8.08185e-017 -0
vt -6.06299 1.67633e-029
vt -9.23452 22.0208
f 28/81/19 11/82/19 32/83/19

vt -31.1417 1.67633e-029
f 11/82/19 28/81/19 12/84/19

vt -27.9702 3.13667
f 12/84/19 28/81/19 27/85/19

vt -31.1417 25.1575
f 12/84/19 27/85/19 20/86/19

vt -27.9702 22.0208
f 31/87/19 20/86/19 27/85/19

f 32/83/19 20/86/19 31/87/19

vt -6.06299 25.1575
f 32/83/19 19/88/19 20/86/19

f 19/88/19 32/83/19 11/82/19

vt 0.558238 27.6732
vn 0.190645 0 0.981659
vt 17.0016 1.30455e-015
vt 17.0016 25.1575
f 17/89/20 11/90/20 19/91/20

vt 0.558238 0
f 11/90/20 17/89/20 13/92/20

vt 73.1063 1.28937e-015
vn -0.021719 -2.36746e-018 0.999764
vt 16.0062 25.1575
vt 16.0062 1.28937e-015
f 2/93/21 19/94/21 11/95/21

vt 73.1063 27.9528
f 19/94/21 2/93/21 4/96/21

vt 11.9584 22.0208
vn -0.143584 3.28739e-018 0.989638
vt -4.35234 3.45034
vt 11.9584 3.13667
f 31/97/22 29/98/22 27/99/22

vt -4.35234 24.2229
f 29/98/22 31/97/22 30/100/22

vt 73.6876 3.48519
vn 0.0162274 -1.40071e-018 0.999868
vt 16.5935 22.0208
vt 16.5935 3.13667
f 23/101/23 31/102/23 27/103/23

vt 73.6876 24.4676
f 31/102/23 23/101/23 24/104/23

vt 91.7698 3.90342
vn 0.267237 7.84696e-018 0.963631
vt 78.2874 24.4676
vt 78.2874 3.48519
f 26/105/24 24/106/24 23/107/24

vt 91.7698 27.4037
f 24/106/24 26/105/24 25/108/24

vt -9.90865 1.30455e-015
vn 0.190645 0 -0.981659
vt 6.53467 27.6732
vt -9.90865 25.1575
f 12/109/25 18/110/25 20/111/25

vt 6.53467 0
f 18/110/25 12/109/25 14/112/25

v 0.808992 0.154074 -0.799668
vt -32.5263 6.06589
vn -0.021719 1.18373e-018 -0.999764
vt -16.8143 1.26811e-015
vt -16.8143 25.1575
f 33/113/26 12/114/26 20/115/26

vt -73.9144 1.26811e-015
f 12/114/26 33/113/26 10/116/26

v 1.16229 0.154074 -0.807343
vt -46.4389 6.06589
f 34/117/26 10/116/26 33/113/26

vt -73.9144 27.9528
f 10/116/26 34/117/26 5/118/26

v 1.16229 0.474074 -0.807343
vt -46.4389 18.6643
f 5/118/26 34/117/26 35/119/26

v 0.922896 0.205274 -1.17505
vt 18.9459 8.08163
vn 0.838049 -3.92733e-017 -0.545594
vt 1.67151 18.6643
vt 1.67151 6.06589
f 36/120/27 35/121/27 34/122/27

v 0.922896 0.422874 -1.17505
vt 18.9459 16.6486
f 35/121/27 36/120/27 37/123/27

usemtl Light_Wood
vt -37.3307 8.08163
vn -0.021719 6.87745e-031 -0.999764
v 0.718944 0.422874 -1.17062
vt -29.2992 16.6486
vt -37.3307 16.6486
f 36/124/28 38/125/28 37/126/28

v 0.718944 0.205274 -1.17062
vt -29.2992 8.08163
f 38/125/28 36/124/28 39/127/28

usemtl Wood
vt -37.3307 46.1387
vn -0.00295495 -0.990701 -0.136021
vt -32.5263 31.3228
vt -29.2992 46.1387
f 36/128/29 33/129/29 39/130/29

vt -46.4389 31.3228
f 33/129/29 36/128/29 34/131/29

vt -23.0813 6.06589
vn -0.971779 -6.04341e-018 0.235894
vt -38.1099 16.6486
vt -38.1099 8.08163
f 33/132/30 38/133/30 39/134/30

v 0.808992 0.474074 -0.799668
vt -23.0813 18.6643
f 38/133/30 33/132/30 40/135/30

vt -32.5263 18.6643
f 33/113/26 20/115/26 40/136/26

f 40/136/26 20/115/26 35/119/26

f 5/118/26 35/119/26 20/115/26

vt -37.3307 -42.7741
vn -0.00295495 0.990701 -0.136021
vt -32.5263 -27.9582
vt -46.4389 -27.9582
f 37/137/31 40/138/31 35/139/31

vt -29.2992 -42.7741
f 40/138/31 37/137/31 38/140/31

vt -93.7785 31.3071
vn -0.348008 -2.86765e-018 -0.937491
vt -79.9201 1.31853e-015
vt -79.9201 27.9528
f 6/141/32 10/142/32 5/143/32

vt -93.7785 1.31853e-015
f 10/142/32 6/141/32 9/144/32

vt -68.3449 24.4676
vn 0.267237 5.23131e-018 -0.963631
vt -81.8273 3.90342
vt -68.3449 3.48519
f 21/145/33 8/146/33 22/147/33

vt -81.8273 27.4037
f 8/146/33 21/145/33 7/148/33

