# Alias OBJ Model File
# Exported from SketchUp, (c) 2000-2012 Trimble Navigation Limited
# File units = meters

mtllib naturePack_flat_011.mtl

g Mesh1 Flower_Tall_Red Model

usemtl Green_leafs
v 0.26837 0 -0.242963
vt 9.56547 0
vn 1 0 -0
v 0.26837 0.36 -0.217556
vt 8.5652 14.1732
v 0.26837 0 -0.217556
vt 8.5652 0
f 1/1/1 2/2/1 3/3/1

v 0.26837 0.36 -0.26837
vt 10.5657 14.1732
f 2/2/1 1/1/1 4/4/1

vn -1 -0 0
f 3/3/2 2/2/2 1/1/2

vn 0 0 1
v 0.242963 0 -0.217556
vt 10.5657 0
f 2/4/3 5/1/3 3/5/3

v 0.217556 0 -0.217556
f 5/1/3 2/4/3 6/3/3

vn -0 -0 -1
f 3/5/4 5/1/4 2/4/4

vt -9.56547 8.5652
vn 0 -1 -0
v 0.242963 0 -0.26837
vt -9.56547 10.5657
vt -10.5657 8.5652
f 5/6/5 7/7/5 3/8/5

vt -8.5652 8.5652
f 6/9/5 7/7/5 5/6/5

v 0.217556 0 -0.242963
vt -8.5652 9.56547
f 8/10/5 7/7/5 6/9/5

v 0.217556 0 -0.26837
vt -8.5652 10.5657
f 7/7/5 8/10/5 9/11/5

vn -0 1 0
f 9/11/6 8/10/6 7/7/6

vt -9.56547 0
vn -1 0 -0
v 0.217556 0.36 -0.26837
vt -10.5657 14.1732
vt -10.5657 0
f 8/12/7 10/13/7 9/14/7

vt -8.5652 0
f 6/15/7 10/13/7 8/12/7

v 0.217556 0.36 -0.217556
vt -8.5652 14.1732
f 10/13/7 6/15/7 11/16/7

vn 1 -0 0
f 11/16/8 6/15/8 10/13/8

f 6/3/3 2/4/3 11/2/3

f 6/3/4 2/4/4 5/1/4

f 11/2/4 2/4/4 6/3/4

usemtl Mushroom_Red
v 0.321713 0.36 -0.164213
vt -12.6659 6.46507
f 12/17/5 11/9/5 2/8/5

v 0.164213 0.36 -0.164213
vt -6.46507 6.46507
f 13/18/5 11/9/5 12/17/5

f 11/9/5 13/18/5 10/11/5

usemtl Green_leafs
f 12/17/6 11/9/6 13/18/6

f 2/8/6 11/9/6 12/17/6

usemtl Mushroom_Red
v 0.321713 0.36 -0.321713
vt -12.6659 12.6659
f 12/17/5 2/8/5 14/19/5

usemtl Green_leafs
f 14/19/6 2/8/6 12/17/6

usemtl Mushroom_Red
vt -10.5657 10.5657
f 4/20/5 14/19/5 2/8/5

f 10/11/5 14/19/5 4/20/5

v 0.164213 0.36 -0.321713
vt -6.46507 12.6659
f 10/11/5 15/21/5 14/19/5

f 15/21/5 10/11/5 13/18/5

usemtl Green_leafs
f 13/18/6 10/11/6 15/21/6

f 10/11/6 13/18/6 11/9/6

f 14/19/6 15/21/6 10/11/6

usemtl Mushroom_Red
v 0.131925 0.54 -0.354
vt -5.19391 23.3865
vn 4.79375e-018 -0.176557 -0.98429
vt -12.6659 16.1868
vt -6.46507 16.1868
f 16/22/9 14/23/9 15/24/9

v 0.354 0.54 -0.354
vt -13.937 23.3865
f 14/23/9 16/22/9 17/25/9

usemtl Green_leafs
vn -4.79375e-018 0.176557 0.98429
f 15/24/10 14/23/10 16/22/10

f 17/25/10 16/22/10 14/23/10

usemtl Mushroom_Red
vt 5.19391 13.937
vn 0 1 -0
v 0.354 0.54 -0.131925
vt 13.937 5.19391
vt 13.937 13.937
f 16/26/11 18/27/11 17/28/11

v 0.131925 0.54 -0.131925
vt 5.19391 5.19391
f 18/27/11 16/26/11 19/29/11

usemtl Green_leafs
vn -0 -1 0
f 19/29/12 16/26/12 18/27/12

usemtl Mushroom_Red
vt -13.937 20.0088
vn -0.98429 -0.176557 -4.04472e-018
vt -6.46507 12.8091
vt -5.19391 20.0088
f 16/30/13 13/31/13 19/32/13

vt -12.6659 12.8091
f 13/31/13 16/30/13 15/33/13

usemtl Green_leafs
vn 0.98429 0.176557 4.04472e-018
f 19/32/14 13/31/14 16/30/14

usemtl Mushroom_Red
vt 6.46507 12.8091
vn 9.07388e-018 -0.176557 0.98429
vt 13.937 20.0088
vt 5.19391 20.0088
f 13/34/15 18/35/15 19/36/15

vt 12.6659 12.8091
f 18/35/15 13/34/15 12/37/15

usemtl Green_leafs
vn -9.07388e-018 0.176557 -0.98429
f 12/37/16 13/34/16 18/35/16

f 19/36/16 18/35/16 13/34/16

usemtl Mushroom_Red
vt 6.46507 16.1868
vn 0.98429 -0.176557 2.35407e-019
vt 13.937 23.3865
vt 5.19391 23.3865
f 12/38/17 17/39/17 18/40/17

vt 12.6659 16.1868
f 17/39/17 12/38/17 14/41/17

usemtl Green_leafs
vn -0.98429 0.176557 -2.35407e-019
f 18/40/18 17/39/18 12/38/18

f 17/28/12 18/27/12 16/26/12

f 14/41/18 12/38/18 17/39/18

f 15/33/14 16/30/14 13/31/14

f 4/20/6 14/19/6 10/11/6

f 2/8/6 14/19/6 4/20/6

f 4/4/2 1/1/2 2/2/2

v 0.26837 0 -0.26837
f 4/4/1 1/1/1 20/5/1

f 20/5/2 1/1/2 4/4/2

vt -10.5657 9.56547
f 3/8/5 20/20/5 1/42/5

f 3/8/5 7/7/5 20/20/5

f 3/8/6 7/7/6 5/6/6

f 20/20/6 7/7/6 3/8/6

vn 0 0 -1
f 7/12/19 10/16/19 20/14/19

f 10/16/19 7/12/19 9/15/19

vn -0 -0 1
f 9/15/20 7/12/20 10/16/20

f 20/14/20 10/16/20 7/12/20

f 20/14/19 10/16/19 4/13/19

f 4/13/20 10/16/20 20/14/20

f 9/14/8 10/13/8 8/12/8

f 8/12/8 10/13/8 6/15/8

f 6/9/6 7/7/6 8/10/6

f 5/6/6 7/7/6 6/9/6

f 1/42/6 20/20/6 3/8/6

g Mesh2 Flower_Tall_Red Model

v 0.26837 0.107776 -0.242963
vt -10.5657 4.24315
v 0.447925 0 -0.242963
vt -17.6348 0
f 21/43/19 22/44/19 1/14/19

v 0.485926 0.210877 -0.242963
vt -19.1309 8.30223
f 22/44/19 21/43/19 23/45/19

f 1/14/20 22/44/20 21/43/20

f 23/45/20 21/43/20 22/44/20

g Mesh3 Flower_Tall_Red Model

v 0.242963 0 -0.447925
vt 17.6348 -1.92569e-015
vn 1 2.01317e-016 1.49012e-008
v 0.242963 0.107776 -0.26837
vt 10.5657 4.24315
vt 10.5657 -1.92569e-015
f 24/46/21 25/47/21 7/48/21

v 0.242963 0.210877 -0.485926
vt 19.1309 8.30223
f 25/47/21 24/46/21 26/49/21

vn -1 -2.01317e-016 -1.49012e-008
f 7/48/22 25/47/22 24/46/22

f 26/49/22 24/46/22 25/47/22

g Mesh4 Flower_Tall_Red Model

v 0.242963 0 -0.0380007
vt 1.49609 1.90172e-015
vn 1 -1.98811e-016 1.49012e-008
v 0.242963 0.107776 -0.217556
vt 8.5652 4.24315
v 0.242963 0.210877 -0
vt 1.42537e-007 8.30223
f 27/50/23 28/51/23 29/52/23

vt 8.5652 1.90172e-015
f 28/51/23 27/50/23 5/53/23

vn -1 1.98811e-016 -1.49012e-008
f 29/52/24 28/51/24 27/50/24

f 5/53/24 27/50/24 28/51/24

g Mesh5 Flower_Tall_Red Model

v 0 0.210877 -0.242963
vt 0 8.30223
v 0.0380007 0 -0.242963
vt -1.49609 0
f 30/54/19 8/15/19 31/55/19

v 0.217556 0.107776 -0.242963
vt -8.5652 4.24315
f 8/15/19 30/54/19 32/56/19

f 31/55/20 8/15/20 30/54/20

f 32/56/20 30/54/20 8/15/20

