# Alias OBJ Model File
# Exported from SketchUp, (c) 2000-2012 Trimble Navigation Limited
# File units = meters

mtllib naturePack_099.mtl

g Mesh1 Grey_Cliff_Bottom_Green_Top Model

usemtl Stone
v -0.28 2.2 -3
vt 11.0236 86.6142
vn 8.54817e-017 1.90889e-029 -1
v 0.5 0 -3
vt -19.685 -2.2546e-027
v -0.64 -6.39876e-018 -3
vt 25.1969 -2.5192e-016
f 1/1/1 2/2/1 3/3/1

v 0.5 2.2 -3
vt -19.685 86.6142
f 2/2/1 1/1/1 4/4/1

usemtl Leafs
v -0.133829 2.2 -2.38719
vt -5.26887 93.9839
vn -4.8284e-017 1 3.10356e-017
vt 19.685 118.11
vt -11.0236 118.11
f 5/5/2 4/6/2 1/7/2

v 0.0826591 2.2 -1.27492
vt 3.25429 50.1936
f 4/6/2 5/5/2 6/8/2

v -0.28 2.2 -1.92432
vt -11.0236 75.7604
f 6/8/2 5/5/2 7/9/2

usemtl Stone
vt -88.0349 80.4406
vn -0.942182 0.154175 -0.297529
v -0.64 1.80478e-016 -1.92432
vt -64.6564 -7.22172
vt -68.9243 80.4406
f 5/10/3 8/11/3 7/12/3

v -0.493829 0 -2.38719
vt -83.7669 -7.22172
f 8/11/3 5/10/3 9/13/3

vt -117.445 88.1595
vn -0.960619 0.157192 0.229132
vt -95.9302 0.45496
vt -92.6417 88.1595
f 1/14/4 9/15/4 5/16/4

vt -120.733 0.45496
f 9/15/4 1/14/4 3/17/4

vt -19.685 118.11
vn -1.46071e-018 -1 -4.23319e-017
vt 19.4421 93.9839
vt 25.1969 118.11
f 2/18/5 9/19/5 3/20/5

v -0.277341 1.80478e-016 -1.27492
vt 10.9189 50.1936
f 9/19/5 2/18/5 10/21/5

v 0.5 0 -0
vt -19.685 1.21722e-033
f 11/22/5 10/21/5 2/18/5

v -0.52105 -5.41434e-016 -0.371864
vt 20.5138 14.6403
f 11/22/5 12/23/5 10/21/5

v -0.64 -6.39876e-018 -0
vt 25.1969 -1.22223e-032
f 12/23/5 11/22/5 13/24/5

vt 19.685 -2.60984e-044
vn -8.54817e-017 -1.55098e-029 1
v -0.28 2.2 -0
vt -11.0236 86.6142
vt -25.1969 -2.5192e-016
f 11/25/6 14/26/6 13/27/6

v 0.5 2.2 -0
vt 19.685 86.6142
f 14/26/6 11/25/6 15/28/6

vt 118.11 -2.50305e-015
vn 1 1.27155e-016 -1.08287e-016
vt -2.13163e-015 86.6142
vt -2.13163e-015 -2.50305e-015
f 2/29/7 15/30/7 11/31/7

vt 118.11 86.6142
f 15/30/7 2/29/7 4/32/7

usemtl Leafs
vt 19.685 2.68813e-015
f 4/6/2 6/8/2 15/33/2

v -0.16105 2.2 -0.371864
vt -6.34055 14.6403
f 16/34/2 15/33/2 6/8/2

vt -11.0236 2.68813e-015
f 15/33/2 16/34/2 14/35/2

usemtl Stone
vt -12.0125 83.9641
vn -0.941097 0.153998 -0.301034
vt 7.67667 -3.69578
vt 3.35854 83.9641
f 16/36/8 13/37/8 14/38/8

vt -7.6944 -3.69578
f 13/37/8 16/36/8 12/39/8

v -0.28 2.2 -0.701031
vt -29.7033 85.4561
vn -0.929534 0.152106 0.335903
vt -20.7406 -2.17771
vt -15.9238 85.4561
f 17/40/9 12/41/9 16/42/9

v -0.64 1.80478e-016 -0.701031
vt -34.5202 -2.17771
f 12/41/9 17/40/9 18/43/9

vt -44.1698 82.5
vn -0.837379 0.137026 -0.529169
vt -9.8711 -4.93898
vt -17.4425 82.5
f 6/44/10 18/45/10 17/46/10

vt -36.5984 -4.93898
f 18/45/10 6/44/10 10/47/10

vt -71.5198 89.6067
vn -0.864304 0.141432 0.482675
vt -49.1469 2.113
vt -42.2364 89.6067
f 7/48/11 10/49/11 6/50/11

vt -78.4303 2.113
f 10/49/11 7/48/11 8/51/11

vt 25.1969 75.7604
f 10/21/5 8/52/5 9/19/5

vt 25.1969 27.5996
f 10/21/5 12/23/5 18/53/5

usemtl Leafs
vt -11.0236 27.5996
f 6/8/2 17/54/2 16/34/2

