# Alias OBJ Model File
# Exported from SketchUp, (c) 2000-2012 Trimble Navigation Limited
# File units = meters

mtllib naturePack_075.mtl

g Mesh1 Group1 Model

usemtl Green_Roof
v 2.82742 0 -3.22
vt -111.316 126.772
vn 0 -1 -0
v 2.52 0 -3.22
vt -99.2126 126.772
v 2.74794 0 -3.41505
vt -108.186 134.451
f 1/1/1 2/2/1 3/3/1

v 1.68 1.95 -3.22
vt -66.1417 76.7717
vn 0 0 -1
vt -111.316 0
vt -99.2126 0
f 4/4/2 1/5/2 2/6/2

vt 83.6799 -72.2163
vn 0.813164 0.478484 -0.331387
vt 92.4359 15.2134
vt 75.3875 -72.2163
f 3/7/3 4/8/3 1/9/3

vt -132.677 88.3059
vn -0.626084 -0.269698 -0.73163
vt -169.615 8.57998
vt -157.804 8.57998
f 4/10/4 3/11/4 2/12/4

v 3.36 0 -3.22
vt -132.283 0
f 4/4/2 5/13/2 1/5/2

v 2.52 1.95 -3.22
vt -99.2126 76.7717
f 5/13/2 4/4/2 6/14/2

v 1.68 2.8 -3.22
vt -66.1417 110.236
f 4/4/2 7/15/2 6/14/2

v 0.84 1.95 -3.22
vt -33.0709 76.7717
f 4/4/2 8/16/2 7/15/2

v 0.532575 0 -3.22
vt -20.9675 0
f 9/17/2 8/16/2 4/4/2

v 2.31012e-014 0 -3.22
vt -9.09495e-013 0
f 8/16/2 9/17/2 10/18/2

vt -126.772 3.85534e-014
vn -0.918413 0.395624 -5.88296e-015
v 0.156946 0.364339 -2.87628
vt -113.239 15.6183
vt -126.772 83.5917
f 10/19/5 11/20/5 8/21/5

v 0.156946 0.364339 -2.66628
vt -104.972 15.6183
f 10/19/5 12/22/5 11/20/5

v 0.207474 0.481637 -2.197
vt -86.496 20.6466
f 10/19/5 13/23/5 12/22/5

v 0.207474 0.481637 -1.857
vt -73.1101 20.6466
f 10/19/5 14/24/5 13/23/5

v 0 0 -0
vt 0 0
f 15/25/5 14/24/5 10/19/5

v 0.84 1.95 -3.60956e-016
vt -2.26049e-013 83.5917
f 14/24/5 15/25/5 16/26/5

vn 4.29709e-017 1.83631e-016 1
v 2.52 1.95 -7.21911e-016
vt 99.2126 76.7717
vt 33.0709 76.7717
f 15/25/6 17/27/6 16/28/6

v 3.36 0 -0
vt 132.283 -1.04382e-030
f 17/27/6 15/25/6 18/29/6

vt 126.772 -52.3345
vn 0.918413 0.395624 2.36626e-015
vt 2.84039e-013 31.2572
vt 3.40824e-013 -52.3345
f 5/30/7 17/31/7 18/32/7

vt 126.772 31.2572
f 17/31/7 5/30/7 6/33/7

vt 126.772 -15.1316
vn 0.711278 0.70291 4.07038e-015
v 2.40205 2.06935 -0.429676
vt 16.9164 -8.52522
vt 5.96178e-013 -15.1316
f 6/34/8 19/35/8 17/36/8

v 2.40205 2.06935 -0.709676
vt 27.94 -8.52522
f 19/35/8 6/34/8 20/37/8

v 2.283 2.18982 -0.793197
vt 31.2282 -1.85723
f 20/37/8 6/34/8 21/38/8

v 2.283 2.18982 -1.0632
vt 41.8582 -1.85723
f 21/38/8 6/34/8 22/39/8

v 2.14945 2.32496 -1.0632
vt 41.8582 5.62308
f 22/39/8 6/34/8 23/40/8

vt 126.772 31.9169
f 7/41/8 23/40/8 6/34/8

v 2.14945 2.32496 -0.793197
vt 31.2282 5.62308
f 7/41/8 24/42/8 23/40/8

v 1.99779 2.47842 -0.693986
vt 27.3223 14.1173
f 7/41/8 25/43/8 24/42/8

v 1.99779 2.47842 -0.443986
vt 17.4798 14.1173
f 7/41/8 26/44/8 25/43/8

v 1.68 2.8 -3.60956e-016
vt 3.92715e-013 31.9169
f 27/45/8 26/44/8 7/41/8

f 26/44/8 27/45/8 17/36/8

vt 66.1417 110.236
f 16/28/6 17/27/6 27/46/6

vt -126.772 124.9
vn -0.711278 0.70291 -4.86585e-015
vt -2.40448e-013 77.8519
vt -4.66686e-013 124.9
f 7/47/9 16/48/9 27/49/9

vt -126.772 77.8519
f 16/48/9 7/47/9 8/50/9

v 0.298468 0.692872 -1.857
vt -73.1101 29.7017
f 8/21/5 28/51/5 16/26/5

v 0.298468 0.692872 -2.197
vt -86.496 29.7017
f 28/51/5 8/21/5 29/52/5

f 29/52/5 8/21/5 13/23/5

v 0.344627 0.800028 -2.5227
vt -99.3188 34.2952
f 13/23/5 8/21/5 30/53/5

v 0.344627 0.800028 -2.7227
vt -107.193 34.2952
f 30/53/5 8/21/5 31/54/5

v 0.285284 0.662266 -2.7227
vt -107.193 28.3897
f 31/54/5 8/21/5 32/55/5

v 0.240027 0.557205 -2.87628
vt -113.239 23.886
f 32/55/5 8/21/5 33/56/5

f 33/56/5 8/21/5 11/20/5

usemtl Leafs
vn -0.918413 0.395624 1.35417e-015
f 12/22/10 33/56/10 11/20/10

v 0.240027 0.557205 -2.66628
vt -104.972 23.886
f 33/56/10 12/22/10 34/57/10

usemtl Green_Roof
v 0.285284 0.662266 -2.5227
vt -99.3188 28.3897
f 12/22/5 35/58/5 34/57/5

f 12/22/5 13/23/5 35/58/5

f 35/58/5 13/23/5 30/53/5

usemtl Leafs
vn -0.918413 0.395624 8.04175e-016
f 31/54/11 35/58/11 30/53/11

f 35/58/11 31/54/11 32/55/11

usemtl Green_Roof
f 32/55/5 34/57/5 35/58/5

f 34/57/5 32/55/5 33/56/5

usemtl Leafs
vn -0.918413 0.395624 2.60121e-016
f 14/24/12 29/52/12 13/23/12

f 29/52/12 14/24/12 28/51/12

usemtl Green_Roof
f 14/24/5 16/26/5 28/51/5

v 2.24741 2.22583 -0.429676
vt 16.9164 0.136194
f 26/44/8 17/36/8 36/59/8

f 36/59/8 17/36/8 19/35/8

usemtl Leafs
vn 0.711278 0.70291 5.62678e-018
f 20/37/13 36/59/13 19/35/13

v 2.24741 2.22583 -0.709676
vt 27.94 0.136194
f 36/59/13 20/37/13 37/60/13

usemtl Green_Roof
f 20/37/8 21/38/8 37/60/8

f 24/42/8 37/60/8 21/38/8

f 24/42/8 25/43/8 37/60/8

v 2.0962 2.37885 -0.693986
vt 27.3223 8.60553
f 38/61/8 37/60/8 25/43/8

v 2.0962 2.37885 -0.443986
vt 17.4798 8.60553
f 39/62/8 37/60/8 38/61/8

f 37/60/8 39/62/8 36/59/8

f 26/44/8 36/59/8 39/62/8

usemtl Leafs
vn 0.711278 0.70291 -4.96838e-016
f 38/61/14 26/44/14 39/62/14

f 26/44/14 38/61/14 25/43/14

vn 0.711278 0.70291 -9.39267e-016
f 22/39/15 24/42/15 21/38/15

f 24/42/15 22/39/15 23/40/15

usemtl Green_Roof
v 0.84 0 -3.22
vt -33.0709 0
f 4/4/2 40/63/2 9/17/2

vt 32.1705 111.502
vn 0.626084 -0.269698 -0.73163
vt 57.2972 31.776
v 0.612065 0 -3.41505
vt 69.1082 31.776
f 4/64/16 40/65/16 41/66/16

vt -33.0709 126.772
vt -20.9675 126.772
vt -24.097 134.451
f 40/67/1 9/68/1 41/69/1

vt -133.603 -13.6012
vn -0.813164 0.478484 -0.331387
vt -125.31 -13.6012
vt -142.359 73.8284
f 41/70/17 9/71/17 4/72/17

