# Alias OBJ Model File
# Exported from SketchUp, (c) 2000-2012 Trimble Navigation Limited
# File units = meters

mtllib naturePack_007.mtl

g Mesh1 Group1 Model

usemtl Wood
v 2.88438 0.2925 -1.79838
vt 70.8024 93.4675
vn 0.653655 -0.756793 -1.48489e-017
v 2.54573 1.6243e-015 -1.44661
vt 56.9533 75.85
v 2.54573 1.6243e-015 -1.94896
vt 76.7306 75.85
f 1/1/1 2/2/1 3/3/1

v 3.03619 0.585 -1.85656
vt 125.843 41.225
vn 0.800894 -0.314289 0.509698
vt 101.86 16.9641
vt 120.702 29.0946
f 4/4/2 2/5/2 1/6/2

v 2.35889 1.6243e-015 -1.15303
vt 88.1591 16.9641
f 4/4/2 5/7/2 2/5/2

v 2.56909 0.585 -1.12259
vt 91.5913 41.225
f 5/7/2 4/4/2 6/8/2

vt 125.843 -6.97764
vn 0.754411 0.447607 0.480116
v 2.16572 1.3275 -1.181
vt 85.0048 25.7122
vt 91.5913 -6.97764
f 4/9/3 7/10/3 6/11/3

v 2.30963 1.3275 -1.40713
vt 95.5578 25.7122
f 7/10/3 4/9/3 8/12/3

v 2.74487 0.95625 -1.74491
vt 115.977 9.3673
f 8/12/3 4/9/3 9/13/3

v 2.41596 0.585 -2.54953
vt 11.3578 -67.0024
vn 0.586036 0.617607 -0.524522
vt -20.8824 -48.4183
vt -25.2563 -67.0024
f 10/14/4 9/15/4 4/16/4

v 2.27478 1.3275 -1.833
vt -5.95549 -29.8342
f 10/14/4 11/17/4 9/15/4

v 2.07136 1.3275 -2.06028
vt 6.05314 -29.8342
f 11/17/4 10/14/4 12/18/4

vt -120.913 -8.77068
vn -0.270361 0.439093 -0.856798
v 1.62858 1.3275 -1.92056
vt -83.8989 23.766
vt -102.178 23.766
f 10/19/5 13/20/5 12/21/5

v 1.69739 0.585 -2.32279
vt -91.2479 -8.77068
f 13/20/5 10/19/5 14/22/5

v 2.23639 1.6243e-015 -2.29458
vt -111.15 18.3485
vn -0.286335 -0.307575 -0.907419
vt -91.2479 42.5533
vt -120.913 42.5533
f 15/23/6 14/24/6 10/25/6

v 1.66153 1.6243e-015 -2.11318
vt -87.4183 18.3485
f 14/24/6 15/23/6 16/26/6

v 2.13273 0 -0.545774
vt -83.9656 21.4872
vn -2.04336e-016 -1 4.9863e-017
vt -65.4147 83.1963
vt -88.0468 90.3378
f 17/27/7 16/28/7 15/29/7

v 1.28524 3.15836e-015 -0.254953
vt -50.5999 10.0375
f 18/30/7 16/28/7 17/27/7

v 1.11649 1.6243e-015 -2.02583
vt -43.9563 79.7571
f 18/30/7 19/31/7 16/28/7

v 0.437533 1.6243e-015 -1.53196
vt -17.2257 60.3135
f 18/30/7 20/32/7 19/31/7

v 0.303619 1.6243e-015 -1.12545
vt -11.9535 44.3092
f 20/32/7 18/30/7 21/33/7

vt 31.1983 -14.9967
vn -0.617705 -0.36504 0.696554
v 0 0.585 -1.08812
vt -28.4237 9.74192
vt -20.4553 -14.9967
f 18/34/8 22/35/8 21/36/8

v 1.22702 0.585 -0
vt 36.1433 9.74192
f 22/35/8 18/34/8 23/37/8

vt 51.1183 2.46103
vn 0.303417 -0.355155 0.884197
v 2.28639 0.585 -0.363526
vt 89.787 27.0987
vt 45.6926 27.0987
f 18/38/9 24/39/9 23/40/9

vt 86.3939 2.46103
f 24/39/9 18/38/9 17/41/9

vt 49.4413 23.8076
vn 0.883155 -0.334441 0.328918
vt 76.7185 48.2464
vt 44.8287 48.2464
f 17/42/10 6/43/10 24/44/10

vt 74.9531 23.8076
f 6/43/10 17/42/10 5/45/10

vt -92.8697 45.3947
f 17/27/7 15/29/7 5/46/7

vt -100.226 76.7306
f 5/46/7 15/29/7 3/47/7

vt 11.3578 83.9615
vn 0.66126 -0.460921 -0.591851
vt -9.66794 58.0088
vt 8.59353 58.0088
f 10/48/11 3/49/11 15/50/11

vt -25.2563 83.9615
f 4/51/11 3/49/11 10/48/11

vt -22.9771 70.9852
f 3/49/11 4/51/11 1/52/11

vt -100.226 56.9533
f 5/46/7 3/47/7 2/53/7

vt 76.7185 -17.226
vn 0.825762 0.472794 0.307543
v 1.99152 1.3275 -0.71326
vt 53.6802 15.9482
vt 44.8287 -17.226
f 6/54/12 25/55/12 24/56/12

vt 73.3307 15.9482
f 25/55/12 6/54/12 7/57/12

usemtl Green_leafs
vt 81.5496 81.1133
vn 2.3002e-016 1 4.61602e-017
vt 78.4061 28.0811
vt 85.2645 46.4959
f 12/58/13 25/59/13 7/60/13

vt 64.1173 75.6125
f 13/61/13 25/59/13 12/58/13

v 1.33874 1.3275 -0.489255
vt 52.7062 19.262
f 13/61/13 26/62/13 25/59/13

v 1.20876 1.3275 -1.85327
vt 47.589 72.9635
f 27/63/13 26/62/13 13/61/13

v 0.685792 1.3275 -1.47287
vt 26.9997 57.9871
f 28/64/13 26/62/13 27/63/13

v 0.582646 1.3275 -1.15976
vt 22.9388 45.6598
f 26/62/13 28/64/13 29/65/13

usemtl Wood
v 0.334784 0.585 -2.1044
vt -82.8147 10.9373
vn -0.772571 0.58169 -0.254502
vt -50.5444 46.8752
vt -63.5234 46.8752
f 30/66/14 29/67/14 28/68/14

vt -40.6887 10.9373
f 29/67/14 30/66/14 22/69/14

vt -82.8147 26.5511
vn -0.858595 -0.42757 -0.28284
vt -45.8245 1.07328
vt -40.6887 26.5511
f 30/70/15 21/71/15 22/72/15

vt -62.6749 1.07328
f 21/71/15 30/70/15 20/73/15

v 0.453115 0.2925 -2.02144
vt -81.17 13.8122
f 20/73/15 30/70/15 31/74/15

vt -80.4563 47.7164
vn -0.149641 -0.325361 -0.933674
vt -30.2087 35.538
vt -26.1256 47.7164
f 14/75/16 31/76/16 30/77/16

vt -77.7564 23.3596
f 16/78/16 31/76/16 14/75/16

vt -56.0241 23.3596
f 31/76/16 16/78/16 19/79/16

vt -82.4628 30.818
vn -0.354877 -0.797519 -0.487878
vt -49.4087 30.818
vt -61.2404 49.9061
f 19/80/17 20/81/17 31/82/17

v 0.561862 0.95625 -1.9452
vt -33.9611 0.115407
vn -0.14039 0.461515 -0.875953
vt -80.4563 -16.3603
vt -26.1256 -16.3603
f 32/83/18 14/84/18 30/85/18

vt -75.2752 16.5911
f 14/84/18 32/83/18 13/86/18

vt -58.5359 16.5911
f 13/86/18 32/83/18 27/87/18

usemtl Green_leafs
vt -81.4043 9.02161
vn -0.371944 0.774717 -0.511342
vt -62.937 -14.0939
vt -55.9444 9.02161
f 27/88/19 32/89/19 28/90/19

usemtl Wood
vt -79.6585 28.9062
f 30/66/14 28/68/14 32/91/14

vt 36.1433 36.1567
vn -0.570737 0.509952 0.64359
vt -13.1324 70.1397
vt -28.4237 36.1567
f 23/92/20 29/93/20 22/94/20

vt 26.6538 70.1397
f 29/93/20 23/92/20 26/95/20

vt 45.6926 12.1612
vn 0.281448 0.498093 0.820177
vt 83.2757 45.873
vt 56.1046 45.873
f 23/96/21 25/97/21 26/98/21

vt 89.787 12.1612
f 25/97/21 23/96/21 24/99/21

usemtl Green_leafs
vt 89.5584 72.1653
f 12/58/13 7/60/13 11/100/13

vt 90.9304 55.3989
f 11/100/13 7/60/13 8/101/13

usemtl Wood
vt 59.6547 -64.6727
vn 0.624848 0.77907 -0.051133
vt 64.6205 -41.3592
vt 47.798 -41.3592
f 9/102/22 11/103/22 8/104/22

