# Alias OBJ Model File
# Exported from SketchUp, (c) 2000-2012 Trimble Navigation Limited
# File units = meters

mtllib naturePack_013.mtl

g Mesh1 Group1 Model

usemtl Green_leafs
v 0.123567 0.18 -0.131201
vt 4.86483 5.16541
vn 3.92298e-016 1 -6.65738e-016
v 0.451858 0.18 -0.998743
vt 17.7897 39.3206
v 0 0.18 -0.501341
vt -2.78007e-015 19.7379
f 1/1/1 2/2/1 3/3/1

v 0.301914 0.18 -0.0868304
vt 11.8864 3.41852
f 2/2/1 1/1/1 4/4/1

usemtl Wood
v 0.123567 8.17727e-016 -0.131201
vt 3.47384 3.51272e-014
vn -0.241429 4.74084e-016 0.970419
vt 10.7095 7.08661
vt 3.47384 7.08661
f 5/5/2 4/6/2 1/7/2

v 0.301914 7.23168e-016 -0.0868304
vt 10.7095 3.14044e-014
f 4/6/2 5/5/2 6/8/2

vt -4.86483 5.16541
vn -3.92298e-016 -1 6.65738e-016
v 0.451858 0 -0.998743
vt -17.7897 39.3206
vt -11.8864 3.41852
f 5/9/3 7/10/3 6/11/3

v 0 1.44922e-015 -0.501341
vt 2.23829e-029 19.7379
f 7/10/3 5/9/3 8/12/3

vt -3.3591 3.45257e-014
vn -0.94854 3.7307e-016 0.316658
vt -18.7221 7.08661
vt -18.7221 5.93875e-014
f 5/13/4 3/14/4 8/15/4

vt -3.3591 7.08661
f 3/14/4 5/13/4 1/16/4

vt -41.0663 7.08661
vn -0.740181 -1.00657e-016 -0.672408
vt -14.6096 5.83917e-014
vt -14.6096 7.08661
f 2/17/5 8/18/5 3/19/5

vt -41.0663 1.3359e-015
f 8/18/5 2/17/5 7/20/5

vt -7.77031 7.08661
vn 0.241429 -4.74084e-016 -0.970419
v 1.11165 1.25632e-018 -0.834595
vt -34.5381 2.01755e-014
vt -7.77031 2.0126e-014
f 2/21/6 9/22/6 7/23/6

v 1.11165 0.18 -0.834595
vt -34.5381 7.08661
f 9/22/6 2/21/6 10/24/6

usemtl Green_leafs
v 0.92696 0.18 -0
vt 36.4945 -4.71783e-015
vt 43.7656 32.8581
f 2/2/1 11/25/1 10/26/1

v 0.436633 0.18 -0.173148
vt 17.1903 6.81687
f 2/2/1 12/27/1 11/25/1

f 2/2/1 4/4/1 12/27/1

usemtl Wood
vt 11.8525 2.7682e-014
vn 0.539487 2.23301e-016 0.841994
vt 18.1517 7.08661
vt 11.8525 7.08661
f 6/28/7 12/29/7 4/30/7

v 0.436633 7.23168e-016 -0.173148
vt 18.1517 2.7682e-014
f 12/29/7 6/28/7 13/31/7

vt -17.1903 6.81687
f 6/11/3 7/10/3 13/32/3

v 0.92696 7.23174e-016 -0
vt -36.4945 -2.84857e-029
f 13/32/3 7/10/3 14/33/3

vt -43.7656 32.8581
f 14/33/3 7/10/3 9/34/3

v 1.30371 7.20047e-016 -0.403439
vt -51.3272 15.8834
f 14/33/3 9/34/3 15/35/3

vt 12.2059 2.15341e-014
vn 0.913467 -4.02719e-016 -0.406913
v 1.30371 0.18 -0.403439
vt -6.37673 7.08661
vt -6.37673 4.98329e-014
f 9/36/8 16/37/8 15/38/8

vt 12.2059 7.08661
f 16/37/8 9/36/8 10/39/8

usemtl Green_leafs
vt 51.3272 15.8834
f 10/26/1 11/25/1 16/40/1

usemtl Wood
vt 24.9082 7.08661
vn 0.730867 1.07303e-016 0.682519
vt 46.6405 2.54863e-014
vt 46.6405 7.08661
f 11/41/9 15/42/9 16/43/9

vt 24.9082 2.56094e-014
f 15/42/9 11/41/9 14/44/9

vt 13.9395 7.08661
vn -0.332978 4.8536e-016 0.942935
vt 34.4119 3.43694e-014
vt 34.4119 7.08661
f 12/45/10 14/46/10 11/47/10

vt 13.9395 3.43692e-014
f 14/46/10 12/45/10 13/48/10

