# Alias OBJ Model File
# Exported from SketchUp, (c) 2000-2012 Trimble Navigation Limited
# File units = meters

mtllib naturePack_043.mtl

g Mesh1 Group1 Model

usemtl Stone
v 0.154458 0.18 -0.164002
vt 6.08104 6.45676
vn 3.13839e-016 1 -5.32591e-016
v 0.564822 0.18 -1.24843
vt 22.2371 49.1507
v 0 0.18 -0.626677
vt -2.22405e-015 24.6723
f 1/1/1 2/2/1 3/3/1

v 0.377393 0.18 -0.108538
vt 14.858 4.27315
f 2/2/1 1/1/1 4/4/1

v 0.154458 8.17727e-016 -0.164002
vt 4.3423 3.67771e-014
vn -0.241429 5.92606e-016 0.970419
vt 13.3868 7.08661
vt 4.3423 7.08661
f 5/5/2 4/6/2 1/7/2

v 0.377393 7.23168e-016 -0.108538
vt 13.3868 3.30543e-014
f 4/6/2 5/5/2 6/8/2

vt -6.08104 6.45676
vn -3.13839e-016 -1 5.32591e-016
v 0.564822 0 -1.24843
vt -22.2371 49.1507
vt -14.858 4.27315
f 5/9/3 7/10/3 6/11/3

v 0 1.44922e-015 -0.626677
vt 1.79063e-029 24.6723
f 7/10/3 5/9/3 8/12/3

vt -4.19888 3.58373e-014
vn -0.94854 4.66338e-016 0.316658
vt -23.4027 7.08661
vt -23.4027 6.06991e-014
f 5/13/4 3/14/4 8/15/4

vt -4.19888 7.08661
f 3/14/4 5/13/4 1/16/4

vt -51.3328 7.08661
vn -0.740181 -1.25821e-016 -0.672408
vt -18.262 5.91431e-014
vt -18.262 7.08661
f 2/17/5 8/18/5 3/19/5

vt -51.3328 2.08735e-015
f 8/18/5 2/17/5 7/20/5

vt -9.71289 7.08661
vn 0.241429 -5.92606e-016 -0.970419
v 1.38956 1.25632e-018 -1.04324
vt -43.1726 3.14963e-014
vt -9.71289 3.14469e-014
f 2/21/6 9/22/6 7/23/6

v 1.38956 0.18 -1.04324
vt -43.1726 7.08661
f 9/22/6 2/21/6 10/24/6

v 1.1587 0.18 -0
vt 45.6181 -3.77426e-015
vt 54.7071 41.0726
f 2/2/1 11/25/1 10/26/1

v 0.545792 0.18 -0.216436
vt 21.4879 8.52108
f 2/2/1 12/27/1 11/25/1

f 2/2/1 4/4/1 12/27/1

vt 14.8157 2.72381e-014
vn 0.539487 2.79126e-016 0.841994
vt 22.6897 7.08661
vt 14.8157 7.08661
f 6/28/7 12/29/7 4/30/7

v 0.545792 7.23168e-016 -0.216436
vt 22.6897 2.72381e-014
f 12/29/7 6/28/7 13/31/7

vt -21.4879 8.52108
f 6/11/3 7/10/3 13/32/3

v 1.1587 7.23174e-016 -0
vt -45.6181 -2.27886e-029
f 13/32/3 7/10/3 14/33/3

vt -54.7071 41.0726
f 14/33/3 7/10/3 9/34/3

v 1.62964 7.20047e-016 -0.504299
vt -64.159 19.8543
f 14/33/3 9/34/3 15/35/3

vt 15.2574 3.36192e-014
vn 0.913467 -5.03399e-016 -0.406913
v 1.62964 0.18 -0.504299
vt -7.97091 7.08661
vt -7.97091 6.1918e-014
f 9/36/8 16/37/8 15/38/8

vt 15.2574 7.08661
f 16/37/8 9/36/8 10/39/8

vt 64.159 19.8543
f 10/26/1 11/25/1 16/40/1

vt 31.1352 7.08661
vn 0.730867 1.34129e-016 0.682519
vt 58.3006 2.38764e-014
vt 58.3006 7.08661
f 11/41/9 15/42/9 16/43/9

vt 31.1352 2.39995e-014
f 15/42/9 11/41/9 14/44/9

vt 17.4243 7.08661
vn -0.332978 6.06699e-016 0.942935
vt 43.0149 3.76871e-014
vt 43.0149 7.08661
f 12/45/10 14/46/10 11/47/10

vt 17.4243 3.76868e-014
f 14/46/10 12/45/10 13/48/10

