# Alias OBJ Model File
# Exported from SketchUp, (c) 2000-2012 Trimble Navigation Limited
# File units = meters

mtllib naturePack_008.mtl

g Mesh1 Group1 Model

usemtl Green_leafs
v 1.08617 1.11375 -2.31186
vt -100.288 40.7672
vn -0.781727 0.547317 -0.298909
v 1.23215 1.575 -1.84905
vt -85.3214 62.465
v 1.36492 1.575 -2.1963
vt -99.958 62.465
f 1/1/1 2/2/1 3/3/1

usemtl Wood
v 0.962411 0.6525 -2.52998
vt -95.7718 35.3021
vn -0.971726 0.219015 0.0882152
vt -68.1134 72.5247
vt -86.7792 53.9134
f 4/4/2 2/5/2 1/6/2

v 1.03293 0.6525 -1.75317
vt -65.0631 35.3021
f 5/7/2 2/5/2 4/4/2

v 1.25436 1.575 -1.60436
vt -58.4402 72.5247
f 2/5/2 5/7/2 6/8/2

vt -74.2592 16.8317
vn -0.586555 0.26429 -0.765574
v 0.603614 1.575 -1.10578
vt -45.341 54.4896
vt -77.6161 54.4896
f 5/9/3 7/10/3 6/11/3

v 0 0.6525 -0.961776
vt -23.0289 16.8317
f 7/10/3 5/9/3 8/12/3

v 1.15262 1.6243e-015 -1.67273
vt -76.0737 5.05825
vn -0.595267 -0.204973 -0.776945
vt -23.0289 31.3045
vt -74.2592 31.3045
f 9/13/4 8/14/4 5/15/4

v 0.326278 1.6243e-015 -1.03962
vt -35.0895 5.05825
f 8/14/4 9/13/4 10/16/4

vt -45.3788 65.8556
vn 7.3184e-018 -1 -1.28602e-016
v 0.812822 1.6243e-015 -0.404576
vt -32.0009 15.9282
vt -12.8456 40.9298
f 9/17/5 11/18/5 10/19/5

v 1.33389 1.6243e-015 -0.270195
vt -52.5152 10.6376
f 11/18/5 9/17/5 12/20/5

v 1.31518 1.66942e-015 -2.43907
vt -51.7789 96.0264
f 12/20/5 9/17/5 13/21/5

v 1.09621 0 -2.29418
vt -43.1577 90.3219
f 13/21/5 9/17/5 14/22/5

vt -65.0631 17.4168
vn -0.981568 -0.169069 0.0891087
vt -86.0501 -8.64738
vt -61.4831 -8.64738
f 5/23/6 14/24/6 9/25/6

vt -95.7718 17.4168
f 14/24/6 5/23/6 4/26/6

vt -86.5635 47.5333
vn -0.509761 -0.382932 -0.770394
vt -96.1711 19.7246
vt -85.8336 19.7246
f 4/27/7 13/28/7 14/29/7

v 1.46768 0.408511 -2.74303
vt -107.782 37.1348
f 13/28/7 4/27/7 15/30/7

v 1.45445 0.6525 -2.85555
vt -109.792 47.5333
f 15/30/7 4/27/7 16/31/7

vt -85.8883 13.6028
vn -0.485059 0.476799 -0.733062
vt -109.792 -7.05608
vt -86.5635 -7.05608
f 1/32/8 16/33/8 4/34/8

v 1.51992 1.575 -2.29886
vt -99.847 34.2618
f 16/33/8 1/32/8 17/35/8

vt -92.5301 34.2618
f 17/35/8 1/32/8 3/36/8

usemtl Green_leafs
vt 53.7372 86.4686
vn 2.0572e-016 1 -3.97522e-017
v 1.39711 1.575 -0.499861
vt 55.0042 19.6796
vt 59.8392 90.5062
f 3/37/9 18/38/9 17/39/9

vt 49.3843 63.1637
f 6/40/9 18/38/9 3/37/9

v 0.986767 1.575 -0.605686
vt 38.8491 23.8459
f 6/40/9 19/41/9 18/38/9

vt 23.7643 43.5346
f 19/41/9 6/40/9 7/42/9

usemtl Wood
vt -30.0574 33.9429
vn -0.676361 0.523451 0.518203
vt 4.69838 76.568
vt -20.1048 76.568
f 8/43/10 19/44/10 7/45/10

v 0.60818 0.6525 -0.167977
vt 9.31271 33.9429
f 19/44/10 8/43/10 20/46/10

vt -30.0574 13.4669
vn -0.718549 -0.42498 0.550526
vt 6.81848 -14.9123
vt 9.31271 13.4669
f 8/47/11 11/48/11 20/49/11

vt -24.6776 -14.9123
f 11/48/11 8/47/11 10/50/11

vt 27.0093 -9.23935
vn -0.229463 -0.394591 0.889744
v 1.25951 0.6525 -0
vt 48.016 18.7182
vt 21.534 18.7182
f 11/51/12 21/52/12 20/53/12

vt 48.1949 -9.23935
f 21/52/12 11/51/12 12/54/12

vt 53.2441 -2.2428
vn 0.0810951 -0.373423 0.92411
v 2.49808 0.32625 -0.240525
vt 98.801 11.6033
vt 49.3972 25.4494
f 12/55/13 22/56/13 21/57/13

v 1.94753 1.6243e-015 -0.324045
vt 77.4961 -2.2428
f 22/56/13 12/55/13 23/58/13

v 2.04859 2.43645e-015 -2.24255
vt -80.6531 88.2895
vt -76.6744 12.7577
f 12/20/5 24/59/5 23/60/5

f 12/20/5 13/21/5 24/59/5

vt -27.8631 87.8327
vn 0.200595 -0.631915 -0.748629
vt -55.0539 67.0813
vt -25.1611 67.0813
f 15/61/14 24/62/14 13/63/14

vt 2.21329 58.1706
vn 0.456403 -0.352093 -0.817146
v 2.60734 3.2486e-015 -1.93047
vt -52.5587 40.9871
vt -27.3619 40.9871
f 15/64/15 25/65/15 24/66/15

v 2.85133 0.6525 -2.07535
vt -58.1638 68.4336
f 25/65/15 15/64/15 26/67/15

vt 4.8283 68.4336
f 26/67/15 15/64/15 16/68/15

vt -8.10935 7.84933
vn 0.437496 0.44164 -0.783295
vt -58.1638 -32.6313
vt 4.8283 -32.6313
f 17/69/16 26/70/16 16/71/16

v 2.39995 1.575 -1.80733
vt -47.7944 7.84933
f 26/70/16 17/69/16 27/72/16

usemtl Green_leafs
v 1.81759 1.575 -0.53676
vt 71.5587 21.1323
vt 94.4863 71.1547
f 17/39/9 28/73/9 27/74/9

f 17/39/9 18/38/9 28/73/9

usemtl Wood
vt 56.514 61.7577
vn 0.077345 0.466041 0.881376
v 2.41623 1.11375 -0.3454
vt 95.9517 41.2331
vt 73.1321 61.7577
f 18/75/17 29/76/17 28/77/17

vt 49.3972 20.7084
f 21/78/17 29/76/17 18/75/17

v 2.59438 0.6525 -0.117141
vt 102.153 20.7084
f 29/76/17 21/78/17 30/79/17

vt 102.153 25.4494
f 21/57/13 22/56/13 30/80/13

vt 52.2282 45.0884
vn 0.82201 -0.397028 0.408251
v 3.10147 0.6525 -1.13815
vt 94.4459 59.0831
vt 49.564 59.0831
f 22/81/18 31/82/18 30/83/18

v 2.60462 8.1215e-016 -0.772312
vt 72.8451 31.0936
f 31/82/18 22/81/18 32/84/18

vt 101.845 24.7681
vn 0.367515 -0.758101 0.538718
vt 86.5812 44.4641
vt 70.5287 24.7681
f 32/85/19 22/86/19 23/87/19

vt -102.544 30.406
f 23/60/5 24/59/5 32/88/5

vt -102.651 76.0028
f 32/88/5 24/59/5 25/89/5

v 2.80745 0 -1.18072
vt -110.53 46.4849
f 32/88/5 25/89/5 33/90/5

vt 49.9952 73.7069
vn 0.891265 -0.386085 -0.237878
vt 16.4102 45.8586
vt 46.9614 45.8586
f 26/91/20 33/92/20 25/93/20

vt 11.8062 73.7069
f 33/92/20 26/91/20 31/94/20

vt 49.9952 -39.6887
vn 0.847413 0.48035 -0.226174
v 2.55754 1.575 -1.2169
vt 20.3237 1.72036
vt 11.8062 -39.6887
f 26/95/21 34/96/21 31/97/21

vt 44.3828 1.72036
f 34/96/21 26/95/21 27/98/21

usemtl Green_leafs
v 2.42583 1.575 -0.951702
vt 95.5051 37.4686
vt 100.69 47.9093
f 27/74/9 35/99/9 34/100/9

f 27/74/9 28/73/9 35/99/9

vt 100.01 25.5132
vn 0.384005 0.731912 0.56289
vt 71.0223 25.5132
vt 86.246 -1.13708
f 35/101/22 28/102/22 29/103/22

usemtl Wood
vt 54.4927 -0.830347
vn 0.779419 0.492607 0.387098
vt 94.4459 -21.6972
vt 76.0396 20.0365
f 29/104/23 31/105/23 35/106/23

vt 49.564 -21.6972
f 31/105/23 29/104/23 30/107/23

vt 87.6971 20.0365
f 35/106/23 31/105/23 34/108/23

vt 90.7979 31.0936
f 31/82/18 32/84/18 33/109/18

vt 48.3469 70.122
vn -0.217708 0.489886 0.844165
vt 21.534 28.4617
vt 48.016 28.4617
f 18/110/24 20/111/24 21/112/24

vt 31.6633 70.122
f 20/111/24 18/110/24 19/113/24

usemtl Green_leafs
vt 48.5097 72.7973
f 3/37/9 2/114/9 6/40/9

