# Alias OBJ Model File
# Exported from SketchUp, (c) 2000-2012 Trimble Navigation Limited
# File units = meters

mtllib naturePack_039.mtl

g Mesh1 Group1 Model

usemtl Stone
v 1.03149 3.53 -1.03149
vt 40.6099 88.0244
vn 0.806242 0.591586 -0
v 0.76 3.9 -0.76
vt 29.9213 106.092
v 1.03149 3.53 -0.48851
vt 19.2327 88.0244
f 1/1/1 2/2/1 3/3/1

vt -29.9213 106.092
vn 0 0.591586 -0.806242
vt -40.6099 88.0244
v 0.48851 3.53 -1.03149
vt -19.2327 88.0244
f 2/4/2 1/5/2 4/6/2

v 1.21248 0.42 -1.21248
vt -47.7356 13.7341
vn -6.0276e-018 0.058099 -0.998311
vt -19.2327 136.382
vt -40.6099 136.382
f 5/7/3 4/8/3 1/9/3

v 0.307516 0.42 -1.21248
vt -12.1069 13.7341
f 4/8/3 5/7/3 6/10/3

v 1.406 0.42 -1.406
vt 55.3543 55.3543
vn 0 1 -0
vt 12.1069 47.7356
vt 47.7356 47.7356
f 7/11/4 6/12/4 5/13/4

v 0.114 0.42 -1.406
vt 4.48819 55.3543
f 8/14/4 6/12/4 7/11/4

v 0.307516 0.42 -0.307516
vt 12.1069 12.1069
f 6/12/4 8/14/4 9/15/4

v 0.114 0.42 -0.114
vt 4.48819 4.48819
f 10/16/4 9/15/4 8/14/4

v 1.406 0.42 -0.114
vt 55.3543 4.48819
f 9/15/4 10/16/4 11/17/4

v 0 0 -0
vt 0 0
vn -6.35239e-019 0.261951 0.965081
vt 55.3543 17.1337
vt 4.48819 17.1337
f 12/18/5 11/19/5 10/20/5

v 1.52 0 -0
vt 59.8425 1.03182e-017
f 11/19/5 12/18/5 13/21/5

vn 0 -1 -0
v 1.52 0 -1.52
vt -59.8425 59.8425
vt -59.8425 0
f 12/18/6 14/22/6 13/23/6

v 0 0 -1.52
vt 0 59.8425
f 14/22/6 12/18/6 15/24/6

vt -4.48819 17.1337
vn -0.965081 0.261951 1.39753e-018
vt -59.8425 2.27e-017
f 10/25/7 15/26/7 12/18/7

vt -55.3543 17.1337
f 15/26/7 10/25/7 8/27/7

vt -4.48819 1.45793
vn -6.35239e-019 0.261951 -0.965081
vt -59.8425 -15.6758
vt -3.93897e-017 -15.6758
f 8/28/8 14/29/8 15/30/8

vt -55.3543 1.45793
f 14/29/8 8/28/8 7/31/8

vt 4.48819 1.45793
vn 0.965081 0.261951 1.39753e-018
vt 59.8425 -15.6758
vt 55.3543 1.45793
f 11/32/9 14/33/9 7/34/9

vt 8.66574e-017 -15.6758
f 14/33/9 11/32/9 13/35/9

f 7/11/4 5/13/4 11/17/4

v 1.21248 0.42 -0.307516
vt 47.7356 12.1069
f 16/36/4 11/17/4 5/13/4

f 9/15/4 11/17/4 16/36/4

vt 40.6099 139.859
vn 2.19007e-018 0.058099 0.998311
vt 12.1069 17.2109
vt 47.7356 17.2109
f 3/37/10 9/38/10 16/39/10

v 0.48851 3.53 -0.48851
vt 19.2327 139.859
f 9/38/10 3/37/10 17/40/10

vt 29.9213 141.494
vn 0 0.591586 0.806242
vt 19.2327 123.426
vt 40.6099 123.426
f 2/41/11 17/42/11 3/43/11

vt -40.6099 123.426
vn -0.806242 0.591586 -0
vt -19.2327 123.426
vt -29.9213 141.494
f 4/44/12 17/45/12 2/46/12

vt -47.7356 17.2109
vn -0.998311 0.058099 3.27845e-018
vt -19.2327 139.859
vt -40.6099 139.859
f 6/47/13 17/48/13 4/49/13

vt -12.1069 17.2109
f 17/48/13 6/47/13 9/50/13

vt 47.7356 13.7341
vn 0.998311 0.058099 1.09304e-017
vt 19.2327 136.382
vt 12.1069 13.7341
f 5/51/14 3/52/14 16/53/14

vt 40.6099 136.382
f 3/52/14 5/51/14 1/54/14

