# Alias OBJ Model File
# Exported from SketchUp, (c) 2000-2012 Trimble Navigation Limited
# File units = meters

mtllib naturePack_022.mtl

g Mesh1 Group1 Model

usemtl Wood
v 0.607476 0.53 -0.277547
vt 23.9164 23.5541
vn 1.61433e-017 0.463912 0.885881
v 0.146715 0 -0
vt 5.77619 -4.88309e-017
v 0.816846 0 -0
vt 32.1593 -2.71869e-016
f 1/1/1 2/2/1 3/3/1

v 0.354523 0.53 -0.277547
vt 13.9576 23.5541
f 2/2/1 1/1/1 4/4/1

usemtl Green_leafs
v 0.529638 0.53 -0.637128
vt 20.8519 25.0838
vn 0 1 -0
vt 13.9576 10.927
vt 23.9164 10.927
f 5/5/2 4/6/2 1/7/2

v 0.312675 0.53 -0.420165
vt 12.31 16.5419
f 4/6/2 5/5/2 6/8/2

usemtl Wood
v 0.5 0 -1
vt -41.7583 -6.45739
vn -0.626413 0.463912 -0.626413
vt -20.4014 17.0967
vt -32.4814 17.0967
f 7/9/3 6/10/3 5/11/3

v 0 0 -0.5
vt -13.9194 -6.45739
f 6/10/3 7/9/3 8/12/3

vt -19.685 39.3701
vn 0 -1 -0
vt -5.77619 0
vt 0 19.685
f 7/13/4 2/14/4 8/15/4

vt -32.1593 0
f 2/14/4 7/13/4 3/16/4

v 1 0 -0.641226
vt -39.3701 25.2451
f 3/16/4 7/13/4 9/17/4

vt -2.31807 3.39085
vn 0.516462 0.463912 -0.719759
vt -17.2696 -20.1633
vt 6.95878 -20.1633
f 5/18/5 9/19/5 7/20/5

v 0.679474 0.53 -0.529614
vt -9.57862 3.39085
f 9/19/5 5/18/5 10/21/5

usemtl Green_leafs
vt 26.7509 20.8509
f 5/5/2 1/7/2 10/22/2

usemtl Wood
vt 17.0754 9.20873
vn 0.851815 0.463912 0.243304
vt 35.0872 -14.3454
vt 27.3962 9.20873
f 1/23/6 9/24/6 10/25/6

vt 8.83244 -14.3454
f 9/24/6 1/23/6 3/26/6

vt -6.55507 26.1253
vn -0.850042 0.463912 0.249428
vt -18.8887 2.57124
vt 1.62634 2.57124
f 4/27/7 8/28/7 2/29/7

vt -12.4067 26.1253
f 8/28/7 4/27/7 6/30/7

