# Alias OBJ Model File
# Exported from SketchUp, (c) 2000-2012 Trimble Navigation Limited
# File units = meters

mtllib naturePack_141.mtl

g Mesh1 Grey_Waterfall_Top Model

usemtl Stone
v -0.42 0.29 -3
vt 16.5354 11.4173
vn -5.23224e-016 1.51264e-015 -1
v 0.5 0 -3
vt -19.685 -1.78658e-013
v -0.28 0 -3
vt 11.0236 -1.78658e-013
f 1/1/1 2/2/1 3/3/1

v 0.5 0.29 -3
vt -19.685 11.4173
f 2/2/1 1/1/1 4/4/1

v -0.215291 0.29 -3
vt 8.47601 11.4173
f 4/4/1 1/1/1 5/5/1

vt -8.47601 118.11
vn -2.67551e-015 1 2.49306e-015
vt -16.5354 118.11
v -0.273829 0.29 -2.38719
vt -10.7807 93.9839
f 5/6/2 1/7/2 6/8/2

vt -118.724 5.52327
vn -0.880468 -0.425053 0.210014
v -0.133829 0 -2.38719
vt -92.6417 -7.09021
vt -93.9206 5.52327
f 1/9/3 7/10/3 6/11/3

vt -117.445 -7.09021
f 7/10/3 1/9/3 3/12/3

vt -19.685 118.11
vn 1.3177e-017 -1 -5.44582e-017
vt 5.26887 93.9839
vt 11.0236 118.11
f 2/13/4 7/14/4 3/15/4

v -0.0573409 0 -1.27492
vt 2.25752 50.1936
f 7/14/4 2/13/4 8/16/4

v 0.5 0 -0
vt -19.685 -1.41259e-032
f 9/17/4 8/16/4 2/13/4

v -0.16105 -7.21911e-016 -0.371864
vt 6.34055 14.6403
f 9/17/4 10/18/4 8/16/4

v -0.28 0 -0
vt 11.0236 7.91049e-033
f 10/18/4 9/17/4 11/19/4

v 0.5 0.29 -0
vt 19.685 11.4173
vn 5.23224e-016 -1.51264e-015 1
vt -11.0236 -8.72462e-030
vt 19.685 1.55797e-029
f 12/20/5 11/21/5 9/22/5

v -0.42 0.29 5.77529e-015
vt -16.5354 11.4173
f 11/21/5 12/20/5 13/23/5

v -0.210938 0.29 -0
vt -8.30463 11.4173
f 13/23/5 12/20/5 14/24/5

usemtl Leafs
vt 19.685 -1.74092e-014
vn 7.06008e-016 1 -1.5248e-015
v -0.0907369 0.29 -0.375774
vt -3.57232 14.7942
vt -8.30463 -1.74092e-014
f 12/25/6 15/26/6 14/27/6

v 0.5 0.29 -0.758698
vt 19.685 29.87
f 15/26/6 12/25/6 16/28/6

usemtl Stone
vt 29.87 11.4173
vn 1 1.27155e-016 -1.08287e-016
vt -2.13163e-015 11.4173
v 0.5 0.14 -0.758698
vt 29.87 5.51181
f 16/29/7 12/30/7 17/31/7

vt -2.13163e-015 -2.50305e-015
f 9/32/7 17/31/7 12/30/7

vt 118.11 -2.50305e-015
f 17/31/7 9/32/7 2/33/7

v 0.5 0.14 -2.2413
vt 88.2402 5.51181
f 17/31/7 2/33/7 18/34/7

v 0.5 0.29 -2.2413
vt 88.2402 11.4173
f 18/34/7 2/33/7 19/35/7

vt 118.11 11.4173
f 19/35/7 2/33/7 4/36/7

usemtl Leafs
vt 19.685 118.11
vn 4.50223e-016 1 1.54167e-015
v -0.0673529 0.29 -2.37978
vt -2.65169 93.6923
vt 19.685 88.2402
f 4/37/8 20/38/8 19/39/8

f 20/38/8 4/37/8 5/6/8

usemtl Stone
v -0.111084 0.29 -2.2413
vt -4.37337 88.2402
f 5/6/2 21/40/2 20/38/2

f 6/8/2 21/40/2 5/6/2

v -0.319899 0.29 -2.2413
vt -12.5945 88.2402
f 21/40/2 6/8/2 22/41/2

vt -88.0349 13.9357
vn -0.866206 -0.418168 -0.273537
vt -80.3518 26.5048
vt -86.3751 26.5048
f 7/42/9 22/43/9 6/44/9

v -0.247486 0.14 -2.2413
vt -81.2103 20.0035
f 7/42/9 23/45/9 22/43/9

v -0.179899 0 -2.2413
vt -82.0116 13.9357
f 23/45/9 7/42/9 24/46/9

vt 7.08266 88.2402
f 8/16/4 24/47/4 7/14/4

v -0.319899 0 -2.2413
vt 12.5945 88.2402
f 8/16/4 25/48/4 24/47/4

v -0.42 0 -1.92432
vt 16.5354 75.7604
f 25/48/4 8/16/4 26/49/4

usemtl Water
v -0.0573409 0.14 -1.27492
vt -44.9238 5.51181
vn -0.87308 -2.89079e-012 0.487576
vt -74.2072 -6.50493e-011
vt -44.9238 -6.50493e-011
f 27/50/10 26/51/10 8/52/10

v -0.42 0.14 -1.92432
vt -74.2072 5.51181
f 26/51/10 27/50/10 28/53/10

vt -2.25752 50.1936
vn -3.86705e-016 1 1.33414e-016
v -0.319899 0.14 -2.2413
vt -16.5354 75.7604
f 27/54/11 29/41/11 28/55/11

vt -9.74353 88.2402
f 29/41/11 27/54/11 23/56/11

f 23/56/11 27/54/11 18/39/11

f 18/39/11 27/54/11 17/28/11

v -0.243558 0.14 -0.758698
vt -9.58891 29.87
f 27/54/11 30/57/11 17/28/11

v -0.311144 0.14 -0.758698
vt -12.2498 29.87
f 27/54/11 31/58/11 30/57/11

v -0.383558 0.14 -0.758698
vt -15.1007 29.87
f 31/58/11 27/54/11 32/59/11

vt -41.2254 5.51181
vn -0.845353 -2.13183e-012 -0.534208
v -0.383558 0 -0.758698
vt -17.1838 6.1231e-011
vt -17.1838 5.51181
f 27/60/12 33/61/12 32/62/12

vt -41.2254 6.1231e-011
f 33/61/12 27/60/12 8/63/12

usemtl Stone
v -0.243558 0 -0.758698
vt 9.58891 29.87
vt 15.1007 29.87
f 8/16/4 34/64/4 33/65/4

f 34/64/4 8/16/4 10/18/4

v -0.28 0 -0.701031
vt 11.0236 27.5996
f 10/18/4 35/66/4 34/64/4

v -0.30105 0.29 -0.371864
vt -17.797 12.9472
vn -0.856347 -0.413409 0.309456
vt -29.7033 0.408251
vt -15.9238 0.408251
f 36/67/13 35/68/13 10/69/13

v -0.42 0.29 -0.701031
vt -31.5765 12.9472
f 35/68/13 36/67/13 37/70/13

vt -11.8524 14.6403
vn -4.95129e-016 1 -1.9498e-015
v -0.383558 0.29 -0.758698
vt -16.5354 27.5996
f 36/71/14 38/59/14 37/72/14

v -0.199607 0.29 -0.677046
vt -7.85853 26.6553
f 38/59/14 36/71/14 39/73/14

vt -8.30463 -2.22615e-014
f 39/73/14 36/71/14 14/74/14

vt -16.5354 -2.49635e-013
f 14/74/14 36/71/14 13/75/14

vt -10.3333 16.9527
vn -0.865363 -0.417761 -0.276808
vt 3.35854 4.3863
vt 5.03782 16.9527
f 36/76/15 11/77/15 13/78/15

vt -12.0125 4.3863
f 11/77/15 36/76/15 10/79/15

f 15/26/14 39/73/14 14/74/14

usemtl Leafs
v -0.148008 0.29 -0.758698
vt -5.82708 29.87
f 15/26/6 40/80/6 39/73/6

f 40/80/6 15/26/6 16/28/6

usemtl Stone
vn 1.27833e-013 -1.55627e-013 -1
vt 15.1007 11.4173
vt 5.82708 11.4173
f 16/4/16 38/81/16 40/82/16

vt -19.685 5.51181
f 17/83/16 38/81/16 16/4/16

vt 9.58891 5.51181
f 30/84/16 38/81/16 17/83/16

vt 12.2498 5.51181
f 38/81/16 30/84/16 31/85/16

vt -12.2498 5.51181
vn -9.50848e-013 0 1
vt -9.58891 0
vt -9.58891 5.51181
f 31/86/17 34/87/17 30/88/17

usemtl Water
vn -9.15577e-013 8.51356e-015 1
vt -15.1007 2.543e-013
vt -9.58891 2.543e-013
f 31/86/18 33/89/18 34/90/18

vt -15.1007 5.51181
f 33/89/18 31/86/18 32/91/18

usemtl Stone
vt -20.1282 9.09208
vn -0.782685 -0.377848 -0.494606
vt -17.1838 21.4236
vt -18.7068 15.0452
f 34/92/19 38/93/19 31/94/19

vt -17.4425 9.09208
f 35/95/19 38/93/19 34/92/19

vt -14.4981 21.4236
f 38/93/19 35/95/19 37/96/19

f 38/59/14 39/73/14 40/80/14

vt 19.685 5.51181
vn -1.60485e-013 -1.21157e-013 1
vt -12.5945 11.4173
vt -9.74353 5.51181
f 18/97/20 22/98/20 23/99/20

f 22/98/20 18/97/20 19/20/20

vt -4.37337 11.4173
f 22/98/20 19/20/20 21/100/20

usemtl Leafs
f 19/39/8 20/38/8 21/40/8

usemtl Water
vt 7.08266 1.29964e-011
vn 1.10973e-012 -1.47285e-013 -1
vt 12.5945 5.51181
vt 9.74353 5.51181
f 24/101/21 29/102/21 23/103/21

vt 12.5945 1.29964e-011
f 29/102/21 24/101/21 25/104/21

vt -67.2646 7.33122e-011
vn -0.953583 -1.90018e-012 -0.30113
vt -80.3518 5.51181
vt -80.3518 7.33122e-011
f 26/105/22 29/106/22 25/107/22

vt -67.2646 5.51181
f 29/106/22 26/105/22 28/108/22

