# Alias OBJ Model File
# Exported from SketchUp, (c) 2000-2012 Trimble Navigation Limited
# File units = meters

mtllib naturePack_113.mtl

g Mesh1 Mushroom_Tall Model

usemtl Wood
v 0.217459 0.787 -0.2511
vt 12.3573 26.2243
vn 0.377964 0.654654 0.654654
v 0.217459 0.5359 -0
vt 7.41437 13.1465
v 0.434918 0.5359 -0.12555
vt 17.3002 13.1465
f 1/1/1 2/2/1 3/3/1

vt 2.47146 31.829
vn -0.377964 0.654654 0.654654
v 0 0.5359 -0.12555
vt -2.47146 18.7513
vt 7.41437 18.7513
f 1/4/2 4/5/2 2/6/2

v 0 0.5359 -0.37665
vt -14.8287 15.9489
vn -0.755929 0.654654 3.6406e-017
vt -4.94291 15.9489
vt -9.88583 29.0266
f 5/7/3 4/8/3 1/9/3

v 0.217459 0.5359 -0.5022
vt -8.56138 19.7717
vn 0 -1 -0
vt 0 4.94291
vt 0 14.8287
f 6/10/4 4/11/4 5/12/4

v 0.178113 0.5359 -0.290446
vt -7.01233 11.4349
f 4/11/4 6/10/4 7/13/4

v 0.256805 0.5359 -0.290446
vt -10.1104 11.4349
f 7/13/4 6/10/4 8/14/4

v 0.434918 0.5359 -0.37665
vt -17.1228 14.8287
f 8/14/4 6/10/4 9/15/4

vt -2.47146 15.0148
vn 0.377964 0.654654 -0.654654
vt -7.41437 1.93707
vt 2.47146 1.93707
f 1/16/5 9/17/5 6/18/5

vt 14.8287 4.73944
vn 0.755929 0.654654 2.60503e-017
vt 9.88583 17.8172
vt 4.94291 4.73944
f 9/19/6 1/20/6 3/21/6

vt -17.1228 4.94291
v 0.256805 0.5359 -0.211754
vt -10.1104 8.33678
f 3/22/4 10/23/4 9/15/4

vt -8.56138 0
f 2/24/4 10/23/4 3/22/4

v 0.178113 0.5359 -0.211754
vt -7.01233 8.33678
f 2/24/4 11/25/4 10/23/4

f 4/11/4 11/25/4 2/24/4

f 11/25/4 4/11/4 7/13/4

usemtl FrontColor
v 0.158734 0 -0.309825
vt -12.1978 0.225842
vn -0.999347 0.0361384 -1.41707e-018
vt -8.33678 21.3381
vt -11.4349 21.3381
f 12/26/7 11/27/7 7/28/7

v 0.158734 0 -0.192375
vt -7.57382 0.225842
f 11/27/7 12/26/7 13/29/7

v 0.276184 0 -0.309825
vt -10.8734 12.1978
vt -6.24937 7.57382
vt -6.24937 12.1978
f 14/30/4 13/31/4 12/32/4

v 0.276184 0 -0.192375
vt -10.8734 7.57382
f 13/31/4 14/30/4 15/33/4

vt 12.1978 -0.392947
vn 0.999347 0.0361384 -1.41707e-018
vt 8.33678 20.7193
vt 7.57382 -0.392947
f 14/34/8 10/35/8 15/36/8

vt 11.4349 20.7193
f 10/35/8 14/34/8 8/37/8

vt -10.8734 -0.440811
vn -2.31359e-019 0.0361384 -0.999347
vt -7.01233 20.6714
vt -10.1104 20.6714
f 14/38/9 7/39/9 8/40/9

vt -6.24937 -0.440811
f 7/39/9 14/38/9 12/41/9

usemtl Wood
f 8/14/4 11/25/4 7/13/4

f 11/25/4 8/14/4 10/23/4

f 8/14/4 9/15/4 10/23/4

usemtl FrontColor
vt 6.24937 0.273706
vn -2.31359e-019 0.0361384 0.999347
vt 10.1104 21.3859
vt 7.01233 21.3859
f 13/42/10 10/43/10 11/44/10

vt 10.8734 0.273706
f 10/43/10 13/42/10 15/45/10

usemtl Wood
vt -12.3573 20.6195
vn -0.377964 0.654654 -0.654654
vt -17.3002 7.5418
vt -7.41437 7.5418
f 1/46/11 6/47/11 5/48/11

