# Alias OBJ Model File
# Exported from SketchUp, (c) 2000-2012 Trimble Navigation Limited
# File units = meters

mtllib naturePack_135.mtl

g Mesh1 Rock_1 Model

usemtl Stone
v 0.4012 0.64 -0.183944
vt 15.7953 7.24188
vn 0 1 -0
v 0.4012 0.64 -0.837966
vt 15.7953 32.9908
v 0.2124 0.64 -0.510955
vt 8.3622 20.1163
f 1/1/1 2/2/1 3/3/1

v 0.7788 0.64 -0.183944
vt 30.6614 7.24188
f 2/2/1 1/1/1 4/4/1

v 0.295 0 -1.80478e-016
vt 11.6142 2.60987e-015
vn -1.93868e-016 0.276229 0.961092
vt 30.6614 26.2169
vt 15.7953 26.2169
f 5/5/2 4/6/2 1/7/2

v 0.885 0 -0
vt 34.8425 1.94143e-015
f 4/6/2 5/5/2 6/8/2

vt -11.6142 7.10543e-015
vn 0 -1 -0
v 0.295 0 -1.02191
vt -11.6142 40.2327
vt -34.8425 0
f 5/9/3 7/10/3 6/11/3

v 0 0 -0.510955
vt 0 20.1163
f 7/10/3 5/9/3 8/12/3

vt 1.62598 28.9953
vn -0.83233 0.276229 0.480546
vt -17.4213 2.77836
vt 5.80709 2.77836
f 1/13/4 8/14/4 5/15/4

vt -13.2402 28.9953
f 8/14/4 1/13/4 3/16/4

vt -36.4685 23.4385
vn -0.83233 0.276229 -0.480546
vt -17.4213 -2.77836
vt -21.6024 23.4385
f 2/17/5 8/18/5 3/19/5

vt -40.6496 -2.77836
f 8/18/5 2/17/5 7/20/5

vt -15.7953 15.1035
vn 3.79073e-016 0.276229 -0.961092
v 0.885 0 -1.02191
vt -34.8425 -11.1135
vt -11.6142 -11.1135
f 2/21/6 9/22/6 7/23/6

v 0.7788 0.64 -0.837966
vt -30.6614 15.1035
f 9/22/6 2/21/6 10/24/6

vt 30.6614 32.9908
f 2/2/1 4/4/1 10/25/1

v 0.9676 0.64 -0.510955
vt 38.0945 20.1163
f 10/25/1 4/4/1 11/26/1

vt 21.6024 17.8818
vn 0.83233 0.276229 0.480546
v 1.18 0 -0.510955
vt 40.6496 -8.33509
vt 36.4685 17.8818
f 4/27/7 12/28/7 11/29/7

vt 17.4213 -8.33509
f 12/28/7 4/27/7 6/30/7

vt -34.8425 40.2327
vt -46.4567 20.1163
f 6/11/3 9/31/3 12/32/3

f 6/11/3 7/10/3 9/31/3

vt 13.2402 12.3251
vn 0.83233 0.276229 -0.480546
vt -5.80709 -13.8918
vt 17.4213 -13.8918
f 10/33/8 12/34/8 9/35/8

vt -1.62598 12.3251
f 12/34/8 10/33/8 11/36/8

