# Alias OBJ Model File
# Exported from SketchUp, (c) 2000-2012 Trimble Navigation Limited
# File units = meters

mtllib naturePack_095.mtl

g Mesh1 Tent_Poles Model

usemtl Green_Roof
v 0.196596 1.14233e-015 -2.8
vt 110.236 3.5999
vn 0.885256 -0.465104 -4.39236e-016
v 1.35 2.19533 -0.2
vt 7.87402 101.233
v 0.196596 1.00933e-017 -0.2
vt 7.87402 3.5999
f 1/1/1 2/2/1 3/3/1

v 1.35 2.19533 -0.3
vt 11.811 101.233
f 2/2/1 1/1/1 4/4/1

v 1.5 2.48084 -0.3
vt 11.811 113.93
f 4/4/1 1/1/1 5/5/1

v 1.35 2.19533 -2.7
vt 106.299 101.233
f 5/5/1 1/1/1 6/6/1

v 1.35 2.19533 -2.8
vt 110.236 101.233
f 6/6/1 1/1/1 7/7/1

v 0.75 1.16608e-015 -2.8
vt 29.5276 -1.07629e-014
vn 2.30218e-015 -5.14091e-016 1
vt 53.1496 86.4305
vt 7.73999 -1.16978e-014
f 8/8/2 7/9/2 1/10/2

v 1.35 1.60402 -2.8
vt 53.1496 63.1505
f 7/9/2 8/8/2 9/11/2

v 0.75 3.38396e-017 -3
vt 118.11 10.345
vn 0.936618 -0.350351 5.72346e-016
vt 110.236 77.7689
vt 110.236 10.345
f 10/12/3 9/13/3 8/14/3

v 1.35 1.60402 -3
vt 118.11 77.7689
f 9/13/3 10/12/3 11/15/3

vt -29.5276 8.04283e-013
vn -7.57912e-017 -6.79832e-015 -1
v 1.35 2.56952 -3
vt -53.1496 101.162
vt -53.1496 63.1505
f 10/16/4 12/17/4 11/18/4

v 0 3.38396e-017 -3
vt -8.95172e-015 8.04283e-013
f 12/17/4 10/16/4 13/19/4

vt -7.73999 110.236
vn 7.17726e-017 -1 -1.88429e-016
vt -9.56203e-032 118.11
vt -29.5276 118.11
f 1/20/5 13/21/5 10/22/5

v 0 3.38396e-017 -0
vt -9.56203e-032 2.51038e-031
f 13/21/5 1/20/5 14/23/5

vt -7.73999 7.87402
f 3/24/5 14/23/5 1/20/5

v 1.35 6.76792e-017 -0
vt -53.1496 -2.16722e-031
f 14/23/5 3/24/5 15/25/5

v 1.35 6.76792e-017 -0.2
vt -53.1496 7.87402
f 15/25/5 3/24/5 16/26/5

vt -53.1496 86.4305
vn 0 0 -1
vt -53.1496 2.66454e-015
vt -7.73999 3.97375e-016
f 2/27/6 16/28/6 3/29/6

usemtl Wood
vt -11.811 86.4305
vn -1 0 -0
vt -7.87402 2.66454e-015
vt -7.87402 86.4305
f 4/30/7 16/31/7 2/32/7

v 1.35 6.76792e-017 -0.3
vt -11.811 2.66454e-015
f 16/31/7 4/30/7 17/33/7

v 1.65 6.76792e-017 -0.3
vt -64.9606 2.66454e-015
f 4/27/6 18/34/6 17/28/6

v 1.65 2.19533 -0.3
vt -64.9606 86.4305
f 18/34/6 4/27/6 19/35/6

vt -59.0551 97.6707
f 19/35/6 4/27/6 5/36/6

usemtl Green_Roof
v 1.5 2.48084 -2.7
vt -106.299 58.9969
vn -0.885256 -0.465104 -5.48569e-016
vt -11.811 46.2997
vt -11.811 58.9969
f 20/37/8 19/38/8 5/39/8

v 1.65 2.19533 -2.7
vt -106.299 46.2997
f 21/40/8 19/38/8 20/37/8

v 2.8034 1.13224e-015 -2.8
vt -110.236 -51.3336
f 22/41/8 19/38/8 21/40/8

v 2.8034 0 -0.2
vt -7.87402 -51.3336
f 23/42/8 19/38/8 22/41/8

v 1.65 2.19533 -0.2
vt -7.87402 46.2997
f 19/38/8 23/42/8 24/43/8

vt -110.37 0
v 1.65 6.76792e-017 -0.2
f 24/35/6 23/44/6 25/34/6

vt -110.37 7.87402
vn -7.55251e-017 -1 -1.88829e-016
v 1.65 6.76792e-017 -0
vt -64.9606 1.42957e-030
vt -64.9606 7.87402
f 23/45/9 26/46/9 25/47/9

v 3 3.38396e-017 -0
vt -118.11 1.93598e-030
f 26/46/9 23/45/9 27/48/9

v 3 3.38396e-017 -3
vt -118.11 118.11
f 27/48/9 23/45/9 28/49/9

vt -110.37 110.236
f 22/50/9 28/49/9 23/45/9

v 2.25 1.16608e-015 -2.8
vt -88.5827 110.236
f 29/51/9 28/49/9 22/50/9

v 2.25 3.38396e-017 -3
vt -88.5827 118.11
f 28/49/9 29/51/9 30/52/9

v 1.65 1.60402 -2.8
vt -110.236 36.3889
vn -0.936618 -0.350351 1.76409e-015
vt -118.11 -31.035
vt -110.236 -31.035
f 31/53/10 30/54/10 29/55/10

v 1.65 1.60402 -3
vt -118.11 36.3889
f 30/54/10 31/53/10 32/56/10

usemtl Wood
vt 110.236 63.1505
vn 1 0 -0
v 1.65 6.76792e-017 -3
vt 118.11 2.66454e-015
vt 118.11 63.1505
f 31/57/11 33/58/11 32/59/11

vt 106.299 86.4305
f 21/60/11 33/58/11 31/57/11

v 1.65 6.76792e-017 -2.7
vt 106.299 2.66454e-015
f 33/58/11 21/60/11 34/61/11

vt 64.9606 86.4305
vn 0 0 1
v 1.35 6.76792e-017 -2.7
vt 53.1496 2.66454e-015
vt 64.9606 2.66454e-015
f 21/62/12 35/63/12 34/64/12

f 35/63/12 21/62/12 6/9/12

vt 59.0551 97.6707
f 6/9/12 21/62/12 20/65/12

usemtl Green_Roof
vt 106.299 113.93
f 20/66/1 5/5/1 6/6/1

usemtl Wood
vt -110.236 86.4305
vt -106.299 2.66454e-015
vt -106.299 86.4305
f 7/67/7 35/68/7 6/69/7

vt -110.236 63.1505
f 35/68/7 7/67/7 9/70/7

v 1.35 6.76792e-017 -3
vt -118.11 2.66454e-015
f 35/68/7 9/70/7 36/71/7

vt -118.11 63.1505
f 36/71/7 9/70/7 11/72/7

vn -4.81274e-015 1.55194e-016 -1
vt -64.9606 -1.56655e-014
vt -53.1496 -1.56655e-014
f 11/18/13 33/73/13 36/74/13

vt -64.9606 63.1505
f 33/73/13 11/18/13 32/75/13

v 1.5 2.00503 -3
vt -59.0551 78.9381
f 32/75/13 11/18/13 37/76/13

usemtl Green_Roof
f 11/18/4 12/17/4 37/76/4

v 1.65 2.56952 -3
vt -64.9606 101.162
f 37/76/4 12/17/4 38/77/4

usemtl Wood
vn -7.88207e-029 -1.01142e-014 -1
v 1.65 2.85503 -3
vt -64.9606 112.403
f 12/17/14 39/78/14 38/77/14

v 1.35 2.85503 -3
vt -53.1496 112.403
f 39/78/14 12/17/14 40/79/14

v 1.35 2.56952 -2.7
vt -106.299 101.162
vt -118.11 112.403
vt -118.11 101.162
f 41/80/7 40/81/7 12/82/7

v 1.35 2.85503 -2.7
vt -106.299 112.403
f 40/81/7 41/80/7 42/83/7

vt 53.1496 112.403
vt 53.1496 101.162
v 1.5 2.85503 -2.7
vt 59.0551 112.403
f 42/84/12 41/85/12 43/86/12

usemtl Green_Roof
vt -106.299 114.275
vn -0.885256 0.465104 4.82827e-016
v 0.895448 1.70435 -2.2522
vt -88.6695 75.7978
vt -106.299 126.972
f 41/87/15 44/88/15 43/89/15

vt -118.11 3.11406e-014
f 13/90/15 44/88/15 41/87/15

v 0.678948 1.29228 -2.09916
vt -82.6441 57.4716
f 13/90/15 45/91/15 44/88/15

v 0.75013 1.42776 -1.63367
vt -64.3179 63.4969
f 13/90/15 46/92/15 45/91/15

v 0.917397 1.74613 -0.802826
vt -31.6073 77.6557
f 13/90/15 47/93/15 46/92/15

vt 0 1.1794e-015
f 14/94/15 47/93/15 13/90/15

v 1.35 2.56952 -0.3
vt -11.811 114.275
f 14/94/15 48/95/15 47/93/15

v 1.35 2.56952 -0
vt 2.89883e-014 114.275
f 48/95/15 14/94/15 49/96/15

vt 0 1.33227e-015
f 49/85/12 14/97/12 15/63/12

usemtl Wood
v 1.65 2.56952 -0
vt 64.9606 101.162
f 15/63/12 50/98/12 49/85/12

f 50/98/12 15/63/12 26/64/12

vt -53.1496 0
vn 0 -1 -0
vt -64.9606 11.811
vt -64.9606 0
f 15/99/16 18/100/16 26/101/16

f 16/26/16 18/100/16 15/99/16

vt -53.1496 11.811
f 18/100/16 16/26/16 17/102/16

f 26/101/16 18/100/16 25/47/16

vt 11.811 2.66454e-015
vt 7.87402 86.4305
vt 7.87402 2.66454e-015
f 18/103/11 24/104/11 25/105/11

vt 11.811 86.4305
f 24/104/11 18/103/11 19/106/11

usemtl Green_Roof
vt 118.11 1.33227e-015
f 50/98/12 26/64/12 27/107/12

vt 118.11 -54.9335
vn 0.885256 0.465104 5.36102e-017
vt 3.93395e-015 59.3412
vt 7.15263e-015 -54.9335
f 28/108/17 50/109/17 27/110/17

v 1.65 2.56952 -0.3
vt 11.811 59.3412
f 50/109/17 28/108/17 51/111/17

v 1.5 2.85503 -0.3
vt 11.811 72.0384
f 51/111/17 28/108/17 52/112/17

v 1.65 2.56952 -2.7
vt 106.299 59.3412
f 52/112/17 28/108/17 53/113/17

vt 118.11 59.3412
f 53/113/17 28/108/17 38/114/17

vt -118.11 8.04283e-013
f 28/115/4 32/75/4 38/77/4

vt -88.5827 8.04283e-013
f 32/75/4 28/115/4 30/116/4

f 38/77/4 32/75/4 37/76/4

usemtl Wood
vt 118.11 101.162
v 1.65 2.85503 -2.7
vt 106.299 112.403
vt 106.299 101.162
f 38/117/11 54/118/11 53/119/11

vt 118.11 112.403
f 54/118/11 38/117/11 39/120/11

vt 64.9606 118.11
vn 0 1 -0
vt 59.0551 106.299
vt 64.9606 106.299
f 39/121/18 43/122/18 54/123/18

vt 53.1496 118.11
f 40/124/18 43/122/18 39/121/18

vt 53.1496 106.299
f 43/122/18 40/124/18 42/125/18

vt 64.9606 112.403
f 43/86/12 53/98/12 54/126/12

usemtl Green_Roof
vt 106.299 72.0384
f 43/127/17 52/112/17 53/113/17

vt -11.811 126.972
f 43/89/15 48/95/15 52/128/15

v 1.17382 2.23419 -0.704621
vt -27.741 99.3613
f 48/95/15 43/89/15 55/129/15

v 1.22276 2.32734 -1.29532
vt -50.997 103.504
f 55/129/15 43/89/15 56/130/15

v 0.966335 1.83928 -1.39353
vt -54.8633 81.7983
f 56/130/15 43/89/15 57/131/15

v 0.966629 1.83984 -1.78672
vt -70.3433 81.8232
f 57/131/15 43/89/15 58/132/15

f 58/132/15 43/89/15 44/88/15

usemtl Leafs
vn -0.885256 0.465104 -3.46945e-018
f 45/91/19 58/132/19 44/88/19

f 58/132/19 45/91/19 46/92/19

usemtl Green_Roof
f 57/131/15 58/132/15 46/92/15

f 46/92/15 47/93/15 57/131/15

usemtl Leafs
vn -0.885256 0.465104 1.51788e-016
f 47/93/20 56/130/20 57/131/20

f 56/130/20 47/93/20 55/129/20

usemtl Green_Roof
f 47/93/15 48/95/15 55/129/15

usemtl Wood
vt -59.0551 112.403
v 1.35 2.85503 -0.3
f 52/133/6 48/17/6 59/79/6

vt 0 101.162
vt -11.811 112.403
vt -11.811 101.162
f 49/134/7 59/135/7 48/136/7

v 1.35 2.85503 -0
vt 0 112.403
f 59/135/7 49/134/7 60/137/7

f 49/85/12 50/98/12 60/84/12

v 1.65 2.85503 -0
f 60/84/12 50/98/12 61/126/12

vt 11.811 101.162
f 51/138/11 61/137/11 50/134/11

v 1.65 2.85503 -0.3
vt 11.811 112.403
f 61/137/11 51/138/11 62/139/11

f 52/133/6 62/78/6 51/77/6

vt 59.0551 11.811
vn 3.86042e-030 1 4.01062e-016
vt 64.9606 4.50804e-014
vt 64.9606 11.811
f 52/140/21 61/141/21 62/142/21

vt 53.1496 11.811
f 59/143/21 61/141/21 52/140/21

vt 53.1496 4.50804e-014
f 61/141/21 59/143/21 60/144/21

usemtl Green_Roof
vt -118.11 114.275
f 13/90/15 41/87/15 12/145/15

usemtl Wood
vt -64.9606 118.11
vt -53.1496 106.299
vt -53.1496 118.11
f 33/146/16 35/147/16 36/148/16

vt -64.9606 106.299
f 35/147/16 33/146/16 34/149/16

v 1.65 2.19533 -2.8
vt 110.236 86.4305
f 21/60/11 31/57/11 63/150/11

usemtl Green_Roof
vt 88.5827 1.35365e-013
vn -8.14671e-015 8.11498e-016 1
vt 64.9606 63.1505
f 29/151/22 63/62/22 31/152/22

vt 110.37 1.34033e-013
f 63/62/22 29/151/22 22/153/22

vt -110.236 46.2997
f 22/41/8 21/40/8 63/154/8

vt -29.5276 110.236
f 1/20/5 10/22/5 8/155/5

