# Alias OBJ Model File
# Exported from SketchUp, (c) 2000-2012 Trimble Navigation Limited
# File units = meters

mtllib naturePack_flat_001.mtl

g Mesh1 Plant_2 Model

usemtl Green_leafs
v 0.375162 0 -0.124348
vt 4.8956 -1.65409e-014
vn 1 1.11988e-015 -1.49015e-008
v 0.375162 0.190814 -0.153913
vt 6.05958 7.51236
v 0.375162 0.135586 -0
vt -2.20097e-007 5.33802
f 1/1/1 2/2/1 3/3/1

v 0.375162 0 -0.375162
vt 14.7702 -1.65409e-014
f 2/2/1 1/1/1 4/4/1

vn -1 -1.11988e-015 1.49015e-008
f 3/3/2 2/2/2 1/1/2

f 4/4/2 1/1/2 2/2/2

v 0.375162 0.349284 -0.268606
vt 10.5751 13.7514
f 2/2/1 4/4/1 5/5/1

f 5/5/2 4/4/2 2/2/2

v 0.375162 0.63535 -0.375162
vt 14.7702 25.0138
f 5/5/1 4/4/1 6/6/1

f 6/6/2 4/4/2 5/5/2

vt 14.7702 -1.48231e-014
vn 1 1.00359e-015 -1.49015e-008
v 0.375162 0.349284 -0.481718
vt 18.9653 13.7514
f 4/7/3 7/8/3 6/6/3

v 0.375162 0 -0.625976
vt 24.6447 -1.48231e-014
f 7/8/3 4/7/3 8/9/3

vn -1 -1.00359e-015 1.49015e-008
f 6/6/4 7/8/4 4/7/4

f 8/9/4 4/7/4 7/8/4

v 0.375162 0.190814 -0.596411
vt 23.4807 7.51236
f 7/8/3 8/9/3 9/10/3

f 9/10/4 8/9/4 7/8/4

v 0.375162 0.135586 -0.750324
vt 29.5403 5.33802
f 9/10/3 8/9/3 10/11/3

f 10/11/4 8/9/4 9/10/4

v 0.375162 0.420713 -0.633457
vt 24.9392 16.5635
f 11/12/3 7/8/3 9/10/3

f 9/10/4 7/8/4 11/12/4

vt 14.7702 1.77061e-014
vn 2.91428e-012 1.19877e-015 1
v 0.481718 0.349284 -0.375162
f 4/13/5 12/8/5 6/6/5

v 0.596411 0.190814 -0.375162
f 4/13/5 13/10/5 12/8/5

v 0.750324 0.135586 -0.375162
f 4/13/5 14/11/5 13/10/5

v 0.625976 0 -0.375162
vt 24.6447 1.77061e-014
f 14/11/5 4/13/5 15/14/5

vn -2.91428e-012 -1.19877e-015 -1
f 15/14/6 4/13/6 14/11/6

f 13/10/6 14/11/6 4/13/6

f 12/8/6 13/10/6 4/13/6

v 0.633457 0.420713 -0.375162
f 16/12/5 12/8/5 13/10/5

f 13/10/6 12/8/6 16/12/6

f 6/6/6 12/8/6 4/13/6

v 0.268606 0.349284 -0.375162
vn 2.91393e-012 1.34635e-015 1
vt 14.7702 1.98858e-014
f 17/5/7 4/15/7 6/6/7

v 0.124348 0 -0.375162
vt 4.8956 1.98858e-014
f 4/15/7 17/5/7 18/16/7

vn -2.91393e-012 -1.34635e-015 -1
f 18/16/8 17/5/8 4/15/8

v 0.153913 0.190814 -0.375162
f 18/16/7 17/5/7 19/2/7

f 19/2/8 17/5/8 18/16/8

v 0.116868 0.420713 -0.375162
vt 4.60108 16.5635
f 20/17/7 19/2/7 17/5/7

f 17/5/8 19/2/8 20/17/8

v 0 0.135586 -0.375162
vt 4.30392e-011 5.33802
f 18/16/7 19/2/7 21/18/7

f 21/18/8 19/2/8 18/16/8

f 6/6/8 4/15/8 17/5/8

v 0.375162 0.420713 -0.116868
f 5/5/1 22/17/1 2/2/1

f 2/2/2 22/17/2 5/5/2

