# Alias OBJ Model File
# Exported from SketchUp, (c) 2000-2012 Trimble Navigation Limited
# File units = meters

mtllib naturePack_001.mtl

g Mesh1 Plate_Grass_Dirt Model

usemtl Wood
v 3 0.3 -0
vt 118.11 11.811
vn 0 0 1
v 0 0 -0
vt 0 0
v 3 0 -0
vt 118.11 0
f 1/1/1 2/2/1 3/3/1

v 0 0.3 -0
vt 0 11.811
f 2/2/1 1/1/1 4/4/1

usemtl Leafs
vn 0 1 -0
v 0 0.3 -3
vt 0 118.11
f 1/3/2 5/5/2 4/2/2

v 3 0.3 -3
vt 118.11 118.11
f 5/5/2 1/3/2 6/6/2

usemtl Wood
vn 1 0 -0
v 3 0 -3
f 1/4/3 7/3/3 6/1/3

f 7/3/3 1/4/3 3/2/3

vn 0 -1 -0
vt -118.11 118.11
vt -118.11 0
f 2/2/4 7/7/4 3/8/4

v 0 0 -3
f 7/7/4 2/2/4 8/5/4

vn -1 0 -0
vt -118.11 11.811
f 2/2/5 5/9/5 8/8/5

f 5/9/5 2/2/5 4/4/5

vn 0 0 -1
f 5/4/6 7/8/6 8/2/6

f 7/8/6 5/4/6 6/9/6

