# Alias OBJ Model File
# Exported from SketchUp, (c) 2000-2012 Trimble Navigation Limited
# File units = meters

mtllib naturePack_089.mtl

g Mesh1 Group1 Model

usemtl Leafs
v 0.51591 1.0501 -1.63714
vt -49.8174 16.9706
vn -0.448765 0.440954 -0.777283
v 1.11717 0.839675 -2.10365
vt -79.501 7.74044
v 0.412531 0.839675 -1.69683
vt -47.4675 7.74044
f 1/1/1 2/2/1 3/3/1

v 1.11717 1.0501 -1.98428
vt -77.1511 16.9706
f 2/2/1 1/1/1 4/4/1

vt 0.970039 -2.424
vn 0.448765 0.440954 -0.777283
v 1.82181 0.839675 -1.69683
vt -28.7136 -11.6541
vt 3.3199 -11.6541
f 4/5/2 5/6/2 2/7/2

v 1.71844 1.0501 -1.63714
vt -26.3637 -2.424
f 5/6/2 4/5/2 6/8/2

v 1.71844 1.0501 -0.942861
vt 37.1205 7.27329
vn 0.89753 0.440954 3.59635e-018
vt 66.8041 -1.95685
vt 64.4543 7.27329
f 7/9/3 5/10/3 6/11/3

v 1.82181 0.839675 -0.883175
vt 34.7707 -1.95685
f 5/10/3 7/9/3 8/12/3

vt 77.1511 36.3652
vn 0.448765 0.440954 0.777283
v 1.11717 0.839675 -0.476349
vt 47.4675 27.135
vt 79.501 27.135
f 7/13/4 9/14/4 8/15/4

v 1.11717 1.0501 -0.595722
vt 49.8174 36.3652
f 9/14/4 7/13/4 10/16/4

vt 26.3637 55.7597
vn -0.448765 0.440954 0.777283
v 0.412531 0.839675 -0.883175
vt -3.3199 46.5296
vt 28.7136 46.5296
f 10/17/5 11/18/5 9/19/5

v 0.51591 1.0501 -0.942861
vt -0.970039 55.7597
f 11/18/5 10/17/5 12/20/5

vt -37.1205 46.0624
vn -0.89753 0.440954 -0
vt -66.8041 36.8323
vt -34.7707 36.8323
f 12/21/6 3/22/6 11/23/6

vt -64.4543 46.0624
f 3/22/6 12/21/6 1/24/6

vt -16.2414 34.7707
vn 0 -1 -0
v 0.245778 0.839675 -1.7931
vt -9.6763 70.5945
vt -16.2414 66.8041
f 11/25/7 13/26/7 3/27/7

v 0.245778 0.839675 -0.7869
vt -9.6763 30.9803
f 11/25/7 14/28/7 13/26/7

v 1.11717 0.839675 -0.2838
vt -43.9832 11.1732
f 14/28/7 11/25/7 15/29/7

vt -43.9832 18.7539
f 15/29/7 11/25/7 9/30/7

v 0 0 -0.645
vt -12.6969 9.69729
f 16/31/5 9/19/5 11/18/5

v 1.11717 0 -0
vt 38.0906 9.69729
f 9/19/5 16/31/5 17/32/5

v 5.41434e-016 0 -1.935
vt -2.13163e-014 76.1811
vt -43.9832 0
vt 0 25.3937
f 18/33/7 17/34/7 16/35/7

v 1.11717 0 -2.58
vt -43.9832 101.575
f 17/34/7 18/33/7 19/36/7

vt -88.878 -29.0919
vt -38.0906 -29.0919
f 3/3/1 19/37/1 18/38/1

f 19/37/1 3/3/1 2/2/1

v 1.11717 0.839675 -2.2962
vt -43.9832 90.4016
vt -43.9832 82.8209
f 3/27/7 20/39/7 2/40/7

f 20/39/7 3/27/7 13/26/7

v 0.584989 1.7682 -1.59726
vt -51.3875 50.6514
vn -0.469642 0.343143 -0.813443
vt -83.2913 11.7325
vt -43.6772 11.7325
f 21/41/8 20/42/8 13/43/8

v 1.11717 1.7682 -1.90451
vt -75.581 50.6514
f 20/42/8 21/41/8 22/44/8

v 0.648188 1.94119 -1.56077
vt -52.8241 57.9025
f 23/45/8 22/44/8 21/41/8

v 1.11717 1.94119 -1.83154
vt -74.1444 57.9025
f 22/44/8 23/45/8 24/46/8

vt -2.03668 42.81
vn 0.469642 0.343143 -0.813443
v 1.64936 1.7682 -1.59726
vt -24.7936 35.5589
vt -0.600138 35.5589
f 24/47/9 25/48/9 22/49/9

v 1.58616 1.94119 -1.56077
vt -23.357 42.81
f 25/48/9 24/47/9 26/50/9

v 1.58616 1.94119 -1.01923
vt 40.1272 50.3563
vn 0.939283 0.343143 -7.89838e-018
vt 62.8841 43.1052
vt 61.4476 50.3563
f 27/51/10 25/52/10 26/53/10

v 1.64936 1.7682 -0.982744
vt 38.6907 43.1052
f 25/52/10 27/51/10 28/54/10

vt 74.1444 72.995
vn 0.469642 0.343143 0.813443
v 1.11717 1.7682 -0.675487
vt 51.3875 65.744
vt 75.581 65.744
f 27/55/11 29/56/11 28/57/11

v 1.11717 1.94119 -0.748463
vt 52.8241 72.995
f 29/56/11 27/55/11 30/58/11

vt 23.357 88.0876
vn -0.469642 0.343143 0.813443
v 0.584989 1.7682 -0.982744
vt 0.600138 80.8365
vt 24.7936 80.8365
f 30/59/12 31/60/12 29/61/12

v 0.648188 1.94119 -1.01923
vt 2.03668 88.0876
f 31/60/12 30/59/12 32/62/12

vt -40.1272 80.5413
vn -0.939283 0.343143 -4.68935e-018
vt -62.8841 73.2902
vt -38.6907 73.2902
f 32/63/13 21/64/13 31/65/13

vt -61.4476 80.5413
f 21/64/13 32/63/13 23/66/13

vt -70.5945 34.3712
vn -0.939283 0.343143 -4.92693e-016
f 13/67/14 31/65/14 21/64/14

vt -30.9803 34.3712
f 31/65/14 13/67/14 14/68/14

vt -7.11024 41.9175
f 14/69/12 29/61/12 31/60/12

vt 32.5039 41.9175
f 29/61/12 14/69/12 15/70/12

vt 43.6772 26.825
f 15/71/11 28/57/11 29/56/11

v 1.98857 0.839675 -0.7869
vt 83.2913 26.825
f 28/57/11 15/71/11 33/72/11

vt -78.2901 30.9803
f 15/29/7 9/30/7 33/73/7

vt -71.725 34.7707
f 33/73/7 9/30/7 8/74/7

vt 38.0906 -9.69729
f 17/75/4 8/15/4 9/14/4

v 2.23435 0 -0.645
vt 88.878 -9.69729
f 8/15/4 17/75/4 34/76/4

v 2.23435 0 -1.935
vt -87.9664 76.1811
vt -87.9664 25.3937
f 17/34/7 35/77/7 34/78/7

f 17/34/7 19/36/7 35/77/7

vt -38.0906 -48.4864
vt 12.6969 -48.4864
f 2/7/2 35/79/2 19/80/2

f 35/79/2 2/7/2 5/6/2

v 1.98857 0.839675 -1.7931
vt -78.2901 70.5945
vt -71.725 66.8041
f 2/40/7 36/81/7 5/82/7

f 2/40/7 20/39/7 36/81/7

vt -32.5039 -3.36003
vt 7.11024 -3.36003
f 22/49/9 36/83/9 20/84/9

f 36/83/9 22/49/9 25/48/9

vt -43.9832 74.9808
v 1.11717 1.7682 -2.0691
vt -43.9832 81.4607
vt -64.9353 62.8841
f 22/85/7 37/86/7 25/87/7

vt -23.0311 62.8841
f 21/88/7 37/86/7 22/85/7

v 0.442452 1.7682 -1.67955
vt -17.4194 66.124
f 37/86/7 21/88/7 38/89/7

vt -23.0311 38.6907
f 31/90/7 38/89/7 21/88/7

v 0.442452 1.7682 -0.90045
vt -17.4194 35.4508
f 31/90/7 39/91/7 38/89/7

v 1.11717 1.7682 -0.510899
vt -43.9832 20.1141
f 39/91/7 31/90/7 40/92/7

vt -43.9832 26.594
f 40/92/7 31/90/7 29/93/7

vt -64.9353 38.6907
f 40/92/7 29/93/7 28/94/7

v 1.79189 1.7682 -0.90045
vt -70.547 35.4508
f 40/92/7 28/94/7 41/95/7

v 1.79189 1.7682 -1.67955
vt -70.547 66.124
f 41/95/7 28/94/7 42/96/7

f 25/87/7 42/96/7 28/94/7

f 25/87/7 37/86/7 42/96/7

v 1.11717 2.83952 -1.74162
vt -3.80676 87.2452
vn 0.48335 0.255912 -0.837187
vt -28.0335 43.6141
vt 2.63978 43.6141
f 43/97/15 42/98/15 37/99/15

v 1.50828 2.83952 -1.51581
vt -21.5869 87.2452
f 42/98/15 43/97/15 44/100/15

vt -43.9832 68.5676
v 1.11717 2.83952 -1.84706
vt -43.9832 72.7188
vt -59.3813 59.6775
f 43/101/7 45/102/7 44/103/7

v 0.726061 2.83952 -1.51581
vt -28.5851 59.6775
f 46/104/7 45/102/7 43/101/7

v 0.634747 2.83952 -1.56853
vt -24.9901 61.7531
f 46/104/7 47/105/7 45/102/7

v 0.634747 2.83952 -1.01147
vt -24.9901 39.8217
f 47/105/7 46/104/7 48/106/7

v 0.726061 2.83952 -1.06419
vt -28.5851 41.8973
f 48/106/7 46/104/7 49/107/7

vt -66.124 71.7537
vn -0.9667 0.255912 -1.06474e-015
vt -41.8973 115.385
vt -59.6775 115.385
f 38/108/16 49/109/16 46/110/16

vt -35.4508 71.7537
f 49/109/16 38/108/16 39/111/16

vt -2.63978 77.3816
vn -0.48335 0.255912 0.837187
v 1.11717 2.83952 -0.838384
vt 21.5869 121.013
vt 3.80676 121.013
f 39/112/17 50/113/17 49/114/17

vt 28.0335 77.3816
f 50/113/17 39/112/17 40/115/17

vt 48.1476 66.1258
vn 0.48335 0.255912 0.837187
v 1.50828 2.83952 -1.06419
vt 72.3743 109.757
vt 54.5942 109.757
f 40/116/18 51/117/18 50/118/18

vt 78.8209 66.1258
f 51/117/18 40/116/18 41/119/18

vt 66.124 49.242
vn 0.9667 0.255912 -7.75561e-016
vt 41.8973 92.8732
vt 35.4508 49.242
f 42/120/19 51/121/19 41/122/19

vt 59.6775 92.8732
f 51/121/19 42/120/19 44/123/19

v 1.5996 2.83952 -1.56853
vt -62.9763 61.7531
vt -59.3813 41.8973
f 44/103/7 52/124/7 51/125/7

f 44/103/7 45/102/7 52/124/7

v 1.11717 4.25334 -1.36795
vt -11.1624 141.351
vn 0.479766 0.281597 -0.83098
vt -23.6625 83.3416
vt -1.73116 83.3416
f 53/126/20 52/127/20 45/128/20

v 1.18468 4.25334 -1.32898
vt -14.2313 141.351
f 52/127/20 53/126/20 54/129/20

vt 43.9832 53.8563
vn 0 1 -0
v 1.18468 4.25334 -1.25102
vt 46.6409 49.253
vt 46.6409 52.3219
f 53/130/21 55/131/21 54/132/21

v 1.11717 4.25334 -1.21205
vt 43.9832 47.7185
f 53/130/21 56/133/21 55/131/21

v 1.04967 4.25334 -1.32898
vt 41.3254 52.3219
f 57/134/21 56/133/21 53/130/21

v 1.04967 4.25334 -1.25102
vt 41.3254 49.253
f 56/133/21 57/134/21 58/135/21

vt -61.7531 114.305
vn -0.959533 0.281597 -8.93696e-017
vt -49.253 172.315
vt -52.3219 172.315
f 47/136/22 58/137/22 57/138/22

vt -39.8217 114.305
f 58/137/22 47/136/22 48/139/22

vt 1.73116 120.498
vn -0.479766 0.281597 0.83098
vt 14.2313 178.508
vt 11.1624 178.508
f 48/140/23 56/141/23 58/142/23

v 1.11717 2.83952 -0.732943
vt 23.6625 120.498
f 56/141/23 48/140/23 59/143/23

vt -43.9832 28.856
f 49/107/7 59/144/7 48/106/7

vt -43.9832 33.0072
f 59/144/7 49/107/7 50/145/7

v 1.11717 2.9452 -0.870688
vt 20.951 125.317
f 60/146/17 49/114/17 50/113/17

v 0.754038 2.9452 -1.08034
vt 4.44268 125.317
f 49/114/17 60/146/17 61/147/17

vt -42.5332 119.689
vn -0.9667 0.255912 -8.34792e-016
f 61/148/24 46/110/24 49/109/24

v 0.754038 2.9452 -1.49966
vt -59.0416 119.689
f 46/110/24 61/148/24 62/149/24

vt -55.2301 102.805
vn -0.48335 0.255912 -0.837187
vt -72.3743 98.5011
vt -54.5942 98.5011
f 62/150/25 43/151/25 46/152/25

v 1.11717 2.9452 -1.70931
vt -71.7384 102.805
f 43/151/25 62/150/25 63/153/25

vt -4.44268 91.5492
f 63/154/15 44/100/15 43/97/15

v 1.48031 2.9452 -1.49966
vt -20.951 91.5492
f 44/100/15 63/154/15 64/155/15

v 1.48031 2.9452 -1.08034
vt 42.5332 97.1771
vn 0.9667 0.255912 -1.65757e-015
vt 59.0416 97.1771
f 65/156/26 44/123/26 64/157/26

f 44/123/26 65/156/26 51/121/26

vt 71.7384 114.061
f 65/158/18 50/118/18 51/117/18

vt 55.2301 114.061
f 50/118/18 65/158/18 60/159/18

f 59/144/7 50/145/7 51/125/7

v 1.5996 2.83952 -1.01147
vt -62.9763 39.8217
f 59/144/7 51/125/7 66/160/7

f 66/160/7 51/125/7 52/124/7

vt 61.7531 89.5343
vn 0.959533 0.281597 -3.37591e-017
vt 49.253 147.544
vt 39.8217 89.5343
f 52/161/27 55/162/27 66/163/27

vt 52.3219 147.544
f 55/162/27 52/161/27 54/164/27

vt 65.0187 166.122
vn 0.479766 0.281597 0.83098
vt 52.5186 108.113
vt 74.4499 108.113
f 55/165/28 59/166/28 66/167/28

vt 61.9498 166.122
f 59/166/28 55/165/28 56/168/28

vt -78.8209 54.8699
f 37/169/25 46/152/25 43/151/25

vt -48.1476 54.8699
f 46/152/25 37/169/25 38/170/25

vt -61.9498 153.737
vn -0.479766 0.281597 -0.83098
vt -74.4499 95.7271
vt -52.5186 95.7271
f 57/171/29 45/172/29 47/173/29

vt -65.0187 153.737
f 45/172/29 57/171/29 53/174/29

vn 0.939283 0.343143 2.10221e-017
vt 70.5945 4.18623
f 28/54/30 36/175/30 25/52/30

vt 30.9803 4.18623
f 36/175/30 28/54/30 33/176/30

f 33/73/7 8/74/7 36/81/7

f 5/82/7 36/81/7 8/74/7

vn 0.89753 0.440954 -5.77688e-018
vt 76.1811 -38.7891
f 8/12/31 35/177/31 5/10/31

vt 25.3937 -38.7891
f 35/177/31 8/12/31 34/178/31

vt -76.1811 -4.96866e-015
vn -0.89753 0.440954 -3.83892e-016
f 18/179/32 11/23/32 3/22/32

vt -25.3937 -4.78939e-015
f 11/23/32 18/179/32 16/180/32

