# Alias OBJ Model File
# Exported from SketchUp, (c) 2000-2012 Trimble Navigation Limited
# File units = meters

mtllib naturePack_020.mtl

g Mesh1 Group1 Model

usemtl Wood
v 0.516773 0.34 -0.365546
vt 1.94294 25.4234
vn -0.622396 0.587155 0.517564
v 0 0 -0.601275
vt -18.2013 8.88695
v 0.5 0 -0
vt 12.5863 8.88695
f 1/1/1 2/2/1 3/3/1

v 0.311522 0.34 -0.61237
vt -10.6954 25.4234
f 2/2/1 1/1/1 4/4/1

usemtl Green_leafs
vt 20.3454 14.3916
vn 0 1 -0
v 0.378312 0.34 -0.705433
vt 14.8942 27.7729
vt 12.2647 24.1091
f 1/5/2 5/6/2 4/7/2

v 0.661429 0.34 -0.604677
vt 26.0405 23.8062
f 5/6/2 1/5/2 6/8/2

v 0.694871 0.34 -0.543644
vt 27.3571 21.4033
f 6/8/2 1/5/2 7/9/2

usemtl Wood
vt 24.5627 8.36358
vn 0.572385 0.587155 0.572385
v 1 0 -0.5
vt 41.7583 -8.17286
vt 34.4788 8.36358
f 1/10/3 8/11/3 7/12/3

vt 13.9194 -8.17286
f 8/11/3 1/10/3 3/13/3

vt -19.685 0
vn 0 -1 -0
v 0.832586 0 -0.805538
vt -32.779 31.7141
vt -39.3701 19.685
f 3/14/4 9/15/4 8/16/4

v 0.286158 0 -1
vt -11.266 39.3701
f 3/14/4 10/17/4 9/15/4

vt 0 23.6723
f 10/17/4 3/14/4 2/18/4

vt -26.7379 8.43227
vn -0.657639 0.587155 -0.471975
vt -38.5541 -8.10417
vt -19.232 -8.10417
f 4/19/5 10/20/5 2/21/5

vt -31.2477 8.43227
f 10/20/5 4/19/5 5/22/5

vt -4.72035 -7.45974
vn 0.271401 0.587155 -0.762621
vt -20.2486 -23.9962
vt 2.58605 -23.9962
f 5/23/6 9/24/6 10/25/6

vt -16.5515 -7.45974
f 9/24/6 5/23/6 6/26/6

vt 5.62451 -9.29014
vn 0.709894 0.587155 -0.388973
vt 12.0615 -25.8266
vt 8.36442 -9.29014
f 7/27/7 9/28/7 6/29/7

vt -1.65493 -25.8266
f 9/28/7 7/27/7 8/30/7

