# Alias OBJ Model File
# Exported from SketchUp, (c) 2000-2012 Trimble Navigation Limited
# File units = meters

mtllib naturePack_109.mtl

g Mesh1 Trunk_Alt Model

usemtl Wood
v 0.80369 0 -0.80369
vt 31.6413 -12.8233
vn 0.914197 0.40527 6.74643e-018
v 0.701729 0.23 -0.101961
vt 4.0142 -2.91828
vn 0.966384 0.257103 3.72362e-018
v 0.80369 0 -0
vt 2.33501e-016 -12.8233
f 1/1/1 2/2/2 3/3/1

v 0.701729 0.23 -0.701729
vt 27.6271 -2.91828
f 2/2/2 1/1/1 4/4/2

vt -31.6413 -12.8233
vn 6.53637e-018 0.40527 -0.914197
v 0.101961 0.23 -0.701729
vt -4.0142 -2.91828
vn 3.78341e-018 0.257103 -0.966384
vt -27.6271 -2.91828
f 1/5/3 5/6/4 4/7/4

v 0 0 -0.80369
vt 2.26231e-016 -12.8233
f 5/6/4 1/5/3 6/8/3

vt -31.6413 31.6413
vn 0 -1 -0
v 0 0 -0
vt 0 0
vt 0 31.6413
f 1/9/5 7/10/5 6/11/5

vt -31.6413 0
f 7/10/5 1/9/5 3/12/5

vt 27.6271 9.905
vn 4.92231e-018 0.257103 0.966384
vn 2.36906e-018 0.40527 0.914197
vt 31.6413 -3.32304e-017
f 2/13/6 7/10/7 3/14/7

v 0.101961 0.23 -0.101961
vt 4.0142 9.905
f 7/10/7 2/13/6 8/15/6

v 0.639848 0.83 -0.163841
vt 25.1909 33.1665
vn 7.35408e-018 0.102591 0.994724
vt 4.0142 9.41916
vt 27.6271 9.41916
f 9/16/8 8/17/6 2/18/6

v 0.163841 0.83 -0.163841
vt 6.45045 33.1665
f 8/17/6 9/16/8 10/19/8

usemtl Light_Wood
v 0.26266 0.83 -0.26266
vt 10.341 10.341
vn 0 1 -0
vt 6.45045 6.45045
vt 25.1909 6.45045
f 11/20/9 10/21/9 9/22/9

v 0.163841 0.83 -0.639848
vt 6.45045 25.1909
f 10/21/9 11/20/9 12/23/9

v 0.26266 0.83 -0.541029
vt 10.341 21.3004
f 13/24/9 12/23/9 11/20/9

v 0.639848 0.83 -0.639848
vt 25.1909 25.1909
f 12/23/9 13/24/9 14/25/9

v 0.541029 0.83 -0.541029
vt 21.3004 21.3004
f 14/25/9 13/24/9 15/26/9

usemtl Wood
v 0.26266 0.23 -0.541029
vt 10.341 9.05512
vn 0 0 1
vt 21.3004 32.6772
vt 10.341 32.6772
f 16/27/10 15/28/10 13/29/10

v 0.541029 0.23 -0.541029
vt 21.3004 9.05512
f 15/28/10 16/27/10 17/30/10

v 0.541029 0.23 -0.26266
vt 21.3004 10.341
f 16/24/9 18/31/9 17/26/9

v 0.26266 0.23 -0.26266
f 18/31/9 16/24/9 19/20/9

vn 1 0 -0
f 16/30/11 11/29/11 19/27/11

f 11/29/11 16/30/11 13/28/11

vt -10.341 32.6772
vn 0 0 -1
vt -21.3004 9.05512
vt -10.341 9.05512
f 11/32/12 18/33/12 19/34/12

v 0.541029 0.83 -0.26266
vt -21.3004 32.6772
f 18/33/12 11/32/12 20/35/12

usemtl Light_Wood
f 11/20/9 9/22/9 20/31/9

f 20/31/9 9/22/9 15/26/9

f 14/25/9 15/26/9 9/22/9

usemtl Wood
vt 6.45045 29.9204
vn 0.994724 0.102591 6.0893e-019
vt 27.6271 6.17306
vt 25.1909 29.9204
f 9/36/13 4/37/2 14/38/13

vt 4.0142 6.17306
f 4/37/2 9/36/13 2/39/2

vt -27.6271 6.17306
vt -6.45045 29.9204
vn 9.37084e-019 0.102591 -0.994724
vt -25.1909 29.9204
f 4/40/4 12/41/14 14/42/14

vt -4.0142 6.17306
f 12/41/14 4/40/4 5/43/4

vt -27.6271 9.41916
vn -0.966384 0.257103 -1.39544e-018
v 0.11813 0.386775 -0.527126
vt -20.753 15.6242
vn -0.994724 0.102591 -5.80807e-018
vt -25.1909 33.1665
f 5/44/15 21/45/16 12/46/16

v 0.11813 0.386775 -0.276564
vt -10.8883 15.6242
f 5/44/15 22/47/16 21/45/16

vt -4.0142 9.41916
f 8/48/15 22/47/16 5/44/15

vt -6.45045 33.1665
f 22/47/16 8/48/15 10/49/16

v 0.147672 0.673225 -0.306107
vt -12.0514 26.9615
f 10/49/16 23/50/16 22/47/16

f 23/50/16 10/49/16 12/46/16

v 0.147672 0.673225 -0.497583
vt -19.5899 26.9615
f 23/50/16 12/46/16 24/51/16

f 24/51/16 12/46/16 21/45/16

v -0.163841 0.479545 -0.472002
vt 3.50416 16.4852
vn -0.153326 0.117012 -0.981223
vt -8.76859 24.1631
vt -7.799 12.8076
f 25/52/17 24/53/17 21/54/17

v -0.147297 0.639957 -0.455458
vt 2.96119 22.8443
f 24/53/17 25/52/17 26/55/17

usemtl Light_Wood
vt -18.5828 18.1184
vn -0.994724 0.102591 -3.20342e-015
v -0.147297 0.639957 -0.348231
vt -13.7099 24.4673
vt -17.9314 24.4673
f 25/56/18 27/57/18 26/58/18

v -0.163841 0.479545 -0.331687
vt -13.0586 18.1184
f 27/57/18 25/56/18 28/59/18

usemtl Wood
vt -20.753 0.341146
vn -0.312526 -0.949909 -2.93268e-016
vt -13.0586 12.0277
vt -18.5828 12.0277
f 21/60/19 28/61/19 25/62/19

vt -10.8883 0.341146
f 28/61/19 21/60/19 22/63/19

vt 3.88359 27.8211
vn -0.153326 0.117012 0.981223
vt -8.38916 20.1432
vt 2.914 16.4656
f 23/64/20 28/65/20 22/66/20

vt -7.84619 26.5023
f 28/65/20 23/64/20 27/67/20

vt -12.0514 8.74773
vn -0.112073 0.9937 -3.29727e-016
vt -17.9314 -2.93886
vt -13.7099 -2.93886
f 23/68/21 26/69/21 27/70/21

vt -19.5899 8.74773
f 26/69/21 23/68/21 24/71/21

vt -31.6413 4.28047e-017
vn -0.914197 0.40527 3.05163e-018
vt -4.0142 9.905
vt -27.6271 9.905
f 6/72/22 8/73/15 5/74/15

f 8/73/15 6/72/22 7/10/22

vn -1 0 -0
f 15/35/23 18/34/23 20/32/23

f 18/34/23 15/35/23 17/33/23

