# Alias OBJ Model File
# Exported from SketchUp, (c) 2000-2012 Trimble Navigation Limited
# File units = meters

mtllib naturePack_021.mtl

g Mesh1 Group1 Model

usemtl Wood
v 0.264719 0.49 -0.37872
vt -14.9102 21.9266
vn -0.879816 0.475315 -5.22247e-017
v 0 0 -0.5
vt -19.685 -5.55395e-016
v 0 0 -0.17965
vt -7.07285 -1.99554e-016
f 1/1/1 2/2/1 3/3/1

v 0.264719 0.49 -0.438916
vt -17.2802 21.9266
f 2/2/1 1/1/1 4/4/1

usemtl Green_leafs
v 0.659335 0.49 -0.264719
vt 25.9581 10.422
vn 0 1 -0
vt 10.422 17.2802
vt 10.422 14.9102
f 5/5/2 4/6/2 1/7/2

v 0.409184 0.49 -0.735281
vt 16.1096 28.9481
f 4/6/2 5/5/2 6/8/2

v 0.490166 0.49 -0.735281
vt 19.2979 28.9481
f 6/8/2 5/5/2 7/9/2

v 0.735281 0.49 -0.411171
vt 28.9481 16.1878
f 7/9/2 5/5/2 8/10/2

v 0.735281 0.49 -0.264719
vt 28.9481 10.422
f 8/10/2 5/5/2 9/11/2

usemtl Wood
v 0.621864 0 -0
vt 24.4828 0
vn -0.123031 0.47897 0.869167
vt 28.9481 21.9266
vn 0 0.475315 0.879816
vt 25.9581 21.9266
f 10/12/3 9/13/4 5/14/3

v 1 0 -0
vt 39.3701 0
f 9/13/4 10/12/3 11/15/4

vt -24.4828 0
vn 0 -1 -0
v 1 0 -0.5
vt -39.3701 19.685
vt -39.3701 0
f 10/16/5 12/17/5 11/18/5

v 0.621864 0 -1
vt -24.4828 39.3701
f 10/16/5 13/19/5 12/17/5

v 0.243728 0 -1
vt -9.59557 39.3701
f 10/16/5 14/20/5 13/19/5

vt 0 7.07285
f 3/21/5 14/20/5 10/16/5

vt 0 19.685
f 14/20/5 3/21/5 2/22/5

vt -17.6947 -4.09978
vn -0.79086 0.475315 -0.385509
vt -33.0799 17.8268
vt -39.5939 -4.09978
f 2/23/6 6/24/6 14/25/6

vt -20.0996 17.8268
f 6/24/6 2/23/6 4/26/6

vt -16.1096 3.21338
vn 1.85521e-017 0.475315 -0.879816
vt -24.4828 -18.7132
vt -9.59557 -18.7132
f 6/27/7 13/28/7 14/29/7

vt -19.2979 3.21338
f 13/28/7 6/27/7 7/30/7

vt 11.4483 1.3572
vn 0.701734 0.475315 -0.530702
vt -8.04728 -20.5694
vt 16.6333 -20.5694
f 7/31/8 12/32/8 13/33/8

vt -4.55008 1.3572
f 12/32/8 7/31/8 8/34/8

vt 10.422 3.21338
vn 0.879816 0.475315 -0
vt 19.685 -18.7132
vt 16.1878 3.21338
f 9/35/9 12/36/9 8/37/9

vt 0 -18.7132
f 12/36/9 9/35/9 11/38/9

vt 22.0457 25.1563
vt -1.963 3.22976
vn -0.244185 0.475315 0.845251
vt 23.521 3.22976
f 5/39/3 3/40/10 10/41/3

vt 5.87439 25.1563
f 3/40/10 5/39/3 1/42/10

