# Alias OBJ Model File
# Exported from SketchUp, (c) 2000-2012 Trimble Navigation Limited
# File units = meters

mtllib naturePack_084.mtl

g Mesh1 Tree Model

usemtl Leafs
v 0.177 0.6 -1.003
vt -6.9685 3.91699
vn -5.60096e-018 0.438447 -0.898757
v 1.18 0 -1.2957
vt -46.4567 -22.366
v 0 0 -1.2957
vt -3.17901e-016 -22.366
f 1/1/1 2/2/1 3/3/1

v 1.003 0.6 -1.003
vt -39.4882 3.91699
f 2/2/1 1/1/1 4/4/1

vt -6.9685 39.4882
vn 0 -1 -0
v 1.0974 0.6 -1.0974
vt -43.2047 43.2047
vt -39.4882 39.4882
f 1/5/2 5/6/2 4/7/2

v -0.0969352 0.6 -1.0974
vt 3.81635 43.2047
f 1/5/2 6/8/2 5/6/2

v -0.0969352 0.6 -0.0826
vt 3.81635 3.25197
f 6/8/2 1/5/2 7/9/2

v 0.177 0.6 -0.177
vt -6.9685 6.9685
f 8/10/2 7/9/2 1/5/2

v 1.0974 0.6 -0.0826
vt -43.2047 3.25197
f 7/9/2 8/10/2 9/11/2

v 1.003 0.6 -0.177
vt -39.4882 6.9685
f 9/11/2 8/10/2 10/12/2

v 0 0 -0
vt 0 0
vn 7.96848e-018 0.282945 0.959136
vt 39.4882 24.6285
vt 6.9685 24.6285
f 11/13/3 10/14/3 8/15/3

v 1.18 0 -0
vt 46.4567 -1.09206e-016
f 10/14/3 11/13/3 12/16/3

v 0.393303 0 -0.393303
vt -15.4844 15.4844
vt -46.4567 0
f 11/13/2 13/17/2 12/18/2

v 0.393303 0 -0.786697
vt -15.4844 30.9723
f 13/17/2 11/13/2 14/19/2

vt 0 51.0119
f 3/20/2 14/19/2 11/13/2

vt -46.4567 51.0119
f 14/19/2 3/20/2 2/21/2

v 0.786697 0 -0.786697
vt -30.9723 30.9723
f 14/19/2 2/21/2 15/22/2

v 0.786697 0 -0.393303
vt -30.9723 15.4844
f 15/22/2 2/21/2 16/23/2

f 12/18/2 16/23/2 2/21/2

f 12/18/2 13/17/2 16/23/2

f 13/17/2 15/22/2 16/23/2

f 15/22/2 13/17/2 14/19/2

usemtl Wood
v 0.342162 -0.495868 -0.837838
vt -32.9858 -18.0374
vn -0.994724 0.102591 -5.80807e-018
vt -15.4844 1.58855
vt -30.9723 1.58855
f 17/24/4 13/25/4 14/26/4

v 0.342162 -0.495868 -0.342162
vt -13.4709 -18.0374
f 13/25/4 17/24/4 18/27/4

v 0.837838 -0.495868 -0.837838
vt -32.9858 32.9858
vt -13.4709 13.4709
vt -13.4709 32.9858
f 19/28/2 18/29/2 17/30/2

v 0.837838 -0.495868 -0.342162
vt -32.9858 13.4709
f 18/29/2 19/28/2 20/31/2

vt 32.9858 -22.8034
vn 0.994724 0.102591 6.0893e-019
vt 15.4844 -3.17747
vt 13.4709 -22.8034
f 19/32/5 16/33/5 20/34/5

vt 30.9723 -3.17747
f 16/33/5 19/32/5 15/35/5

vt -32.9858 -22.8034
vn 9.37084e-019 0.102591 -0.994724
vt -15.4844 -3.17747
vt -30.9723 -3.17747
f 19/36/6 14/37/6 15/38/6

vt -13.4709 -22.8034
f 14/37/6 19/36/6 17/39/6

vt 30.9723 1.58855
vn 7.35408e-018 0.102591 0.994724
vt 13.4709 -18.0374
vt 32.9858 -18.0374
f 16/40/7 18/41/7 20/42/7

vt 15.4844 1.58855
f 18/41/7 16/40/7 13/43/7

usemtl Leafs
vt 51.0119 -13.1447
vn 0.959136 0.282945 1.5942e-018
vt 6.9685 11.4838
vt 7.72167e-017 -13.1447
f 2/44/8 10/45/8 12/46/8

vt 39.4882 11.4838
f 10/45/8 2/44/8 4/47/8

f 4/7/2 5/6/2 10/12/2

f 9/11/2 10/12/2 5/6/2

vt 43.2047 14.4705
vn 0.979654 0.200693 -1.44372e-018
v 0.94518 1.34304 -0.23482
vt 9.24488 44.3316
vt 3.25197 14.4705
f 5/48/9 21/49/9 9/50/9

v 0.94518 1.34304 -0.94518
vt 37.2118 44.3316
f 21/49/9 5/48/9 22/51/9

vt -43.2047 14.4705
vn -2.59638e-018 0.200693 -0.979654
v 0.23482 1.34304 -0.94518
vt -9.24488 44.3316
vt -37.2118 44.3316
f 5/52/10 23/53/10 22/54/10

vt 3.81635 14.4705
f 23/53/10 5/52/10 6/55/10

vt -43.2047 20.0138
vn -0.913119 0.407693 2.16966e-017
v 0.23482 1.34304 -0.23482
vt -9.24488 52.0508
vt -37.2118 52.0508
f 6/56/11 24/57/11 23/58/11

vt -3.25197 20.0138
f 24/57/11 6/56/11 7/59/11

vt -3.81635 23.7941
vn 5.19277e-018 0.200693 0.979654
vt 37.2118 53.6552
vt 9.24488 53.6552
f 7/60/12 21/61/12 24/62/12

vt 43.2047 23.7941
f 21/61/12 7/60/12 9/63/12

v 1.14207 1.34304 -0.153636
vt -44.9632 6.04866
vt -9.24488 9.24488
vt -37.2118 9.24488
f 25/64/2 24/65/2 21/66/2

v 0.153636 1.34304 -0.153636
vt -6.04866 6.04866
f 26/67/2 24/65/2 25/64/2

vt -9.24488 37.2118
f 24/65/2 26/67/2 23/68/2

v 0.153636 1.34304 -1.02636
vt -6.04866 40.408
f 27/69/2 23/68/2 26/67/2

v 1.14207 1.34304 -1.02636
vt -44.9632 40.408
f 23/68/2 27/69/2 28/70/2

v 0.383388 3.21676 -0.59
vt -15.094 118.075
vn 1.92555e-017 0.226817 -0.973937
vt -44.9632 42.3323
vt -6.04866 42.3323
f 29/71/13 28/72/13 27/73/13

vt 40.408 32.1354
vn 0.926901 0.375307 -4.48545e-017
vt 23.2283 111.722
vt 6.04866 32.1354
f 28/74/14 29/75/14 25/76/14

vt 15.094 128.612
vn -3.8511e-017 0.226817 0.973937
vt 6.04866 52.8695
vt 44.9632 52.8695
f 29/77/15 26/78/15 25/79/15

vt -40.408 53.2187
vn -0.992566 0.121707 7.00107e-018
vt -6.04866 53.2187
vt -23.2283 127.54
f 27/80/16 26/81/16 29/82/16

f 25/64/2 21/66/2 28/70/2

vt -37.2118 37.2118
f 22/83/2 28/70/2 21/66/2

f 23/68/2 28/70/2 22/83/2

vt -6.9685 24.6285
vn -0.959136 0.282945 7.971e-018
vt -51.0119 1.19952e-016
f 8/84/17 3/85/17 11/13/17

vt -39.4882 24.6285
f 3/85/17 8/84/17 1/86/17

