# Alias OBJ Model File
# Exported from SketchUp, (c) 2000-2012 Trimble Navigation Limited
# File units = meters

mtllib naturePack_112.mtl

g Mesh1 Mushroom_Brown Model

usemtl Wood
v 0.217459 0.353484 -0.2511
vt -9.88583 14.9109
vn -0.563029 0.826437 2.71158e-017
v 0 0.205335 -0.37665
vt -14.8287 4.55156
v 0 0.205335 -0.12555
vt -4.94291 4.55156
f 1/1/1 2/2/1 3/3/1

v 0.217459 0.205335 -0.5022
vt -17.3002 -6.0616
vn -0.281515 0.826437 -0.487598
vt -7.41437 -6.0616
vt -12.3573 4.29779
f 4/4/2 2/5/2 1/6/2

vt -8.56138 19.7717
vn 0 -1 -0
vt 0 4.94291
vt 0 14.8287
f 4/7/3 3/8/3 2/9/3

v 0.141048 0.205335 -0.317213
vt -5.55308 12.4887
f 3/8/3 4/7/3 5/10/3

v 0.298431 0.205335 -0.317213
vt -11.7493 12.4887
f 5/10/3 4/7/3 6/11/3

v 0.434918 0.205335 -0.37665
vt -17.1228 14.8287
f 6/11/3 4/7/3 7/12/3

vt -7.41437 -13.137
vn 0.281515 0.826437 -0.487598
vt 2.47146 -13.137
vt -2.47146 -2.77765
f 7/13/4 4/14/4 1/15/4

vt 14.8287 -9.59931
vn 0.563029 0.826437 1.94027e-017
vt 9.88583 0.760069
v 0.434918 0.205335 -0.12555
vt 4.94291 -9.59931
f 7/16/5 1/17/5 8/18/5

vt 17.3002 1.01384
vn 0.281515 0.826437 0.487598
vt 12.3573 11.3732
v 0.217459 0.205335 -0
vt 7.41437 1.01384
f 8/19/6 1/20/6 9/21/6

vt 2.47146 18.4487
vn -0.281515 0.826437 0.487598
vt -2.47146 8.08928
vt 7.41437 8.08928
f 1/22/7 3/23/7 9/24/7

v 0.141048 0.205335 -0.15983
vt -5.55308 6.29252
vt -8.56138 0
f 3/8/3 10/25/3 9/26/3

f 10/25/3 3/8/3 5/10/3

usemtl FrontColor
v 0.10229 0 -0.355972
vt -14.0146 0.746965
vn -0.982648 0.185482 -1.39339e-018
vt -6.29252 8.97377
vt -12.4887 8.97377
f 11/27/8 10/28/8 5/29/8

v 0.10229 0 -0.121072
vt -4.7666 0.746965
f 10/28/8 11/27/8 12/30/8

v 0.33719 0 -0.355972
vt -13.2752 14.0146
vt -4.02715 4.7666
vt -4.02715 14.0146
f 13/31/3 12/32/3 11/33/3

v 0.33719 0 -0.121072
vt -13.2752 4.7666
f 12/32/3 13/31/3 14/34/3

vt 14.0146 -2.46231
vn 0.982648 0.185482 -1.39339e-018
v 0.298431 0.205335 -0.15983
vt 6.29252 5.7645
vt 4.7666 -2.46231
f 13/35/9 15/36/9 14/37/9

vt 12.4887 5.7645
f 15/36/9 13/35/9 6/38/9

vt -13.2752 -2.59946
vn -2.27493e-019 0.185482 -0.982648
vt -5.55308 5.62735
vt -11.7493 5.62735
f 13/39/10 5/40/10 6/41/10

vt -4.02715 -2.59946
f 5/40/10 13/39/10 11/42/10

usemtl Wood
f 6/11/3 10/25/3 5/10/3

vt -11.7493 6.29252
f 10/25/3 6/11/3 15/43/3

f 6/11/3 7/12/3 15/43/3

vt -17.1228 4.94291
f 8/44/3 15/43/3 7/12/3

f 9/26/3 15/43/3 8/44/3

f 9/26/3 10/25/3 15/43/3

usemtl FrontColor
vt 4.02715 0.884118
vn -2.27493e-019 0.185482 0.982648
vt 11.7493 9.11093
vt 5.55308 9.11093
f 12/45/11 15/46/11 10/47/11

vt 13.2752 0.884118
f 15/46/11 12/45/11 14/48/11

