# Alias OBJ Model File
# Exported from SketchUp, (c) 2000-2012 Trimble Navigation Limited
# File units = meters

mtllib naturePack_027.mtl

g Mesh1 Group1 Model

usemtl Stone
v 0.543392 2.14 -0.386473
vt -3.77971 86.0965
vn -0.886879 0.0818952 0.454685
v 0.366413 1.43 -0.603796
vt -14.5723 58.0495
v 0.487351 1.43 -0.367903
vt -4.13569 58.0495
f 1/1/1 2/2/1 3/3/1

v 0.458736 2.14 -0.551599
vt -11.0853 86.0965
f 2/2/1 1/1/1 4/4/1

vt 21.3934 15.2155
vn 0 1 -0
v 0.889576 2.14 -0.401147
vt 35.0227 15.7932
vt 18.0605 21.7165
f 1/5/2 5/6/2 4/7/2

v 0.728256 2.14 -0.308008
vt 28.6715 12.1263
f 5/6/2 1/5/2 6/8/2

vt 12.0028 57.3567
vn -0.390121 0.054833 0.919129
vt 21.6547 85.3515
vt 13.7481 85.3515
f 3/9/3 6/10/3 1/11/3

v 0.751441 1.43 -0.25581
vt 23.2978 57.3567
f 6/10/3 3/9/3 7/12/3

v 0.403127 0 -0.18682
vt 11.7359 1.79315
vn -0.386958 0.138237 0.911677
vt 23.2978 58.6381
vt 12.0028 58.6381
f 8/13/4 7/14/4 3/15/4

v 0.843278 0 -0
vt 30.561 1.79315
f 7/14/4 8/13/4 9/16/4

vt -15.8711 7.35513
vn 0 -1 -0
v 0.529866 0 -1.27905
vt -20.8609 50.3564
vt -33.1999 0
f 8/17/5 10/18/5 9/19/5

v 0 0 -0.973133
vt 0 38.3123
f 10/18/5 8/17/5 11/20/5

vt -4.13569 58.5542
vn -0.884515 0.10952 0.453473
vt -34.0929 1.91427
vt 0.695605 1.91427
f 3/21/6 11/22/6 8/23/6

vt -14.5723 58.5542
f 11/22/6 3/21/6 2/24/6

v 0.245475 1.43 -0.83969
vt -25.0088 58.5542
f 11/22/6 2/24/6 12/25/6

vt 14.4257 23.7715
v 0.563394 1.43 -1.02324
vt 22.1809 40.2851
vt 9.66436 33.0587
f 2/26/2 13/27/2 12/28/2

v 0.981899 1.43 -0.388865
vt 38.6574 15.3096
f 13/27/2 2/26/2 14/29/2

vt -9.89119 83.5204
vn 0.329566 0.0265292 -0.94376
vt -31.4488 55.5578
vt -5.78214 55.5578
f 4/30/7 14/31/7 2/32/7

vt -27.8579 83.5204
f 14/31/7 4/30/7 5/33/7

vt 38.2271 83.6779
vn 0.498408 0.0797418 0.863268
vt 30.6564 55.6359
vt 41.1331 55.6359
f 5/34/8 7/35/8 14/36/8

vt 30.8934 83.6779
f 7/35/8 5/34/8 6/37/8

vt 28.752 -3.05181
vn 0.491478 0.183845 0.851264
vt 41.1331 54.2236
vt 30.6564 54.2236
f 9/38/9 14/39/9 7/40/9

v 1.22737 0 -0.221758
vt 46.2132 -3.05181
f 14/39/9 9/38/9 15/41/9

v 1.22737 0 -0.586758
vt -48.3218 23.1007
vt -48.3218 8.73062
f 9/19/5 16/42/5 15/43/5

f 9/19/5 10/18/5 16/42/5

vt 12.6358 51.1046
vn 0.700191 0.109782 -0.705464
vt -18.0233 -5.537
vt 20.6674 -5.537
f 13/44/10 16/45/10 10/46/10

v 0.981899 1.43 -0.607865
vt -10.5786 51.1046
f 16/45/10 13/44/10 17/47/10

vt 38.6574 23.9317
f 13/27/2 14/29/2 17/48/2

vt 15.3096 48.9473
vn 0.985584 0.169186 -0
vt 23.1007 -8.17537
vt 23.9317 48.9473
f 14/49/11 16/50/11 17/51/11

vt 8.73062 -8.17537
f 16/50/11 14/49/11 15/52/11

vt -43.2442 -5.45398
vn -0.493199 0.164378 -0.854245
vt -24.8989 51.6216
vt -39.3518 51.6216
f 10/53/12 12/54/12 13/55/12

vt -19.1562 -5.45398
f 12/54/12 10/53/12 11/56/12

