# Alias OBJ Model File
# Exported from SketchUp, (c) 2000-2012 Trimble Navigation Limited
# File units = meters

mtllib naturePack_115.mtl

g Mesh1 Brown_Cliff_Top_Corner Model

usemtl Leafs
v 0.92 0.29 -0
vt 36.2205 0
vn 0 1 -0
v 0.92 0.29 -0.710938
vt 36.2205 27.9897
v 0.204709 0.29 8.66294e-015
vt 8.05943 -3.41061e-013
f 1/1/1 2/2/1 3/3/1

usemtl Wood
vt -2.11657e-012 11.4173
vn 1 1.45213e-013 -5.84357e-014
v 0.92 0 -0.78
vt 30.7087 -5.25969e-012
vt 27.9897 11.4173
f 1/4/2 4/5/2 2/6/2

v 0.92 0 -0
vt -2.11657e-012 -5.25969e-012
f 4/5/2 1/4/2 5/7/2

vt 36.2205 11.4173
vn -8.92058e-013 2.21677e-012 1
v 0.14 0 -0
vt 5.51181 1.08995e-023
vt 36.2205 7.16255e-023
f 1/8/3 6/9/3 5/10/3

v 0 0.29 -1.41206e-012
vt -4.9592e-023 11.4173
f 6/9/3 1/8/3 7/11/3

vt 8.05943 11.4173
f 7/11/3 1/8/3 3/12/3

v 0.92 0.29 -0.92
vt 36.2205 36.2205
vt 0 5.55929e-011
f 3/3/1 8/13/1 7/14/1

f 8/13/1 3/3/1 2/2/1

f 2/6/2 4/5/2 8/8/2

vt -47.326 -1.2591
vn -0.669191 -0.323058 -0.669191
vt -3.93103e-011 10.8051
vt -51.2235 10.8051
f 4/15/4 7/16/4 8/17/4

vt -3.89744 -1.2591
f 7/16/4 4/15/4 6/18/4

vt -36.2205 0
vn 0 -1 -0
vt -5.51181 0
vt -36.2205 30.7087
f 5/19/5 6/20/5 4/21/5

