# Alias OBJ Model File
# Exported from SketchUp, (c) 2000-2012 Trimble Navigation Limited
# File units = meters

mtllib naturePack_flat_007.mtl

g Mesh1 Hanging_Moss Model

usemtl Green_leafs
v 0 1.43 -0.63
vt -24.8031 56.2992
vn -1 0 -0
v 0 1.16917 -0.173333
vt -6.82412 46.0304
v 0 1.43 -0.173333
vt -6.82412 56.2992
f 1/1/1 2/2/1 3/3/1

v 0 1.01104 -0.235744
vt -9.28126 39.8049
f 2/2/1 1/1/1 4/4/1

usemtl BackColor
vn 1 -0 0
f 3/3/2 2/2/2 1/1/2

f 4/4/2 1/1/2 2/2/2

usemtl Green_leafs
v 0 0.221043 -0.235744
vt -9.28126 8.7025
f 4/4/1 1/1/1 5/5/1

usemtl BackColor
f 5/5/2 1/1/2 4/4/2

usemtl Green_leafs
v 0 0.502914 -0.388156
vt -15.2817 19.7998
f 5/5/1 1/1/1 6/6/1

usemtl BackColor
f 6/6/2 1/1/2 5/5/2

usemtl Green_leafs
v 0 0.910641 -0.509078
vt -20.0424 35.852
f 6/6/1 1/1/1 7/7/1

usemtl BackColor
f 7/7/2 1/1/2 6/6/2

usemtl Green_leafs
v 0 0.958367 -0.63
vt -24.8031 37.731
f 7/7/1 1/1/1 8/8/1

usemtl BackColor
f 8/8/2 1/1/2 7/7/2

usemtl Green_leafs
v 0 0.550641 -0.509078
vt -20.0424 21.6788
f 9/9/1 6/6/1 7/7/1

usemtl BackColor
f 7/7/2 6/6/2 9/9/2

usemtl Green_leafs
v 0 0.0629143 -0.298156
vt -11.7384 2.47694
f 5/5/1 6/6/1 10/10/1

usemtl BackColor
f 10/10/2 6/6/2 5/5/2

usemtl Green_leafs
v 0 0.0629143 -0.388156
vt -15.2817 2.47694
f 11/11/1 10/10/1 6/6/1

usemtl BackColor
f 6/6/2 10/10/2 11/11/2

