# Alias OBJ Model File
# Exported from SketchUp, (c) 2000-2012 Trimble Navigation Limited
# File units = meters

mtllib naturePack_101.mtl

g Mesh1 Grey_Cliff_End_Green_Top Model

usemtl Stone
v -0.28 2.2 -3
vt 11.0236 86.6142
vn 8.54817e-017 1.90889e-029 -1
v 0.5 0 -3
vt -19.685 -2.2546e-027
v -0.64 -6.39876e-018 -3
vt 25.1969 -2.5192e-016
f 1/1/1 2/2/1 3/3/1

v 0.5 2.2 -3
vt -19.685 86.6142
f 2/2/1 1/1/1 4/4/1

usemtl Leafs
v -0.133829 2.2 -2.38719
vt -5.26887 93.9839
vn 0 1 -0
vt 19.685 118.11
vt -11.0236 118.11
f 5/5/2 4/6/2 1/7/2

v 0.5 2.2 -2.38719
vt 19.685 93.9839
f 4/6/2 5/5/2 6/8/2

usemtl Stone
v -0.160571 2.03658 -2.38719
vt -6.32169 80.1803
vn 2.63995e-015 4.91073e-016 1
vt 19.685 86.6142
vt -5.26887 86.6142
f 7/9/3 6/10/3 5/11/3

v 0.5 2.03658 -2.38719
vt 19.685 80.1803
f 6/10/3 7/9/3 8/12/3

usemtl Leafs
vt -6.32169 93.9839
v 0.5 2.03658 -1.92432
vt 19.685 75.7604
f 7/13/2 9/14/2 8/8/2

v -0.306742 2.03658 -1.92432
vt -12.0764 75.7604
f 9/14/2 7/13/2 10/15/2

usemtl Stone
vt -87.7178 73.9288
vn -0.942182 0.154175 -0.297529
v -0.360574 1.7076 -1.92432
vt -67.9691 60.8204
vt -68.6073 73.9288
f 7/16/4 11/17/4 10/18/4

v -0.64 1.80478e-016 -1.92432
vt -64.6564 -7.22172
f 11/17/4 7/16/4 12/19/4

v -0.493829 0 -2.38719
vt -83.7669 -7.22172
f 12/19/4 7/16/4 13/20/4

vt -92.886 81.6446
vn -0.960619 0.157192 0.229132
vt -117.445 88.1595
vt -95.9302 0.45496
f 7/21/5 1/22/5 13/23/5

vt -92.6417 88.1595
f 1/22/5 7/21/5 5/24/5

vt -120.733 0.45496
f 13/23/5 1/22/5 3/25/5

vt -19.685 118.11
vn -1.46071e-018 -1 -4.23319e-017
vt 19.4421 93.9839
vt 25.1969 118.11
f 2/26/6 13/27/6 3/28/6

v -0.277341 1.80478e-016 -1.27492
vt 10.9189 50.1936
f 13/27/6 2/26/6 14/29/6

v 0.5 0 -2.88765e-015
vt -19.685 1.13687e-013
f 15/30/6 14/29/6 2/26/6

v -0.52105 -5.41434e-016 -0.371864
vt 20.5138 14.6403
f 15/30/6 16/31/6 14/29/6

v -0.64 -6.39876e-018 -2.88765e-015
vt 25.1969 1.13687e-013
f 16/31/6 15/30/6 17/32/6

vt 19.685 2.31993e-029
vn -1.17084e-016 2.00009e-016 1
v -0.595655 0.270999 -0
vt -23.451 10.6693
vt -25.1969 -2.5192e-016
f 15/33/7 18/34/7 17/35/7

v 0.5 0.270999 -2.88765e-015
vt 19.685 10.6693
f 18/34/7 15/33/7 19/36/7

vt 118.11 5.1941e-016
vn 1 -2.6386e-017 5.36161e-017
vt 1.14742e-013 10.6693
vt 1.14742e-013 5.1941e-016
f 2/37/8 19/38/8 15/39/8

v 0.5 0.270999 -0.371864
vt 14.6403 10.6693
f 19/38/8 2/37/8 20/40/8

v 0.5 0.833814 -0.371864
vt 14.6403 32.8273
f 20/40/8 2/37/8 21/41/8

v 0.5 0.833814 -0.701031
vt 27.5996 32.8273
f 21/41/8 2/37/8 22/42/8

v 0.5 1.35334 -0.701031
vt 27.5996 53.2809
f 22/42/8 2/37/8 23/43/8

v 0.5 1.35334 -1.27492
vt 50.1936 53.2809
f 23/43/8 2/37/8 24/44/8

v 0.5 1.7076 -1.27492
vt 50.1936 67.2285
f 24/44/8 2/37/8 25/45/8

v 0.5 1.7076 -1.92432
vt 75.7604 67.2285
f 25/45/8 2/37/8 26/46/8

vt 75.7604 80.1803
f 26/46/8 2/37/8 9/47/8

vt 93.9839 80.1803
f 9/47/8 2/37/8 8/48/8

vt 93.9839 86.6142
f 8/48/8 2/37/8 6/49/8

vt 118.11 86.6142
f 6/49/8 2/37/8 4/50/8

vn -2.41993e-016 -8.52867e-016 1
vt -14.1958 67.2285
vt 19.685 67.2285
f 9/12/9 11/51/9 26/52/9

vt -12.0764 80.1803
f 11/51/9 9/12/9 10/53/9

usemtl Leafs
v 0.00208531 1.7076 -1.27492
vt 0.0820987 50.1936
vt -14.1958 75.7604
f 27/54/2 26/14/2 11/55/2

vt 19.685 50.1936
f 26/14/2 27/54/2 25/56/2

usemtl Stone
v -0.055886 1.35334 -1.27492
vt -2.20024 53.2809
vn 1.42453e-014 -3.31495e-015 1
vt 0.0820987 67.2285
f 28/57/10 25/52/10 27/58/10

vt 19.685 53.2809
f 25/52/10 28/57/10 24/59/10

usemtl Leafs
vt -2.20024 50.1936
vt 19.685 27.5996
f 28/60/2 23/61/2 24/56/2

v -0.418545 1.35334 -0.701031
vt -16.4782 27.5996
f 23/61/2 28/60/2 29/62/2

usemtl Stone
vt -41.256 48.8493
vn -0.837379 0.137026 -0.529169
v -0.503558 0.833814 -0.701031
vt -12.7407 28.2009
vt -14.5287 48.8493
f 28/63/11 30/64/11 29/65/11

v -0.64 1.80478e-016 -0.701031
vt -9.8711 -4.93898
f 30/64/11 28/63/11 31/66/11

vt -36.5984 -4.93898
f 31/66/11 28/63/11 14/67/11

vt -44.8959 55.9349
vn -0.864304 0.141432 0.482675
vt -73.0665 70.0242
vt -49.1469 2.113
f 28/68/12 11/69/12 14/70/12

vt -43.783 70.0242
f 11/69/12 28/68/12 27/71/12

vt -78.4303 2.113
f 14/70/12 11/69/12 12/72/12

vt 25.1969 75.7604
f 14/29/6 12/73/6 13/27/6

vt 25.1969 27.5996
f 14/29/6 16/31/6 31/74/6

vt -20.7406 -2.17771
vn -0.929534 0.152106 0.335903
vt -32.6945 31.0361
vt -34.5202 -2.17771
f 16/75/13 30/76/13 31/77/13

v -0.476705 0.270999 -0.371864
vt -20.1473 8.61714
f 32/78/13 30/76/13 16/75/13

v -0.384608 0.833814 -0.371864
vt -18.915 31.0361
f 30/76/13 32/78/13 33/79/13

vn 1.30472e-014 -2.68452e-014 1
vt -15.142 32.8273
vt -18.7679 10.6693
f 20/36/14 33/80/14 32/81/14

vt 19.685 32.8273
f 33/80/14 20/36/14 21/82/14

usemtl Leafs
vn -1.41296e-016 1 3.82544e-016
vt -15.142 14.6403
vt 19.685 14.6403
f 22/61/15 33/83/15 21/84/15

vt -19.8251 27.5996
f 33/83/15 22/61/15 30/85/15

usemtl Stone
vn 1.89285e-014 -1.58499e-014 1
vt -19.8251 32.8273
f 23/59/16 30/86/16 22/82/16

vt -16.4782 53.2809
f 30/86/16 23/59/16 29/87/16

usemtl Leafs
vt -18.7679 14.6403
vn -5.27394e-017 1 -1.26957e-016
vt 19.685 1.12332e-013
f 32/88/17 19/89/17 20/84/17

vt -23.451 -1.35453e-015
f 19/89/17 32/88/17 18/90/17

usemtl Stone
vt -8.22632 7.10227
vn -0.941097 0.153998 -0.301034
vt 7.67667 -3.69578
vt 7.14476 7.10227
f 32/91/18 17/92/18 18/93/18

vt -7.6944 -3.69578
f 17/92/18 32/91/18 16/94/18

