# Alias OBJ Model File
# Exported from SketchUp, (c) 2000-2012 Trimble Navigation Limited
# File units = meters

mtllib naturePack_031.mtl

g Mesh1 Tall_Rock_3 Model

usemtl Stone
v 1.43414 0.56 -0.552
vt 59.7638 18.63
vn 0.483182 0.257178 0.836896
v 0.796743 0 -0
vt 27.1654 -4.29248
vn 0.480909 0.273687 0.83296
v 1.59349 0 -0.46
vt 63.3858 -4.29248
f 1/1/1 2/2/2 3/3/2

v 0.796743 0.56 -0.184
vt 30.7874 18.63
f 2/2/2 1/1/1 4/4/1

v 1.33215 0.92 -0.59616
vt 57.1559 33.7377
vn 0.492532 0.172187 0.853091
vt 30.7874 19.1355
vt 59.7638 19.1355
f 5/5/3 4/6/1 1/7/1

v 0.796743 0.92 -0.28704
vt 32.8157 33.7377
f 4/6/1 5/5/3 6/8/3

v 1.17153 1.97 -0.628896
vt 52.3238 76.9804
vn 0.497344 0.102938 0.861425
vt 32.8157 35.421
vt 57.1559 35.421
f 7/9/4 6/10/3 5/11/3

v 0.796743 1.97 -0.412512
vt 35.2857 76.9804
f 6/10/3 7/9/4 8/12/4

v 0.967061 1.97 -0.998049
vt 38.0733 39.2933
vn -8.62943e-018 1 -3.25298e-016
vt 31.3678 16.2406
vt 46.1233 24.7597
f 9/13/5 8/14/5 7/15/5

v 0.767868 1.97 -0.752337
vt 30.231 29.6196
f 9/13/5 10/16/5 8/14/5

v 0.741895 1.97 -0.894036
vt 29.2085 35.1983
f 10/16/5 9/13/5 11/17/5

v 1.04005 0.92 -1.12352
vt -55.722 34.2894
vn -0.418044 0.0790812 -0.904978
vt -41.2767 75.7579
vt -51.0416 75.7579
f 12/18/6 11/19/6 9/20/6

v 0.718388 0.92 -0.974932
vt -41.7722 34.2894
f 11/19/6 12/18/6 13/21/6

v 1.06445 0.92 -1.36896
vt 41.9074 53.8961
vn -4.45432e-016 1 7.87353e-017
vt 28.283 38.3831
vt 40.947 44.2331
f 14/22/7 13/23/7 12/24/7

v 0.681284 0.92 -1.17736
vt 26.8222 46.3527
f 13/23/7 14/22/7 15/25/7

v 1.11544 0.56 -1.472
vt -65.1972 15.5592
vn -0.439172 0.189172 -0.878261
vt -44.7212 29.993
vt -61.5873 29.993
f 16/26/8 15/27/8 14/28/8

v 0.659291 0.56 -1.2439
vt -45.1185 15.5592
f 15/27/8 16/26/8 17/29/8

v 0.796743 0.56 -1.656
vt 31.3678 65.1969
vn -4.10779e-017 1 -9.6453e-017
vt 25.9564 48.9726
vt 43.915 57.9528
f 18/30/9 17/31/9 16/32/9

v 0.159349 0.56 -1.288
vt 6.27357 50.7087
f 17/31/9 18/30/9 19/33/9

v 0.796743 0 -1.84
vt -63.3858 -12.8774
vn -0.480909 0.273687 -0.83296
vt -30.7874 10.045
vt -59.7638 10.045
f 20/34/10 19/35/10 18/36/10

v 0 0 -1.38
vt -27.1654 -12.8774
f 19/35/10 20/34/10 21/37/10

vt -31.3678 72.4409
vn 0 -1 -0
v 0 0 -0.46
vt 0 18.1102
vt 0 54.3307
f 20/38/11 22/39/11 21/40/11

vt -31.3678 0
f 22/39/11 20/38/11 2/41/11

v 1.59349 0 -1.38
vt -62.7357 54.3307
f 2/41/11 20/38/11 23/42/11

vt 5.43307 1.46004
vn 0.480909 0.273687 -0.83296
vt -27.1654 -21.4624
vt 9.05512 -21.4624
f 18/43/12 23/44/12 20/45/12

v 1.43414 0.56 -1.288
vt -23.5433 1.46004
vn 0.478709 0.288704 -0.829149
f 23/44/12 18/43/12 24/46/13

vt -9.05512 1.46004
f 24/46/13 18/43/12 16/47/13

vt -9.34488 13.9747
vn 0.476392 0.30365 -0.825135
vt -23.5433 -0.900868
vt -9.05512 -0.900868
f 14/48/14 24/49/13 16/50/13

v 1.33215 0.92 -1.2144
vt -21.515 13.9747
f 24/49/13 14/48/14 25/51/14

v 1.33215 0.92 -0.896416
vt 52.447 35.292
vt 52.447 47.811
f 14/22/7 26/52/7 25/53/7

f 14/22/7 12/24/7 26/52/7

vt -5.93926 69.4583
vn 0.608117 0.13574 -0.782156
vt -19.7428 27.7335
vt -5.1759 27.7335
f 9/54/15 26/55/15 12/56/15

v 1.17153 1.97 -0.839075
vt -16.1361 69.4583
f 26/55/15 9/54/15 27/57/15

vt 46.1233 33.0345
f 9/13/5 7/15/5 27/58/5

vt 24.7597 69.6926
vn 0.988501 0.151216 -0
vt 35.292 27.8732
vn 0.977205 0.212298 -1.71434e-018
vt 33.0345 69.6926
f 7/59/16 26/60/17 27/61/16

vt 23.4709 27.8732
f 26/60/17 7/59/16 5/62/17

vt 23.4709 20.5541
vt 50.7087 5.82314
vn 0.961979 0.273124 -2.82111e-018
vt 35.292 20.5541
f 5/63/17 24/64/18 26/65/17

vt 21.7323 5.82314
f 24/64/18 5/63/17 1/66/18

vt 21.7323 5.75252
vt 54.3307 -17.1699
vn 0.961819 0.273687 -2.22017e-018
vt 50.7087 5.75252
f 1/67/18 23/68/19 24/69/18

vt 18.1102 -17.1699
f 23/68/19 1/67/18 3/70/19

vt -62.7357 18.1102
f 2/41/11 23/42/11 3/71/11

vt 47.811 20.5541
vn 0.962139 0.272561 -3.42206e-018
f 26/65/17 24/64/18 25/72/20

vt 23.5433 27.2149
vn -0.483182 0.257178 0.836896
vt -9.05512 4.29248
vn -0.480909 0.273687 0.83296
vt 27.1654 4.29248
f 4/73/21 22/74/22 2/75/22

v 0.159349 0.56 -0.552
vt -5.43307 27.2149
f 22/74/22 4/73/21 28/76/21

vt 21.515 41.2846
vn -0.492532 0.172187 0.853091
vt -5.43307 26.6825
vt 23.5433 26.6825
f 6/77/23 28/78/21 4/79/21

v 0.261332 0.92 -0.59616
vt -2.8252 41.2846
f 28/78/21 6/77/23 29/80/23

vt 19.045 80.2093
vn -0.497344 0.102938 0.861425
vt -2.8252 38.65
vt 21.515 38.65
f 8/81/24 29/82/23 6/83/23

v 0.421955 1.97 -0.628896
vt 2.00692 80.2093
f 29/82/23 8/81/24 30/84/24

v 0.421955 1.97 -0.752337
vt 16.6124 29.6196
vt 16.6124 24.7597
f 8/14/5 31/85/5 30/86/5

f 31/85/5 8/14/5 10/16/5

v 0.755492 0.92 -0.772504
vt -29.7438 35.6298
vn 3.58843e-018 -0.00507502 -0.999987
vt -16.6124 76.976
vn 3.7741e-018 0.0192032 -0.999816
vt -30.231 76.976
f 32/87/25 31/88/26 10/89/26

v 0.261332 0.92 -0.772504
vt -10.2887 35.6298
f 31/88/26 32/87/25 33/90/25

v 0.747635 0.56 -0.761934
vt -29.4345 22.9182
vn 3.40064e-018 -0.0293502 -0.999569
vt -10.2887 37.0975
vt -29.7438 37.0975
f 34/91/27 33/92/25 32/93/25

v 0.159349 0.56 -0.761934
vt -6.27357 22.9182
f 33/92/25 34/91/27 35/94/27

vt 29.4345 29.9974
vt 6.27357 29.9974
f 34/95/9 19/33/9 35/96/9

f 19/33/9 34/95/9 17/31/9

vt -24.5526 37.1369
vn -0.983463 0.0174419 0.180266
vt -43.4903 22.9586
vn -0.983261 0.0267526 0.180229
vt -24.199 22.9586
f 32/97/28 17/98/29 34/99/29

vt -32.6549 37.1369
f 17/98/29 32/97/28 13/100/28

vt -24.5526 36.5017
vt -29.3554 77.8416
vn -0.98358 0.00812973 0.180287
vt -32.6549 36.5017
f 32/101/28 11/102/30 13/103/28

vt -23.6837 77.8416
f 11/102/30 32/101/28 10/104/30

vt -40.7573 37.1369
f 17/98/29 13/100/28 15/105/29

vt -54.3307 3.03453e-017
vn -0.961819 0.273687 1.96285e-018
vt -29.9974 22.9224
vn -0.961979 0.273124 1.96752e-017
vt -50.7087 22.9224
f 21/106/31 35/107/32 19/108/31

vt -21.7323 22.9224
f 21/106/31 28/109/32 35/107/32

vt -18.1102 1.01151e-017
f 28/109/32 21/106/31 22/110/31

vt -23.4709 37.6534
vn -0.977205 0.212298 -3.28845e-018
f 29/111/33 35/107/32 28/109/32

vt -30.4136 37.6534
f 35/107/32 29/111/33 33/112/33

vt -24.7597 79.1792
vn -0.988501 0.151216 -4.39517e-017
vt -30.4136 37.3598
vt -23.4709 37.3598
f 30/113/34 33/114/33 29/115/33

vt -29.6196 79.1792
f 33/114/33 30/113/34 31/116/34

