# Alias OBJ Model File
# Exported from SketchUp, (c) 2000-2012 Trimble Navigation Limited
# File units = meters

mtllib naturePack_018.mtl

g Mesh1 Group1 Model

usemtl Wood
v 0.695 0.49 -0.0952628
vt 27.3622 19.6525
vn -5.76929e-016 0.190841 0.981621
v 0.25 0 -0
vt 9.84252 1.10397e-015
v 0.75 0 -0
vt 29.5276 3.3119e-015
f 1/1/1 2/2/1 3/3/1

v 0.305 0.49 -0.0952628
vt 12.0079 19.6525
f 2/2/1 1/1/1 4/4/1

usemtl Green_leafs
v 0.418394 0.49 -0.185263
vt 16.4722 7.2938
vn 0 1 -0
vt 12.0079 3.7505
vt 27.3622 3.7505
f 5/5/2 4/6/2 1/7/2

v 0.305978 0.49 -0.379973
vt 12.0464 14.9595
f 6/8/2 4/6/2 5/5/2

v 0.305 0.49 -0.770763
vt 12.0079 30.345
f 7/9/2 4/6/2 6/8/2

v 0.11 0.49 -0.433013
vt 4.33071 17.0477
f 4/6/2 7/9/2 8/10/2

usemtl Wood
vt -32.2835 18.0258
vn -0.850109 0.190841 -0.490811
v 0 0 -0.433013
vt -14.7638 -1.6267
vt -16.9291 18.0258
f 7/11/3 9/12/3 8/13/3

v 0.25 0 -0.866025
vt -34.4488 -1.6267
f 9/12/3 7/11/3 10/14/3

vt -12.0079 13.1457
vn 4.42637e-016 0.190841 -0.981621
v 0.75 0 -0.866025
vt -29.5276 -6.50681
vt -9.84252 -6.50681
f 7/15/4 11/16/4 10/17/4

v 0.695 0.49 -0.770763
vt -27.3622 13.1457
f 11/16/4 7/15/4 12/18/4

usemtl Green_leafs
v 0.418394 0.49 -0.574682
vt 16.4722 22.6253
vt 27.3622 30.345
f 7/9/2 13/19/2 12/20/2

f 13/19/2 7/9/2 6/8/2

usemtl Wood
vt -18.9785 19.4493
vn -0.84231 0.232418 -0.486308
v 0.448746 0.71 -0.522111
vt -26.6352 28.3546
vt -27.8302 19.4493
f 6/21/5 14/22/5 13/23/5

v 0.366683 0.71 -0.379973
vt -20.1735 28.3546
f 14/22/5 6/21/5 15/24/5

vt -6.93215 22.9262
vn -0.84231 0.232418 0.486308
v 0.448746 0.71 -0.237834
vt 0.724514 31.8315
vt -5.73718 31.8315
f 6/25/6 16/26/6 15/27/6

vt 1.91949 22.9262
f 16/26/6 6/25/6 5/28/6

vt 16.4722 20.4583
vn -1.02854e-015 0.232418 0.972616
v 0.612873 0.71 -0.237834
vt 24.1289 29.3636
vt 17.6672 29.3636
f 5/29/7 17/30/7 16/31/7

v 0.643226 0.49 -0.185263
vt 25.3238 20.4583
f 17/30/7 5/29/7 18/32/7

usemtl Green_leafs
vt 25.3238 7.2938
f 5/5/2 1/7/2 18/33/2

v 0.755642 0.49 -0.379973
vt 29.7497 14.9595
f 18/33/2 1/7/2 19/34/2

v 0.89 0.49 -0.433013
vt 35.0394 17.0477
f 19/34/2 1/7/2 20/35/2

usemtl Wood
vt 16.9291 14.7724
vn 0.850109 0.190841 0.490811
v 1 0 -0.433013
vt 34.4488 -4.88011
vt 32.2835 14.7724
f 1/36/8 21/37/8 20/38/8

vt 14.7638 -4.88011
f 21/37/8 1/36/8 3/39/8

vt -29.5276 0
vn 0 -1 -0
vt -29.5276 34.0955
vt -39.3701 17.0477
f 3/40/9 11/41/9 21/42/9

vt -9.84252 0
f 2/43/9 11/41/9 3/40/9

vt -9.84252 34.0955
f 2/43/9 10/44/9 11/41/9

vt 0 17.0477
f 10/44/9 2/43/9 9/45/9

vt 2.75591 21.2792
vn -0.850109 0.190841 0.490811
vt -14.7638 1.6267
vt 4.92126 1.6267
f 4/46/10 9/47/10 2/48/10

vt -12.5984 21.2792
f 9/47/10 4/46/10 8/49/10

vt 14.7638 -8.13351
vn 0.850109 0.190841 -0.490811
vt -2.75591 11.519
vt -4.92126 -8.13351
f 11/50/11 20/51/11 21/52/11

vt 12.5984 11.519
f 20/51/11 11/50/11 12/53/11

usemtl Green_leafs
f 12/20/2 19/34/2 20/35/2

v 0.643226 0.49 -0.574682
vt 25.3238 22.6253
f 12/20/2 22/54/2 19/34/2

f 12/20/2 13/19/2 22/54/2

usemtl Wood
vt -17.6672 22.4098
vn -2.1594e-017 0.232418 -0.972616
vt -25.3238 13.5045
vt -16.4722 13.5045
f 14/55/12 22/56/12 13/57/12

v 0.612873 0.71 -0.522111
vt -24.1289 22.4098
f 22/56/12 14/55/12 23/58/12

usemtl Green_leafs
vt 17.6672 20.5555
vt 24.1289 9.36355
vt 24.1289 20.5555
f 14/59/2 17/60/2 23/61/2

vt 17.6672 9.36355
f 14/59/2 16/62/2 17/60/2

vt 14.4363 14.9595
f 16/62/2 14/59/2 15/63/2

v 0.694937 0.71 -0.379973
vt 27.3597 14.9595
f 23/61/2 17/60/2 24/64/2

usemtl Wood
vt 20.1735 23.4188
vn 0.84231 0.232418 0.486308
vt 27.8302 14.5135
vt 26.6352 23.4188
f 17/65/13 19/66/13 24/67/13

vt 18.9785 14.5135
f 19/66/13 17/65/13 18/68/13

vt 6.93215 11.0366
vn 0.84231 0.232418 -0.486308
vt -0.724514 19.9419
vt -1.91949 11.0366
f 22/69/14 24/70/14 19/71/14

vt 5.73718 19.9419
f 24/70/14 22/69/14 23/72/14

