# Alias OBJ Model File
# Exported from SketchUp, (c) 2000-2012 Trimble Navigation Limited
# File units = meters

mtllib naturePack_flat_013.mtl

g Mesh1 Group1 Model

usemtl Green_leafs
v 0.989385 1.12799e-017 -0.551292
vt 38.9522 2.99573e-014
vn 1.28366e-015 1.35978e-015 1
v 0.551292 0.645334 -0.551292
vt 21.7044 25.4068
v 0.551292 0 -0.551292
vt 21.7044 2.95132e-014
f 1/1/1 2/2/1 3/3/1

v 1.10258 0.211394 -0.551292
vt 43.4088 8.32258
f 2/2/1 1/1/1 4/4/1

vn -1.28366e-015 -1.35978e-015 -1
f 3/3/2 2/2/2 1/1/2

vt 1.62128e-011 25.4068
vn -0.707107 6.41982e-016 0.707107
v 0.241513 0 -0.86107
vt -17.2478 1.97054e-014
vt 1.6172e-011 1.97054e-014
f 2/5/3 5/6/3 3/7/3

v 0.16147 0.158545 -0.941114
vt -21.7044 6.24194
f 5/6/3 2/5/3 6/8/3

vn 0.707107 -6.41982e-016 -0.707107
f 3/7/4 5/6/4 2/5/4

f 6/8/4 2/5/4 5/6/4

v 0.241513 0.362003 -0.86107
vt -17.2478 14.2521
f 6/8/3 2/5/3 7/9/3

f 7/9/4 2/5/4 6/8/4

v 0.34609 0.476829 -0.756494
vt -11.4252 18.7728
f 7/9/3 2/5/3 8/10/3

f 8/10/4 2/5/4 7/9/4

v 0.402658 0.568479 -0.699926
vt -8.27558 22.3811
f 8/10/3 2/5/3 9/11/3

f 9/11/4 2/5/4 8/10/4

v 0.699926 0.568479 -0.699926
vt -38.9702 22.3811
vn -0.707107 1.42014e-015 -0.707107
vt -30.6947 6.0837e-026
vt -30.6947 25.4068
f 10/12/5 3/13/5 2/14/5

v 0.86107 0 -0.86107
vt -47.9424 6.08496e-026
f 3/13/5 10/12/5 11/15/5

vn 0.707107 -1.42014e-015 0.707107
f 2/14/6 3/13/6 10/12/6

vt -30.6947 5.58861e-026
vn -0.707107 1.30342e-015 -0.707107
v 0.402658 0.568479 -0.402658
vt -22.4191 22.3811
f 3/16/7 12/17/7 2/14/7

v 0.34609 0.476829 -0.34609
vt -19.2695 18.7728
f 3/16/7 13/18/7 12/17/7

v 0.241513 0 -0.241513
vt -13.4469 5.5894e-026
f 14/19/7 13/18/7 3/16/7

v 0.241513 0.362003 -0.241513
vt -13.4469 14.2521
f 14/19/7 15/20/7 13/18/7

v 0.16147 0.158545 -0.16147
vt -8.99026 6.24194
f 15/20/7 14/19/7 16/21/7

vn 0.707107 -1.30342e-015 0.707107
f 16/21/8 14/19/8 15/20/8

f 13/18/8 15/20/8 14/19/8

f 3/16/8 13/18/8 14/19/8

f 12/17/8 13/18/8 3/16/8

f 2/14/8 12/17/8 3/16/8

vt 1.60618e-011 3.04538e-014
vn -0.707107 9.92153e-016 0.707107
v 0.941114 0.158545 -0.16147
vt 21.7044 6.24194
vt 1.61009e-011 25.4068
f 3/22/9 17/23/9 2/24/9

v 0.86107 0 -0.241513
vt 17.2478 3.04538e-014
f 17/23/9 3/22/9 18/25/9

vn 0.707107 -9.92153e-016 -0.707107
f 18/25/10 3/22/10 17/23/10

f 2/24/10 17/23/10 3/22/10

v 0.86107 0.362003 -0.241513
vt 17.2478 14.2521
f 2/24/9 17/23/9 19/26/9

f 19/26/10 17/23/10 2/24/10

v 0.756494 0.476829 -0.34609
vt 11.4252 18.7728
f 2/24/9 19/26/9 20/27/9

f 20/27/10 19/26/10 2/24/10

v 0.699926 0.568479 -0.402658
vt 8.27558 22.3811
f 2/24/9 20/27/9 21/28/9

f 21/28/10 20/27/10 2/24/10

vt -21.7044 5.31012e-014
vn -1 2.44657e-015 8.75368e-013
v 0.551292 0.757972 -0.341092
vt -13.4288 29.8414
vt -21.7044 25.4068
f 3/29/11 22/30/11 2/31/11

v 0.551292 0.635772 -0.261092
vt -10.2792 25.0304
f 3/29/11 23/32/11 22/30/11

v 0.551292 1.12799e-017 -0.113199
vt -4.45664 5.35453e-014
f 24/33/11 23/32/11 3/29/11

v 0.551292 0.482671 -0.113199
vt -4.45664 19.0028
f 24/33/11 25/34/11 23/32/11

v 0.551292 0.211394 -0
vt 1.89993e-011 8.32258
f 25/34/11 24/33/11 26/35/11

vn 1 -2.44657e-015 -8.75368e-013
f 26/35/12 24/33/12 25/34/12

f 23/32/12 25/34/12 24/33/12

f 3/29/12 23/32/12 24/33/12

f 22/30/12 23/32/12 3/29/12

f 2/31/12 22/30/12 3/29/12

v 0.551292 0.860445 -0.551292
vt -21.7044 33.8758
f 27/36/11 2/31/11 22/30/11

v 0.761492 0.757972 -0.551292
vt 29.98 29.8414
vt 21.7044 33.8758
f 2/2/1 28/37/1 27/38/1

v 0.841492 0.635772 -0.551292
vt 33.1296 25.0304
f 2/2/1 29/39/1 28/37/1

v 0.989385 0.482671 -0.551292
vt 38.9522 19.0028
f 2/2/1 30/40/1 29/39/1

f 2/2/1 4/4/1 30/40/1

f 4/4/2 1/1/2 2/2/2

f 30/40/2 4/4/2 2/2/2

f 29/39/2 30/40/2 2/2/2

f 28/37/2 29/39/2 2/2/2

f 27/38/2 28/37/2 2/2/2

f 22/30/12 2/31/12 27/36/12

vn -1 2.56515e-015 8.68281e-013
vt -21.7044 5.56751e-014
f 27/36/13 3/41/13 2/31/13

v 0.551292 1.12799e-017 -0.989385
vt -38.9522 5.61192e-014
f 3/41/13 27/36/13 31/42/13

vn 1 -2.56515e-015 -8.68281e-013
f 2/31/14 3/41/14 27/36/14

vn -1.28366e-015 1.35978e-015 1
v 0.113199 1.12799e-017 -0.551292
vt 4.45664 2.99573e-014
f 2/2/15 32/43/15 3/3/15

v 0 0.211394 -0.551292
vt -2.78611e-014 8.32258
f 32/43/15 2/2/15 33/44/15

vn 1.28366e-015 -1.35978e-015 -1
f 3/3/16 32/43/16 2/2/16

f 33/44/16 2/2/16 32/43/16

v 0.113199 0.482671 -0.551292
vt 4.45664 19.0028
f 33/44/15 2/2/15 34/45/15

f 34/45/16 2/2/16 33/44/16

v 0.261092 0.635772 -0.551292
vt 10.2792 25.0304
f 34/45/15 2/2/15 35/46/15

f 35/46/16 2/2/16 34/45/16

v 0.341092 0.757972 -0.551292
vt 13.4288 29.8414
f 35/46/15 2/2/15 36/47/15

f 36/47/16 2/2/16 35/46/16

f 36/47/15 2/2/15 27/38/15

f 27/38/16 2/2/16 36/47/16

f 31/42/14 27/36/14 3/41/14

v 0.551292 0.757972 -0.761492
vt -29.98 29.8414
f 31/42/13 27/36/13 37/48/13

f 37/48/14 27/36/14 31/42/14

v 0.551292 0.635772 -0.841492
vt -33.1296 25.0304
f 31/42/13 37/48/13 38/49/13

f 38/49/14 37/48/14 31/42/14

v 0.551292 0.482671 -0.989385
vt -38.9522 19.0028
f 31/42/13 38/49/13 39/50/13

f 39/50/14 38/49/14 31/42/14

v 0.551292 0.211394 -1.10258
vt -43.4088 8.32258
f 31/42/13 39/50/13 40/51/13

f 40/51/14 39/50/14 31/42/14

f 11/15/6 10/12/6 3/13/6

v 0.756494 0.476829 -0.756494
vt -42.1199 18.7728
f 11/15/5 10/12/5 41/52/5

f 41/52/6 10/12/6 11/15/6

v 0.86107 0.362003 -0.86107
vt -47.9424 14.2521
f 11/15/5 41/52/5 42/53/5

f 42/53/6 41/52/6 11/15/6

v 0.941114 0.158545 -0.941114
vt -52.3991 6.24194
f 11/15/5 42/53/5 43/54/5

f 43/54/6 42/53/6 11/15/6

