# Alias OBJ Model File
# Exported from SketchUp, (c) 2000-2012 Trimble Navigation Limited
# File units = meters

mtllib naturePack_041.mtl

g Mesh1 Group1 Model

usemtl Green_leafs
v 0 0.24 -0.0854
vt -3.3622 9.44882
vn -1 0 -0
v 0 0 -0
vt 0 0
v 0 0.24 -0
vt 0 9.44882
f 1/1/1 2/2/1 3/3/1

v 0 0 -0.0854
vt -3.3622 0
f 2/2/1 1/1/1 4/4/1

vn 0 0 -1
v 0.0854 0 -0.0854
f 1/3/2 5/4/2 4/2/2

v 0.0854 0.24 -0.0854
f 5/4/2 1/3/2 6/1/2

vt 0 3.3622
vn 0 1 -0
v 0.0854 0.24 -0
vt 3.3622 0
vt 3.3622 3.3622
f 1/5/3 7/6/3 6/7/3

f 7/6/3 1/5/3 3/2/3

vn 0 0 1
vt 3.3622 9.44882
f 2/2/4 7/8/4 3/3/4

v 0.0854 0 -0
f 7/8/4 2/2/4 8/6/4

vn 0 -1 -0
vt -3.3622 3.3622
f 2/2/5 5/9/5 8/4/5

f 5/9/5 2/2/5 4/5/5

vn 1 0 -0
f 5/6/6 7/3/6 8/2/6

f 7/3/6 5/6/6 6/8/6

g Mesh2 Group1 Model

v -0.22 0.48 -0.0854
vt -3.3622 18.8976
v -0.22 0 -0
v -0.22 0.48 -0
vt 0 18.8976
f 9/10/1 10/2/1 11/11/1

v -0.22 0 -0.0854
f 10/2/1 9/10/1 12/4/1

vt 8.66142 18.8976
v -0.1346 0 -0.0854
vt 5.29921 0
vt 8.66142 0
f 9/12/2 13/13/2 12/14/2

v -0.1346 0.48 -0.0854
vt 5.29921 18.8976
f 13/13/2 9/12/2 14/15/2

vt -8.66142 3.3622
v -0.1346 0.48 -0
vt -5.29921 0
vt -5.29921 3.3622
f 9/16/3 15/17/3 14/18/3

vt -8.66142 0
f 15/17/3 9/16/3 11/19/3

vt -5.29921 18.8976
vt -8.66142 18.8976
f 10/19/4 15/20/4 11/21/4

v -0.1346 0 -0
f 15/20/4 10/19/4 16/17/4

vt 5.29921 3.3622
f 10/14/5 13/22/5 16/13/5

vt 8.66142 3.3622
f 13/22/5 10/14/5 12/23/5

f 13/6/6 15/11/6 16/2/6

vt 3.3622 18.8976
f 15/11/6 13/6/6 14/24/6

g Mesh3 Group1 Model

v -0.0290977 3.56729e-016 -0.289775
vt 11.4085 1.40445e-014
v -0.0290977 0.2 -0.204375
vt 8.04627 7.87402
v -0.0290977 3.56729e-016 -0.204375
vt 8.04627 1.40445e-014
f 17/25/6 18/26/6 19/27/6

v -0.0290977 0.2 -0.289775
vt 11.4085 7.87402
f 18/26/6 17/25/6 20/28/6

vt 1.14558 1.40445e-014
v -0.114498 0.2 -0.289775
vt 4.50778 7.87402
vt 1.14558 7.87402
f 17/29/2 21/30/2 20/31/2

v -0.114498 3.56729e-016 -0.289775
vt 4.50778 1.40445e-014
f 21/30/2 17/29/2 22/32/2

vt 1.14558 11.4085
v -0.114498 3.56729e-016 -0.204375
vt 4.50778 8.04627
vt 4.50778 11.4085
f 17/33/5 23/34/5 22/35/5

vt 1.14558 8.04627
f 23/34/5 17/33/5 19/36/5

vt -1.14558 7.87402
vt -4.50778 1.40445e-014
vt -1.14558 1.40445e-014
f 18/37/4 23/38/4 19/39/4

v -0.114498 0.2 -0.204375
vt -4.50778 7.87402
f 23/38/4 18/37/4 24/40/4

vt -1.14558 8.04627
vt -4.50778 11.4085
vt -4.50778 8.04627
f 18/41/3 21/42/3 24/43/3

vt -1.14558 11.4085
f 21/42/3 18/41/3 20/44/3

vt -11.4085 7.87402
vt -8.04627 1.40445e-014
vt -8.04627 7.87402
f 21/45/1 23/46/1 24/47/1

vt -11.4085 1.40445e-014
f 23/46/1 21/45/1 22/48/1

g Mesh4 Group1 Model

v 0.324807 3.60969e-016 -0.181833
vt 7.15878 1.42114e-014
v 0.324807 0.19 -0.096433
vt 3.79657 7.48031
v 0.324807 3.60969e-016 -0.096433
vt 3.79657 1.42114e-014
f 25/49/6 26/50/6 27/51/6

v 0.324807 0.19 -0.181833
vt 7.15878 7.48031
f 26/50/6 25/49/6 28/52/6

vt -12.7877 1.42114e-014
v 0.239407 0.19 -0.181833
vt -9.42547 7.48031
vt -12.7877 7.48031
f 25/53/2 29/54/2 28/55/2

v 0.239407 3.60969e-016 -0.181833
vt -9.42547 1.42114e-014
f 29/54/2 25/53/2 30/56/2

vt -12.7877 7.15878
v 0.239407 3.60969e-016 -0.096433
vt -9.42547 3.79657
vt -9.42547 7.15878
f 25/57/5 31/58/5 30/59/5

vt -12.7877 3.79657
f 31/58/5 25/57/5 27/60/5

vt 12.7877 7.48031
vt 9.42547 1.42114e-014
vt 12.7877 1.42114e-014
f 26/61/4 31/62/4 27/63/4

v 0.239407 0.19 -0.096433
vt 9.42547 7.48031
f 31/62/4 26/61/4 32/64/4

vt 12.7877 3.79657
vt 9.42547 7.15878
vt 9.42547 3.79657
f 26/65/3 29/66/3 32/67/3

vt 12.7877 7.15878
f 29/66/3 26/65/3 28/68/3

vt -7.15878 7.48031
vt -3.79657 1.42114e-014
vt -3.79657 7.48031
f 29/69/1 31/70/1 32/71/1

vt -7.15878 1.42114e-014
f 31/70/1 29/69/1 30/72/1

g Mesh5 Group1 Model

v 0.21015 3.60955e-016 0.082759
vt -3.25823 1.42108e-014
v 0.21015 0.48 0.168159
vt -6.62043 18.8976
v 0.21015 3.60955e-016 0.168159
vt -6.62043 1.42108e-014
f 33/73/6 34/74/6 35/75/6

v 0.21015 0.48 0.082759
vt -3.25823 18.8976
f 34/74/6 33/73/6 36/76/6

vt -8.27361 1.42108e-014
v 0.12475 0.48 0.082759
vt -4.91141 18.8976
vt -8.27361 18.8976
f 33/77/2 37/78/2 36/79/2

v 0.12475 3.60955e-016 0.082759
vt -4.91141 1.42108e-014
f 37/78/2 33/77/2 38/80/2

vt -8.27361 -3.25823
v 0.12475 3.60955e-016 0.168159
vt -4.91141 -6.62043
vt -4.91141 -3.25823
f 33/81/5 39/82/5 38/83/5

vt -8.27361 -6.62043
f 39/82/5 33/81/5 35/84/5

vt 8.27361 18.8976
vt 4.91141 1.42108e-014
vt 8.27361 1.42108e-014
f 34/85/4 39/86/4 35/87/4

v 0.12475 0.48 0.168159
vt 4.91141 18.8976
f 39/86/4 34/85/4 40/88/4

vt 8.27361 -6.62043
vt 4.91141 -3.25823
vt 4.91141 -6.62043
f 34/89/3 37/90/3 40/91/3

vt 8.27361 -3.25823
f 37/90/3 34/89/3 36/92/3

vt 3.25823 18.8976
vt 6.62043 1.42108e-014
vt 6.62043 18.8976
f 37/93/1 39/94/1 40/95/1

vt 3.25823 1.42108e-014
f 39/94/1 37/93/1 38/96/1

g Mesh6 Group1 Model

v 0.228269 0 -0.450696
vt 17.7439 0
v 0.228269 0.09 -0.365296
vt 14.3817 3.54331
v 0.228269 0 -0.365296
vt 14.3817 0
f 41/97/6 42/98/6 43/99/6

v 0.228269 0.09 -0.450696
vt 17.7439 3.54331
f 42/98/6 41/97/6 44/100/6

vt -8.98698 0
v 0.142869 0.09 -0.450696
vt -5.62478 3.54331
vt -8.98698 3.54331
f 41/101/2 45/102/2 44/103/2

v 0.142869 0 -0.450696
vt -5.62478 0
f 45/102/2 41/101/2 46/104/2

vt -8.98698 17.7439
v 0.142869 0 -0.365296
vt -5.62478 14.3817
vt -5.62478 17.7439
f 41/105/5 47/106/5 46/107/5

vt -8.98698 14.3817
f 47/106/5 41/105/5 43/108/5

vt 8.98698 3.54331
vt 5.62478 0
vt 8.98698 0
f 42/109/4 47/110/4 43/111/4

v 0.142869 0.09 -0.365296
vt 5.62478 3.54331
f 47/110/4 42/109/4 48/112/4

vt 8.98698 14.3817
vt 5.62478 17.7439
vt 5.62478 14.3817
f 42/113/3 45/114/3 48/115/3

vt 8.98698 17.7439
f 45/114/3 42/113/3 44/116/3

vt -17.7439 3.54331
vt -14.3817 0
vt -14.3817 3.54331
f 45/117/1 47/118/1 48/119/1

vt -17.7439 0
f 47/118/1 45/117/1 46/120/1

g Mesh7 Group1 Model

v 0.524765 0 0.169231
vt -6.66265 0
v 0.524765 0.09 0.254631
vt -10.0249 3.54331
v 0.524765 0 0.254631
vt -10.0249 0
f 49/121/6 50/122/6 51/123/6

v 0.524765 0.09 0.169231
vt -6.66265 3.54331
f 50/122/6 49/121/6 52/124/6

vt -20.66 0
v 0.439365 0.09 0.169231
vt -17.2978 3.54331
vt -20.66 3.54331
f 49/125/2 53/126/2 52/127/2

v 0.439365 0 0.169231
vt -17.2978 0
f 53/126/2 49/125/2 54/128/2

vt -20.66 -6.66265
v 0.439365 0 0.254631
vt -17.2978 -10.0249
vt -17.2978 -6.66265
f 49/129/5 55/130/5 54/131/5

vt -20.66 -10.0249
f 55/130/5 49/129/5 51/132/5

vt 20.66 3.54331
vt 17.2978 0
vt 20.66 0
f 50/133/4 55/134/4 51/135/4

v 0.439365 0.09 0.254631
vt 17.2978 3.54331
f 55/134/4 50/133/4 56/136/4

vt 20.66 -10.0249
vt 17.2978 -6.66265
vt 17.2978 -10.0249
f 50/137/3 53/138/3 56/139/3

vt 20.66 -6.66265
f 53/138/3 50/137/3 52/140/3

vt 6.66265 3.54331
vt 10.0249 0
vt 10.0249 3.54331
f 53/141/1 55/142/1 56/143/1

vt 6.66265 0
f 55/142/1 53/141/1 54/144/1

g Mesh8 Group1 Model

v -0.0490421 0.14 0.336064
vt 1.93079 5.51181
v 0.0363579 0 0.336064
vt -1.43141 0
v -0.0490421 0 0.336064
vt 1.93079 0
f 57/145/2 58/146/2 59/147/2

v 0.0363579 0.14 0.336064
vt -1.43141 5.51181
f 58/146/2 57/145/2 60/148/2

vt -1.93079 -13.2309
v 0.0363579 0.14 0.421464
vt 1.43141 -16.5931
vt 1.43141 -13.2309
f 57/149/3 61/150/3 60/151/3

v -0.0490421 0.14 0.421464
vt -1.93079 -16.5931
f 61/150/3 57/149/3 62/152/3

vt 13.2309 5.51181
v -0.0490421 0 0.421464
vt 16.5931 0
vt 16.5931 5.51181
f 57/153/1 63/154/1 62/155/1

vt 13.2309 0
f 63/154/1 57/153/1 59/156/1

vt -1.43141 -13.2309
vt 1.93079 -16.5931
vt 1.93079 -13.2309
f 58/157/5 63/158/5 59/159/5

v 0.0363579 0 0.421464
vt -1.43141 -16.5931
f 63/158/5 58/157/5 64/160/5

vt -13.2309 0
vt -16.5931 5.51181
vt -16.5931 0
f 58/161/6 61/162/6 64/163/6

vt -13.2309 5.51181
f 61/162/6 58/161/6 60/164/6

vt 1.43141 5.51181
vt -1.93079 0
vt 1.43141 0
f 61/165/4 63/166/4 64/167/4

vt -1.93079 5.51181
f 63/166/4 61/165/4 62/168/4

g Mesh9 Group1 Model

v -0.294976 0 0.144182
vt -5.67647 0
v -0.294976 0.09 0.229582
vt -9.03868 3.54331
v -0.294976 0 0.229582
vt -9.03868 0
f 65/169/6 66/170/6 67/171/6

v -0.294976 0.09 0.144182
vt -5.67647 3.54331
f 66/170/6 65/169/6 68/172/6

vt 11.6132 0
v -0.380376 0.09 0.144182
vt 14.9754 3.54331
vt 11.6132 3.54331
f 65/173/2 69/174/2 68/175/2

v -0.380376 0 0.144182
vt 14.9754 0
f 69/174/2 65/173/2 70/176/2

vt 11.6132 -5.67647
v -0.380376 0 0.229582
vt 14.9754 -9.03868
vt 14.9754 -5.67647
f 65/177/5 71/178/5 70/179/5

vt 11.6132 -9.03868
f 71/178/5 65/177/5 67/180/5

vt -11.6132 3.54331
vt -14.9754 0
vt -11.6132 0
f 66/181/4 71/182/4 67/183/4

v -0.380376 0.09 0.229582
vt -14.9754 3.54331
f 71/182/4 66/181/4 72/184/4

vt -11.6132 -9.03868
vt -14.9754 -5.67647
vt -14.9754 -9.03868
f 66/185/3 69/186/3 72/187/3

vt -11.6132 -5.67647
f 69/186/3 66/185/3 68/188/3

vt 5.67647 3.54331
vt 9.03868 0
vt 9.03868 3.54331
f 69/189/1 71/190/1 72/191/1

vt 5.67647 0
f 71/190/1 69/189/1 70/192/1

g Mesh10 Group1 Model

v 0.631243 0 -0.166263
vt 6.54581 0
v 0.631243 0.09 -0.0808635
vt 3.1836 3.54331
v 0.631243 0 -0.0808635
vt 3.1836 0
f 73/193/6 74/194/6 75/195/6

v 0.631243 0.09 -0.166263
vt 6.54581 3.54331
f 74/194/6 73/193/6 76/196/6

vt -24.8521 0
v 0.545843 0.09 -0.166263
vt -21.4899 3.54331
vt -24.8521 3.54331
f 73/197/2 77/198/2 76/199/2

v 0.545843 0 -0.166263
vt -21.4899 0
f 77/198/2 73/197/2 78/200/2

vt -24.8521 6.54581
v 0.545843 0 -0.0808635
vt -21.4899 3.1836
vt -21.4899 6.54581
f 73/201/5 79/202/5 78/203/5

vt -24.8521 3.1836
f 79/202/5 73/201/5 75/204/5

vt 24.8521 3.54331
vt 21.4899 0
vt 24.8521 0
f 74/205/4 79/206/4 75/207/4

v 0.545843 0.09 -0.0808635
vt 21.4899 3.54331
f 79/206/4 74/205/4 80/208/4

vt 24.8521 3.1836
vt 21.4899 6.54581
vt 21.4899 3.1836
f 74/209/3 77/210/3 80/211/3

vt 24.8521 6.54581
f 77/210/3 74/209/3 76/212/3

vt -6.54581 3.54331
vt -3.1836 0
vt -3.1836 3.54331
f 77/213/1 79/214/1 80/215/1

vt -6.54581 0
f 79/214/1 77/213/1 78/216/1

