# Alias OBJ Model File
# Exported from SketchUp, (c) 2000-2012 Trimble Navigation Limited
# File units = meters

mtllib naturePack_081.mtl

g Mesh1 Group1 Model

usemtl Wood
v 1.02842 0.119209 -0.584129
vt 40.4891 15.9484
vn 5.06315e-019 0.336361 0.941733
v 0.530195 0 -0.511737
vt 20.8738 10.4575
vn 2.21498e-018 0.519057 0.854739
v 1.10081 0 -0.511737
vt 43.3392 10.4575
f 1/1/1 2/2/2 3/3/2

v 0.602587 0.119209 -0.584129
vt 23.7239 15.9484
f 2/2/2 1/1/1 4/4/1

v 0.984487 0.430189 -0.628065
vt 38.7593 20.2291
vn -1.22308e-018 0.139891 0.990167
vt 23.7239 7.86423
vt 40.4891 7.86423
f 5/5/3 4/6/1 1/7/1

v 0.646523 0.430189 -0.628065
vt 25.4537 20.2291
f 4/6/1 5/5/3 6/8/3

usemtl Leafs
v 1.42486 0.430189 -0
vt -56.0968 0
vn 0 -1 -0
vt -25.4537 24.727
vt -38.7593 24.727
f 7/9/4 6/10/4 5/11/4

v 0.294067 0.430189 -0
vt -11.5774 0
f 8/12/4 6/10/4 7/9/4

v 0.646523 0.430189 -0.966029
vt -25.4537 38.0327
f 6/10/4 8/12/4 9/13/4

v 0.226254 0.430189 -1.5678
vt -8.90762 61.7244
f 8/12/4 10/14/4 9/13/4

v 0.117292 0.430189 -0.176775
vt -4.61778 6.95966
f 11/15/4 10/14/4 8/12/4

v 0.117292 0.430189 -1.41458
vt -4.61778 55.6923
f 10/14/4 11/15/4 12/16/4

v 0.331462 1.13232 -0.21417
vt -8.43189 46.4472
vn -0.956492 0.291758 8.25843e-018
vt -55.6923 17.547
vt -6.95966 17.547
f 13/17/5 12/18/5 11/19/5

v 0.331462 1.13232 -1.21363
vt -47.7807 46.4472
f 12/18/5 13/17/5 14/20/5

vt -13.0497 8.43189
v 0.170441 1.13232 -1.32785
vt -6.71029 52.2777
vt -13.0497 47.7807
f 13/21/4 15/22/4 14/23/4

v 0.1225 1.13232 -0.099946
vt -4.82282 3.93488
f 16/24/4 15/22/4 13/21/4

v 0 1.13232 -0.222446
vt 0 8.7577
f 17/25/4 15/22/4 16/24/4

v 0 1.13232 -1.18945
vt 0 46.8286
f 15/22/4 17/25/4 18/26/4

v 0.401424 2.00183 -0.284132
vt -11.1863 78.1794
vn -0.907916 0.419152 4.1221e-018
vt -46.8286 40.4744
vt -8.7577 40.4744
f 19/27/6 18/28/6 17/29/6

v 0.401424 2.00183 -1.14367
vt -45.0263 78.1794
f 18/28/6 19/27/6 20/30/6

vt -15.8041 11.1863
v 0.303191 2.00183 -0.31231
vt -11.9367 12.2957
vt -15.8041 45.0263
f 19/31/4 21/32/4 20/33/4

v 0.429602 2.00183 -0.1859
vt -16.9134 7.31888
f 21/32/4 19/31/4 22/34/4

v 1.26096 2.00183 -0.284132
vt -49.6441 11.1863
f 22/34/4 19/31/4 23/35/4

vt 4.82282 44.4272
vn -1.29656e-017 0.207228 0.978293
vt 49.6441 79.4197
vt 15.8041 79.4197
f 16/36/7 23/37/7 19/38/7

v 1.36946 1.13232 -0.099946
vt 53.9157 44.4272
f 23/37/7 16/36/7 24/39/7

vt -53.9157 3.93488
f 16/24/4 13/21/4 24/40/4

v 1.33092 1.13232 -0.21417
vt -52.3985 8.43189
f 24/40/4 13/21/4 25/41/4

vt 11.5774 16.1997
vn 9.94232e-018 0.291758 0.956492
vt 52.3985 45.1
vt 13.0497 45.1
f 8/42/8 25/43/8 13/44/8

vt 56.0968 16.1997
f 25/43/8 8/42/8 7/45/8

vt 43.0136 33.3635
vn 0.675343 0.296353 0.675343
vt 39.6664 4.4205
v 1.54509 0.430189 -0.120233
vt 46.3607 4.4205
f 25/46/9 7/47/9 26/48/9

v 1.54509 0.430189 -1.44519
vt -60.8304 56.8972
vt -60.8304 4.73357
f 7/9/4 27/49/4 26/50/4

v 1.42248 0.430189 -1.5678
vt -56.0032 61.7244
f 7/9/4 28/51/4 27/49/4

f 7/9/4 5/11/4 28/51/4

v 0.984487 0.430189 -0.966029
vt -38.7593 38.0327
f 29/52/4 28/51/4 5/11/4

f 9/13/4 28/51/4 29/52/4

f 9/13/4 10/14/4 28/51/4

vt -13.0497 18.2834
vn -1.70637e-017 0.45037 -0.892842
vt -56.0032 -12.6771
vt -8.90762 -12.6771
f 14/53/10 28/54/10 10/55/10

v 1.33092 1.13232 -1.21363
vt -52.3985 18.2834
f 28/54/10 14/53/10 30/56/10

v 1.36946 1.13232 -1.32785
vt -53.9157 52.2777
vt -52.3985 47.7807
f 14/23/4 31/57/4 30/58/4

f 31/57/4 14/23/4 15/22/4

vt -15.8041 67.7709
vn -9.56489e-018 0.207228 -0.978293
vt -53.9157 32.7784
vt -6.71029 32.7784
f 20/59/11 31/60/11 15/61/11

v 1.26096 2.00183 -1.14367
vt -49.6441 67.7709
f 31/60/11 20/59/11 32/62/11

v 0.451025 2.00183 -1.2419
vt -17.7569 48.8937
vt -49.6441 45.0263
f 20/33/4 33/63/4 32/64/4

v 0.303191 2.00183 -1.13056
vt -11.9367 44.5101
f 20/33/4 34/65/4 33/63/4

f 34/65/4 20/33/4 21/32/4

v 0.560906 4.03449 -0.684596
vt -26.9526 160.354
vn -0.992058 0.12578 -6.86014e-016
vt -44.5101 79.6879
vt -12.2957 79.6879
f 35/66/12 34/67/12 21/68/12

v 0.560906 4.03449 -0.744304
vt -29.3033 160.354
f 34/67/12 35/66/12 36/69/12

usemtl FrontColor
vt -22.0829 29.3033
vn -1.78904e-015 -1 -3.00926e-015
v 0.57013 4.03449 -0.675371
vt -22.4461 26.5894
vt -22.0829 26.9526
f 36/70/13 37/71/13 35/72/13

v 0.571693 4.03449 -0.752429
vt -22.5076 29.6232
f 37/71/13 36/70/13 38/73/13

usemtl Leafs
vt -43.5992 70.5305
vn -0.586554 0.222356 -0.778789
vt -35.2688 152.611
vt -35.8005 152.611
f 33/74/14 36/75/14 38/76/14

vt -36.3128 70.5305
f 36/75/14 33/74/14 34/77/14

vt -22.5076 147.489
vn -4.30255e-016 0.234112 -0.97221
v 1.36946 2.00183 -1.2419
vt -53.9157 65.1756
vt -17.7569 65.1756
f 38/78/15 39/79/15 33/80/15

v 0.638712 4.03449 -0.752429
vt -25.1462 147.489
f 39/79/15 38/78/15 40/81/15

usemtl FrontColor
v 0.631977 4.03449 -0.675371
vt -24.881 26.5894
vt -25.1462 29.6232
f 41/82/13 38/73/13 40/83/13

f 37/71/13 38/73/13 41/82/13

usemtl Leafs
vt 16.9134 78.3356
vn -4.42064e-016 0.234112 0.97221
vt 24.881 160.649
vt 22.4461 160.649
f 22/84/16 41/85/16 37/86/16

v 1.27717 2.00183 -0.1859
vt 50.2821 78.3356
f 41/85/16 22/84/16 42/87/16

vt -50.2821 7.31888
f 22/34/4 23/35/4 42/88/4

vt -53.9157 48.8937
f 23/35/4 39/89/4 42/88/4

f 32/64/4 39/89/4 23/35/4

f 32/64/4 33/63/4 39/89/4

vt 11.1863 66.814
vn 0.978293 0.207228 -0
v 1.44515 1.13232 -1.18945
vt 46.8286 31.8214
vt 45.0263 66.814
f 23/90/17 43/91/17 32/92/17

v 1.44515 1.13232 -0.175633
vt 6.91467 31.8214
f 43/91/17 23/90/17 44/93/17

vt 43.0136 70.3738
vn 0.68789 0.231549 0.68789
vt 40.9065 35.1846
vt 45.1206 35.1846
f 23/94/18 24/95/18 44/96/18

vt -56.8955 46.8286
vt -56.8955 6.91467
f 24/40/4 43/97/4 44/98/4

f 24/40/4 31/57/4 43/97/4

f 24/40/4 25/41/4 31/57/4

f 30/58/4 31/57/4 25/41/4

vt 8.43189 27.3522
vn 0.956492 0.291758 -0
vt 56.8972 -1.54806
vt 47.7807 27.3522
f 25/99/19 27/100/19 30/101/19

vt 4.73357 -1.54806
f 27/100/19 25/99/19 26/102/19

vt 4.0455 -18.6398
vn 0.645094 0.409522 -0.645094
vt -3.26526 11.6604
vt -2.78115 -18.6398
f 28/103/20 30/104/20 27/105/20

vt 19.9994 28.6658
vn 0.858462 0.20656 -0.469443
vt 15.6866 63.6532
vt 13.7888 28.6658
f 31/106/21 32/107/21 43/108/21

v 1.49919 2.00183 -0.31231
vt -59.0233 12.2957
f 42/88/4 39/89/4 45/109/4

v 1.49919 2.00183 -1.11217
vt -59.0233 43.7861
f 45/109/4 39/89/4 46/110/4

vt 3.16573 131.079
vn 0.650894 0.390737 -0.650894
vt -10.7743 44.1415
vt -3.55109 44.1415
f 40/111/22 46/112/22 39/113/22

v 0.648179 4.03449 -0.742962
vt 2.63865 131.079
f 46/112/22 40/111/22 47/114/22

usemtl FrontColor
v 0.648179 4.03449 -0.684596
vt -25.5189 26.9526
vt -25.5189 29.2505
f 48/115/13 40/83/13 47/116/13

f 41/82/13 40/83/13 48/115/13

usemtl Leafs
vt 47.3174 67.6341
vn 0.464586 0.34396 0.815997
vt 35.5119 152.86
vt 34.7779 152.86
f 42/117/23 48/118/23 41/119/23

vt 57.3761 67.6341
f 48/118/23 42/117/23 45/120/23

vt 43.7861 49.9039
vn 0.922419 0.38619 2.54921e-016
vt 26.9526 136.66
vt 12.2957 49.9039
f 46/121/24 48/122/24 45/123/24

vt 29.2505 136.66
f 48/122/24 46/121/24 47/124/24

vt -2.9298 162.579
vn -0.690713 0.214079 0.690713
vt -0.253856 80.6534
vt 6.78438 80.6534
f 37/125/25 21/126/25 22/127/25

vt -3.44338 162.579
f 21/126/25 37/125/25 35/128/25

vt -40.6522 66.9282
vn -0.59829 0.314999 -0.736766
vt -38.164 30.859
vt -29.5199 30.859
f 20/129/26 15/130/26 18/131/26

vt -55.4638 4.72913
vn -0.752839 0.38287 -0.535391
vt -48.0618 4.72913
vt -46.5012 34.6521
f 10/132/27 12/133/27 14/134/27

usemtl Wood
v 1.02842 0.119209 -1.00996
vt -40.4891 -0.915294
vn 4.45501e-018 0.336361 -0.941733
vt -25.4537 11.4496
vn 2.61634e-018 0.139891 -0.990167
vt -38.7593 11.4496
f 49/135/28 9/136/29 29/137/29

v 0.602587 0.119209 -1.00996
vt -23.7239 -0.915294
f 9/136/29 49/135/28 50/138/28

v 1.10081 0 -1.08236
vt -43.3392 -22.1183
vn 6.11126e-018 0.519057 -0.854739
vt -23.7239 -16.6274
vt -40.4891 -16.6274
f 51/139/30 50/140/28 49/141/28

v 0.530195 0 -1.08236
vt -20.8738 -22.1183
f 50/140/28 51/139/30 52/142/30

vt -43.3392 42.6125
vt -20.8738 20.1471
vt -20.8738 42.6125
f 51/143/4 2/144/4 52/145/4

vt -43.3392 20.1471
f 2/144/4 51/143/4 3/146/4

vt 42.6125 -22.4955
vn 0.854739 0.519057 6.30765e-018
vt 22.9972 -17.0046
vn 0.941733 0.336361 5.39959e-018
vt 20.1471 -22.4955
f 51/147/31 1/148/32 3/149/31

vt 39.7624 -17.0046
f 1/148/32 51/147/31 49/150/32

vt 39.7624 -1.01695
vt 24.727 11.3479
vn 0.990167 0.139891 4.27043e-018
vt 22.9972 -1.01695
f 49/151/32 5/152/33 1/153/32

vt 38.0327 11.3479
f 5/152/33 49/151/32 29/154/33

vt -22.9972 16.3256
vn -0.941733 0.336361 1.67641e-018
vt -42.6125 10.8347
vn -0.854739 0.519057 2.85316e-018
vt -20.1471 10.8347
f 4/155/34 52/156/35 2/157/35

vt -39.7624 16.3256
f 52/156/35 4/155/34 50/158/34

vt -24.727 20.3308
vn -0.990167 0.139891 4.31006e-019
vt -39.7624 7.96589
vt -22.9972 7.96589
f 6/159/36 50/160/34 4/161/34

vt -38.0327 20.3308
f 50/160/34 6/159/36 9/162/36

usemtl Leafs
vt 3.26526 46.9446
vn -0.685451 0.245589 0.685451
vt -1.65596 18.4284
vt 8.18649 18.4284
f 13/163/37 11/164/37 8/165/37

vt 3.26526 80.4817
vn -0.661734 0.352444 0.661734
vt -6.19263 43.9015
vt 0.627864 43.9015
f 19/166/38 17/167/38 16/168/38

