# Alias OBJ Model File
# Exported from SketchUp, (c) 2000-2012 Trimble Navigation Limited
# File units = meters

mtllib naturePack_174.mtl

g Mesh1 Group1 Model

usemtl Stone
v 1.33874 1.3275 -0.489255
vt 52.7062 19.262
vn 2.3002e-016 1 4.61602e-017
v 0.685792 1.3275 -1.47287
vt 26.9997 57.9871
v 0.582646 1.3275 -1.15976
vt 22.9388 45.6598
f 1/1/1 2/2/1 3/3/1

v 1.20876 1.3275 -1.85327
vt 47.589 72.9635
f 2/2/1 1/1/1 4/4/1

v 1.62858 1.3275 -1.92056
vt 64.1173 75.6125
f 4/4/1 1/1/1 5/5/1

v 1.99152 1.3275 -0.71326
vt 78.4061 28.0811
f 5/5/1 1/1/1 6/6/1

v 1.22702 0.585 -0
vt 45.6926 12.1612
vn 0.281448 0.498093 0.820177
vt 83.2757 45.873
vt 56.1046 45.873
f 7/7/2 6/8/2 1/9/2

v 2.28639 0.585 -0.363526
vt 89.787 12.1612
f 6/8/2 7/7/2 8/10/2

v 1.28524 3.15836e-015 -0.254953
vt 51.1183 2.46103
vn 0.303417 -0.355155 0.884197
vt 89.787 27.0987
vt 45.6926 27.0987
f 9/11/3 8/12/3 7/13/3

v 2.13273 0 -0.545774
vt 86.3939 2.46103
f 8/12/3 9/11/3 10/14/3

vt -50.5999 10.0375
vn -2.04336e-016 -1 4.9863e-017
v 1.66153 1.6243e-015 -2.11318
vt -65.4147 83.1963
vt -83.9656 21.4872
f 9/15/4 11/16/4 10/17/4

v 1.11649 1.6243e-015 -2.02583
vt -43.9563 79.7571
f 9/15/4 12/18/4 11/16/4

v 0.437533 1.6243e-015 -1.53196
vt -17.2257 60.3135
f 9/15/4 13/19/4 12/18/4

v 0.303619 1.6243e-015 -1.12545
vt -11.9535 44.3092
f 13/19/4 9/15/4 14/20/4

vt 31.1983 -14.9967
vn -0.617705 -0.36504 0.696554
v 0 0.585 -1.08812
vt -28.4237 9.74192
vt -20.4553 -14.9967
f 9/21/5 15/22/5 14/23/5

vt 36.1433 9.74192
f 15/22/5 9/21/5 7/24/5

vt 36.1433 36.1567
vn -0.570737 0.509952 0.64359
vt -13.1324 70.1397
vt -28.4237 36.1567
f 7/25/6 3/26/6 15/27/6

vt 26.6538 70.1397
f 3/26/6 7/25/6 1/28/6

vt -50.5444 46.8752
vn -0.772571 0.58169 -0.254502
v 0.334784 0.585 -2.1044
vt -82.8147 10.9373
vt -40.6887 10.9373
f 3/29/7 16/30/7 15/31/7

vt -63.5234 46.8752
f 16/30/7 3/29/7 2/32/7

v 0.561862 0.95625 -1.9452
vt -79.6585 28.9062
f 16/30/7 2/32/7 17/33/7

vt -81.4043 9.02161
vn -0.371944 0.774717 -0.511342
vt -62.937 -14.0939
vt -55.9444 9.02161
f 4/34/8 17/35/8 2/36/8

vt -75.2752 16.5911
vn -0.14039 0.461515 -0.875953
vt -33.9611 0.115407
vt -58.5359 16.5911
f 5/37/9 17/38/9 4/39/9

v 1.69739 0.585 -2.32279
vt -80.4563 -16.3603
f 18/40/9 17/38/9 5/37/9

vt -26.1256 -16.3603
f 17/38/9 18/40/9 16/41/9

vt -80.4563 47.7164
vn -0.149641 -0.325361 -0.933674
v 0.453115 0.2925 -2.02144
vt -30.2087 35.538
vt -26.1256 47.7164
f 18/42/10 19/43/10 16/44/10

vt -77.7564 23.3596
f 11/45/10 19/43/10 18/42/10

vt -56.0241 23.3596
f 19/43/10 11/45/10 12/46/10

vt -82.4628 30.818
vn -0.354877 -0.797519 -0.487878
vt -49.4087 30.818
vt -61.2404 49.9061
f 12/47/11 13/48/11 19/49/11

vt -62.6749 1.07328
vn -0.858595 -0.42757 -0.28284
vt -82.8147 26.5511
vt -81.17 13.8122
f 13/50/12 16/51/12 19/52/12

vt -45.8245 1.07328
f 14/53/12 16/51/12 13/50/12

vt -40.6887 26.5511
f 16/51/12 14/53/12 15/54/12

vt -91.2479 42.5533
vn -0.286335 -0.307575 -0.907419
v 2.23639 1.6243e-015 -2.29458
vt -111.15 18.3485
vt -87.4183 18.3485
f 18/55/13 20/56/13 11/57/13

v 2.41596 0.585 -2.54953
vt -120.913 42.5533
f 20/56/13 18/55/13 21/58/13

vt -83.8989 23.766
vn -0.270361 0.439093 -0.856798
vt -120.913 -8.77068
vt -91.2479 -8.77068
f 5/59/14 21/60/14 18/61/14

v 2.07136 1.3275 -2.06028
vt -102.178 23.766
f 21/60/14 5/59/14 22/62/14

vt 81.5496 81.1133
f 5/5/1 6/6/1 22/63/1

v 2.16572 1.3275 -1.181
vt 85.2645 46.4959
f 22/63/1 6/6/1 23/64/1

vt 53.6802 15.9482
vn 0.825762 0.472794 0.307543
v 2.56909 0.585 -1.12259
vt 76.7185 -17.226
vt 73.3307 15.9482
f 6/65/15 24/66/15 23/67/15

vt 44.8287 -17.226
f 24/66/15 6/65/15 8/68/15

vt 49.4413 23.8076
vn 0.883155 -0.334441 0.328918
vt 76.7185 48.2464
vt 44.8287 48.2464
f 10/69/16 24/70/16 8/71/16

v 2.35889 1.6243e-015 -1.15303
vt 74.9531 23.8076
f 24/70/16 10/69/16 25/72/16

vt -88.0468 90.3378
vt -92.8697 45.3947
f 10/17/4 20/73/4 25/74/4

f 10/17/4 11/16/4 20/73/4

v 2.54573 1.6243e-015 -1.94896
vt -100.226 76.7306
f 25/74/4 20/73/4 26/75/4

vt 11.3578 83.9615
vn 0.66126 -0.460921 -0.591851
vt -9.66794 58.0088
vt 8.59353 58.0088
f 21/76/17 26/77/17 20/78/17

v 3.03619 0.585 -1.85656
vt -25.2563 83.9615
f 27/79/17 26/77/17 21/76/17

v 2.88438 0.2925 -1.79838
vt -22.9771 70.9852
f 26/77/17 27/79/17 28/80/17

vt 125.843 41.225
vn 0.800894 -0.314289 0.509698
v 2.54573 1.6243e-015 -1.44661
vt 101.86 16.9641
vt 120.702 29.0946
f 27/81/18 29/82/18 28/83/18

vt 88.1591 16.9641
f 27/81/18 25/84/18 29/82/18

vt 91.5913 41.225
f 25/84/18 27/81/18 24/85/18

vt 125.843 -6.97764
vn 0.754411 0.447607 0.480116
vt 85.0048 25.7122
vt 91.5913 -6.97764
f 27/86/19 23/87/19 24/88/19

v 2.30963 1.3275 -1.40713
vt 95.5578 25.7122
f 23/87/19 27/86/19 30/89/19

v 2.74487 0.95625 -1.74491
vt 115.977 9.3673
f 30/89/19 27/86/19 31/90/19

vt 11.3578 -67.0024
vn 0.586036 0.617607 -0.524522
vt -20.8824 -48.4183
vt -25.2563 -67.0024
f 21/91/20 31/92/20 27/93/20

v 2.27478 1.3275 -1.833
vt -5.95549 -29.8342
f 21/91/20 32/94/20 31/92/20

vt 6.05314 -29.8342
f 32/94/20 21/91/20 22/95/20

vt 89.5584 72.1653
f 22/63/1 23/64/1 32/96/1

vt 90.9304 55.3989
f 32/96/1 23/64/1 30/97/1

vt 59.6547 -64.6727
vn 0.624848 0.77907 -0.051133
vt 64.6205 -41.3592
vt 47.798 -41.3592
f 31/98/21 32/99/21 30/100/21

vt -100.226 56.9533
f 25/74/4 26/75/4 29/101/4

vt 70.8024 93.4675
vn 0.653655 -0.756793 -1.48489e-017
vt 56.9533 75.85
vt 76.7306 75.85
f 28/102/22 29/103/22 26/104/22

