# Alias OBJ Model File
# Exported from SketchUp, (c) 2000-2012 Trimble Navigation Limited
# File units = meters

mtllib naturePack_flat_004.mtl

g Mesh1 Grass Model

usemtl Green_leafs
v 0.725 1.57918e-016 -0.3625
vt 28.5433 6.21725e-015
vn 0 0 1
v 0 1.57918e-016 -0.3625
vt 0 6.21725e-015
v 0.3625 1.12799e-016 -0.3625
vt 14.2717 4.44089e-015
f 1/1/1 2/2/1 3/3/1

v 0.3625 0.395 -0.3625
vt 14.2717 15.5512
f 2/2/1 1/1/1 4/4/1

vn -0 -0 -1
f 3/3/2 2/2/2 1/1/2

f 4/4/2 1/1/2 2/2/2

g Mesh2 Grass Model

v 0.3625 0 -0.725
vt -28.5433 -2.60832e-014
vn -1 -1.82762e-015 4.07258e-013
vt -14.2717 -2.16423e-014
v 0.3625 0.1975 -0.3625
vt -14.2717 7.77559
f 5/5/3 3/6/3 6/7/3

vn 1 1.82762e-015 -4.07258e-013
f 6/7/4 3/6/4 5/5/4

vn -1 -1.82762e-015 4.06262e-013
v 0.3625 1.35358e-016 -0
vt 5.79803e-012 -2.07541e-014
f 3/6/5 7/8/5 6/7/5

vn 1 1.82762e-015 -4.06262e-013
f 6/7/6 7/8/6 3/6/6

