# Alias OBJ Model File
# Exported from SketchUp, (c) 2000-2012 Trimble Navigation Limited
# File units = meters

mtllib naturePack_108.mtl

g Mesh1 Trunk Model

usemtl Wood
v 0.80369 0 -0.80369
vt 31.6413 -12.8233
vn 0.914197 0.40527 6.74643e-018
v 0.701729 0.23 -0.101961
vt 4.0142 -2.91828
vn 0.966384 0.257103 3.72362e-018
v 0.80369 0 -0
vt 2.33501e-016 -12.8233
f 1/1/1 2/2/2 3/3/1

v 0.701729 0.23 -0.701729
vt 27.6271 -2.91828
f 2/2/2 1/1/1 4/4/2

vt -31.6413 -12.8233
vn 6.53637e-018 0.40527 -0.914197
v 0.101961 0.23 -0.701729
vt -4.0142 -2.91828
vn 3.78341e-018 0.257103 -0.966384
vt -27.6271 -2.91828
f 1/5/3 5/6/4 4/7/4

v 0 0 -0.80369
vt 2.26231e-016 -12.8233
f 5/6/4 1/5/3 6/8/3

vt -31.6413 31.6413
vn 0 -1 -0
v 0 0 -0
vt 0 0
vt 0 31.6413
f 1/9/5 7/10/5 6/11/5

vt -31.6413 0
f 7/10/5 1/9/5 3/12/5

vt 27.6271 9.905
vn 4.92231e-018 0.257103 0.966384
vn 2.36906e-018 0.40527 0.914197
vt 31.6413 -3.32304e-017
f 2/13/6 7/10/7 3/14/7

v 0.101961 0.23 -0.101961
vt 4.0142 9.905
f 7/10/7 2/13/6 8/15/6

v 0.639848 0.83 -0.163841
vt 25.1909 33.1665
vn 7.35408e-018 0.102591 0.994724
vt 4.0142 9.41916
vt 27.6271 9.41916
f 9/16/8 8/17/6 2/18/6

v 0.163841 0.83 -0.163841
vt 6.45045 33.1665
f 8/17/6 9/16/8 10/19/8

usemtl Light_Wood
v 0.26266 0.83 -0.26266
vt 10.341 10.341
vn 0 1 -0
vt 6.45045 6.45045
vt 25.1909 6.45045
f 11/20/9 10/21/9 9/22/9

v 0.163841 0.83 -0.639848
vt 6.45045 25.1909
f 10/21/9 11/20/9 12/23/9

v 0.26266 0.83 -0.541029
vt 10.341 21.3004
f 13/24/9 12/23/9 11/20/9

v 0.639848 0.83 -0.639848
vt 25.1909 25.1909
f 12/23/9 13/24/9 14/25/9

v 0.541029 0.83 -0.541029
vt 21.3004 21.3004
f 14/25/9 13/24/9 15/26/9

usemtl Wood
v 0.26266 0.23 -0.541029
vt 10.341 9.05512
vn 0 0 1
vt 21.3004 32.6772
vt 10.341 32.6772
f 16/27/10 15/28/10 13/29/10

v 0.541029 0.23 -0.541029
vt 21.3004 9.05512
f 15/28/10 16/27/10 17/30/10

v 0.541029 0.23 -0.26266
vt 21.3004 10.341
f 16/24/9 18/31/9 17/26/9

v 0.26266 0.23 -0.26266
f 18/31/9 16/24/9 19/20/9

vn 1 0 -0
f 16/30/11 11/29/11 19/27/11

f 11/29/11 16/30/11 13/28/11

vt -10.341 32.6772
vn 0 0 -1
vt -21.3004 9.05512
vt -10.341 9.05512
f 11/32/12 18/33/12 19/34/12

v 0.541029 0.83 -0.26266
vt -21.3004 32.6772
f 18/33/12 11/32/12 20/35/12

usemtl Light_Wood
f 11/20/9 9/22/9 20/31/9

f 20/31/9 9/22/9 15/26/9

f 14/25/9 15/26/9 9/22/9

usemtl Wood
vt 6.45045 29.9204
vn 0.994724 0.102591 6.0893e-019
vt 27.6271 6.17306
vt 25.1909 29.9204
f 9/36/13 4/37/2 14/38/13

vt 4.0142 6.17306
f 4/37/2 9/36/13 2/39/2

vt -27.6271 6.17306
vt -6.45045 29.9204
vn 9.37084e-019 0.102591 -0.994724
vt -25.1909 29.9204
f 4/40/4 12/41/14 14/42/14

vt -4.0142 6.17306
f 12/41/14 4/40/4 5/43/4

vt -27.6271 9.41916
vn -0.966384 0.257103 -1.39544e-018
vt -6.45045 33.1665
vn -0.994724 0.102591 -5.80807e-018
vt -25.1909 33.1665
f 5/44/15 10/45/16 12/46/16

vt -4.0142 9.41916
f 10/45/16 5/44/15 8/47/15

vt -31.6413 4.28047e-017
vn -0.914197 0.40527 3.05163e-018
vt -4.0142 9.905
vt -27.6271 9.905
f 6/48/17 8/49/15 5/50/15

f 8/49/15 6/48/17 7/10/17

vn -1 0 -0
f 15/35/18 18/34/18 20/32/18

f 18/34/18 15/35/18 17/33/18

