# Alias OBJ Model File
# Exported from SketchUp, (c) 2000-2012 Trimble Navigation Limited
# File units = meters

mtllib naturePack_030.mtl

g Mesh1 Tall_Rock_2 Model

usemtl Stone
v 1.44382e-015 0 -1.02
vt -5.68434e-014 40.1575
vn 0 -1 -0
v 0.588897 0 -0
vt -23.1849 0
v 0 0 -0.34
vt 0 13.3858
f 1/1/1 2/2/1 3/3/1

v 0.588897 0 -1.36
vt -23.1849 53.5433
f 2/2/1 1/1/1 4/4/1

v 0.0824456 1.06 -0.9724
vt -21.9528 39.1615
vn -0.498494 0.0775447 -0.863418
vt -46.8504 -2.6968
vt -20.0787 -2.6968
f 5/5/2 4/6/2 1/7/2

v 0.588897 1.06 -1.2648
vt -44.9764 39.1615
f 4/6/2 5/5/2 6/8/2

vt 3.24589 38.2835
vn 0 1 -0
v 0.540045 1.06 -0.847446
vt 21.2616 33.364
vt 23.1849 49.7953
f 5/9/3 7/10/3 6/11/3

v 0.0824456 1.06 -0.68
vt 3.24589 26.7717
f 7/10/3 5/9/3 8/12/3

vt -40.1575 5.95586e-016
vn -0.996989 0.0775447 -1.22057e-015
vt -26.7717 41.8583
vn -0.992515 0.122126 -6.18017e-016
vt -38.2835 41.8583
f 1/13/4 8/14/5 5/15/4

v 0.0824456 1.06 -0.3876
vt -15.2598 41.8583
f 1/13/4 9/16/5 8/14/5

vt -13.3858 -1.27077e-015
f 9/16/5 1/13/4 3/17/4

vt -6.69291 0.898934
vn -0.498494 0.0775447 0.863418
v 0.588897 1.06 -0.0952
vt 18.2047 42.7573
vn -0.497844 0.0927546 0.862292
vt -4.8189 42.7573
f 3/18/6 10/19/7 9/20/7

vt 20.0787 0.898934
f 10/19/7 3/18/6 2/21/6

vt 20.0787 -0.898934
vn 0.498494 0.0775447 0.863418
v 1.09535 1.06 -0.3876
vt 44.9764 40.9594
vn 0.497844 0.0927546 0.862292
vt 21.9528 40.9594
f 2/22/8 11/23/9 10/24/9

v 1.17779 0 -0.34
vt 46.8504 -0.898934
f 11/23/9 2/22/8 12/25/8

v 1.17779 0 -1.02
vt -46.3699 40.1575
vt -46.3699 13.3858
f 2/2/1 13/26/1 12/27/1

f 2/2/1 4/4/1 13/26/1

vt 4.8189 37.3637
vn 0.498494 0.0775447 -0.863418
vt -20.0787 -4.49467
vt 6.69291 -4.49467
f 6/28/10 13/29/10 4/30/10

v 1.09535 1.06 -0.9724
vt -18.2047 37.3637
f 13/29/10 6/28/10 14/31/10

v 1.09535 1.06 -0.68
vt 43.124 26.7717
vt 43.124 38.2835
f 6/11/3 15/32/3 14/33/3

f 6/11/3 7/10/3 15/32/3

v 0.546885 1.48 -0.794789
vt -11.5804 53.7393
vn 0.287537 0.0896426 -0.953565
vt -33.5588 37.0943
vn 0.286798 0.114575 -0.951115
vt -10.7241 37.0943
f 16/34/11 15/35/12 7/36/12

v 1.02445 1.48 -0.650785
vt -31.2182 53.7393
f 15/35/12 16/34/11 17/37/11

v 0.574398 2.17 -0.739799
vt -13.2425 83.0293
vn 0.288096 0.0646537 -0.955417
vt -31.2182 55.807
vt -11.5804 55.807
f 18/38/13 17/39/11 16/40/11

v 0.970774 2.17 -0.620277
vt -29.5419 83.0293
f 17/39/11 18/38/13 19/41/13

vt 22.6141 29.126
v 0.609269 2.17 -0.202846
vt 23.9869 7.98608
vt 38.2194 24.4203
f 18/42/3 20/43/3 19/44/3

v 0.446683 2.17 -0.296715
vt 17.5859 11.6817
f 20/43/3 18/42/3 21/45/3

vt -36.0301 58.8864
vn -0.959132 0.0602774 -0.276463
vt -16.0954 86.1013
vt -34.2499 86.1013
f 16/46/14 21/47/14 18/48/14

v 0.393011 1.48 -0.260952
vt -14.1573 58.8864
f 21/47/14 16/46/14 22/49/14

v 0.153349 1.48 -0.650785
vt 6.03736 25.6215
vt 15.4729 10.2737
vt 21.5309 31.2909
f 23/50/3 22/51/3 16/52/3

v 0.153349 1.48 -0.399321
vt 6.03736 15.7213
f 22/51/3 23/50/3 24/53/3

vt -26.7717 41.6903
vt -15.7213 58.4597
vn -0.986048 0.166462 -1.42276e-017
vt -25.6215 58.4597
f 8/54/5 24/55/15 23/56/15

vt -15.2598 41.6903
f 24/55/15 8/54/5 9/57/5

vt -4.8189 43.0901
v 0.588897 1.48 -0.147857
vt 17.1682 59.7228
vn -0.497704 0.095722 0.862049
vt -2.63215 59.7228
vn -0.497079 0.107943 0.860965
f 9/58/7 25/59/16 24/60/17

vt 18.2047 43.0901
f 25/59/16 9/58/7 10/61/7

vt 21.9528 40.5875
v 1.02445 1.48 -0.399321
vt 42.7896 57.2201
vn 0.498353 0.0810889 0.863173
vt 22.9893 57.2201
f 10/62/9 26/63/18 25/64/18

vt 44.9764 40.5875
f 26/63/18 10/62/9 11/65/9

vt 26.7717 33.9715
vn 0.992515 0.122126 -4.13079e-018
vt 15.7213 50.7409
vn 0.992514 0.122129 -1.0062e-017
vt 15.2598 33.9715
f 15/66/19 26/67/20 11/68/19

vt 25.6215 50.7409
f 26/67/20 15/66/19 17/69/20

vt 25.6215 54.9644
v 0.970774 2.17 -0.411561
vt 16.2032 82.2118
vn 0.996988 0.0775512 -1.299e-017
vt 15.7213 54.9644
f 17/70/20 27/71/21 26/72/20

vt 24.4203 82.2118
f 27/71/21 17/70/20 19/73/21

vt 38.2194 16.2032
f 19/44/3 20/43/3 27/74/3

vt 22.9893 57.8272
vt 41.2006 85.0325
vn 0.499266 0.054176 0.864754
vt 24.7663 85.0325
f 25/75/18 27/76/22 20/77/22

vt 42.7896 57.8272
f 27/76/22 25/75/18 26/78/18

vt 16.7803 86.7135
vn -0.498254 0.0834867 0.863002
vt 8.26303 59.453
vt 17.1682 59.453
f 20/79/23 22/80/16 25/81/16

vt 9.389 86.7135
f 22/80/16 20/79/23 21/82/23

vt 8.26303 59.7228
f 24/60/17 25/59/16 22/83/16

vt 15.2598 38.2626
vt 40.1575 -3.59574
vn 0.996989 0.0775447 -1.13952e-018
vt 26.7717 38.2626
f 11/84/19 13/85/24 15/86/19

vt 13.3858 -3.59574
f 13/85/24 11/84/19 12/87/24

vt 38.2835 38.2626
f 15/86/19 13/85/24 14/88/24

vt -14.4742 55.1382
vn -0.341054 0.122408 -0.93204
vt -31.432 38.4775
vt -12.248 38.4775
f 23/89/25 7/90/25 8/91/25

vt -30.9725 55.1382
f 7/90/25 23/89/25 16/92/25

