# Alias OBJ Model File
# Exported from SketchUp, (c) 2000-2012 Trimble Navigation Limited
# File units = meters

mtllib naturePack_172.mtl

g Mesh1 Group1 Model

usemtl Stone
v 1.69739 0.48 -2.32279
vt -91.2479 18.8976
vn -0.300923 -2.60971e-018 -0.953649
v 2.41596 0.26 -2.54953
vt -120.913 10.2362
v 1.69739 0.26 -2.32279
vt -91.2479 10.2362
f 1/1/1 2/2/1 3/3/1

v 2.41596 0.48 -2.54953
vt -120.913 18.8976
f 2/2/1 1/1/1 4/4/1

v 1.65795 0.81 -2.09222
vt -87.0353 -4.43567
vn -0.25457 0.533236 -0.806755
vt -120.913 -19.7934
vt -91.2479 -19.7934
f 5/5/2 4/6/2 1/7/2

v 2.21843 0.81 -2.26908
vt -110.174 -4.43567
f 4/6/2 5/5/2 6/8/2

vt 65.2736 82.371
vn 1.24174e-016 1 -9.37947e-018
v 2.11736 0.81 -0.563999
vt 83.3607 22.2047
vt 87.3398 89.334
f 5/9/3 7/10/3 6/11/3

v 1.29106 0.81 -0.280449
vt 50.8291 11.0413
f 5/9/3 8/12/3 7/10/3

v 0.646199 0.81 -0.852311
vt 25.4409 33.5556
f 5/9/3 9/13/3 8/12/3

v 0.595113 0.81 -1.92188
vt 23.4296 75.6647
f 10/14/3 9/13/3 5/9/3

v 0.464547 0.81 -1.52553
vt 18.2893 60.0604
f 9/13/3 10/14/3 11/15/3

v 0.334784 0.48 -2.1044
vt -82.8147 4.80384
vn -0.698174 0.67798 -0.229994
vt -62.7673 22.4783
vt -79.1964 22.4783
f 12/16/4 11/17/4 10/18/4

v 0.166991 0.645 -1.10866
vt -43.5134 13.641
f 12/16/4 13/19/4 11/17/4

v 0 0.48 -1.08812
vt -40.6887 4.80384
f 13/19/4 12/16/4 14/20/4

vt -82.8147 18.8976
vn -0.949792 7.38287e-017 -0.312882
v 0 0.26 -1.08812
vt -40.6887 10.2362
vt -40.6887 18.8976
f 12/21/5 15/22/5 14/23/5

v 0.334784 0.26 -2.1044
vt -82.8147 10.2362
f 15/22/5 12/21/5 16/24/5

vt -26.1256 18.8976
vn -0.158252 -1.61567e-017 -0.987399
vt -80.4563 10.2362
vt -26.1256 10.2362
f 12/25/6 3/26/6 16/27/6

vt -80.4563 18.8976
f 3/26/6 12/25/6 1/28/6

vt -35.1085 -13.0795
vn -0.131412 0.557167 -0.819936
vt -80.4563 -28.7251
vt -26.1256 -28.7251
f 10/29/7 1/30/7 12/31/7

vt -77.4864 -13.0795
f 1/30/7 10/29/7 5/32/7

v 1.66153 7.21911e-016 -2.11318
vt -77.7564 43.9513
vn -0.125134 -0.61217 -0.780762
vt -26.1256 56.8966
vt -80.4563 56.8966
f 17/33/8 16/34/8 3/35/8

v 0.571446 7.21911e-016 -1.93848
vt -34.2918 43.9513
f 16/34/8 17/33/8 18/36/8

v 1.28524 1.3987e-015 -0.254953
vt -50.5999 10.0375
vn -1.09694e-016 -1 3.80344e-017
vt -22.4979 76.3179
vt -65.4147 83.1963
f 19/37/9 18/38/9 17/39/9

v 0.303619 7.21911e-016 -1.12545
vt -11.9535 44.3092
f 18/38/9 19/37/9 20/40/9

v 1.22702 0.26 -0
vt 36.1433 -13.5284
vn -0.497543 -0.661565 0.561054
vt -20.4553 -27.1788
vt 31.1983 -27.1788
f 21/41/10 20/42/10 19/43/10

vt -28.4237 -13.5284
f 20/42/10 21/41/10 15/44/10

vt 36.1433 10.2362
vn -0.663491 8.09899e-017 0.748184
vt -28.4237 18.8976
vt -28.4237 10.2362
f 21/45/11 14/46/11 15/47/11

v 1.22702 0.48 -0
vt 36.1433 18.8976
f 14/46/11 21/45/11 22/48/11

vt 45.6926 10.2362
vn 0.324577 2.96938e-019 0.945859
v 2.28639 0.48 -0.363526
vt 89.787 18.8976
vt 45.6926 18.8976
f 21/49/12 23/50/12 22/51/12

v 2.28639 0.26 -0.363526
vt 89.787 10.2362
f 23/50/12 21/49/12 24/52/12

vt 51.1183 4.50259
vn 0.246719 -0.649775 0.718972
vt 89.787 17.9691
vt 45.6926 17.9691
f 19/53/13 24/54/13 21/55/13

v 2.13273 0 -0.545774
vt 86.3939 4.50259
f 24/54/13 19/53/13 25/56/13

vt -83.9656 21.4872
f 19/37/9 17/39/9 25/57/9

v 2.23639 7.21911e-016 -2.29458
vt -88.0468 90.3378
f 25/57/9 17/39/9 26/58/9

vt -91.2479 47.7456
vn -0.243364 -0.588187 -0.77124
vt -111.15 35.0884
vt -87.4183 35.0884
f 3/59/14 26/60/14 17/61/14

vt -120.913 47.7456
f 26/60/14 3/59/14 2/62/14

vt 11.3578 111.367
vn 0.48446 -0.759791 -0.433608
v 2.73257 7.21911e-016 -1.7402
vt -20.6978 95.6229
vt 8.59353 95.6229
f 2/63/15 27/64/15 26/65/15

v 3.03619 0.26 -1.85656
vt -25.2563 111.367
f 27/64/15 2/63/15 28/66/15

vt 11.3578 10.2362
vn 0.745131 -8.56815e-017 -0.666918
v 3.03619 0.48 -1.85656
vt -25.2563 18.8976
vt -25.2563 10.2362
f 2/67/16 29/68/16 28/69/16

vt 11.3578 18.8976
f 29/68/16 2/67/16 4/70/16

vt 11.3578 -84.7909
vn 0.523528 0.711587 -0.468575
v 2.70221 0.81 -1.72857
vt -20.242 -66.2993
vt -25.2563 -84.7909
f 4/71/17 30/72/17 29/73/17

vt 8.3171 -66.2993
f 30/72/17 4/71/17 6/74/17

v 2.33787 0.81 -1.15607
vt 92.0421 45.5145
vt 106.386 68.0538
f 6/11/3 31/75/3 30/76/3

f 6/11/3 7/10/3 31/75/3

vt 49.9025 -13.8198
vn 0.770598 0.569044 0.286998
v 2.56909 0.48 -1.12259
vt 76.7185 -29.6194
vt 74.7765 -13.8198
f 7/77/18 32/78/18 31/79/18

vt 44.8287 -29.6194
f 32/78/18 7/77/18 23/80/18

vt 86.0546 22.0198
vn 0.260802 0.595284 0.760013
vt 45.6926 5.85071
vt 89.787 5.85071
f 7/81/19 22/82/19 23/83/19

vt 51.6609 22.0198
f 22/82/19 7/81/19 8/84/19

vt -3.22932 50.835
vn -0.527078 0.607392 0.594359
vt 36.1433 34.4804
vt 30.7037 50.835
f 9/85/20 22/86/20 8/87/20

vt -24.0411 42.6577
f 13/88/20 22/86/20 9/85/20

vt -28.4237 34.4804
f 22/86/20 13/88/20 14/89/20

vt -25.7694 43.0091
vn -0.371429 0.923036 0.100221
vt -53.2221 43.0091
vt -40.4281 26.1237
f 9/90/21 11/91/21 13/92/21

vt 44.8287 18.8976
vn 0.937117 -7.16169e-017 0.349015
v 2.56909 0.26 -1.12259
vt 76.7185 10.2362
vt 76.7185 18.8976
f 23/93/22 33/94/22 32/95/22

vt 44.8287 10.2362
f 33/94/22 23/93/22 24/96/22

vt 49.4413 44.4179
vn 0.732311 -0.623966 0.272738
vt 76.7185 57.5168
vt 44.8287 57.5168
f 25/97/23 33/98/23 24/99/23

v 2.35889 7.21911e-016 -1.15303
vt 74.9531 44.4179
f 33/98/23 25/97/23 34/100/23

vt -92.8697 45.3947
f 25/57/9 26/58/9 34/101/9

vt -107.582 68.5119
f 34/101/9 26/58/9 27/102/9

vt 125.843 45.0082
vn 0.676569 -0.597377 0.430576
vt 88.1591 32.2442
vt 115.561 32.2442
f 28/103/24 34/104/24 27/105/24

vt 91.5913 45.0082
f 34/104/24 28/103/24 33/106/24

vt 125.843 10.2362
vn 0.843643 -5.76972e-017 0.536904
vt 91.5913 18.8976
vt 91.5913 10.2362
f 28/107/25 32/108/25 33/109/25

vt 125.843 18.8976
f 32/108/25 28/107/25 29/110/25

vt 125.843 -17.5342
vn 0.708777 0.542373 0.451074
vt 87.8158 -2.06991
vt 91.5913 -17.5342
f 29/111/26 31/112/26 32/113/26

vt 114.532 -2.06991
f 31/112/26 29/111/26 30/114/26

vt -82.8147 16.7775
vn -0.650397 -0.728751 -0.214255
vt -45.8245 1.8293
vt -40.6887 16.7775
f 16/115/27 20/116/27 15/117/27

vt -79.5253 1.8293
f 20/116/27 16/115/27 18/118/27

