# Alias OBJ Model File
# Exported from SketchUp, (c) 2000-2012 Trimble Navigation Limited
# File units = meters

mtllib naturePack_flat_012.mtl

g Mesh1 Group1 Model

usemtl Green_leafs
v 0.517537 0 -0.372555
vt -22.6594 -7.97655
vn -0.591713 -0.737911 -0.324597
v 0 0.415 -0.372555
vt -12.8597 16.2324
v 0.406041 0.181782 -0.582555
vt -27.7968 2.62768
f 1/1/1 2/2/1 3/3/1

vn 0.591713 0.737911 0.324597
f 3/3/2 2/2/2 1/1/2

vt -3.05993 -18.3876
vn -0.591713 -0.737911 0.324597
v 0.406041 0.181782 -0.162555
vt 2.07753 -7.78341
vt -12.8597 5.82133
f 1/4/3 4/5/3 2/6/3

vn 0.591713 0.737911 -0.324597
f 2/6/4 4/5/4 1/4/4

g Mesh2 Group1 Model

v 1.03507 0.415 -0.372555
vt -6.73979 42.5966
vn 0.591713 -0.737911 -0.324597
vt 3.05993 18.3876
v 0.629033 0.181782 -0.582555
vt 8.19739 28.9919
f 5/7/5 1/8/5 6/9/5

vn -0.591713 0.737911 0.324597
f 6/9/6 1/8/6 5/7/6

vt 32.4591 32.1855
vn 0.591713 -0.737911 0.324597
v 0.629033 0.181782 -0.162555
vt 17.5219 18.5808
vt 22.6594 7.97655
f 5/10/7 7/11/7 1/12/7

vn -0.591713 0.737911 -0.324597
f 1/12/8 7/11/8 5/10/8

g Mesh3 Group1 Model

v 0.517537 0.56025 -0
vt 18.9513 22.6956
vn 0.312374 -0.526018 0.791029
vt 24.3386 -3.2395
v 0.727537 0.245406 -0.292293
vt 30.8678 8.12081
f 8/13/9 1/14/9 9/15/9

vn -0.312374 0.526018 -0.791029
f 9/15/10 1/14/10 8/13/10

vt 18.9513 14.8224
vn -0.312374 -0.526018 0.791029
v 0.307537 0.245406 -0.292293
vt 7.0348 0.2476
vt 13.564 -11.1127
f 8/16/11 10/17/11 1/18/11

vn 0.312374 0.526018 -0.791029
f 1/18/12 10/17/12 8/16/12

g Mesh4 Group1 Model

v 0.517537 0.56025 -0.745109
vt -29.7259 29.1746
vn -0.312374 -0.526018 -0.791029
vt -24.3386 3.2395
v 0.307537 0.245406 -0.452816
vt -17.8094 14.5998
f 11/19/13 1/20/13 12/21/13

vn 0.312374 0.526018 0.791029
f 12/21/14 1/20/14 11/19/14

vt -8.17675 37.0478
vn 0.312374 -0.526018 -0.791029
v 0.727537 0.245406 -0.452816
vt -20.0933 22.473
vt -13.564 11.1127
f 11/22/15 13/23/15 1/24/15

vn -0.312374 0.526018 0.791029
f 1/24/16 13/23/16 11/22/16

