# Alias OBJ Model File
# Exported from SketchUp, (c) 2000-2012 Trimble Navigation Limited
# File units = meters

mtllib naturePack_077.mtl

g Mesh1 Group1 Model

usemtl Stone
v 1.6712 0.265 -0.831652
vt 69.6764 -1.60006
vn 0.626413 0.463912 0.626413
v 1.60642 0 -0.570621
vt 60.6063 -13.3771
v 1.84335 0 -0.807548
vt 73.7979 -13.3771
f 1/1/1 2/2/1 3/3/1

v 1.58176 0.265 -0.742219
vt 64.697 -1.60006
f 2/2/1 1/1/1 4/4/1

v 1.60753 0.265 -0.946226
vt 63.2886 37.253
vn 0 1 -0
vt 62.2741 29.2212
vt 65.7951 32.7422
f 5/5/2 4/6/2 1/7/2

v 1.51654 0.265 -0.931263
vt 59.7065 36.6639
f 6/8/2 4/6/2 5/5/2

v 1.51654 0.265 -0.777847
vt 59.7065 30.6239
f 4/6/2 6/8/2 7/9/2

v 1.37777 0 -1.04908
vt -41.3023 25.164
vn -0.885881 0.463912 -2.01839e-013
vt -30.6239 36.941
vt -36.6639 36.941
f 8/10/3 7/11/3 6/12/3

v 1.37777 0 -0.695526
vt -27.3829 25.164
f 7/11/3 8/10/3 9/13/3

vt -54.243 41.3023
vn 0 -1 -0
v 1.40304 0 -0.681719
vt -55.238 26.8393
vt -54.243 27.3829
f 8/14/4 10/15/4 9/16/4

v 1.41117 0 -1.05457
vt -55.5579 41.5186
f 10/15/4 8/14/4 11/17/4

vt -64.8646 -3.04625
vn -0.143753 0.463912 -0.87414
vt -61.5589 -14.8233
vt -60.2262 -14.8233
f 6/18/5 11/19/5 8/20/5

v 1.44186 0.0127292 -1.05286
vt -62.7402 -14.2576
f 11/19/5 6/18/5 12/21/5

v 1.6092 0.0384246 -1.06675
vt -69.3296 -13.1157
f 12/21/5 6/18/5 13/22/5

vt -68.4949 -3.04625
f 5/23/5 13/22/5 6/18/5

v 1.68139 0 -1.09901
vt -72.3404 -14.8233
f 14/24/5 13/22/5 5/23/5

v 1.62996 0 -1.09055
vt -70.2882 -14.8233
f 13/22/5 14/24/5 15/25/5

vt -72.5727 31.7932
vt -64.1716 42.9351
vt -66.1966 43.2681
f 3/26/4 15/27/4 14/28/4

vt -63.2449 22.4654
f 2/29/4 15/27/4 3/26/4

v 1.62996 0 -1.29599
vt -64.1716 51.0231
f 2/29/4 16/30/4 15/27/4

v 1.56612 0 -0.592638
vt -61.6581 23.3322
f 17/31/4 16/30/4 2/29/4

v 1.49207 0 -0.225122
vt -58.7429 8.86306
f 18/32/4 16/30/4 17/31/4

v 1.44089 0 -1.54599
vt -56.7279 60.8656
f 18/32/4 19/33/4 16/30/4

f 18/32/4 11/17/4 19/33/4

f 18/32/4 10/15/4 11/17/4

v 1.31985 0 -0.28375
vt -51.9627 11.1712
f 20/34/4 10/15/4 18/32/4

v 1.31675 0 -0.696108
vt -51.8406 27.4058
f 10/15/4 20/34/4 21/35/4

v 1.26749 0 -0.0575204
vt -49.9011 2.26458
f 22/36/4 21/35/4 20/34/4

v 1.2072 0 -0.450679
vt -47.5276 17.7433
f 22/36/4 23/37/4 21/35/4

v 1.20645 0 -0.451795
vt -47.498 17.7872
f 22/36/4 24/38/4 23/37/4

v 1.06773 0 -0.531883
vt -42.0367 20.9403
f 22/36/4 25/39/4 24/38/4

v 0.956449 0 -0.0187826
vt -37.6555 0.739471
f 26/40/4 25/39/4 22/36/4

v 0.875982 0 -0.347444
vt -34.4875 13.6789
f 26/40/4 27/41/4 25/39/4

v 0.823615 0 -0.0954739
vt -32.4258 3.75881
f 28/42/4 27/41/4 26/40/4

v 0.81335 0 -0.0461692
vt -32.0216 1.81768
f 29/43/4 27/41/4 28/42/4

v 0.616777 0 -0.447463
vt -24.2826 17.6166
f 29/43/4 30/44/4 27/41/4

v 0.536673 0 -0.603834
vt -21.1289 23.773
f 29/43/4 31/45/4 30/44/4

v 0.5 0 -0.616885
vt -19.685 24.2868
f 29/43/4 32/46/4 31/45/4

v 0.483127 0 -0
vt -19.0207 0
f 33/47/4 32/46/4 29/43/4

v 0.5 0 -0.82528
vt -19.685 32.4913
f 33/47/4 34/48/4 32/46/4

v 0.386766 0 -0.217451
vt -15.227 8.56106
f 35/49/4 34/48/4 33/47/4

v 0.379098 0 -0.985145
vt -14.9251 38.7852
f 35/49/4 36/50/4 34/48/4

v 0.37038 0 -0.201065
vt -14.5819 7.91596
f 36/50/4 35/49/4 37/51/4

vt 16.8207 -2.76757
vn 0.572385 0.587155 0.572385
v 0.378766 0.17 -0.383839
vt 21.23 5.50065
vt 15.9084 -2.76757
f 35/52/6 38/53/6 37/54/6

v 0.392571 0.0708788 -0.295965
vt 19.1681 0.679737
f 38/53/6 35/52/6 39/55/6

vt -1.6579 8.06733
vn -0.80992 0.463912 0.358907
v 0.516347 0.265 -0.267563
vt -1.39476 19.8444
vt -4.39134 11.2173
f 35/56/7 40/57/7 39/58/7

v 0.567588 0.265 -0.151932
vt 3.58462 19.8444
f 35/56/7 41/59/7 40/57/7

vt 7.70609 8.06733
f 41/59/7 35/56/7 33/60/7

vt 18.8375 -1.22181
vn 0.122664 0.463912 0.877348
v 0.6974 0.265 -0.170081
vt 28.1194 10.5552
vt 22.959 10.5552
f 33/61/8 42/62/8 41/63/8

vt 31.9649 -1.22181
f 42/62/8 33/61/8 29/64/8

vt 10.2894 -14.3715
vn 0.867283 0.463912 0.180573
vt 12.1521 -2.59441
vt 8.30662 -14.3715
f 28/65/9 42/66/9 29/67/9

v 0.796101 0.076098 -0.15883
vt 12.5106 -10.9895
f 42/66/9 28/65/9 43/68/9

vt 26.2022 9.25349
vn -0.439908 0.475315 0.761943
v 0.984164 0.245 -0.155617
vt 30.4922 20.2168
vt 24.0169 12.6587
f 28/69/10 44/70/10 43/71/10

vt 32.2408 9.25349
f 44/70/10 28/69/10 26/72/10

vt 37.4582 -1.86321
vn 0.108735 0.475315 0.873071
v 1.18579 0.245 -0.180727
vt 47.206 9.10007
vt 39.2068 9.10007
f 26/73/11 45/74/11 44/75/11

vt 49.7985 -1.86321
f 45/74/11 26/73/11 22/76/11

v 1.36202 0 -0.221258
vt 34.3554 -20.0029
vn 0.761943 0.475315 0.439908
vt 29.5042 -9.03957
vt 26.9118 -20.0029
f 46/77/12 45/78/12 22/79/12

v 1.20603 0.245 -0.215793
vt 31.0984 -9.03957
f 45/78/12 46/77/12 47/80/12

vt -22.7749 -23.4432
vn 0.72929 0.475315 -0.49215
v 1.11382 0.245 -0.352439
vt -13.0278 -12.4799
vt -19.5179 -12.4799
f 46/81/13 48/82/13 47/83/13

vt -19.8068 -23.4432
f 48/82/13 46/81/13 20/84/13

vt -53.623 8.71095
f 22/36/4 20/34/4 46/85/4

v 1.22139 0.064888 -0.366989
vt -14.9219 -20.5396
f 48/82/13 20/84/13 49/86/13

vt 45.5903 16.0417
vn -0.260866 0.587155 0.766289
v 1.44429 0.17 -0.371646
vt 49.113 24.3099
vt 40.8645 19.1976
f 20/87/14 50/88/14 49/89/14

vt 52.7527 16.0417
f 50/88/14 20/87/14 18/90/14

v 1.59219 0 -0.367677
vt 47.8722 -25.2349
vn 0.662432 0.587155 0.465224
vt 44.6537 -16.9667
vt 41.014 -25.2349
f 51/91/15 50/92/15 18/93/15

v 1.46429 0.17 -0.400122
vt 46.0237 -16.9667
f 50/92/15 51/91/15 52/94/15

vt 16.0791 -37.5392
vn 0.804093 0.587155 -0.0931851
vt 9.01165 -29.271
vt 7.16311 -37.5392
f 17/95/16 52/96/16 51/97/16

v 1.44699 0.17 -0.549379
vt 14.9272 -29.271
f 52/96/16 17/95/16 53/98/16

v 1.53422 0.0373747 -0.632363
vt 17.7773 -35.7215
f 53/98/16 17/95/16 54/99/16

vt 42.9251 23.2121
vn -0.424698 0.463912 0.777443
vt 40.6425 34.9891
vt 41.0733 24.8731
f 17/100/17 4/101/17 54/102/17

vt 44.7332 23.2121
f 4/101/17 17/100/17 2/103/17

vt 37.7167 34.9891
f 7/104/17 54/102/17 4/101/17

vt 34.4757 23.2121
f 9/105/17 54/102/17 7/104/17

vt 35.6095 23.2121
f 54/102/17 9/105/17 10/106/17

vt -50.0716 -20.8785
vn 0.133133 0.587155 -0.798452
v 1.3905 0.17 -0.558799
vt -50.3803 -12.6103
vt -55.4852 -19.0607
f 10/107/18 55/108/18 54/109/18

vt -46.6273 -20.8785
f 55/108/18 10/107/18 21/110/18

vt -35.5748 21.2363
vn -0.73918 0.587155 -0.329943
vt -42.4032 29.5045
vt -46.1562 21.2363
f 23/111/19 55/112/19 21/113/19

v 1.32508 0.17 -0.41223
vt -36.0841 29.5045
f 23/111/19 56/114/19 55/112/19

vt -32.7937 24.3922
f 56/114/19 23/111/19 49/115/19

vt -11.8253 -23.4432
vt -11.8783 -23.4432
f 24/116/13 49/86/13 23/117/13

f 48/82/13 49/86/13 24/116/13

vt -32.2408 -18.6101
vn 0.439908 0.475315 -0.761943
v 1.08775 0.245 -0.367488
vt -29.8534 -7.6468
vt -31.0384 -7.6468
f 24/118/20 57/119/20 48/120/20

vt -25.9347 -18.6101
f 57/119/20 24/118/20 25/121/20

vt -44.8129 6.67783
vn -0.609917 0.475315 -0.634096
v 0.875999 0.000117821 -0.347371
vt -34.3368 6.6831
vt -40.8942 17.6411
f 25/122/21 58/123/21 57/124/21

vt -34.3383 6.67783
f 58/123/21 25/122/21 27/125/21

vt -27.2509 -11.68
vn 0.318914 0.463912 -0.826486
v 0.551955 0.0566031 -0.440704
vt -14.0274 -9.16444
vt -27.2525 -11.6747
f 27/126/22 59/127/22 58/128/22

vt -16.3126 -11.68
f 59/127/22 27/126/22 30/129/22

v 0.62038 0 -0.451065
vt 29.8278 -2.76757
vt 27.6345 -0.0145864
vt 29.6272 -2.76757
f 60/130/6 59/131/6 30/132/6

v 0.467815 0.17 -0.472888
vt 26.1881 5.50065
f 61/133/6 59/131/6 60/130/6

f 61/133/6 39/55/6 59/131/6

f 38/53/6 39/55/6 61/133/6

v 0.451095 0.17 -0.503404
vt 17.7596 19.8191
vt 14.9121 15.1118
vt 18.4179 18.6176
f 62/134/2 38/135/2 61/136/2

v 0.309536 0.17 -0.553782
vt 12.1864 21.8024
f 63/137/2 38/135/2 62/134/2

v 0.276141 0.17 -0.507251
vt 10.8717 19.9705
f 38/135/2 63/137/2 64/138/2

v 0.19684 0 -0.60824
vt -23.9732 -4.50133
vn -0.657639 0.587155 -0.471975
vt -22.5634 3.76689
vt -24.8183 3.76689
f 65/139/23 64/140/23 63/141/23

v 0.12038 0 -0.501703
vt -18.8105 -4.50133
f 64/140/23 65/139/23 66/142/23

vt -7.74959 23.9465
vt -4.73937 19.7521
f 65/143/4 37/51/4 66/144/4

v 0.299609 0 -1.48514
vt -11.7956 58.4703
f 37/51/4 65/143/4 67/145/4

v 0.106042 0 -1.04282
vt -4.17488 41.056
f 68/146/4 67/145/4 65/143/4

v 0.0496085 0 -1.23514
vt -1.95309 48.6277
f 67/145/4 68/146/4 69/147/4

vt -38.2195 7.22111
vn -0.850042 0.463912 0.249428
v 0.22687 0.265 -1.12392
vt -39.9437 18.9982
vt -46.1105 7.22111
f 68/148/24 70/149/24 69/150/24

v 0.145209 0.069136 -1.03793
vt -37.6005 10.2936
f 71/151/24 70/149/24 68/148/24

v 0.156184 0.08472 -1.02951
vt -37.1608 10.9862
f 70/149/24 71/151/24 72/152/24

v 0.204592 0.245 -0.94292
vt -8.0548 -9.15863
vn -1.73964e-014 0.475315 -0.879816
vt -6.14898 -16.3309
vt -5.71688 -17.0282
f 73/153/25 72/154/25 71/155/25

v 0.288162 0.08472 -1.02951
vt -11.3449 -16.3309
f 72/154/25 73/153/25 74/156/25

v 0.245083 0.245 -0.94292
vt -9.64893 -9.15863
f 74/156/25 73/153/25 75/157/25

vt 8.0548 37.1228
v 0.329668 0.245 -0.70764
vt 12.979 27.8598
vt 9.64893 37.1228
f 73/158/2 76/159/2 75/160/2

v 0.13236 0.245 -0.794738
vt 5.21101 31.2889
f 77/161/2 76/159/2 73/158/2

v 0.13236 0.245 -0.76464
vt 5.21101 30.1039
f 76/159/2 77/161/2 78/162/2

v 0 0 -0.82528
vt -32.4913 -9.16713e-016
vn -0.879816 0.475315 -5.22247e-017
vt -30.1039 10.9633
vt -31.2889 10.9633
f 79/163/26 78/164/26 77/165/26

v 0 0 -0.665105
vt -26.1852 -7.38792e-016
f 78/164/26 79/163/26 80/166/26

vt 0 26.1852
vt 0 32.4913
f 68/146/4 80/167/4 79/168/4

f 80/167/4 68/146/4 65/143/4

v 0.285953 0.0829905 -0.629165
vt 3.94094 15.6709
vn -0.244185 0.475315 0.845251
vt -7.26747 11.9573
vt 0.799018 11.9573
f 81/169/27 80/170/27 65/171/27

vt -3.34878 22.9206
f 80/170/27 81/169/27 78/172/27

vt 4.7369 22.9206
vn -0.123031 0.47897 0.869167
f 78/172/27 81/169/27 76/173/28

v 0.317158 0.0814214 -0.619267
vt 5.22939 15.6007
f 76/173/28 81/169/27 82/174/28

vt -10.0867 -9.04174
vn 0.271401 0.587155 -0.762621
vt -3.58948 -13.3499
vt -2.30137 -13.2736
f 62/175/29 82/176/29 81/177/29

v 0.479893 0.0372177 -0.595386
vt -9.94075 -15.4998
f 62/175/29 83/178/29 82/176/29

vt -11.9353 -17.31
f 31/179/29 83/178/29 62/175/29

vt -10.4027 -17.31
f 83/178/29 31/179/29 32/180/29

vt 24.2868 -9.35659
vn 0.879816 0.475315 -7.98759e-015
v 0.36764 0.245 -0.70764
vt 27.8598 1.60669
vt 23.4404 -7.69117
f 32/181/30 84/182/30 83/183/30

vt 32.4913 -9.35659
f 84/182/30 32/181/30 34/184/30

v 0.36764 0.245 -0.780865
vt 30.7427 1.60669
f 84/182/30 34/184/30 85/185/30

vt 14.0409 -16.7783
vn 0.701734 0.475315 -0.530702
vt 23.7887 -5.81501
vt 15.7895 -5.81501
f 34/186/31 75/187/31 85/188/31

vt 21.932 -16.7783
f 75/187/31 34/186/31 36/189/31

vt 25.4847 -12.9872
f 75/187/31 36/189/31 74/190/31

vt 14.9251 17.9929
vn 2.48492e-015 0.463912 0.885881
v 0.353346 0.265 -1.12392
vt 13.9113 29.77
vt 11.3449 21.758
f 36/191/32 86/192/32 74/193/32

v 0.458032 0 -0.985145
vt 18.0327 17.9929
f 86/192/32 36/191/32 87/194/32

v 0.634468 0 -1.75701
vt -24.9791 69.1737
vt -18.0327 38.7852
f 36/50/4 88/195/4 87/196/4

v 0.349693 0 -1.44921
vt -13.7674 57.0554
f 89/197/4 88/195/4 36/50/4

v 0.344468 0 -1.46701
vt -13.5617 57.7563
f 88/195/4 89/197/4 90/198/4

vt -50.8708 17.5365
vn -0.768334 0.599028 0.225453
v 0.52582 0.21518 -1.42071
vt -47.8418 28.1164
vt -51.6013 17.5365
f 89/199/33 91/200/33 90/201/33

v 0.550092 0.21518 -1.33799
vt -44.4478 28.1164
f 89/199/33 92/202/33 91/200/33

v 0.483611 0.109129 -1.28278
vt -43.099 22.9022
f 93/203/33 92/202/33 89/199/33

v 0.481908 0.0934516 -1.24692
vt -41.7634 22.1313
f 92/202/33 93/203/33 94/204/33

v 0.389345 0.265 -1.24995
vt 51.5282 8.67484
vn 0.851815 0.463912 0.243304
vt 52.4145 1.05094
vt 53.7901 1.74768
f 95/205/34 94/206/34 93/207/34

v 0.512835 0 -1.17701
vt 50.1023 -3.10221
f 95/205/34 96/208/34 94/206/34

vt 46.3679 8.67484
f 86/209/34 96/208/34 95/205/34

vt 42.2464 -3.10221
f 96/208/34 86/209/34 87/210/34

vt -20.1903 46.339
f 87/196/4 88/195/4 96/211/4

v 0.818239 0 -1.17701
vt -32.2141 46.339
f 96/211/4 88/195/4 97/212/4

v 0.857895 0 -1.59669
vt -33.7754 62.8619
f 97/212/4 88/195/4 98/213/4

v 0.651659 0.21518 -1.54655
vt 14.6522 -31.8101
vn 0.466818 0.599028 -0.650574
vt 9.20621 -42.39
vt 20.0327 -42.39
f 99/214/35 98/215/35 88/216/35

v 0.876567 0.0554442 -1.53224
vt 7.12966 -39.6639
f 98/215/35 99/214/35 100/217/35

v 0.738563 0.21518 -1.48419
vt 10.4411 -31.8101
f 100/217/35 99/214/35 101/218/35

vt 25.6558 60.8876
v 0.696804 0.21518 -1.33799
vt 27.4332 52.6767
vt 29.0773 58.4326
f 99/219/2 102/220/2 101/221/2

vt 21.6572 52.6767
f 99/219/2 92/222/2 102/220/2

vt 20.7016 55.9333
f 92/222/2 99/219/2 91/223/2

vt -66.576 -18.7198
vn -0.5662 0.599028 -0.5662
vt -54.1891 -8.13987
vt -61.1955 -8.13987
f 88/224/36 91/225/36 99/226/36

vt -50.4295 -18.7198
f 91/225/36 88/224/36 90/227/36

vt 18.9728 32.3532
vn -2.51257e-015 0.599028 0.800728
vt 27.4332 38.3383
vt 21.6572 38.3383
f 94/228/37 102/229/37 92/230/37

vt 20.1903 27.7584
f 96/231/37 102/229/37 94/228/37

vt 32.2141 27.7584
f 102/229/37 96/231/37 97/232/37

v 0.881963 0 -1.40011
vt 62.5392 -10.9314
vn 0.769936 0.599028 0.219917
vt 58.1855 -0.351424
vt 53.4046 -10.9314
f 103/233/38 102/234/38 97/235/38

vt 64.1715 -0.351424
f 102/234/38 103/233/38 101/236/38

v 0.856196 0.0590669 -1.47079
vt 64.9363 -8.02717
f 101/236/38 103/233/38 104/237/38

vt -3.46226 38.1975
vn -0.467233 0.587155 0.661016
v 1.08451 0.17 -1.40795
vt 2.87133 46.4657
vt -5.89683 41.0703
f 103/238/39 105/239/39 104/240/39

v 1.12371 0 -1.22923
vt 8.19299 38.1975
f 105/239/39 103/238/39 106/241/39

vt -34.7229 55.1224
v 0.891024 0 -1.68452
vt -35.0797 66.3197
vt -44.2406 48.395
f 103/242/4 107/243/4 106/244/4

f 103/242/4 98/213/4 107/243/4

f 97/212/4 98/213/4 103/242/4

vt -70.737 5.52893
vn -0.757386 0.587155 -0.285684
v 0.973651 0.17 -1.55418
vt -70.7795 13.7971
vt -74.4327 5.52893
f 98/245/40 108/246/40 107/247/40

vt -68.6223 8.22554
f 100/248/40 108/246/40 98/245/40

v 0.953437 0.17 -1.50059
vt -68.5246 13.7971
f 100/248/40 109/249/40 108/246/40

vt -66.0756 8.40174
f 109/249/40 100/248/40 104/250/40

vt 67.4829 -8.20529
f 101/236/38 104/237/38 100/251/38

vt -3.44784 46.4657
f 104/240/39 105/239/39 109/252/39

vt 42.6971 55.431
vt 38.3327 61.1883
vt 37.5369 59.0785
f 105/253/2 108/254/2 109/255/2

v 1.12342 0.17 -1.54216
vt 44.2293 60.7149
f 108/254/2 105/253/2 110/256/2

v 1.14747 0.17 -1.51701
vt 45.1761 59.7248
f 110/256/2 105/253/2 111/257/2

vt 69.3532 -0.020067
vn 0.701026 0.587155 0.404737
v 1.26426 0.0368282 -1.52609
vt 76.9197 -6.49709
vt 74.3113 -0.020067
f 105/258/41 112/259/41 111/260/41

v 1.14199 0.0222757 -1.29321
vt 66.5728 -7.20487
f 105/258/41 113/261/41 112/259/41

v 1.12996 0 -1.24005
vt 64.5234 -8.28829
f 105/258/41 114/262/41 113/261/41

vt 64.0316 -8.28829
f 114/262/41 105/258/41 106/263/41

v 1.18009 0 -1.66132
vt -46.4604 65.4062
vt -44.4865 48.8209
f 106/244/4 115/264/4 114/265/4

f 106/244/4 107/243/4 115/264/4

vt -33.3137 -32.195
vn 0.0647721 0.587155 -0.806879
vt -41.0778 -40.4632
vt -29.6605 -40.4632
f 108/266/42 115/267/42 107/268/42

vt -39.2292 -32.195
f 115/267/42 108/266/42 110/269/42

vt 11.9422 -37.9893
vn 0.585031 0.587155 -0.559453
vt 15.1607 -46.2575
vt 13.3122 -37.9893
f 111/270/43 115/271/43 110/272/43

v 1.27847 0.0244665 -1.53277
vt 8.82633 -45.0676
f 115/271/43 111/270/43 116/273/43

vt 77.4272 -7.09832
f 111/260/41 112/259/41 116/274/41

v 1.37504 0.245 -1.41363
vt -54.1354 -17.9671
vn 1.3018e-014 0.475315 -0.879816
vt -50.3333 -27.8355
vt -49.7739 -27.2824
f 117/275/44 116/276/44 112/277/44

vt -56.7279 -28.9303
f 19/278/44 116/276/44 117/275/44

v 1.29038 0 -1.54599
vt -50.8024 -28.9303
f 116/276/44 19/278/44 118/279/44

vt -50.8024 60.8656
f 11/17/4 118/280/4 19/33/4

f 11/17/4 115/264/4 118/280/4

v 1.12996 0 -1.13581
vt -44.4865 44.717
f 119/281/4 115/264/4 11/17/4

f 114/265/4 115/264/4 119/281/4

v 1.26232 0.245 -1.23535
vt -48.6357 32.1084
vn -0.879816 0.475315 -1.22485e-014
vt -48.8209 21.1451
vt -44.717 21.1451
f 120/282/45 114/283/45 119/284/45

v 1.26232 0.245 -1.26544
vt -49.8207 32.1084
f 114/283/45 120/282/45 121/285/45

v 1.45962 0.245 -1.17835
vt 57.4656 46.3916
vt 49.6975 49.8207
vt 49.6975 48.6357
f 122/286/2 121/287/2 120/288/2

v 1.33455 0.245 -1.41363
vt 52.5413 55.6546
f 121/287/2 122/286/2 123/289/2

vt 54.1354 55.6546
f 123/289/2 122/286/2 117/290/2

v 1.4976 0.245 -1.25157
vt 58.9605 49.2745
f 117/290/2 122/286/2 124/291/2

v 1.4976 0.245 -1.17835
vt 58.9605 46.3916
f 124/291/2 122/286/2 125/292/2

vt 57.4656 30.537
vt 63.3543 21.2932
vn -5.79748e-015 0.475315 0.879816
vt 58.9605 30.537
f 122/293/28 13/294/46 125/295/46

vt 56.7663 20.1434
f 13/294/46 122/293/28 12/296/28

vt 34.2467 37.2516
vt 43.0317 26.8579
vt 42.3324 37.2516
f 120/297/27 12/298/28 122/299/28

vt 30.328 26.2883
f 119/300/27 12/298/28 120/297/27

vt 41.8522 26.2883
f 12/298/28 119/300/27 11/301/27

vt 42.9351 -30.5017
vn 0.879816 0.475315 -8.00139e-015
vt 46.3916 -19.5384
vt 41.9978 -28.7823
f 15/302/47 125/303/47 13/304/47

vt 51.0231 -30.5017
f 125/303/47 15/302/47 16/305/47

vt 49.2745 -19.5384
f 125/303/47 16/305/47 124/306/47

vt 1.98753 -38.9567
vt 11.7353 -27.9934
vt 3.73613 -27.9934
f 16/307/31 117/308/31 124/309/31

vt 14.3278 -38.9567
f 117/308/31 16/307/31 19/310/31

vt -52.5413 -17.9671
f 117/275/44 112/277/44 123/311/44

vt -65.4662 9.37746
vn -0.79086 0.475315 -0.385509
vt -73.0495 19.3439
vt -75.8169 10.0287
f 113/312/48 123/313/48 112/314/48

vt -66.5593 19.3439
f 123/313/48 113/312/48 121/315/48

vt -50.9138 22.1419
f 114/283/45 121/285/45 113/316/45

vt 8.87821 -46.2575
f 115/271/43 116/273/43 118/317/43

v 0.314428 0.265 -1.30371
vt 12.379 51.3271
vt 13.9113 44.2487
vt 15.3286 49.2107
f 126/318/2 86/319/2 95/320/2

vt 8.93189 44.2487
f 126/318/2 70/321/2 86/319/2

v 0.205946 0.265 -1.19523
vt 8.1081 47.0562
f 70/321/2 126/318/2 127/322/2

vt -49.6855 -15.3109
vn -0.626413 0.463912 -0.626413
vt -39.007 -3.53388
vt -45.0471 -3.53388
f 67/323/49 127/324/49 126/325/49

vt -35.7661 -15.3109
f 127/324/49 67/323/49 69/326/49

vt -42.8696 18.9982
f 69/150/24 70/149/24 127/327/24

vt 19.8656 -13.4517
vn 0.516462 0.463912 -0.719759
vt 22.0771 -25.2287
vt 24.504 -25.2287
f 126/328/50 89/329/50 67/330/50

vt 13.9734 -20.3788
f 89/329/50 126/328/50 93/331/50

vt 16.2353 -13.4517
f 93/331/50 126/328/50 95/332/50

f 37/51/4 67/145/4 89/197/4

f 89/197/4 36/50/4 37/51/4

vt 8.93189 29.77
f 70/333/32 74/193/32 86/192/32

vt 6.14898 21.758
f 74/193/32 70/333/32 72/334/32

vt 14.474 30.7427
f 75/160/2 76/159/2 85/335/2

vt 14.474 27.8598
f 85/335/2 76/159/2 84/336/2

vt 12.4865 14.4088
vt 14.474 21.7286
vn -2.49059e-015 0.475315 0.879816
vt 12.979 21.7286
f 82/337/28 84/338/51 76/339/28

vt 18.8934 12.4307
f 84/338/51 82/337/28 83/340/51

vt 7.47701 -9.31891
vn 0.709894 0.587155 -0.388973
vt 10.6955 -17.5871
vt 8.84697 -9.31891
f 61/341/52 31/342/52 62/343/52

vt 3.8373 -17.5871
f 31/342/52 61/341/52 60/344/52

vt -24.4244 17.7585
f 60/345/4 30/44/4 31/45/4

vt -4.17116 -9.04174
f 62/175/29 81/177/29 63/346/29

vt -26.6881 -0.464953
f 65/139/23 63/141/23 81/347/23

vt -29.2062 -6.76692
vt -36.8988 4.19636
vt -38.7342 -6.76692
f 79/348/48 73/349/48 68/350/48

vt -30.4086 4.19636
f 73/349/48 79/348/48 77/351/48

vt -39.2367 -3.67322
f 68/350/48 73/349/48 71/352/48

vt -2.08476 17.8231
vn -0.622396 0.587155 0.517564
vt -12.1569 9.55488
vt 3.2369 9.55488
f 38/353/53 66/354/53 37/355/53

vt -8.40393 17.8231
f 66/354/53 38/353/53 64/356/53

vt -19.3249 2.97959
vn -0.572428 0.463912 -0.6761
v 0.573065 0.265 -0.315584
vt -25.2472 11.6067
vt -27.796 2.34515
f 39/357/54 128/358/54 59/359/54

vt -22.3214 11.6067
f 128/358/54 39/357/54 40/360/54

vt 22.346 5.98157
vt 22.5616 12.4245
vt 20.3286 10.534
f 41/361/2 128/362/2 40/363/2

vt 27.4567 6.6961
f 128/362/2 41/361/2 42/364/2

v 0.716195 0.265 -0.260354
vt 28.1967 10.2502
f 128/362/2 42/364/2 129/365/2

v 0.8483 0.0321762 -0.296698
vt 18.2434 -12.9415
vt 15.7824 -2.59441
f 42/66/9 130/366/9 129/367/9

f 42/66/9 43/68/9 130/366/9

v 0.920749 0.245 -0.19223
vt -24.6791 21.6095
vn -0.761943 0.475315 -0.439908
vt -26.8149 12.0861
vn -0.691205 0.47897 -0.541132
vt -21.0867 14.0515
f 131/368/55 130/369/56 43/370/55

v 0.939735 0.245 -0.225115
vt -26.1741 21.6095
f 130/369/56 131/368/55 132/371/56

vt 38.7466 6.12664
vt 36.9975 8.86279
vt 36.25 7.56809
f 44/372/2 132/373/2 131/374/2

vt 42.8249 14.468
f 132/373/2 44/372/2 57/375/2

vt 46.6845 7.11525
f 57/375/2 44/372/2 45/376/2

vt 43.8511 13.8756
f 57/375/2 45/376/2 48/377/2

vt 47.4816 8.4958
f 48/377/2 45/376/2 47/378/2

vt -32.1678 8.11765
vt -32.8086 17.6411
f 57/124/21 130/379/56 132/380/56

f 57/124/21 58/123/21 130/379/56

vt 20.4188 -14.3662
f 129/367/9 130/366/9 58/381/9

vt -22.6161 0.097074
f 58/128/22 59/127/22 129/382/22

vt -16.5761 0.097074
f 129/382/22 59/127/22 128/383/22

vt 27.6093 20.2168
f 43/71/10 44/70/10 131/384/10

vt 44.1549 24.3099
f 49/89/14 50/88/14 56/385/14

vt 56.8619 14.6317
vt 54.7441 22
vt 52.1684 16.2295
f 50/386/2 55/387/2 56/388/2

vt 56.9683 21.6291
f 55/387/2 50/386/2 53/389/2

vt 57.6492 15.7528
f 53/389/2 50/386/2 52/390/2

vt -52.6352 -12.6103
f 54/109/18 55/108/18 53/391/18

vt -62.6845 14.4755
f 51/392/4 18/32/4 17/31/4

vt 5.66911 -36.5932
vn 0.774366 0.463912 -0.430282
vt -3.33679 -24.8161
vt -7.45826 -36.5932
f 14/393/57 1/394/57 3/395/57

vt 1.8236 -24.8161
f 1/394/57 14/393/57 5/396/57

