# Alias OBJ Model File
# Exported from SketchUp, (c) 2000-2012 Trimble Navigation Limited
# File units = meters

mtllib naturePack_019.mtl

g Mesh1 Group1 Model

usemtl Green_leafs
v 0.294 0.32 -0.0848705
vt 11.5748 3.34136
vn 0 1 -0
v 0.210336 0.32 -0.424352
vt 8.28093 16.7068
v 0.098 0.32 -0.424352
vt 3.85827 16.7068
f 1/1/1 2/2/1 3/3/1

v 0.350168 0.32 -0.182156
vt 13.7861 7.17149
f 2/2/1 1/1/1 4/4/1

v 0.686 0.32 -0.0848705
vt 27.0079 3.34136
f 4/4/1 1/1/1 5/5/1

usemtl Wood
v 0.245 0 -0
vt 9.64567 5.69498e-016
vn -2.22615e-016 0.256357 0.966582
vt 27.0079 13.034
vt 11.5748 13.034
f 6/6/2 5/7/2 1/8/2

v 0.735 0 -0
vt 28.937 1.7085e-015
f 5/7/2 6/6/2 7/9/2

vt -9.64567 0
vn 0 -1 -0
v 0.245 0 -0.848705
vt -9.64567 33.4136
vt -28.937 0
f 6/10/3 8/11/3 7/12/3

v 0 0 -0.424352
vt 0 16.7068
f 8/11/3 6/10/3 9/13/3

vt 2.8937 15.1754
vn -0.837085 0.256357 0.483291
vt -14.4685 2.14145
vt 4.82283 2.14145
f 1/14/4 9/15/4 6/16/4

vt -12.5394 15.1754
f 9/15/4 1/14/4 3/17/4

v 0.294 0.32 -0.763834
vt -31.8307 10.8925
vn -0.837085 0.256357 -0.483291
vt -14.4685 -2.14145
vt -16.3976 10.8925
f 10/18/5 9/19/5 3/20/5

vt -33.7598 -2.14145
f 9/19/5 10/18/5 8/21/5

vt -11.5748 4.46818
vn 4.44238e-016 0.256357 -0.966582
v 0.735 0 -0.848705
vt -28.937 -8.56581
vt -9.64567 -8.56581
f 10/22/6 11/23/6 8/24/6

v 0.686 0.32 -0.763834
vt -27.0079 4.46818
f 11/23/6 10/22/6 12/25/6

usemtl Green_leafs
vt 11.5748 30.0722
v 0.350168 0.32 -0.666549
vt 13.7861 26.2421
vt 27.0079 30.0722
f 10/26/1 13/27/1 12/28/1

f 10/26/1 2/2/1 13/27/1

f 2/2/1 10/26/1 3/3/1

usemtl Wood
vt -18.609 12.3469
vn -0.859036 0.126794 -0.495965
v 0.376736 0.68 -0.620532
vt -28.5734 26.6354
vt -29.6194 12.3469
f 2/29/7 14/30/7 13/31/7

v 0.263472 0.68 -0.424352
vt -19.655 26.6354
f 14/30/7 2/29/7 15/32/7

vt -10.328 14.4652
vn -0.859036 0.126794 0.495965
v 0.376736 0.68 -0.228173
vt -0.363618 28.7538
vt -9.28205 28.7538
f 2/33/8 16/34/8 15/35/8

vt 0.682372 14.4652
f 16/34/8 2/33/8 4/36/8

vt 13.7861 13.406
vn -9.66249e-018 0.126794 0.991929
v 0.603264 0.68 -0.228173
vt 23.7506 27.6946
vt 14.8321 27.6946
f 4/37/9 17/38/9 16/39/9

v 0.629832 0.32 -0.182156
vt 24.7965 13.406
f 17/38/9 4/37/9 18/40/9

usemtl Green_leafs
vt 24.7965 7.17149
f 4/4/1 5/5/1 18/41/1

v 0.769664 0.32 -0.424352
vt 30.3018 16.7068
f 18/41/1 5/5/1 19/42/1

v 0.882 0.32 -0.424352
vt 34.7244 16.7068
f 19/42/1 5/5/1 20/43/1

usemtl Wood
vt 16.3976 6.60964
vn 0.837085 0.256357 0.483291
v 0.98 0 -0.424352
vt 33.7598 -6.42436
vt 31.8307 6.60964
f 5/44/10 21/45/10 20/46/10

vt 14.4685 -6.42436
f 21/45/10 5/44/10 7/47/10

vt -28.937 33.4136
vt -38.5827 16.7068
f 7/12/3 11/48/3 21/49/3

f 7/12/3 8/11/3 11/48/3

vt 14.4685 -10.7073
vn 0.837085 0.256357 -0.483291
vt -2.8937 2.32673
vt -4.82283 -10.7073
f 11/50/11 20/51/11 21/52/11

vt 12.5394 2.32673
f 20/51/11 11/50/11 12/53/11

usemtl Green_leafs
f 12/28/1 19/42/1 20/43/1

v 0.629832 0.32 -0.666549
vt 24.7965 26.2421
f 12/28/1 22/54/1 19/42/1

f 12/28/1 13/27/1 22/54/1

usemtl Wood
vt -14.8321 23.4579
vn -9.66249e-018 0.126794 -0.991929
vt -24.7965 9.1694
vt -13.7861 9.1694
f 14/55/12 22/56/12 13/57/12

v 0.603264 0.68 -0.620532
vt -23.7506 23.4579
f 22/56/12 14/55/12 23/58/12

usemtl Green_leafs
vt 14.8321 24.4304
vt 23.7506 8.9832
vt 23.7506 24.4304
f 14/59/1 17/60/1 23/61/1

vt 14.8321 8.9832
f 14/59/1 16/62/1 17/60/1

vt 10.3729 16.7068
f 16/62/1 14/59/1 15/63/1

v 0.716528 0.68 -0.424352
vt 28.2098 16.7068
f 23/61/1 17/60/1 24/64/1

usemtl Wood
vt 19.655 24.5171
vn 0.859036 0.126794 0.495965
vt 29.6194 10.2286
vt 28.5734 24.5171
f 17/65/13 19/66/13 24/67/13

vt 18.609 10.2286
f 19/66/13 17/65/13 18/68/13

vt 10.328 8.11023
vn 0.859036 0.126794 -0.495965
vt 0.363618 22.3988
vt -0.682372 8.11023
f 22/69/14 24/70/14 19/71/14

vt 9.28205 22.3988
f 24/70/14 22/69/14 23/72/14

