# Alias OBJ Model File
# Exported from SketchUp, (c) 2000-2012 Trimble Navigation Limited
# File units = meters

mtllib naturePack_163.mtl

g Mesh1 Group1 Model

usemtl Wood
v 1.01386 0 -0.961138
vt 37.8401 -1.38779
vn 0.999395 0.034768 4.51392e-018
v 0.926394 2.51412 -0.677634
vt 26.6785 97.6534
v 1.01386 0 -0.59017
vt 23.235 -1.38779
f 1/1/1 2/2/1 3/3/1

v 0.926394 2.51412 -0.873674
vt 34.3966 97.6534
f 2/2/1 1/1/1 4/4/1

vt -39.9157 -1.31562
vn -1.28144e-017 0.034768 -0.999395
v 0.730354 2.51412 -0.873674
vt -28.7541 97.7255
vt -36.4722 97.7255
f 1/5/2 5/6/2 4/7/2

v 0.64289 0 -0.961138
vt -25.3106 -1.31562
f 5/6/2 1/5/2 6/8/2

vt -39.9157 37.8401
vn 0 -1 -0
v 0.64289 0 -0.59017
vt -25.3106 23.235
vt -25.3106 37.8401
f 1/9/3 7/10/3 6/11/3

vt -39.9157 23.235
f 7/10/3 1/9/3 3/12/3

vt 36.4722 99.849
vn 0 0.034768 0.999395
vt 25.3106 0.807836
vt 39.9157 0.807836
f 2/13/4 7/14/4 3/15/4

v 0.730354 2.51412 -0.677634
vt 28.7541 99.849
f 7/14/4 2/13/4 8/16/4

v 0.91832 2.51412 -0.677634
vt 36.1543 99.849
f 8/16/4 2/13/4 9/17/4

usemtl Leafs
v 1.42486 2.51412 -0
vt -56.0968 0
vt -36.1543 26.6785
vt -36.4722 26.6785
f 10/18/3 9/19/3 2/20/3

vt -28.7541 26.6785
f 10/18/3 8/21/3 9/19/3

v 0.294067 2.51412 -0
vt -11.5774 0
f 11/22/3 8/21/3 10/18/3

vt -28.7541 34.3966
f 8/21/3 11/22/3 5/23/3

v 0.226254 2.51412 -1.5678
vt -8.90762 61.7244
f 11/22/3 12/24/3 5/23/3

v 0.117292 2.51412 -0.176775
vt -4.61778 6.95966
f 13/25/3 12/24/3 11/22/3

v 0.117292 2.51412 -1.41458
vt -4.61778 55.6923
f 12/24/3 13/25/3 14/26/3

v 0.331462 3.21625 -0.21417
vt -8.43189 124.922
vn -0.956492 0.291758 8.25843e-018
vt -55.6923 96.0221
vt -6.95966 96.0221
f 15/27/5 14/28/5 13/29/5

v 0.331462 3.21625 -1.21363
vt -47.7807 124.922
f 14/28/5 15/27/5 16/30/5

vt -13.0497 8.43189
v 0.170441 3.21625 -1.32785
vt -6.71029 52.2777
vt -13.0497 47.7807
f 15/31/3 17/32/3 16/33/3

v 0.1225 3.21625 -0.099946
vt -4.82282 3.93488
f 18/34/3 17/32/3 15/31/3

v 0 3.21625 -0.222446
vt 0 8.7577
f 19/35/3 17/32/3 18/34/3

v 0 3.21625 -1.18945
vt 0 46.8286
f 17/32/3 19/35/3 20/36/3

v 0.401424 4.08577 -0.284132
vt -11.1863 152.669
vn -0.907916 0.419152 4.1221e-018
vt -46.8286 114.964
vt -8.7577 114.964
f 21/37/6 20/38/6 19/39/6

v 0.401424 4.08577 -1.14367
vt -45.0263 152.669
f 20/38/6 21/37/6 22/40/6

vt -15.8041 11.1863
v 0.303191 4.08577 -0.31231
vt -11.9367 12.2957
vt -15.8041 45.0263
f 21/41/3 23/42/3 22/43/3

v 0.429602 4.08577 -0.1859
vt -16.9134 7.31888
f 23/42/3 21/41/3 24/44/3

v 1.26096 4.08577 -0.284132
vt -49.6441 11.1863
f 24/44/3 21/41/3 25/45/3

vt 4.82282 124.691
vn -1.29656e-017 0.207228 0.978293
vt 49.6441 159.683
vt 15.8041 159.683
f 18/46/7 25/47/7 21/48/7

v 1.36946 3.21625 -0.099946
vt 53.9157 124.691
f 25/47/7 18/46/7 26/49/7

vt -53.9157 3.93488
f 18/34/3 15/31/3 26/50/3

v 1.33092 3.21625 -0.21417
vt -52.3985 8.43189
f 26/50/3 15/31/3 27/51/3

vt 11.5774 94.6748
vn 9.94232e-018 0.291758 0.956492
vt 52.3985 123.575
vt 13.0497 123.575
f 11/52/8 27/53/8 15/54/8

vt 56.0968 94.6748
f 27/53/8 11/52/8 10/55/8

vt 43.0136 111.723
vn 0.675343 0.296353 0.675343
vt 39.6664 82.7796
v 1.54509 2.51412 -0.120233
vt 46.3607 82.7796
f 27/56/9 10/57/9 28/58/9

v 1.54509 2.51412 -1.44519
vt -60.8304 56.8972
vt -60.8304 4.73357
f 10/18/3 29/59/3 28/60/3

v 1.42248 2.51412 -1.5678
vt -56.0032 61.7244
f 10/18/3 30/61/3 29/59/3

f 10/18/3 2/20/3 30/61/3

vt -36.4722 34.3966
f 4/62/3 30/61/3 2/20/3

v 0.738427 2.51412 -0.873674
vt -29.0719 34.3966
f 31/63/3 30/61/3 4/62/3

f 5/23/3 30/61/3 31/63/3

f 5/23/3 12/24/3 30/61/3

vt -13.0497 91.5364
vn -1.70637e-017 0.45037 -0.892842
vt -56.0032 60.5758
vt -8.90762 60.5758
f 16/64/10 30/65/10 12/66/10

v 1.33092 3.21625 -1.21363
vt -52.3985 91.5364
f 30/65/10 16/64/10 32/67/10

v 1.36946 3.21625 -1.32785
vt -53.9157 52.2777
vt -52.3985 47.7807
f 16/33/3 33/68/3 32/69/3

f 33/68/3 16/33/3 17/32/3

vt -15.8041 148.035
vn -9.56489e-018 0.207228 -0.978293
vt -53.9157 113.042
vt -6.71029 113.042
f 22/70/11 33/71/11 17/72/11

v 1.26096 4.08577 -1.14367
vt -49.6441 148.035
f 33/71/11 22/70/11 34/73/11

v 0.451025 4.08577 -1.2419
vt -17.7569 48.8937
vt -49.6441 45.0263
f 22/43/3 35/74/3 34/75/3

v 0.303191 4.08577 -1.13056
vt -11.9367 44.5101
f 22/43/3 36/76/3 35/74/3

f 36/76/3 22/43/3 23/42/3

v 0.560906 6.11842 -0.684596
vt -26.9526 241.747
vn -0.992058 0.12578 -6.86014e-016
vt -44.5101 161.081
vt -12.2957 161.081
f 37/77/12 36/78/12 23/79/12

v 0.560906 6.11842 -0.744304
vt -29.3033 241.747
f 36/78/12 37/77/12 38/80/12

usemtl FrontColor
vt -22.0829 29.3033
vn -1.78904e-015 -1 -3.00926e-015
v 0.57013 6.11842 -0.675371
vt -22.4461 26.5894
vt -22.0829 26.9526
f 38/81/13 39/82/13 37/83/13

v 0.571693 6.11842 -0.752429
vt -22.5076 29.6232
f 39/82/13 38/81/13 40/84/13

usemtl Leafs
vt -43.5992 150.521
vn -0.586554 0.222356 -0.778789
vt -35.2688 232.602
vt -35.8005 232.602
f 35/85/14 38/86/14 40/87/14

vt -36.3128 150.521
f 38/86/14 35/85/14 36/88/14

vt -22.5076 227.253
vn -4.30255e-016 0.234112 -0.97221
v 1.36946 4.08577 -1.2419
vt -53.9157 144.94
vt -17.7569 144.94
f 40/89/15 41/90/15 35/91/15

v 0.638712 6.11842 -0.752429
vt -25.1462 227.253
f 41/90/15 40/89/15 42/92/15

usemtl FrontColor
v 0.631977 6.11842 -0.675371
vt -24.881 26.5894
vt -25.1462 29.6232
f 43/93/13 40/84/13 42/94/13

f 39/82/13 40/84/13 43/93/13

usemtl Leafs
vt 16.9134 158.1
vn -4.42064e-016 0.234112 0.97221
vt 24.881 240.414
vt 22.4461 240.414
f 24/95/16 43/96/16 39/97/16

v 1.27717 4.08577 -0.1859
vt 50.2821 158.1
f 43/96/16 24/95/16 44/98/16

vt -50.2821 7.31888
f 24/44/3 25/45/3 44/99/3

vt -53.9157 48.8937
f 25/45/3 41/100/3 44/99/3

f 34/75/3 41/100/3 25/45/3

f 34/75/3 35/74/3 41/100/3

vt 11.1863 147.078
vn 0.978293 0.207228 -0
v 1.44515 3.21625 -1.18945
vt 46.8286 112.085
vt 45.0263 147.078
f 25/101/17 45/102/17 34/103/17

v 1.44515 3.21625 -0.175633
vt 6.91467 112.085
f 45/102/17 25/101/17 46/104/17

vt 43.0136 150.189
vn 0.68789 0.231549 0.68789
vt 40.9065 115
vt 45.1206 115
f 25/105/18 26/106/18 46/107/18

vt -56.8955 46.8286
vt -56.8955 6.91467
f 26/50/3 45/108/3 46/109/3

f 26/50/3 33/68/3 45/108/3

f 26/50/3 27/51/3 33/68/3

f 32/69/3 33/68/3 27/51/3

vt 8.43189 105.827
vn 0.956492 0.291758 -0
vt 56.8972 76.927
vt 47.7807 105.827
f 27/110/19 29/111/19 32/112/19

vt 4.73357 76.927
f 29/111/19 27/110/19 28/113/19

vt 4.0455 56.2095
vn 0.645094 0.409522 -0.645094
vt -3.26526 86.5097
vt -2.78115 56.2095
f 30/114/20 32/115/20 29/116/20

vt 19.9994 108.941
vn 0.858462 0.20656 -0.469443
vt 15.6866 143.929
vt 13.7888 108.941
f 33/117/21 34/118/21 45/119/21

v 1.49919 4.08577 -0.31231
vt -59.0233 12.2957
f 44/99/3 41/100/3 47/120/3

v 1.49919 4.08577 -1.11217
vt -59.0233 43.7861
f 47/120/3 41/100/3 48/121/3

vt 3.16573 206.601
vn 0.650894 0.390737 -0.650894
vt -10.7743 119.664
vt -3.55109 119.664
f 42/122/22 48/123/22 41/124/22

v 0.648179 6.11842 -0.742962
vt 2.63865 206.601
f 48/123/22 42/122/22 49/125/22

usemtl FrontColor
v 0.648179 6.11842 -0.684596
vt -25.5189 26.9526
vt -25.5189 29.2505
f 50/126/13 42/94/13 49/127/13

f 43/93/13 42/94/13 50/126/13

usemtl Leafs
vt 47.3174 144.673
vn 0.464586 0.34396 0.815997
vt 35.5119 229.899
vt 34.7779 229.899
f 44/128/23 50/129/23 43/130/23

vt 57.3761 144.673
f 50/129/23 44/128/23 47/131/23

vt 43.7861 125.583
vn 0.922419 0.38619 2.54921e-016
vt 26.9526 212.34
vt 12.2957 125.583
f 48/132/24 50/133/24 47/134/24

vt 29.2505 212.34
f 50/133/24 48/132/24 49/135/24

vt -2.9298 242.721
vn -0.690713 0.214079 0.690713
vt -0.253856 160.796
vt 6.78438 160.796
f 39/136/25 23/137/25 24/138/25

vt -3.44338 242.721
f 23/137/25 39/136/25 37/139/25

vt -40.6522 144.796
vn -0.59829 0.314999 -0.736766
vt -38.164 108.727
vt -29.5199 108.727
f 22/140/26 17/141/26 20/142/26

vt -55.4638 80.5222
vn -0.752839 0.38287 -0.535391
vt -48.0618 80.5222
vt -46.5012 110.445
f 12/143/27 14/144/27 16/145/27

usemtl Wood
v 0.828374 2.51412 -0.775654
vt -32.6131 30.5376
f 51/146/3 5/23/3 31/63/3

usemtl Leafs
f 51/146/3 8/21/3 5/23/3

f 8/21/3 51/146/3 9/19/3

f 2/20/3 9/19/3 51/146/3

usemtl Wood
f 51/146/3 4/62/3 2/20/3

f 4/62/3 51/146/3 31/63/3

vt -29.0719 97.7255
f 4/7/2 5/6/2 31/147/2

vt -37.8401 0.88
vn -0.999395 0.034768 -1.99189e-018
vt -26.6785 99.9211
vt -34.3966 99.9211
f 6/148/28 8/149/28 5/150/28

vt -23.235 0.88
f 8/149/28 6/148/28 7/151/28

usemtl Leafs
vt 3.26526 126.477
vn -0.685451 0.245589 0.685451
vt -1.65596 97.9604
vt 8.18649 97.9604
f 15/152/29 13/153/29 11/154/29

vt 3.26526 157.262
vn -0.661734 0.352444 0.661734
vt -6.19263 120.682
vt 0.627864 120.682
f 21/155/30 19/156/30 18/157/30

