# Alias OBJ Model File
# Exported from SketchUp, (c) 2000-2012 Trimble Navigation Limited
# File units = meters

mtllib naturePack_111.mtl

g Mesh1 Mushroom_Red Model

usemtl FrontColor
v 0.298431 0.3159 -0.15983
vt 11.7493 13.1107
vn -2.29787e-019 0.121779 0.992557
v 0.10229 0 -0.121072
vt 4.02715 0.580472
v 0.33719 0 -0.121072
vt 13.2752 0.580472
f 1/1/1 2/2/1 3/3/1

v 0.141048 0.3159 -0.15983
vt 5.55308 13.1107
f 2/2/1 1/1/1 4/4/1

usemtl Mushroom_Red
vt -5.55308 6.29252
vn 0 -1 -0
v 0.298431 0.3159 -0.317213
vt -11.7493 12.4887
vt -11.7493 6.29252
f 4/5/2 5/6/2 1/7/2

v 0.141048 0.3159 -0.317213
vt -5.55308 12.4887
f 5/6/2 4/5/2 6/8/2

usemtl FrontColor
v 0.10229 0 -0.355972
vt -14.0146 0.490423
vn -0.992557 0.121779 -1.40745e-018
vt -6.29252 13.0207
vt -12.4887 13.0207
f 7/9/3 4/10/3 6/11/3

vt -4.7666 0.490423
f 4/10/3 7/9/3 2/12/3

v 0.33719 0 -0.355972
vt -13.2752 14.0146
vt -4.02715 4.7666
vt -4.02715 14.0146
f 8/13/2 2/14/2 7/15/2

vt -13.2752 4.7666
f 2/14/2 8/13/2 3/16/2

vt 14.0146 -1.61664
vn 0.992557 0.121779 -1.40745e-018
vt 6.29252 10.9136
vt 4.7666 -1.61664
f 8/17/4 1/18/4 3/19/4

vt 12.4887 10.9136
f 1/18/4 8/17/4 5/20/4

vt -13.2752 -1.70669
vn -2.29787e-019 0.121779 -0.992557
vt -5.55308 10.8236
vt -11.7493 10.8236
f 8/21/5 6/22/5 5/23/5

vt -4.02715 -1.70669
f 6/22/5 8/21/5 7/24/5

usemtl Mushroom_Red
v 0.217459 0.3159 -0.5022
vt -8.56138 19.7717
f 6/8/2 9/25/2 5/6/2

v 0 0.3159 -0.12555
vt 0 4.94291
f 10/26/2 9/25/2 6/8/2

v 0 0.3159 -0.37665
vt 0 14.8287
f 9/25/2 10/26/2 11/27/2

vt -14.8287 9.40149
vn -0.755929 0.654654 3.6406e-017
vt -4.94291 9.40149
v 0.217459 0.567 -0.2511
vt -9.88583 22.4792
f 11/28/6 10/29/6 12/30/6

vt 2.47146 25.2816
vn -0.377964 0.654654 0.654654
vt -2.47146 12.2039
v 0.217459 0.3159 -0
vt 7.41437 12.2039
f 12/31/7 10/32/7 13/33/7

vt -8.56138 0
f 10/26/2 4/5/2 13/34/2

f 4/5/2 10/26/2 6/8/2

f 13/34/2 4/5/2 1/7/2

v 0.434918 0.3159 -0.12555
vt -17.1228 4.94291
f 13/34/2 1/7/2 14/35/2

v 0.434918 0.3159 -0.37665
vt -17.1228 14.8287
f 14/35/2 1/7/2 15/36/2

f 5/6/2 15/36/2 1/7/2

f 5/6/2 9/25/2 15/36/2

vt -2.47146 8.46737
vn 0.377964 0.654654 -0.654654
vt -7.41437 -4.61035
vt 2.47146 -4.61035
f 12/37/8 15/38/8 9/39/8

vt 14.8287 -1.80798
vn 0.755929 0.654654 2.60503e-017
vt 9.88583 11.2697
vt 4.94291 -1.80798
f 15/40/9 12/41/9 14/42/9

vt 12.3573 19.6768
vn 0.377964 0.654654 0.654654
vt 7.41437 6.59913
vt 17.3002 6.59913
f 12/43/10 13/44/10 14/45/10

vt -12.3573 14.0721
vn -0.377964 0.654654 -0.654654
vt -17.3002 0.994389
vt -7.41437 0.994389
f 12/46/11 9/47/11 11/48/11

