# Alias OBJ Model File
# Exported from SketchUp, (c) 2000-2012 Trimble Navigation Limited
# File units = meters

mtllib naturePack_137.mtl

g Mesh1 Rock_3 Model

usemtl Stone
v 0.376736 0.68 -0.620532
vt -28.5734 26.6354
vn -0.859036 0.126794 -0.495965
v 0.210336 0.32 -0.424352
vt -18.609 12.3469
v 0.263472 0.68 -0.424352
vt -19.655 26.6354
f 1/1/1 2/2/1 3/3/1

v 0.350168 0.32 -0.666549
vt -29.6194 12.3469
f 2/2/1 1/1/1 4/4/1

vt -14.8321 23.4579
vn -9.66249e-018 0.126794 -0.991929
v 0.629832 0.32 -0.666549
vt -24.7965 9.1694
vt -13.7861 9.1694
f 1/5/2 5/6/2 4/7/2

v 0.603264 0.68 -0.620532
vt -23.7506 23.4579
f 5/6/2 1/5/2 6/8/2

vt 14.8321 24.4304
vn 0 1 -0
v 0.603264 0.68 -0.228173
vt 23.7506 8.9832
vt 23.7506 24.4304
f 1/9/3 7/10/3 6/11/3

v 0.376736 0.68 -0.228173
vt 14.8321 8.9832
f 1/9/3 8/12/3 7/10/3

vt 10.3729 16.7068
f 8/12/3 1/9/3 3/13/3

vt -10.328 14.4652
vn -0.859036 0.126794 0.495965
vt -0.363618 28.7538
vt -9.28205 28.7538
f 2/14/4 8/15/4 3/16/4

v 0.350168 0.32 -0.182156
vt 0.682372 14.4652
f 8/15/4 2/14/4 9/17/4

vt 8.28093 16.7068
v 0.294 0.32 -0.0848705
vt 11.5748 3.34136
vt 13.7861 7.17149
f 2/18/3 10/19/3 9/20/3

v 0.098 0.32 -0.424352
vt 3.85827 16.7068
f 10/19/3 2/18/3 11/21/3

v 0.294 0.32 -0.763834
vt 11.5748 30.0722
f 2/18/3 12/22/3 11/21/3

vt 13.7861 26.2421
f 12/22/3 2/18/3 4/23/3

v 0.686 0.32 -0.763834
vt 27.0079 30.0722
f 12/22/3 4/23/3 13/24/3

vt 24.7965 26.2421
f 13/24/3 4/23/3 5/25/3

v 0.769664 0.32 -0.424352
vt 30.3018 16.7068
f 13/24/3 5/25/3 14/26/3

vt 9.28205 22.3988
vn 0.859036 0.126794 -0.495965
vt -0.682372 8.11023
vt 10.328 8.11023
f 6/27/5 14/28/5 5/29/5

v 0.716528 0.68 -0.424352
vt 0.363618 22.3988
f 14/28/5 6/27/5 15/30/5

vt 28.2098 16.7068
f 6/11/3 7/10/3 15/31/3

vt 19.655 24.5171
vn 0.859036 0.126794 0.495965
vt 29.6194 10.2286
vt 28.5734 24.5171
f 7/32/6 14/33/6 15/34/6

v 0.629832 0.32 -0.182156
vt 18.609 10.2286
f 14/33/6 7/32/6 16/35/6

vt 23.7506 27.6946
vn -9.66249e-018 0.126794 0.991929
vt 13.7861 13.406
vt 24.7965 13.406
f 7/36/7 9/37/7 16/38/7

vt 14.8321 27.6946
f 9/37/7 7/36/7 8/39/7

v 0.686 0.32 -0.0848705
vt 27.0079 3.34136
vt 24.7965 7.17149
f 9/20/3 17/40/3 16/41/3

f 9/20/3 10/19/3 17/40/3

v 0.245 0 -1.80478e-016
vt 9.64567 2.39103e-015
vn -2.22615e-016 0.256357 0.966582
vt 27.0079 13.034
vt 11.5748 13.034
f 18/42/8 17/43/8 10/44/8

v 0.735 0 -0
vt 28.937 1.7085e-015
f 17/43/8 18/42/8 19/45/8

vt -9.64567 7.10543e-015
vn 0 -1 -0
v 0.245 0 -0.848705
vt -9.64567 33.4136
vt -28.937 0
f 18/46/9 20/47/9 19/48/9

v 0 0 -0.424352
vt 0 16.7068
f 20/47/9 18/46/9 21/49/9

vt 2.8937 15.1754
vn -0.837085 0.256357 0.483291
vt -14.4685 2.14145
vt 4.82283 2.14145
f 10/50/10 21/51/10 18/52/10

vt -12.5394 15.1754
f 21/51/10 10/50/10 11/53/10

vt -31.8307 10.8925
vn -0.837085 0.256357 -0.483291
vt -14.4685 -2.14145
vt -16.3976 10.8925
f 12/54/11 21/55/11 11/56/11

vt -33.7598 -2.14145
f 21/55/11 12/54/11 20/57/11

vt -11.5748 4.46818
vn 4.44238e-016 0.256357 -0.966582
v 0.735 0 -0.848705
vt -28.937 -8.56581
vt -9.64567 -8.56581
f 12/58/12 22/59/12 20/60/12

vt -27.0079 4.46818
f 22/59/12 12/58/12 13/61/12

vt 12.5394 2.32673
vn 0.837085 0.256357 -0.483291
v 0.98 0 -0.424352
vt -4.82283 -10.7073
vt 14.4685 -10.7073
f 13/62/13 23/63/13 22/64/13

v 0.882 0.32 -0.424352
vt -2.8937 2.32673
f 23/63/13 13/62/13 24/65/13

vt 34.7244 16.7068
f 13/24/3 14/26/3 24/66/3

f 14/26/3 17/40/3 24/66/3

f 16/41/3 17/40/3 14/26/3

vt 16.3976 6.60964
vn 0.837085 0.256357 0.483291
vt 33.7598 -6.42436
vt 31.8307 6.60964
f 17/67/14 23/68/14 24/69/14

vt 14.4685 -6.42436
f 23/68/14 17/67/14 19/70/14

vt -28.937 33.4136
vt -38.5827 16.7068
f 19/48/9 22/71/9 23/72/9

f 19/48/9 20/47/9 22/71/9

