# Alias OBJ Model File
# Exported from SketchUp, (c) 2000-2012 Trimble Navigation Limited
# File units = meters

mtllib naturePack_155.mtl

g Mesh1 Group1 Model

usemtl Wood
v 0.239301 7.21911e-016 -1.02528
vt -28.2599 -23.5439
vn -0.523204 -0.776428 0.351309
v 0.50728 0.21 -0.162059
vt 5.83625 -10.4248
v 0 0.21 -0.91755
vt -29.9905 -10.4248
f 1/1/1 2/2/1 3/3/1

v 0.634979 7.21911e-016 -0.435998
vt -0.314969 -23.5439
f 2/2/1 1/1/1 4/4/1

v 0.438396 7.21911e-016 -1.47454
vt -17.2597 58.0528
vn -6.21618e-017 -1 -1.12035e-016
vt -24.9992 17.1653
vt -9.42129 40.3654
f 5/5/2 4/6/2 1/7/2

v 0.607664 7.21911e-016 -2.50488
vt -23.9238 98.6173
f 4/6/2 5/5/2 6/8/2

v 0.438396 7.21911e-016 -2.13656
vt -17.2597 84.1167
f 7/9/2 6/8/2 5/5/2

v 0.295607 7.21911e-016 -2.40517
vt -11.6381 94.6917
f 6/8/2 7/9/2 8/10/2

v 0.25525 0.21 -2.34227
vt -76.7082 -7.5603
vn -0.843328 -0.29634 0.448309
vt -78.149 -16.2168
vt -66.1726 -16.2168
f 9/11/3 8/12/3 7/13/3

v 0.072187 0.21 -2.68664
vt -92.0626 -7.5603
f 8/12/3 9/11/3 10/14/3

vt -76.7082 8.26772
vn -0.88299 1.79371e-018 0.469393
v 0.072187 0.4 -2.68664
vt -92.0626 15.748
vt -92.0626 8.26772
f 9/15/4 11/16/4 10/17/4

v 0.25525 0.4 -2.34227
vt -76.7082 15.748
f 11/16/4 9/15/4 12/18/4

v 0.25525 0.21 -1.49353
vt -58.8002 8.26772
vn -1 4.84862e-017 -0
vt -92.2154 15.748
vt -92.2154 8.26772
f 13/19/5 12/20/5 9/21/5

v 0.25525 0.4 -1.49353
vt -58.8002 15.748
f 12/20/5 13/19/5 14/22/5

vt -33.0262 8.26772
vn -0.914246 7.97342e-017 -0.405159
vt -57.8294 15.748
vt -57.8294 8.26772
f 3/23/6 14/24/6 13/25/6

v 0 0.4 -0.91755
vt -33.0262 15.748
f 14/24/6 3/23/6 15/26/6

vt 5.83625 8.26772
vn -0.83021 -8.46054e-018 0.557451
vt -29.9905 15.748
vt -29.9905 8.26772
f 2/27/7 15/28/7 3/29/7

v 0.50728 0.4 -0.162059
vt 5.83625 15.748
f 15/28/7 2/27/7 16/30/7

vt 18.9167 8.26772
vn -0.136184 -7.99704e-017 0.990684
v 1.68619 0.4 -0
vt 65.7671 15.748
vt 18.9167 15.748
f 2/31/8 17/32/8 16/33/8

v 1.68619 0.21 -0
vt 65.7671 8.26772
f 17/32/8 2/31/8 18/34/8

vt 22.4286 -16.5067
vn -0.0800946 -0.808763 0.582656
vt 65.7671 -2.4492
vt 18.9167 -2.4492
f 4/35/9 18/36/9 2/37/9

v 1.55453 0 -0.309592
vt 58.972 -16.5067
f 18/36/9 4/35/9 19/38/9

v 0.920803 7.21911e-016 -2.30404
vt -36.2521 90.7104
vt -61.202 12.1887
f 4/6/2 20/39/2 19/40/2

f 4/6/2 6/8/2 20/39/2

vt 33.1023 63.8887
vn 0.402707 -0.666015 -0.627895
v 0.873721 0.21 -2.55699
vt 25.3928 74.9723
vt 18.4562 63.8887
f 6/41/10 21/42/10 20/43/10

v 0.47226 0.21 -2.81447
vt 44.1698 74.9723
f 21/42/10 6/41/10 22/44/10

vt -39.9068 73.492
vn -0.161274 -0.84808 -0.504728
vt -51.4363 89.0953
vt -52.8044 73.492
f 8/45/11 22/46/11 6/47/11

vt -34.9009 89.0953
f 22/46/11 8/45/11 10/48/11

vt -34.9009 15.748
vn -0.304366 9.79991e-017 -0.952555
vt -51.4363 8.26772
vt -34.9009 8.26772
f 11/49/12 22/50/12 10/51/12

v 0.47226 0.4 -2.81447
vt -51.4363 15.748
f 22/50/12 11/49/12 23/52/12

v 0.387006 0.72 -2.29002
vt -41.9547 -51.4486
vn -0.170397 0.828599 -0.533282
vt -51.4363 -73.9521
vt -34.9009 -73.9521
f 24/53/13 23/54/13 11/55/13

v 0.663056 0.72 -2.37823
vt -53.3641 -51.4486
f 23/54/13 24/53/13 25/56/13

usemtl Green_leafs
vt 26.1046 93.631
vn 4.21295e-017 1 9.52236e-017
vt 15.2364 90.1584
v 0.513319 0.72 -2.05241
vt 20.2094 80.8036
f 25/57/14 24/58/14 26/59/14

usemtl Wood
vt -72.457 42.6289
vn -0.848745 0.27579 0.451189
vt -76.7082 29.5221
vt -61.8626 42.6289
f 24/60/15 12/61/15 26/62/15

vt -92.0626 29.5221
f 12/61/15 24/60/15 11/63/15

vt -58.8002 18.5669
vn -0.778408 0.627759 -3.24752e-017
vt -80.8036 34.7517
vt -92.2154 18.5669
f 14/64/16 26/65/16 12/66/16

v 0.513319 0.72 -1.46678
vt -57.7471 34.7517
f 26/65/16 14/64/16 27/67/16

vt -57.8294 3.53266
vn -0.723972 0.610678 -0.320837
v 0.337197 0.72 -1.06935
vt -43.8689 19.4422
vt -60.9831 19.4422
f 14/68/17 28/69/17 27/70/17

vt -33.0262 3.53266
f 28/69/17 14/68/17 15/71/17

vt 5.83625 25.5228
vn -0.54767 0.75155 0.367737
vt -27.5518 44.6207
vt -29.9905 25.5228
f 16/72/18 28/73/18 15/74/18

v 0.68722 0.72 -0.548064
vt -2.83137 44.6207
f 28/73/18 16/72/18 29/75/18

vt 65.7671 16.8412
vn -0.0841833 0.786053 0.6124
vt 23.8654 37.2218
vt 18.9167 16.8412
f 17/76/19 29/77/19 16/78/19

v 1.09395 0.72 -0.492153
vt 40.0287 37.2218
f 29/77/19 17/76/19 30/79/19

v 1.59343 0.56 -0.218122
vt 60.9796 27.0315
f 30/79/19 17/76/19 31/80/19

vt 41.6415 -31.4863
vn 0.473323 0.794124 0.381226
v 1.66947 0.72 -0.645819
vt 61.0303 -10.7569
vt 46.0387 -21.1216
f 17/81/20 32/82/20 31/83/20

v 1.83827 0.72 -0.855395
vt 71.6248 -10.7569
f 32/82/20 17/81/20 33/84/20

v 2.17546 0.4 -0.607467
vt 72.3502 -31.4863
f 33/84/20 17/81/20 34/85/20

vt 41.6415 15.748
vn 0.778804 -9.25767e-017 0.627268
v 2.17546 0.21 -0.607467
vt 72.3502 8.26772
vt 72.3502 15.748
f 17/86/21 35/87/21 34/88/21

vt 41.6415 8.26772
f 35/87/21 17/86/21 18/89/21

vt 41.6415 46.9782
vn 0.449894 -0.816268 0.362356
v 1.93616 7.21911e-016 -0.783416
vt 71.8354 32.6661
vt 72.3502 46.9782
f 18/90/22 36/91/22 35/92/22

vt 47.8826 32.6661
f 36/91/22 18/90/22 19/93/22

v 1.81034 7.21911e-016 -1.25844
vt -71.2734 49.5447
vt -76.2268 30.8432
f 19/40/2 37/94/2 36/95/2

f 19/40/2 20/39/2 37/94/2

vt 54.3862 54.6569
vn 0.650312 -0.520588 -0.553247
vt -8.44716 44.9736
vt 45.6001 44.9736
f 21/96/23 37/97/23 20/98/23

v 2.01416 0.21 -1.21647
vt -14.9051 54.6569
f 37/97/23 21/96/23 38/99/23

vt 54.3862 8.26772
vn 0.761661 1.9695e-017 -0.647976
v 2.01416 0.4 -1.21647
vt -14.9051 15.748
vt -14.9051 8.26772
f 21/100/24 39/101/24 38/102/24

v 0.873721 0.4 -2.55699
vt 54.3862 15.748
f 39/101/24 21/100/24 40/103/24

vt 25.3928 8.26772
vn 0.539866 4.73826e-017 -0.841751
vt 44.1698 15.748
vt 25.3928 15.748
f 21/104/25 23/105/25 40/106/25

vt 44.1698 8.26772
f 23/105/25 21/104/25 22/107/25

vt 28.5747 -37.2927
vn 0.416308 0.636675 -0.649101
vt 25.3928 -53.6303
vt 44.1698 -53.6303
f 25/108/26 40/109/26 23/110/26

v 0.940064 0.72 -2.20057
vt 15.6185 -37.2927
f 40/109/26 25/108/26 41/111/26

usemtl Green_leafs
vt 27.0559 21.5773
vt 37.0104 86.6365
f 25/57/14 29/112/14 41/113/14

f 26/59/14 29/112/14 25/57/14

vt 20.2094 57.7471
f 27/114/14 29/112/14 26/59/14

vt 13.2755 42.1005
f 29/112/14 27/114/14 28/115/14

vt 43.0687 19.3761
f 41/113/14 29/112/14 30/116/14

v 1.72697 0.72 -1.27561
vt 67.9908 50.2207
f 41/113/14 30/116/14 42/117/14

vt 65.7271 25.426
f 42/117/14 30/116/14 32/118/14

usemtl Wood
vt 70.0615 17.7244
vn 0.0971428 0.926387 0.363828
vt 46.6094 17.7244
vt 62.8255 0.996676
f 32/119/27 30/120/27 31/121/27

usemtl Green_leafs
vt 72.3727 33.677
f 42/117/14 32/118/14 33/122/14

usemtl Wood
vt 14.0243 -27.9198
vn 0.747403 0.634192 -0.197962
vt 25.9929 -44.2142
vt 31.1385 -27.9198
f 33/123/28 39/124/28 42/125/28

vt 1.18971 -44.2142
f 39/124/28 33/123/28 34/126/28

vt 1.18971 15.748
vn 0.966667 -2.44955e-017 -0.256037
vt 25.9929 8.26772
vt 25.9929 15.748
f 34/127/29 38/128/29 39/129/29

vt 1.18971 8.26772
f 38/128/29 34/127/29 35/130/29

vt 10.2981 54.1371
vn 0.723166 -0.663583 -0.191542
vt 25.9929 65.1887
vt 1.18971 65.1887
f 36/131/30 38/132/30 35/133/30

vt 29.6446 54.1371
f 38/132/30 36/131/30 37/134/30

vt 54.3862 -31.1872
vn 0.66347 0.491136 -0.564441
vt -5.80526 -16.7243
vt -14.9051 -31.1872
f 40/135/31 42/136/31 39/137/31

vt 42.0058 -16.7243
f 42/136/31 40/135/31 41/138/31

vt -57.8294 15.7234
vn -0.702127 -0.640469 -0.311156
vt -40.721 4.95788
vt -33.0262 15.7234
f 13/139/32 1/140/32 3/141/32

vt -60.0675 4.95788
f 1/140/32 13/139/32 5/142/32

vt -58.8002 -0.37414
vn -0.75365 -0.657276 -0
vt -84.1167 -11.3444
vt -58.0528 -11.3444
f 13/143/33 7/144/33 5/145/33

vt -92.2154 -0.37414
f 7/144/33 13/143/33 9/146/33

