# Alias OBJ Model File
# Exported from SketchUp, (c) 2000-2012 Trimble Navigation Limited
# File units = meters

mtllib naturePack_144.mtl

g Mesh1 Plate_River_Dirt Model

usemtl Stone
v 3 0 -0
vt 118.11 0
vn 0 0 1
v 2.2413 0.15 2.88765e-015
vt 88.2402 5.90551
v 0 0 -0
vt 0 0
f 1/1/1 2/2/1 3/3/1

v 3 0.3 -0
vt 118.11 11.811
f 2/2/1 1/1/1 4/4/1

v 3 0 -3
vn 1 0 -0
vt 0 11.811
f 5/1/2 4/5/2 1/3/2

v 3 0.3 -3
f 4/5/2 5/1/2 6/4/2

vt -118.11 -4.9738e-011
vn -3.70934e-014 4.21115e-013 -1
v 0 0.3 -3
vt -4.38111e-012 11.811
vt -118.11 11.811
f 5/6/3 7/7/3 6/8/3

v 0 0 -3
vt -4.38111e-012 -4.9738e-011
f 7/7/3 5/6/3 8/9/3

vt -118.11 118.11
vn 0 -1 -0
vt 0 118.11
f 5/10/4 3/3/4 8/11/4

vt -118.11 0
f 3/3/4 5/10/4 1/12/4

vn -1 0 -0
f 3/3/5 7/8/5 8/12/5

v 0 0.3 -0
f 7/8/5 3/3/5 9/5/5

v 0.758698 0.15 -0
vt 29.87 5.90551
f 3/3/1 10/13/1 9/5/1

f 10/13/1 3/3/1 2/2/1

usemtl Water
vt 88.2402 -1.13687e-013
vn 0 1 -0
v 0.877648 0.15 -0.371864
vt 34.5531 14.6403
vt 29.87 0
f 2/14/6 11/15/6 10/16/6

v 1.12136 0.15 -1.27492
vt 44.1479 50.1936
f 11/15/6 2/14/6 12/17/6

v 1.57309 0.15 -2.6936
vt 61.9325 106.047
f 12/17/6 2/14/6 13/18/6

v 2.2413 0.15 -0.701031
vt 88.2402 27.5996
f 13/18/6 2/14/6 14/19/6

v 2.36025 0.15 -0.371864
vt 92.9233 14.6403
f 15/20/6 14/19/6 2/14/6

usemtl Stone
vt 17.8118 5.90551
vn -0.940477 0 0.339857
v 2.2413 0.3 -0.701031
vt 4.03226 11.811
vt 4.03226 5.90551
f 15/21/7 16/22/7 14/23/7

v 2.36025 0.3 -0.371864
vt 17.8118 11.811
f 16/22/7 15/21/7 17/24/7

vt -26.884 5.90551
vn -0.952459 0 -0.304668
vt -42.255 11.811
vt -42.255 5.90551
f 2/25/8 17/26/8 15/27/8

v 2.2413 0.3 2.88765e-015
vt -26.884 11.811
f 17/26/8 2/25/8 18/28/8

vt 88.2402 11.811
f 2/2/1 4/4/1 18/29/1

usemtl Leafs
f 4/1/6 17/20/6 18/14/6

v 2.60396 0.3 -1.27492
vt 102.518 50.1936
f 17/20/6 4/1/6 19/30/6

vt 118.11 118.11
f 6/31/6 19/30/6 4/1/6

v 2.38747 0.3 -2.38719
vt 93.995 93.9839
f 6/31/6 20/32/6 19/30/6

v 1.57309 0.3 -2.6936
f 6/31/6 21/18/6 20/32/6

f 7/11/6 21/18/6 6/31/6

v 0.904869 0.3 -2.38719
vt 35.6247 93.9839
f 7/11/6 22/33/6 21/18/6

v 0.758698 0.3 -1.92432
vt 29.87 75.7604
f 7/11/6 23/34/6 22/33/6

v 0.758698 0.3 -0.701031
vt 29.87 27.5996
f 7/11/6 24/35/6 23/34/6

v 0.758698 0.3 -0
f 7/11/6 25/16/6 24/35/6

f 25/16/6 7/11/6 9/3/6

usemtl Stone
vt 29.87 11.811
f 9/5/1 10/13/1 25/36/1

vt 24.4715 5.90551
vn 0.952459 0 0.304668
vt 9.10043 11.811
vt 9.10043 5.90551
f 11/37/9 25/38/9 10/39/9

v 0.877648 0.3 -0.371864
vt 24.4715 11.811
f 25/38/9 11/37/9 26/40/9

v 0.758698 0.15 -0.701031
vt 15.8053 5.90551
vn 0.940477 0 -0.339857
vt 2.02576 11.811
vt 2.02576 5.90551
f 27/41/10 26/42/10 11/43/10

vt 15.8053 11.811
f 26/42/10 27/41/10 24/44/10

vt 66.0155 5.90551
vn 0.845353 0 0.534208
vt 39.2882 11.811
vt 39.2882 5.90551
f 12/45/11 24/46/11 27/47/11

v 1.12136 0.3 -1.27492
vt 66.0155 11.811
f 24/46/11 12/45/11 28/48/11

v 0.758698 0.15 -1.92432
vt 51.5811 5.90551
vn 0.87308 0 -0.487576
vt 22.2976 11.811
vt 22.2976 5.90551
f 29/49/12 28/50/12 12/51/12

vt 51.5811 11.811
f 28/50/12 29/49/12 23/52/12

v 0.904869 0.15 -2.38719
vt 100.349 5.90551
vn 0.953583 0 0.30113
vt 81.2386 11.811
vt 81.2386 5.90551
f 30/53/13 23/54/13 29/55/13

vt 100.349 11.811
f 23/54/13 30/53/13 22/56/13

vt 71.5561 5.90551
vn 0.41681 0 0.908994
vt 100.498 11.811
vt 71.5561 11.811
f 30/57/14 21/58/14 22/59/14

vt 100.498 5.90551
f 21/58/14 30/57/14 13/60/14

usemtl Water
f 30/33/6 12/17/6 13/18/6

f 12/17/6 30/33/6 29/34/6

usemtl Stone
vt 20.6222 5.90551
vn -0.35214 0 0.935947
vt 54.8789 11.811
vt 20.6222 11.811
f 13/61/15 20/62/15 21/63/15

v 2.38747 0.15 -2.38719
vt 54.8789 5.90551
f 20/62/15 13/61/15 31/64/15

usemtl Water
v 2.2413 0.15 -1.92432
vt 88.2402 75.7604
f 13/18/6 32/65/6 31/32/6

f 13/18/6 14/19/6 32/65/6

v 2.60396 0.15 -1.27492
f 33/30/6 32/65/6 14/19/6

usemtl Stone
vt 6.16233 5.90551
vn -0.87308 0 0.487576
v 2.2413 0.3 -1.92432
vt -23.1211 11.811
vt -23.1211 5.90551
f 33/66/16 34/67/16 32/68/16

vt 6.16233 11.811
f 34/67/16 33/66/16 19/69/16

vt -70.4701 5.90551
vn -0.845353 0 -0.534208
vt -97.1973 11.811
vt -97.1973 5.90551
f 14/70/17 19/71/17 33/72/17

vt -70.4701 11.811
f 19/71/17 14/70/17 16/73/17

usemtl Leafs
f 19/30/6 16/19/6 17/20/6

f 19/30/6 20/32/6 34/65/6

usemtl Stone
vt -117.926 11.811
vn -0.953583 0 -0.30113
vt -98.8157 5.90551
vt -98.8157 11.811
f 20/74/18 32/75/18 34/76/18

vt -117.926 5.90551
f 32/75/18 20/74/18 31/77/18

usemtl Leafs
f 28/17/6 23/34/6 24/35/6

usemtl Water
f 12/17/6 27/35/6 11/15/6

usemtl Leafs
f 26/15/6 24/35/6 25/16/6

