# Alias OBJ Model File
# Exported from SketchUp, (c) 2000-2012 Trimble Navigation Limited
# File units = meters

mtllib naturePack_004.mtl

g Mesh1 Plate_Grass Model

usemtl Wood
v 3 0.3 -0
vt 118.11 11.811
vn 0 0 1
v 0 0 -0
vt 0 0
v 3 0 -0
vt 118.11 0
f 1/1/1 2/2/1 3/3/1

v 0 0.3 -0
vt 0 11.811
f 2/2/1 1/1/1 4/4/1

usemtl Leafs
vt 118.11 2.75637
vn 1.58491e-018 0.972387 0.233373
v 1.5 0.66 -1.5
vt 59.0551 63.4885
vt 0 2.75637
f 1/5/2 5/6/2 4/7/2

v 3 0.3 -3
vt 118.11 -112.093
vn 0.233373 0.972387 -0
vt 59.0551 -51.3604
vt 0 -112.093
f 6/8/3 5/9/3 1/10/3

vt -118.11 -112.093
vn 1.58491e-018 0.972387 -0.233373
v 0 0.3 -3
vt 8.02124e-016 -112.093
vt -59.0551 -51.3604
f 6/11/4 7/12/4 5/13/4

usemtl Wood
v 3 0 -3
vt -118.11 0
vn 0 0 -1
vt -118.11 11.811
f 8/14/5 7/4/5 6/15/5

v 0 0 -3
f 7/4/5 8/14/5 9/2/5

vt -118.11 118.11
vn 0 -1 -0
vt 0 118.11
f 8/16/6 2/2/6 9/17/6

f 2/2/6 8/16/6 3/14/6

vn 1 0 -0
f 8/3/7 1/4/7 3/2/7

f 1/4/7 8/3/7 6/1/7

vn -1 0 -0
f 2/2/8 7/15/8 9/14/8

f 7/15/8 2/2/8 4/4/8

usemtl Leafs
vt -59.0551 63.4885
vn -0.233373 0.972387 -0
vt -118.11 2.75637
f 5/18/9 7/19/9 4/7/9

