# Alias OBJ Model File
# Exported from SketchUp, (c) 2000-2012 Trimble Navigation Limited
# File units = meters

mtllib naturePack_133.mtl

g Mesh1 Tall_Rock_1 Model

usemtl Green_leafs
v 0.614878 1.59 -0.259859
vt 24.2078 10.2307
vn 4.78851e-017 1 8.17928e-016
v 0.259786 1.59 -0.669884
vt 10.2278 26.3734
v 0.259786 1.59 -0.464872
vt 10.2278 18.302
f 1/1/1 2/2/1 3/3/1

v 0.538243 1.59 -0.811308
vt 21.1907 31.9412
f 2/2/1 1/1/1 4/4/1

v 0.96997 1.59 -0.669884
vt 38.1878 26.3734
f 4/4/1 1/1/1 5/5/1

v 0.96997 1.59 -0.464872
vt 38.1878 18.302
f 5/5/1 1/1/1 6/6/1

usemtl Wood
v 0.614878 0.74 -0.1775
vt 24.4587 28.5258
vn 0.494806 0.143766 0.857029
vt 42.2226 62.108
vn 0.498249 0.0836181 0.862992
vt 26.0799 62.108
f 7/7/2 6/8/3 1/9/3

v 1.07604 0.74 -0.44375
vt 45.4232 28.5258
f 6/8/3 7/7/2 8/10/2

v 0.614878 0 -0
vt 20.9646 -2.46178
vn 0.489549 0.203387 0.847924
vt 45.4232 27.294
vt 24.4587 27.294
f 9/11/4 8/12/2 7/13/2

v 1.22976 0 -0.355
vt 48.9173 -2.46178
f 8/12/2 9/11/4 10/14/4

vt -24.2078 0
vn 0 -1 -0
v 1.22976 0 -1.065
vt -48.4156 41.9291
vt -48.4156 13.9764
f 9/15/5 11/16/5 10/17/5

v 0.614878 0 -1.42
vt -24.2078 55.9055
f 9/15/5 12/18/5 11/16/5

v 0 0 -0.355
vt 0 13.9764
f 13/19/5 12/18/5 9/15/5

v 0 0 -1.065
vt 0 41.9291
f 12/18/5 13/19/5 14/20/5

v 0.15372 0.74 -0.44375
vt -17.4705 29.7558
vn -0.986504 0.163739 -1.58679e-017
vt -41.9291 -5.5619e-017
vn -0.979098 0.203387 -6.38572e-018
vt -13.9764 -1.85397e-017
f 15/21/6 14/22/7 13/23/7

v 0.15372 0.74 -0.71
vt -27.9528 29.7558
f 14/22/7 15/21/6 16/24/6

vt -18.302 63.3831
vn -0.992304 0.123824 -2.53243e-017
vt -27.9528 29.659
vt -17.4705 29.659
f 3/25/8 16/26/6 15/27/6

vt -26.3734 63.3831
f 16/26/6 3/25/8 2/28/8

vt -21.0617 60.4438
vn -0.450642 0.098109 -0.887297
v 0.515353 0.74 -0.893667
vt -34.0222 26.817
vt -18.0537 26.817
f 2/29/9 17/30/9 16/31/9

vt -33.3574 60.4438
f 17/30/9 2/29/9 4/32/9

vt -28.0803 59.2985
vn 0.310215 0.0834037 -0.947001
vt -8.32864 25.7169
vt -10.1945 59.2985
f 5/33/10 17/34/10 4/35/10

v 1.07604 0.74 -0.71
vt -31.557 25.7169
f 17/34/10 5/33/10 18/36/10

vt 18.302 57.3881
vn 0.992304 0.123824 -9.20883e-018
vt 27.9528 23.664
vn 0.986504 0.163739 -6.75664e-018
vt 26.3734 57.3881
f 6/37/11 18/38/12 5/39/11

vt 17.4705 23.664
f 18/38/12 6/37/11 8/40/12

vt 17.4705 19.9087
vt 41.9291 -9.84711
vn 0.979098 0.203387 -4.29346e-018
vt 27.9528 19.9087
f 8/41/12 11/42/13 18/43/12

vt 13.9764 -9.84711
f 11/42/13 8/41/12 10/44/13

v 1.07604 0.74 -0.97625
vt 38.435 19.9087
f 18/43/12 11/42/13 19/45/13

vt -20.9646 -12.3089
vn 0.489549 0.203387 -0.847924
v 0.614878 0.74 -1.2425
vt 3.49409 17.4469
vt -17.4705 17.4469
f 11/46/14 20/47/14 19/48/14

vt 6.98819 -12.3089
f 20/47/14 11/46/14 12/49/14

vt -48.9173 -7.38533
vn -0.489549 0.203387 -0.847924
v 0.15372 0.74 -0.97625
vt -24.4587 22.3705
vt -45.4232 22.3705
f 12/50/15 21/51/15 20/52/15

vt -20.9646 -7.38533
f 21/51/15 12/50/15 14/53/15

vt -38.435 29.7558
f 14/22/7 16/24/6 21/54/7

usemtl Green_leafs
vt 20.2895 35.1837
vn 6.0777e-017 1 -7.67695e-017
vt 6.05195 38.435
vt 6.05195 27.9528
f 17/55/16 21/56/16 16/57/16

vt 24.2078 48.9173
f 21/56/16 17/55/16 20/58/16

vt 42.3636 27.9528
f 20/58/16 17/55/16 18/59/16

vt 42.3636 38.435
f 20/58/16 18/59/16 19/60/16

usemtl Wood
vt -3.49409 30.55
vn -0.494806 0.143766 0.857029
vt 15.8492 64.1322
vn -0.498249 0.0836181 0.862992
vt -0.293488 64.1322
f 15/61/17 1/62/18 3/63/18

vt 17.4705 30.55
f 1/62/18 15/61/17 7/64/17

vt -6.98819 2.46178
vn -0.489549 0.203387 0.847924
vt 17.4705 32.2176
vt -3.49409 32.2176
f 13/65/19 7/66/17 15/67/17

vt 20.9646 2.46178
f 7/66/17 13/65/19 9/68/19

