# Alias OBJ Model File
# Exported from SketchUp, (c) 2000-2012 Trimble Navigation Limited
# File units = meters

mtllib naturePack_146.mtl

g Mesh1 Plate_River_Dirt Model

usemtl Wood
v 3 0 -0
vt 118.11 0
vn 0 0 1
v 2.2413 0.15 -0
vt 88.2402 5.90551
v 0 0 -0
vt 0 0
f 1/1/1 2/2/1 3/3/1

v 3 0.3 -0
vt 118.11 11.811
f 2/2/1 1/1/1 4/4/1

v 3 0 -3
vn 1 0 -0
vt 0 11.811
f 5/1/2 4/5/2 1/3/2

v 3 0.3 -3
f 4/5/2 5/1/2 6/4/2

vt -118.11 -4.9809e-011
vn -3.71464e-014 4.21717e-013 -1
v 2.2413 0.15 -3
vt -88.2402 5.90551
vt -118.11 11.811
f 5/6/3 7/7/3 6/8/3

v 0.758698 0.15 -3
vt -29.87 5.90551
f 7/7/3 5/6/3 8/9/3

v 0 0 -3
vt -4.38737e-012 -4.9809e-011
f 9/10/3 8/9/3 5/6/3

v 0 0.3 -3
vt -4.38737e-012 11.811
f 8/9/3 9/10/3 10/11/3

vt -118.11 0
vn -1 0 -0
v -4.96675e-013 0.15 -2.2413
f 9/12/4 11/7/4 10/8/4

v 0 0.15 -0.758698
f 9/12/4 12/9/4 11/7/4

f 3/3/4 12/9/4 9/12/4

v 0 0.3 -0.758698
vt -29.87 11.811
f 3/3/4 13/13/4 12/9/4

v 0 0.3 -0
f 13/13/4 3/3/4 14/5/4

v 0.758698 0.15 -0
vt 29.87 5.90551
f 3/3/1 15/14/1 14/5/1

f 15/14/1 3/3/1 2/2/1

usemtl Water
vt 88.2402 0
vn 0 1 -0
v 0.877648 0.15 -0.371864
vt 34.5531 14.6403
vt 29.87 0
f 2/15/5 16/16/5 15/17/5

v 0.936265 0.15 -0.982021
vt 36.8608 38.6623
f 16/16/5 2/15/5 17/18/5

vt 88.2402 118.11
f 7/19/5 17/18/5 2/15/5

v 0.889083 0.15 -2.45337
vt 35.0033 96.5894
f 7/19/5 18/20/5 17/18/5

vt 29.87 118.11
f 18/20/5 7/19/5 8/21/5

usemtl Wood
vt 107.957 5.90551
vn 0.972712 0 -0.232017
v 0.889083 0.3 -2.45337
vt 85.8323 11.811
vt 85.8323 5.90551
f 8/22/6 19/23/6 18/24/6

v 0.758698 0.3 -3
vt 107.957 11.811
f 19/23/6 8/22/6 20/25/6

f 8/9/3 10/11/3 20/13/3

usemtl Leafs
vt 0 118.11
f 10/26/5 19/20/5 20/21/5

v -4.96675e-013 0.3 -2.2413
vt -1.95541e-011 88.2402
f 19/20/5 10/26/5 21/27/5

usemtl Wood
vt -88.2402 11.811
f 10/8/4 11/7/4 21/28/4

vt 20.4732 5.90551
vn 0.232017 0 0.972712
vt 56.4585 11.811
vt 20.4732 11.811
f 11/29/7 19/30/7 21/31/7

vt 56.4585 5.90551
f 19/30/7 11/29/7 18/32/7

usemtl Water
vt 0 29.87
f 12/33/5 18/20/5 11/27/5

f 18/20/5 12/33/5 17/18/5

usemtl Wood
vt -6.93034 11.811
vn -0.232017 0 -0.972712
vt -44.8253 5.90551
vt -6.93034 5.90551
f 13/34/8 17/35/8 12/36/8

v 0.936265 0.3 -0.982021
vt -44.8253 11.811
f 17/35/8 13/34/8 22/37/8

usemtl Leafs
v 0.758698 0.3 -0.701031
vt 29.87 27.5996
f 13/33/5 23/38/5 22/18/5

v 0.758698 0.3 -0
f 13/33/5 24/17/5 23/38/5

f 24/17/5 13/33/5 14/3/5

usemtl Wood
vt 29.87 11.811
f 14/5/1 15/14/1 24/39/1

vt 24.4715 5.90551
vn 0.952459 0 0.304668
vt 9.10043 11.811
vt 9.10043 5.90551
f 16/40/9 24/41/9 15/42/9

v 0.877648 0.3 -0.371864
vt 24.4715 11.811
f 24/41/9 16/40/9 25/43/9

v 0.758698 0.15 -0.701031
vt 15.8053 5.90551
vn 0.940477 0 -0.339857
vt 2.02576 11.811
vt 2.02576 5.90551
f 26/44/10 25/45/10 16/46/10

vt 15.8053 11.811
f 25/45/10 26/44/10 23/47/10

vt 52.3746 5.90551
vn 0.845353 0 0.534208
vt 39.2882 11.811
vt 39.2882 5.90551
f 17/48/11 23/49/11 26/50/11

vt 52.3746 11.811
f 23/49/11 17/48/11 22/51/11

usemtl Water
f 17/18/5 26/38/5 16/16/5

usemtl Leafs
f 25/16/5 23/38/5 24/17/5

usemtl Water
v 2.2413 0.15 -0.701031
vt 88.2402 27.5996
f 7/19/5 2/15/5 27/52/5

v 2.36025 0.15 -0.371864
vt 92.9233 14.6403
f 28/53/5 27/52/5 2/15/5

usemtl Wood
vt 17.8118 5.90551
vn -0.940477 0 0.339857
v 2.2413 0.3 -0.701031
vt 4.03226 11.811
vt 4.03226 5.90551
f 28/54/12 29/55/12 27/56/12

v 2.36025 0.3 -0.371864
vt 17.8118 11.811
f 29/55/12 28/54/12 30/57/12

vt -26.884 5.90551
vn -0.952459 0 -0.304668
vt -42.255 11.811
vt -42.255 5.90551
f 2/58/13 30/59/13 28/60/13

v 2.2413 0.3 -0
vt -26.884 11.811
f 30/59/13 2/58/13 31/61/13

vt 88.2402 11.811
f 2/2/1 4/4/1 31/62/1

usemtl Leafs
f 4/1/5 30/53/5 31/15/5

v 2.60396 0.3 -1.27492
vt 102.518 50.1936
f 30/53/5 4/1/5 32/63/5

vt 118.11 118.11
f 6/64/5 32/63/5 4/1/5

v 2.38747 0.3 -2.38719
vt 93.995 93.9839
f 6/64/5 33/65/5 32/63/5

v 2.2413 0.3 -3
f 33/65/5 6/64/5 34/19/5

usemtl Wood
f 6/8/3 7/7/3 34/28/3

v 2.38747 0.15 -2.38719
vt -69.6108 5.90551
vn -0.972712 0 0.232017
vt -94.414 11.811
vt -94.414 5.90551
f 35/66/14 34/67/14 7/68/14

vt -69.6108 11.811
f 34/67/14 35/66/14 33/69/14

v 2.2413 0.15 -1.92432
vt -98.8157 5.90551
vn -0.953583 0 -0.30113
vt -117.926 11.811
vt -117.926 5.90551
f 36/70/15 33/71/15 35/72/15

v 2.2413 0.3 -1.92432
vt -98.8157 11.811
f 33/71/15 36/70/15 37/73/15

v 2.60396 0.15 -1.27492
vt 6.16233 5.90551
vn -0.87308 0 0.487576
vt -23.1211 11.811
vt -23.1211 5.90551
f 38/74/16 37/75/16 36/76/16

vt 6.16233 11.811
f 37/75/16 38/74/16 32/77/16

vt -70.4701 5.90551
vn -0.845353 0 -0.534208
vt -97.1973 11.811
vt -97.1973 5.90551
f 27/78/17 32/79/17 38/80/17

vt -70.4701 11.811
f 32/79/17 27/78/17 29/81/17

usemtl Leafs
f 32/63/5 29/52/5 30/53/5

usemtl Water
vt 88.2402 75.7604
f 38/63/5 36/82/5 27/52/5

f 7/19/5 27/52/5 36/82/5

f 7/19/5 36/82/5 35/65/5

usemtl Leafs
f 32/63/5 33/65/5 37/82/5

usemtl Wood
vt -118.11 118.11
vn 0 -1 -0
f 5/83/18 3/3/18 9/26/18

f 3/3/18 5/83/18 1/12/18

