# Alias OBJ Model File
# Exported from SketchUp, (c) 2000-2012 Trimble Navigation Limited
# File units = meters

mtllib naturePack_093.mtl

g Mesh1 Plate_River Model

usemtl Stone
v 3 0 -0
vt 118.11 0
vn 0 0 1
v 2.2413 0.15 -0
vt 88.2402 5.90551
v 0 0 -0
vt 0 0
f 1/1/1 2/2/1 3/3/1

v 3 0.3 -0
vt 118.11 11.811
f 2/2/1 1/1/1 4/4/1

v 3 0 -3
vn 1 0 -0
vt 0 11.811
f 5/1/2 4/5/2 1/3/2

v 3 0.3 -3
f 4/5/2 5/1/2 6/4/2

vt -118.11 -4.9809e-011
vn -3.71464e-014 4.21717e-013 -1
v 2.2413 0.15 -3
vt -88.2402 5.90551
vt -118.11 11.811
f 5/6/3 7/7/3 6/8/3

v 0.758698 0.15 -3
vt -29.87 5.90551
f 7/7/3 5/6/3 8/9/3

v 0 0 -3
vt -4.38737e-012 -4.9809e-011
f 9/10/3 8/9/3 5/6/3

v 0 0.3 -3
vt -4.38737e-012 11.811
f 8/9/3 9/10/3 10/11/3

vn -1 0 -0
vt -118.11 0
f 3/3/4 10/8/4 9/12/4

v 0 0.3 -0
f 10/8/4 3/3/4 11/5/4

v 0.758698 0.15 -0
vt 29.87 5.90551
f 3/3/1 12/13/1 11/5/1

f 12/13/1 3/3/1 2/2/1

usemtl Water
vt 88.2402 0
vn 0 1 -0
v 0.877648 0.15 -0.371864
vt 34.5531 14.6403
vt 29.87 0
f 2/14/5 13/15/5 12/16/5

v 1.12136 0.15 -1.27492
vt 44.1479 50.1936
f 13/15/5 2/14/5 14/17/5

vt 88.2402 118.11
f 7/18/5 14/17/5 2/14/5

v 0.904869 0.15 -2.38719
vt 35.6247 93.9839
f 7/18/5 15/19/5 14/17/5

vt 29.87 118.11
f 15/19/5 7/18/5 8/20/5

usemtl Stone
vt 107.957 5.90551
vn 0.972712 0 -0.232017
v 0.904869 0.3 -2.38719
vt 83.1537 11.811
vt 83.1537 5.90551
f 8/21/6 16/22/6 15/23/6

v 0.758698 0.3 -3
vt 107.957 11.811
f 16/22/6 8/21/6 17/24/6

vt -29.87 11.811
f 8/9/3 10/11/3 17/25/3

usemtl Leafs
vt 0 118.11
v 0.758698 0.3 -0
f 10/26/5 18/16/5 17/20/5

f 18/16/5 10/26/5 11/3/5

usemtl Stone
vt 29.87 11.811
f 11/5/1 12/13/1 18/27/1

vt 24.4715 5.90551
vn 0.952459 0 0.304668
vt 9.10043 11.811
vt 9.10043 5.90551
f 13/28/7 18/29/7 12/30/7

v 0.877648 0.3 -0.371864
vt 24.4715 11.811
f 18/29/7 13/28/7 19/31/7

v 0.758698 0.15 -0.701031
vt 15.8053 5.90551
vn 0.940477 0 -0.339857
vt 2.02576 11.811
vt 2.02576 5.90551
f 20/32/8 19/33/8 13/34/8

v 0.758698 0.3 -0.701031
vt 15.8053 11.811
f 19/33/8 20/32/8 21/35/8

vt 66.0155 5.90551
vn 0.845353 0 0.534208
vt 39.2882 11.811
vt 39.2882 5.90551
f 14/36/9 21/37/9 20/38/9

v 1.12136 0.3 -1.27492
vt 66.0155 11.811
f 21/37/9 14/36/9 22/39/9

v 0.758698 0.15 -1.92432
vt 51.5811 5.90551
vn 0.87308 0 -0.487576
vt 22.2976 11.811
vt 22.2976 5.90551
f 23/40/10 22/41/10 14/42/10

v 0.758698 0.3 -1.92432
vt 51.5811 11.811
f 22/41/10 23/40/10 24/43/10

vt 100.349 5.90551
vn 0.953583 0 0.30113
vt 81.2386 11.811
vt 81.2386 5.90551
f 15/44/11 24/45/11 23/46/11

vt 100.349 11.811
f 24/45/11 15/44/11 16/47/11

usemtl Leafs
vt 29.87 75.7604
f 17/20/5 24/48/5 16/19/5

vt 29.87 27.5996
f 17/20/5 21/49/5 24/48/5

f 17/20/5 18/16/5 21/49/5

f 19/15/5 21/49/5 18/16/5

f 22/17/5 24/48/5 21/49/5

usemtl Water
f 14/17/5 15/19/5 23/48/5

f 14/17/5 20/49/5 13/15/5

v 2.2413 0.15 -0.701031
vt 88.2402 27.5996
f 7/18/5 2/14/5 25/50/5

v 2.36025 0.15 -0.371864
vt 92.9233 14.6403
f 26/51/5 25/50/5 2/14/5

usemtl Stone
vt 17.8118 5.90551
vn -0.940477 0 0.339857
v 2.2413 0.3 -0.701031
vt 4.03226 11.811
vt 4.03226 5.90551
f 26/52/12 27/53/12 25/54/12

v 2.36025 0.3 -0.371864
vt 17.8118 11.811
f 27/53/12 26/52/12 28/55/12

vt -26.884 5.90551
vn -0.952459 0 -0.304668
vt -42.255 11.811
vt -42.255 5.90551
f 2/56/13 28/57/13 26/58/13

v 2.2413 0.3 -0
vt -26.884 11.811
f 28/57/13 2/56/13 29/59/13

vt 88.2402 11.811
f 2/2/1 4/4/1 29/60/1

usemtl Leafs
f 4/1/5 28/51/5 29/14/5

v 2.60396 0.3 -1.27492
vt 102.518 50.1936
f 28/51/5 4/1/5 30/61/5

vt 118.11 118.11
f 6/62/5 30/61/5 4/1/5

v 2.38747 0.3 -2.38719
vt 93.995 93.9839
f 6/62/5 31/63/5 30/61/5

v 2.2413 0.3 -3
f 31/63/5 6/62/5 32/18/5

usemtl Stone
vt -88.2402 11.811
f 6/8/3 7/7/3 32/64/3

v 2.38747 0.15 -2.38719
vt -69.6108 5.90551
vn -0.972712 0 0.232017
vt -94.414 11.811
vt -94.414 5.90551
f 33/65/14 32/66/14 7/67/14

vt -69.6108 11.811
f 32/66/14 33/65/14 31/68/14

v 2.2413 0.15 -1.92432
vt -98.8157 5.90551
vn -0.953583 0 -0.30113
vt -117.926 11.811
vt -117.926 5.90551
f 34/69/15 31/70/15 33/71/15

v 2.2413 0.3 -1.92432
vt -98.8157 11.811
f 31/70/15 34/69/15 35/72/15

v 2.60396 0.15 -1.27492
vt 6.16233 5.90551
vn -0.87308 0 0.487576
vt -23.1211 11.811
vt -23.1211 5.90551
f 36/73/16 35/74/16 34/75/16

vt 6.16233 11.811
f 35/74/16 36/73/16 30/76/16

vt -70.4701 5.90551
vn -0.845353 0 -0.534208
vt -97.1973 11.811
vt -97.1973 5.90551
f 25/77/17 30/78/17 36/79/17

vt -70.4701 11.811
f 30/78/17 25/77/17 27/80/17

usemtl Leafs
f 30/61/5 27/50/5 28/51/5

usemtl Water
vt 88.2402 75.7604
f 36/61/5 34/81/5 25/50/5

f 7/18/5 25/50/5 34/81/5

f 7/18/5 34/81/5 33/63/5

usemtl Leafs
f 30/61/5 31/63/5 35/81/5

usemtl Stone
vt -118.11 118.11
vn 0 -1 -0
f 5/82/18 3/3/18 9/26/18

f 3/3/18 5/82/18 1/12/18

