# Alias OBJ Model File
# Exported from SketchUp, (c) 2000-2012 Trimble Navigation Limited
# File units = meters

mtllib naturePack_170.mtl

g Mesh1 Group1 Model

usemtl Fall_Leafs
v 0.319563 0.17 -0
vt 10.8957 4.22813
vn -0.471707 -0.331615 0.817021
v 0.0597558 0 -0.219
vt -2.27362 -2.86621
v 0.319563 0 -0.069
vt 9.5374 -2.86621
f 1/1/1 2/2/1 3/3/1

v 0 0.17 -0.1845
vt -3.63189 4.22813
f 2/2/1 1/1/1 4/4/1

v 0.319563 0.42 -0.0369
vt 10.1693 17.3591
vn -0.495965 0.126794 0.859036
vt -3.63189 7.43651
vt 10.8957 7.43651
f 5/5/2 4/6/2 1/7/2

v 0.0319563 0.42 -0.20295
vt -2.90551 17.3591
f 4/6/2 5/5/2 6/8/2

vt 10.1693 16.8554
vn -0.344043 0.725628 0.595901
v 0.158503 0.54 -0.276012
vt -0.0290551 23.7214
vt -2.90551 16.8554
f 5/9/3 7/10/3 6/11/3

v 0.319563 0.54 -0.183024
vt 7.29283 23.7214
f 7/10/3 5/9/3 8/12/3

vt 11.622 7.72609
vn 0.344043 0.725628 0.595901
v 0.480623 0.54 -0.276012
vt 21.8204 14.5921
vt 14.4985 14.5921
f 5/13/4 9/14/4 8/15/4

v 0.60717 0.42 -0.20295
vt 24.6969 7.72609
f 9/14/4 5/13/4 10/16/4

vt 10.8957 5.84129
vn 0.495965 0.126794 0.859036
vt 24.6969 15.7639
vt 11.622 15.7639
f 1/17/5 10/18/5 5/19/5

v 0.639127 0.17 -0.1845
vt 25.4232 5.84129
f 10/18/5 1/17/5 11/20/5

vt 12.2539 1.30591
vn 0.471707 -0.331615 0.817021
vt 25.4232 8.40025
vt 10.8957 8.40025
f 3/21/6 11/22/6 1/23/6

v 0.579371 0 -0.219
vt 24.065 1.30591
f 11/22/6 3/21/6 12/24/6

vt -12.5812 2.71654
vn 0 -1 -0
v 0.579371 0 -0.519
vt -22.8099 20.4331
vt -22.8099 8.62205
f 3/25/7 13/26/7 12/27/7

v 0.319563 0 -0.669
vt -12.5812 26.3386
f 3/25/7 14/28/7 13/26/7

vt -2.35259 8.62205
f 2/29/7 14/28/7 3/25/7

v 0.0597558 0 -0.519
vt -2.35259 20.4331
f 14/28/7 2/29/7 15/30/7

vt -8.62205 -0.780153
vn -0.943415 -0.331615 1.94271e-018
v 0 0.17 -0.5535
vt -21.7913 6.31419
vt -20.4331 -0.780153
f 2/31/8 16/32/8 15/33/8

vt -7.26378 6.31419
f 16/32/8 2/31/8 4/34/8

vt -7.99016 16.5615
vn -0.991929 0.126794 2.08516e-018
vt -21.7913 6.6389
vt -7.26378 6.6389
f 6/35/9 16/36/9 4/37/9

v 0.0319563 0.42 -0.53505
vt -21.065 16.5615
f 16/36/9 6/35/9 17/38/9

vt -10.8666 19.1568
vn -0.688087 0.725628 -8.29049e-018
vt -21.065 12.2907
vt -7.99016 12.2907
f 7/39/10 17/40/10 6/41/10

v 0.158503 0.54 -0.461988
vt -18.1885 19.1568
f 17/40/10 7/39/10 18/42/10

vt 12.5812 7.20567
vn 0 1 -0
vt 6.24029 18.1885
vt 6.24029 10.8666
f 8/43/11 18/44/11 7/45/11

v 0.294363 0.54 -0.34695
vt 11.5891 13.6594
f 18/44/11 8/43/11 19/46/11

v 0.344763 0.54 -0.34695
vt 13.5734 13.6594
f 19/46/11 8/43/11 20/47/11

vt 18.9222 10.8666
f 20/47/11 8/43/11 9/48/11

v 0.344763 0.54 -0.39105
vt 13.5734 15.3957
f 20/47/11 9/48/11 21/49/11

v 0.480623 0.54 -0.461988
vt 18.9222 18.1885
f 22/50/11 21/49/11 9/48/11

v 0.319563 0.54 -0.554976
vt 12.5812 21.8494
f 23/51/11 21/49/11 22/50/11

v 0.294363 0.54 -0.39105
vt 11.5891 15.3957
f 23/51/11 24/52/11 21/49/11

f 18/44/11 24/52/11 23/51/11

f 24/52/11 18/44/11 19/46/11

usemtl Green_leafs
vt -13.6594 19.7318
vn -0.992912 -0.118852 3.01173e-018
v 0.284787 0.62 -0.399429
vt -15.7256 22.9039
vt -15.3957 19.7318
f 19/53/12 25/54/12 24/55/12

v 0.284787 0.62 -0.338571
vt -13.3296 22.9039
f 25/54/12 19/53/12 26/56/12

vt 11.5891 19.7213
vn 5.4068e-018 -0.104168 0.99456
v 0.354339 0.62 -0.338571
vt 13.9504 22.8881
vt 11.2121 22.8881
f 19/57/13 27/58/13 26/59/13

vt 13.5734 19.7213
f 27/58/13 19/57/13 20/60/13

vt 13.6594 22.7224
vn 0.992912 -0.118852 3.01173e-018
v 0.354339 0.62 -0.399429
vt 15.7256 25.8945
vt 13.3296 25.8945
f 20/61/14 28/62/14 27/63/14

vt 15.3957 22.7224
f 28/62/14 20/61/14 21/64/14

vt -13.5734 22.7479
vn 5.78869e-019 -0.104168 -0.99456
vt -11.2121 25.9147
vt -13.9504 25.9147
f 21/65/15 25/66/15 28/67/15

vt -11.5891 22.7479
f 25/66/15 21/65/15 24/68/15

vt 11.2121 15.7256
vt 13.9504 13.3296
vt 13.9504 15.7256
f 25/69/11 27/70/11 28/71/11

vt 11.2121 13.3296
f 27/70/11 25/69/11 26/72/11

usemtl Fall_Leafs
v 0.319563 0.42 -0.7011
vt -24.6969 -1.40321
vn -0.344043 0.725628 -0.595901
vt -14.4985 5.4628
vt -21.8204 5.4628
f 29/73/16 18/74/16 23/75/16

vt -11.622 -1.40321
f 18/74/16 29/73/16 17/76/16

v 0.319563 0.17 -0.738
vt -25.4232 4.24606
vn -0.495965 0.126794 -0.859036
vt -11.622 14.1687
vt -24.6969 14.1687
f 30/77/17 17/78/17 29/79/17

vt -10.8957 4.24606
f 17/78/17 30/77/17 16/80/17

vt -24.065 5.47803
vn -0.471707 -0.331615 -0.817021
vt -10.8957 12.5724
vt -25.4232 12.5724
f 14/81/18 16/82/18 30/83/18

vt -12.2539 5.47803
f 16/82/18 14/81/18 15/84/18

vt 3.63189 16.7445
vn 0.471707 -0.331615 -0.817021
vt -9.5374 9.65015
vt 2.27362 9.65015
f 30/85/19 13/86/19 14/87/19

v 0.639127 0.17 -0.5535
vt -10.8957 16.7445
f 13/86/19 30/85/19 31/88/19

vt 2.90551 12.5734
vn 0.495965 0.126794 -0.859036
vt -10.8957 2.65084
vt 3.63189 2.65084
f 29/89/20 31/90/20 30/91/20

v 0.60717 0.42 -0.53505
vt -10.1693 12.5734
f 31/90/20 29/89/20 32/92/20

vt 2.90551 -10.5325
vn 0.344043 0.725628 -0.595901
vt -7.29283 -3.6665
vt -10.1693 -10.5325
f 29/93/21 22/94/21 32/95/21

vt 0.0290551 -3.6665
f 22/94/21 29/93/21 23/96/21

vt 18.1885 0.898151
vn 0.688087 0.725628 -8.29049e-018
vt 7.99016 -5.96786
vt 21.065 -5.96786
f 22/97/22 10/98/22 32/99/22

vt 10.8666 0.898151
f 10/98/22 22/97/22 9/100/22

vt 7.99016 13.3711
vn 0.991929 0.126794 2.08516e-018
vt 21.7913 3.44845
vt 21.065 13.3711
f 10/101/23 31/102/23 32/103/23

vt 7.26378 3.44845
f 31/102/23 10/101/23 11/104/23

vt 8.62205 7.56409
vn 0.943415 -0.331615 -7.61849e-018
vt 21.7913 14.6584
vt 7.26378 14.6584
f 12/105/24 31/106/24 11/107/24

vt 20.4331 7.56409
f 31/106/24 12/105/24 13/108/24

