# Alias OBJ Model File
# Exported from SketchUp, (c) 2000-2012 Trimble Navigation Limited
# File units = meters

mtllib naturePack_171.mtl

g Mesh1 Group1 Model

usemtl Stone
v 0.496579 0.18 -0
vt 16.9311 1.99087
vn -0.447663 -0.44541 0.775376
v 0.089547 0 -0.3384
vt -3.60827 -5.92425
v 0.496579 0 -0.1034
vt 14.8957 -5.92425
f 1/1/1 2/2/1 3/3/1

v 0 0.18 -0.2867
vt -5.6437 1.99087
f 2/2/1 1/1/1 4/4/1

v 0.496579 0.57 -0.0724778
vt 15.5044 24.1017
vn -0.493648 0.158898 0.855023
vt -5.6437 8.54983
vt 16.9311 8.54983
f 5/5/2 4/6/2 1/7/2

v 0.0627676 0.57 -0.322939
vt -4.21697 24.1017
f 4/6/2 5/5/2 6/8/2

vt 15.5044 24.9072
vn -0.373626 0.664541 0.647139
v 0.24063 0.77 -0.425628
vt -0.174097 35.4445
vt -4.21697 24.9072
f 5/9/3 7/10/3 6/11/3

v 0.496579 0.77 -0.277856
vt 11.4615 35.4445
f 7/10/3 5/9/3 8/12/3

v 0.93039 0.57 -0.322939
vt 38.0792 11.9152
vn 0.373626 0.664541 0.647139
vt 22.4007 22.4525
vt 18.3578 11.9152
f 9/13/4 8/14/4 5/15/4

v 0.752528 0.77 -0.425628
vt 34.0363 22.4525
f 8/14/4 9/13/4 10/16/4

v 0.93039 0.57 -0.823861
vt 32.4355 -7.5728
vn 0.747252 0.664541 -1.14428e-017
vt 16.757 2.9645
vt 12.7141 -7.5728
f 11/17/5 10/18/5 9/19/5

v 0.752528 0.77 -0.721172
vt 28.3926 2.9645
f 10/18/5 11/17/5 12/20/5

vt -15.5044 -14.0688
vn 0.373626 0.664541 -0.647139
v 0.496579 0.77 -0.868944
vt 0.174097 -3.5315
vt -11.4615 -3.5315
f 11/21/6 13/22/6 12/23/6

v 0.496579 0.57 -1.07432
vt 4.21697 -14.0688
f 13/22/6 11/21/6 14/24/6

v 0.993158 0.18 -0.8601
vt -16.9311 -0.769689
vn 0.493648 0.158898 -0.855023
vt 4.21697 14.7822
vt -15.5044 14.7822
f 15/25/7 14/26/7 11/27/7

v 0.496579 0.18 -1.1468
vt 5.6437 -0.769689
f 14/26/7 15/25/7 16/28/7

v 0.903611 0 -0.8084
vt -14.8957 20.1995
vn 0.447663 -0.44541 -0.775376
vt 5.6437 28.1147
vt -16.9311 28.1147
f 17/29/8 16/30/8 15/31/8

v 0.496579 0 -1.0434
vt 3.60827 20.1995
f 16/30/8 17/29/8 18/32/8

vt -19.5504 4.07087
vn 0 -1 -0
vt -19.5504 41.0787
vt -35.5752 31.8268
f 3/33/9 18/34/9 17/35/9

vt -3.52547 13.3228
f 2/36/9 18/34/9 3/33/9

v 0.089547 0 -0.8084
vt -3.52547 31.8268
f 18/34/9 2/36/9 19/37/9

vt -13.3228 -1.57028
vn -0.895327 -0.44541 -1.17014e-017
v 0 0.18 -0.8601
vt -33.8622 6.34483
vt -31.8268 -1.57028
f 2/38/10 20/39/10 19/40/10

vt -11.2874 6.34483
f 20/39/10 2/38/10 4/41/10

vt -12.7141 22.5485
vn -0.987295 0.158898 -1.79585e-018
vt -33.8622 6.99658
vt -11.2874 6.99658
f 6/42/11 20/43/11 4/44/11

v 0.0627676 0.57 -0.823861
vt -32.4355 22.5485
f 20/43/11 6/42/11 21/45/11

vt -16.757 28.9485
vn -0.747252 0.664541 8.81034e-018
vt -32.4355 18.4112
vt -12.7141 18.4112
f 7/46/12 21/47/12 6/48/12

v 0.24063 0.77 -0.721172
vt -28.3926 28.9485
f 21/47/12 7/46/12 22/49/12

vt 19.5504 10.9392
vn 0 1 -0
vt 9.47363 28.3926
vt 9.47363 16.757
f 8/50/13 22/51/13 7/52/13

vt 19.5504 34.2104
f 22/51/13 8/50/13 13/53/13

vt 29.6271 16.757
f 13/53/13 8/50/13 10/54/13

vt 29.6271 28.3926
f 13/53/13 10/54/13 12/55/13

vt -38.0792 -1.07679
vn -0.373626 0.664541 -0.647139
vt -22.4007 9.46051
vt -34.0363 9.46051
f 14/56/14 22/57/14 13/58/14

vt -18.3578 -1.07679
f 22/57/14 14/56/14 21/59/14

vt -39.5059 2.33682
vn -0.493648 0.158898 -0.855023
vt -18.3578 17.8887
vt -38.0792 17.8887
f 16/60/15 21/61/15 14/62/15

vt -16.9311 2.33682
f 21/61/15 16/60/15 20/63/15

vt -37.4705 11.4916
vn -0.447663 -0.44541 -0.775376
vt -16.9311 19.4067
vt -39.5059 19.4067
f 18/64/16 20/65/16 16/66/16

vt -18.9665 11.4916
f 20/65/16 18/64/16 19/67/16

v 0.903611 0 -0.3384
vt -35.5752 13.3228
f 3/33/9 17/35/9 23/68/9

vt 33.8622 23.7607
vn 0.895327 -0.44541 -4.23475e-018
vt 13.3228 15.8456
vt 31.8268 15.8456
f 15/69/17 23/70/17 17/71/17

v 0.993158 0.18 -0.2867
vt 11.2874 23.7607
f 23/70/17 15/69/17 24/72/17

vt 33.8622 0.783565
vn 0.987295 0.158898 -5.69943e-018
vt 12.7141 16.3355
vt 11.2874 0.783565
f 15/73/18 9/74/18 24/75/18

vt 32.4355 16.3355
f 9/74/18 15/73/18 11/76/18

vt 38.0792 20.9952
vn 0.493648 0.158898 0.855023
vt 16.9311 5.44333
vt 39.5059 5.44333
f 9/77/19 1/78/19 24/79/19

vt 18.3578 20.9952
f 1/78/19 9/77/19 5/80/19

vt 18.9665 2.78368
vn 0.447663 -0.44541 0.775376
vt 39.5059 10.6988
vt 16.9311 10.6988
f 3/81/20 24/82/20 1/83/20

vt 37.4705 2.78368
f 24/82/20 3/81/20 23/84/20

