# Alias OBJ Model File
# Exported from SketchUp, (c) 2000-2012 Trimble Navigation Limited
# File units = meters

mtllib naturePack_040.mtl

g Mesh1 Group1 Model

usemtl Green_leafs
v 0 0.61 -0.0854
vt -3.3622 24.0157
vn -1 0 -0
v 0 0 -0
vt 0 0
v 0 0.61 -0
vt 0 24.0157
f 1/1/1 2/2/1 3/3/1

v 0 0 -0.0854
vt -3.3622 0
f 2/2/1 1/1/1 4/4/1

vn 0 0 -1
v 0.0854 0 -0.0854
f 1/3/2 5/4/2 4/2/2

v 0.0854 0.61 -0.0854
f 5/4/2 1/3/2 6/1/2

vt 0 3.3622
vn 0 1 -0
v 0.0854 0.61 -0
vt 3.3622 0
vt 3.3622 3.3622
f 1/5/3 7/6/3 6/7/3

f 7/6/3 1/5/3 3/2/3

vn 0 0 1
vt 3.3622 24.0157
f 2/2/4 7/8/4 3/3/4

v 0.0854 0 -0
f 7/8/4 2/2/4 8/6/4

vn 0 -1 -0
vt -3.3622 3.3622
f 2/2/5 5/9/5 8/4/5

f 5/9/5 2/2/5 4/5/5

vn 1 0 -0
f 5/6/6 7/3/6 8/2/6

f 7/3/6 5/6/6 6/8/6

g Mesh2 Group1 Model

v -0.22 0.41 -0.0854
vt -3.3622 16.1417
v -0.22 0 -0
v -0.22 0.41 -0
vt 0 16.1417
f 9/10/1 10/2/1 11/11/1

v -0.22 0 -0.0854
f 10/2/1 9/10/1 12/4/1

vt 8.66142 16.1417
v -0.1346 0 -0.0854
vt 5.29921 0
vt 8.66142 0
f 9/12/2 13/13/2 12/14/2

v -0.1346 0.41 -0.0854
vt 5.29921 16.1417
f 13/13/2 9/12/2 14/15/2

vt -8.66142 3.3622
v -0.1346 0.41 -0
vt -5.29921 0
vt -5.29921 3.3622
f 9/16/3 15/17/3 14/18/3

vt -8.66142 0
f 15/17/3 9/16/3 11/19/3

vt -5.29921 16.1417
vt -8.66142 16.1417
f 10/19/4 15/20/4 11/21/4

v -0.1346 0 -0
f 15/20/4 10/19/4 16/17/4

vt 5.29921 3.3622
f 10/14/5 13/22/5 16/13/5

vt 8.66142 3.3622
f 13/22/5 10/14/5 12/23/5

f 13/6/6 15/11/6 16/2/6

vt 3.3622 16.1417
f 15/11/6 13/6/6 14/24/6

g Mesh3 Group1 Model

v -0.0290977 3.56729e-016 -0.289775
vt 11.4085 1.40445e-014
v -0.0290977 0.24 -0.204375
vt 8.04627 9.44882
v -0.0290977 3.56729e-016 -0.204375
vt 8.04627 1.40445e-014
f 17/25/6 18/26/6 19/27/6

v -0.0290977 0.24 -0.289775
vt 11.4085 9.44882
f 18/26/6 17/25/6 20/28/6

vt 1.14558 1.40445e-014
v -0.114498 0.24 -0.289775
vt 4.50778 9.44882
vt 1.14558 9.44882
f 17/29/2 21/30/2 20/31/2

v -0.114498 3.56729e-016 -0.289775
vt 4.50778 1.40445e-014
f 21/30/2 17/29/2 22/32/2

vt 1.14558 11.4085
v -0.114498 3.56729e-016 -0.204375
vt 4.50778 8.04627
vt 4.50778 11.4085
f 17/33/5 23/34/5 22/35/5

vt 1.14558 8.04627
f 23/34/5 17/33/5 19/36/5

vt -1.14558 9.44882
vt -4.50778 1.40445e-014
vt -1.14558 1.40445e-014
f 18/37/4 23/38/4 19/39/4

v -0.114498 0.24 -0.204375
vt -4.50778 9.44882
f 23/38/4 18/37/4 24/40/4

vt -1.14558 8.04627
vt -4.50778 11.4085
vt -4.50778 8.04627
f 18/41/3 21/42/3 24/43/3

vt -1.14558 11.4085
f 21/42/3 18/41/3 20/44/3

vt -11.4085 9.44882
vt -8.04627 1.40445e-014
vt -8.04627 9.44882
f 21/45/1 23/46/1 24/47/1

vt -11.4085 1.40445e-014
f 23/46/1 21/45/1 22/48/1

g Mesh4 Group1 Model

v 0.324807 3.60969e-016 -0.181833
vt 7.15878 1.42114e-014
v 0.324807 0.46 -0.096433
vt 3.79657 18.1102
v 0.324807 3.60969e-016 -0.096433
vt 3.79657 1.42114e-014
f 25/49/6 26/50/6 27/51/6

v 0.324807 0.46 -0.181833
vt 7.15878 18.1102
f 26/50/6 25/49/6 28/52/6

vt -12.7877 1.42114e-014
v 0.239407 0.46 -0.181833
vt -9.42547 18.1102
vt -12.7877 18.1102
f 25/53/2 29/54/2 28/55/2

v 0.239407 3.60969e-016 -0.181833
vt -9.42547 1.42114e-014
f 29/54/2 25/53/2 30/56/2

vt -12.7877 7.15878
v 0.239407 3.60969e-016 -0.096433
vt -9.42547 3.79657
vt -9.42547 7.15878
f 25/57/5 31/58/5 30/59/5

vt -12.7877 3.79657
f 31/58/5 25/57/5 27/60/5

vt 12.7877 18.1102
vt 9.42547 1.42114e-014
vt 12.7877 1.42114e-014
f 26/61/4 31/62/4 27/63/4

v 0.239407 0.46 -0.096433
vt 9.42547 18.1102
f 31/62/4 26/61/4 32/64/4

vt 12.7877 3.79657
vt 9.42547 7.15878
vt 9.42547 3.79657
f 26/65/3 29/66/3 32/67/3

vt 12.7877 7.15878
f 29/66/3 26/65/3 28/68/3

vt -7.15878 18.1102
vt -3.79657 1.42114e-014
vt -3.79657 18.1102
f 29/69/1 31/70/1 32/71/1

vt -7.15878 1.42114e-014
f 31/70/1 29/69/1 30/72/1

g Mesh5 Group1 Model

v 0.21015 3.60955e-016 0.082759
vt -3.25823 1.42108e-014
v 0.21015 0.25 0.168159
vt -6.62043 9.84252
v 0.21015 3.60955e-016 0.168159
vt -6.62043 1.42108e-014
f 33/73/6 34/74/6 35/75/6

v 0.21015 0.25 0.082759
vt -3.25823 9.84252
f 34/74/6 33/73/6 36/76/6

vt -8.27361 1.42108e-014
v 0.12475 0.25 0.082759
vt -4.91141 9.84252
vt -8.27361 9.84252
f 33/77/2 37/78/2 36/79/2

v 0.12475 3.60955e-016 0.082759
vt -4.91141 1.42108e-014
f 37/78/2 33/77/2 38/80/2

vt -8.27361 -3.25823
v 0.12475 3.60955e-016 0.168159
vt -4.91141 -6.62043
vt -4.91141 -3.25823
f 33/81/5 39/82/5 38/83/5

vt -8.27361 -6.62043
f 39/82/5 33/81/5 35/84/5

vt 8.27361 9.84252
vt 4.91141 1.42108e-014
vt 8.27361 1.42108e-014
f 34/85/4 39/86/4 35/87/4

v 0.12475 0.25 0.168159
vt 4.91141 9.84252
f 39/86/4 34/85/4 40/88/4

vt 8.27361 -6.62043
vt 4.91141 -3.25823
vt 4.91141 -6.62043
f 34/89/3 37/90/3 40/91/3

vt 8.27361 -3.25823
f 37/90/3 34/89/3 36/92/3

vt 3.25823 9.84252
vt 6.62043 1.42108e-014
vt 6.62043 9.84252
f 37/93/1 39/94/1 40/95/1

vt 3.25823 1.42108e-014
f 39/94/1 37/93/1 38/96/1

